<?xml version="1.0" encoding="UTF-8"?>
<svg xmlns="http://www.w3.org/2000/svg" xmlns:xlink="http://www.w3.org/1999/xlink" width="864pt" height="432pt" viewBox="0 0 864 432">
<defs>
<g>
<g id="glyph-0-0">
<path d="M 0.359375 0 L 0.359375 -8.03125 L 6.734375 -8.03125 L 6.734375 0 Z M 5.734375 -1 L 5.734375 -7.03125 L 1.375 -7.03125 L 1.375 -1 Z M 5.734375 -1 "/>
</g>
<g id="glyph-0-1">
<path d="M 3.03125 -7.828125 C 4.039062 -7.828125 4.773438 -7.410156 5.234375 -6.578125 C 5.578125 -5.929688 5.75 -5.046875 5.75 -3.921875 C 5.75 -2.859375 5.59375 -1.976562 5.28125 -1.28125 C 4.820312 -0.28125 4.070312 0.21875 3.03125 0.21875 C 2.082031 0.21875 1.378906 -0.191406 0.921875 -1.015625 C 0.535156 -1.691406 0.34375 -2.609375 0.34375 -3.765625 C 0.34375 -4.648438 0.457031 -5.410156 0.6875 -6.046875 C 1.125 -7.234375 1.90625 -7.828125 3.03125 -7.828125 Z M 3.015625 -0.6875 C 3.523438 -0.6875 3.929688 -0.910156 4.234375 -1.359375 C 4.535156 -1.816406 4.6875 -2.660156 4.6875 -3.890625 C 4.6875 -4.773438 4.578125 -5.503906 4.359375 -6.078125 C 4.140625 -6.660156 3.71875 -6.953125 3.09375 -6.953125 C 2.507812 -6.953125 2.082031 -6.675781 1.8125 -6.125 C 1.550781 -5.582031 1.421875 -4.78125 1.421875 -3.71875 C 1.421875 -2.914062 1.503906 -2.273438 1.671875 -1.796875 C 1.929688 -1.054688 2.378906 -0.6875 3.015625 -0.6875 Z M 3.015625 -0.6875 "/>
</g>
<g id="glyph-0-2">
<path d="M 7.640625 -3.8125 C 8.160156 -3.8125 8.609375 -3.625 8.984375 -3.25 C 9.359375 -2.875 9.546875 -2.425781 9.546875 -1.90625 C 9.546875 -1.375 9.359375 -0.921875 8.984375 -0.546875 C 8.609375 -0.179688 8.160156 0 7.640625 0 C 7.109375 0 6.65625 -0.179688 6.28125 -0.546875 C 5.914062 -0.921875 5.734375 -1.375 5.734375 -1.90625 C 5.734375 -2.425781 5.914062 -2.875 6.28125 -3.25 C 6.65625 -3.625 7.109375 -3.8125 7.640625 -3.8125 Z M 6.84375 -7.796875 L 7.453125 -7.796875 L 3.0625 0.203125 L 2.46875 0.203125 Z M 2.265625 -4.5625 C 2.578125 -4.5625 2.84375 -4.671875 3.0625 -4.890625 C 3.28125 -5.109375 3.390625 -5.375 3.390625 -5.6875 C 3.390625 -6 3.28125 -6.265625 3.0625 -6.484375 C 2.84375 -6.703125 2.578125 -6.8125 2.265625 -6.8125 C 1.953125 -6.8125 1.6875 -6.703125 1.46875 -6.484375 C 1.25 -6.265625 1.140625 -6 1.140625 -5.6875 C 1.140625 -5.375 1.25 -5.109375 1.46875 -4.890625 C 1.6875 -4.671875 1.953125 -4.5625 2.265625 -4.5625 Z M 2.265625 -7.59375 C 2.796875 -7.59375 3.242188 -7.40625 3.609375 -7.03125 C 3.984375 -6.664062 4.171875 -6.21875 4.171875 -5.6875 C 4.171875 -5.164062 3.984375 -4.71875 3.609375 -4.34375 C 3.242188 -3.96875 2.796875 -3.78125 2.265625 -3.78125 C 1.742188 -3.78125 1.296875 -3.96875 0.921875 -4.34375 C 0.546875 -4.71875 0.359375 -5.164062 0.359375 -5.6875 C 0.359375 -6.21875 0.546875 -6.664062 0.921875 -7.03125 C 1.296875 -7.40625 1.742188 -7.59375 2.265625 -7.59375 Z M 7.640625 -0.78125 C 7.941406 -0.78125 8.203125 -0.890625 8.421875 -1.109375 C 8.648438 -1.328125 8.765625 -1.59375 8.765625 -1.90625 C 8.765625 -2.21875 8.648438 -2.484375 8.421875 -2.703125 C 8.203125 -2.921875 7.941406 -3.03125 7.640625 -3.03125 C 7.328125 -3.03125 7.054688 -2.921875 6.828125 -2.703125 C 6.609375 -2.484375 6.5 -2.21875 6.5 -1.90625 C 6.5 -1.59375 6.609375 -1.328125 6.828125 -1.109375 C 7.054688 -0.890625 7.328125 -0.78125 7.640625 -0.78125 Z M 7.640625 -0.78125 "/>
</g>
<g id="glyph-0-3">
<path d="M 0.34375 0 C 0.382812 -0.675781 0.523438 -1.265625 0.765625 -1.765625 C 1.003906 -2.265625 1.476562 -2.71875 2.1875 -3.125 L 3.234375 -3.734375 C 3.703125 -4.003906 4.035156 -4.238281 4.234375 -4.4375 C 4.523438 -4.738281 4.671875 -5.082031 4.671875 -5.46875 C 4.671875 -5.925781 4.535156 -6.285156 4.265625 -6.546875 C 3.992188 -6.816406 3.628906 -6.953125 3.171875 -6.953125 C 2.492188 -6.953125 2.023438 -6.695312 1.765625 -6.1875 C 1.628906 -5.914062 1.554688 -5.535156 1.546875 -5.046875 L 0.546875 -5.046875 C 0.554688 -5.734375 0.679688 -6.289062 0.921875 -6.71875 C 1.347656 -7.476562 2.097656 -7.859375 3.171875 -7.859375 C 4.078125 -7.859375 4.734375 -7.613281 5.140625 -7.125 C 5.554688 -6.644531 5.765625 -6.109375 5.765625 -5.515625 C 5.765625 -4.890625 5.546875 -4.351562 5.109375 -3.90625 C 4.847656 -3.644531 4.390625 -3.332031 3.734375 -2.96875 L 2.984375 -2.546875 C 2.617188 -2.347656 2.335938 -2.160156 2.140625 -1.984375 C 1.773438 -1.671875 1.546875 -1.320312 1.453125 -0.9375 L 5.734375 -0.9375 L 5.734375 0 Z M 0.34375 0 "/>
</g>
<g id="glyph-0-4">
<path d="M 1.390625 -2 C 1.453125 -1.4375 1.710938 -1.046875 2.171875 -0.828125 C 2.398438 -0.722656 2.664062 -0.671875 2.96875 -0.671875 C 3.550781 -0.671875 3.984375 -0.851562 4.265625 -1.21875 C 4.546875 -1.59375 4.6875 -2.007812 4.6875 -2.46875 C 4.6875 -3.007812 4.519531 -3.425781 4.1875 -3.71875 C 3.851562 -4.019531 3.457031 -4.171875 3 -4.171875 C 2.65625 -4.171875 2.359375 -4.101562 2.109375 -3.96875 C 1.867188 -3.84375 1.664062 -3.664062 1.5 -3.4375 L 0.640625 -3.484375 L 1.234375 -7.703125 L 5.3125 -7.703125 L 5.3125 -6.75 L 1.984375 -6.75 L 1.640625 -4.578125 C 1.828125 -4.710938 2.003906 -4.816406 2.171875 -4.890625 C 2.460938 -5.003906 2.796875 -5.0625 3.171875 -5.0625 C 3.890625 -5.0625 4.5 -4.828125 5 -4.359375 C 5.5 -3.898438 5.75 -3.316406 5.75 -2.609375 C 5.75 -1.867188 5.519531 -1.210938 5.0625 -0.640625 C 4.601562 -0.078125 3.875 0.203125 2.875 0.203125 C 2.238281 0.203125 1.675781 0.0234375 1.1875 -0.328125 C 0.695312 -0.691406 0.421875 -1.25 0.359375 -2 Z M 1.390625 -2 "/>
</g>
<g id="glyph-0-5">
<path d="M 5.859375 -7.703125 L 5.859375 -6.84375 C 5.609375 -6.601562 5.273438 -6.175781 4.859375 -5.5625 C 4.441406 -4.957031 4.070312 -4.304688 3.75 -3.609375 C 3.425781 -2.929688 3.1875 -2.3125 3.03125 -1.75 C 2.914062 -1.382812 2.773438 -0.800781 2.609375 0 L 1.53125 0 C 1.769531 -1.5 2.316406 -2.988281 3.171875 -4.46875 C 3.671875 -5.332031 4.195312 -6.082031 4.75 -6.71875 L 0.40625 -6.71875 L 0.40625 -7.703125 Z M 5.859375 -7.703125 "/>
</g>
<g id="glyph-0-6">
<path d="M 1.078125 -5.546875 L 1.078125 -6.296875 C 1.785156 -6.367188 2.28125 -6.484375 2.5625 -6.640625 C 2.84375 -6.804688 3.050781 -7.191406 3.1875 -7.796875 L 3.96875 -7.796875 L 3.96875 0 L 2.921875 0 L 2.921875 -5.546875 Z M 1.078125 -5.546875 "/>
</g>
<g id="glyph-0-7">
<path d="M 3.046875 -4.546875 C 3.484375 -4.546875 3.820312 -4.664062 4.0625 -4.90625 C 4.3125 -5.15625 4.4375 -5.445312 4.4375 -5.78125 C 4.4375 -6.070312 4.316406 -6.335938 4.078125 -6.578125 C 3.847656 -6.828125 3.492188 -6.953125 3.015625 -6.953125 C 2.535156 -6.953125 2.191406 -6.828125 1.984375 -6.578125 C 1.773438 -6.335938 1.671875 -6.054688 1.671875 -5.734375 C 1.671875 -5.359375 1.804688 -5.066406 2.078125 -4.859375 C 2.347656 -4.648438 2.671875 -4.546875 3.046875 -4.546875 Z M 3.109375 -0.671875 C 3.566406 -0.671875 3.941406 -0.789062 4.234375 -1.03125 C 4.535156 -1.28125 4.6875 -1.648438 4.6875 -2.140625 C 4.6875 -2.648438 4.53125 -3.035156 4.21875 -3.296875 C 3.914062 -3.554688 3.519531 -3.6875 3.03125 -3.6875 C 2.5625 -3.6875 2.175781 -3.550781 1.875 -3.28125 C 1.582031 -3.019531 1.4375 -2.648438 1.4375 -2.171875 C 1.4375 -1.765625 1.570312 -1.410156 1.84375 -1.109375 C 2.113281 -0.816406 2.535156 -0.671875 3.109375 -0.671875 Z M 1.703125 -4.171875 C 1.429688 -4.285156 1.21875 -4.421875 1.0625 -4.578125 C 0.78125 -4.867188 0.640625 -5.25 0.640625 -5.71875 C 0.640625 -6.300781 0.847656 -6.800781 1.265625 -7.21875 C 1.691406 -7.644531 2.289062 -7.859375 3.0625 -7.859375 C 3.820312 -7.859375 4.410156 -7.660156 4.828125 -7.265625 C 5.253906 -6.867188 5.46875 -6.40625 5.46875 -5.875 C 5.46875 -5.382812 5.347656 -4.988281 5.109375 -4.6875 C 4.960938 -4.519531 4.742188 -4.351562 4.453125 -4.1875 C 4.773438 -4.03125 5.03125 -3.859375 5.21875 -3.671875 C 5.570312 -3.304688 5.75 -2.832031 5.75 -2.25 C 5.75 -1.5625 5.515625 -0.976562 5.046875 -0.5 C 4.585938 -0.0195312 3.929688 0.21875 3.078125 0.21875 C 2.316406 0.21875 1.671875 0.0117188 1.140625 -0.390625 C 0.617188 -0.804688 0.359375 -1.410156 0.359375 -2.203125 C 0.359375 -2.660156 0.472656 -3.054688 0.703125 -3.390625 C 0.929688 -3.734375 1.265625 -3.992188 1.703125 -4.171875 Z M 1.703125 -4.171875 "/>
</g>
<g id="glyph-0-8">
<path d="M 0.96875 -6.75 C 0.976562 -7.15625 1.050781 -7.453125 1.1875 -7.640625 C 1.414062 -7.984375 1.859375 -8.15625 2.515625 -8.15625 C 2.578125 -8.15625 2.640625 -8.148438 2.703125 -8.140625 C 2.765625 -8.140625 2.835938 -8.132812 2.921875 -8.125 L 2.921875 -7.234375 C 2.816406 -7.242188 2.742188 -7.25 2.703125 -7.25 C 2.660156 -7.25 2.617188 -7.25 2.578125 -7.25 C 2.273438 -7.25 2.09375 -7.171875 2.03125 -7.015625 C 1.976562 -6.859375 1.953125 -6.460938 1.953125 -5.828125 L 2.921875 -5.828125 L 2.921875 -5.046875 L 1.9375 -5.046875 L 1.9375 0 L 0.96875 0 L 0.96875 -5.046875 L 0.15625 -5.046875 L 0.15625 -5.828125 L 0.96875 -5.828125 Z M 0.96875 -6.75 "/>
</g>
<g id="glyph-0-9">
<path d="M 3.15625 -5.984375 C 3.570312 -5.984375 3.972656 -5.882812 4.359375 -5.6875 C 4.753906 -5.5 5.054688 -5.25 5.265625 -4.9375 C 5.460938 -4.644531 5.59375 -4.300781 5.65625 -3.90625 C 5.71875 -3.632812 5.75 -3.203125 5.75 -2.609375 L 1.453125 -2.609375 C 1.472656 -2.015625 1.613281 -1.535156 1.875 -1.171875 C 2.132812 -0.816406 2.539062 -0.640625 3.09375 -0.640625 C 3.601562 -0.640625 4.015625 -0.8125 4.328125 -1.15625 C 4.492188 -1.351562 4.613281 -1.582031 4.6875 -1.84375 L 5.65625 -1.84375 C 5.632812 -1.625 5.550781 -1.378906 5.40625 -1.109375 C 5.257812 -0.847656 5.097656 -0.632812 4.921875 -0.46875 C 4.617188 -0.175781 4.25 0.0195312 3.8125 0.125 C 3.570312 0.175781 3.304688 0.203125 3.015625 0.203125 C 2.285156 0.203125 1.664062 -0.0625 1.15625 -0.59375 C 0.644531 -1.125 0.390625 -1.863281 0.390625 -2.8125 C 0.390625 -3.757812 0.644531 -4.523438 1.15625 -5.109375 C 1.664062 -5.691406 2.332031 -5.984375 3.15625 -5.984375 Z M 4.734375 -3.390625 C 4.691406 -3.816406 4.597656 -4.160156 4.453125 -4.421875 C 4.179688 -4.890625 3.734375 -5.125 3.109375 -5.125 C 2.648438 -5.125 2.265625 -4.960938 1.953125 -4.640625 C 1.648438 -4.316406 1.492188 -3.898438 1.484375 -3.390625 Z M 3.0625 -6 Z M 3.0625 -6 "/>
</g>
<g id="glyph-0-10">
<path d="M 0.71875 -5.859375 L 1.703125 -5.859375 L 1.703125 -5.03125 C 1.929688 -5.3125 2.140625 -5.519531 2.328125 -5.65625 C 2.648438 -5.875 3.019531 -5.984375 3.4375 -5.984375 C 3.90625 -5.984375 4.28125 -5.867188 4.5625 -5.640625 C 4.71875 -5.515625 4.863281 -5.320312 5 -5.0625 C 5.21875 -5.375 5.472656 -5.601562 5.765625 -5.75 C 6.066406 -5.90625 6.398438 -5.984375 6.765625 -5.984375 C 7.554688 -5.984375 8.09375 -5.703125 8.375 -5.140625 C 8.53125 -4.828125 8.609375 -4.414062 8.609375 -3.90625 L 8.609375 0 L 7.578125 0 L 7.578125 -4.0625 C 7.578125 -4.457031 7.476562 -4.726562 7.28125 -4.875 C 7.09375 -5.019531 6.859375 -5.09375 6.578125 -5.09375 C 6.191406 -5.09375 5.859375 -4.960938 5.578125 -4.703125 C 5.296875 -4.441406 5.15625 -4.007812 5.15625 -3.40625 L 5.15625 0 L 4.15625 0 L 4.15625 -3.828125 C 4.15625 -4.222656 4.109375 -4.507812 4.015625 -4.6875 C 3.867188 -4.96875 3.585938 -5.109375 3.171875 -5.109375 C 2.804688 -5.109375 2.46875 -4.960938 2.15625 -4.671875 C 1.851562 -4.378906 1.703125 -3.859375 1.703125 -3.109375 L 1.703125 0 L 0.71875 0 Z M 0.71875 -5.859375 "/>
</g>
<g id="glyph-0-11">
<path d="M 1.484375 -1.5625 C 1.484375 -1.269531 1.582031 -1.039062 1.78125 -0.875 C 1.988281 -0.71875 2.238281 -0.640625 2.53125 -0.640625 C 2.875 -0.640625 3.207031 -0.71875 3.53125 -0.875 C 4.082031 -1.144531 4.359375 -1.582031 4.359375 -2.1875 L 4.359375 -2.984375 C 4.234375 -2.898438 4.078125 -2.832031 3.890625 -2.78125 C 3.703125 -2.738281 3.515625 -2.707031 3.328125 -2.6875 L 2.734375 -2.609375 C 2.378906 -2.554688 2.113281 -2.476562 1.9375 -2.375 C 1.632812 -2.207031 1.484375 -1.9375 1.484375 -1.5625 Z M 3.859375 -3.546875 C 4.085938 -3.578125 4.238281 -3.671875 4.3125 -3.828125 C 4.351562 -3.921875 4.375 -4.050781 4.375 -4.21875 C 4.375 -4.550781 4.253906 -4.789062 4.015625 -4.9375 C 3.785156 -5.09375 3.445312 -5.171875 3 -5.171875 C 2.476562 -5.171875 2.113281 -5.03125 1.90625 -4.75 C 1.78125 -4.601562 1.703125 -4.375 1.671875 -4.0625 L 0.75 -4.0625 C 0.769531 -4.789062 1.003906 -5.296875 1.453125 -5.578125 C 1.898438 -5.859375 2.421875 -6 3.015625 -6 C 3.703125 -6 4.265625 -5.867188 4.703125 -5.609375 C 5.128906 -5.347656 5.34375 -4.9375 5.34375 -4.375 L 5.34375 -1 C 5.34375 -0.90625 5.363281 -0.828125 5.40625 -0.765625 C 5.445312 -0.703125 5.535156 -0.671875 5.671875 -0.671875 C 5.710938 -0.671875 5.757812 -0.671875 5.8125 -0.671875 C 5.863281 -0.679688 5.921875 -0.691406 5.984375 -0.703125 L 5.984375 0.03125 C 5.835938 0.0703125 5.722656 0.0976562 5.640625 0.109375 C 5.554688 0.117188 5.445312 0.125 5.3125 0.125 C 4.96875 0.125 4.722656 0.00390625 4.578125 -0.234375 C 4.492188 -0.359375 4.4375 -0.539062 4.40625 -0.78125 C 4.207031 -0.519531 3.914062 -0.289062 3.53125 -0.09375 C 3.15625 0.101562 2.742188 0.203125 2.296875 0.203125 C 1.753906 0.203125 1.3125 0.0351562 0.96875 -0.296875 C 0.625 -0.628906 0.453125 -1.039062 0.453125 -1.53125 C 0.453125 -2.082031 0.617188 -2.503906 0.953125 -2.796875 C 1.296875 -3.097656 1.742188 -3.285156 2.296875 -3.359375 Z M 3.046875 -6 Z M 3.046875 -6 "/>
</g>
<g id="glyph-0-12">
<path d="M 0.75 -8.03125 L 1.734375 -8.03125 L 1.734375 0 L 0.75 0 Z M 0.75 -8.03125 "/>
</g>
<g id="glyph-1-0">
<path d="M 0.453125 0 L 0.453125 -10.046875 L 8.421875 -10.046875 L 8.421875 0 Z M 7.171875 -1.265625 L 7.171875 -8.78125 L 1.703125 -8.78125 L 1.703125 -1.265625 Z M 7.171875 -1.265625 "/>
</g>
<g id="glyph-1-1">
<path d="M 1.203125 -10.046875 L 8.15625 -10.046875 L 8.15625 -8.8125 L 2.5625 -8.8125 L 2.5625 -5.765625 L 7.484375 -5.765625 L 7.484375 -4.5625 L 2.5625 -4.5625 L 2.5625 0 L 1.203125 0 Z M 1.203125 -10.046875 "/>
</g>
<g id="glyph-1-2">
<path d="M 0.9375 -10.046875 L 2.171875 -10.046875 L 2.171875 0 L 0.9375 0 Z M 0.9375 -10.046875 "/>
</g>
<g id="glyph-1-3">
<path d="M 0.90625 -7.28125 L 2.15625 -7.28125 L 2.15625 0 L 0.90625 0 Z M 0.90625 -10.046875 L 2.15625 -10.046875 L 2.15625 -8.640625 L 0.90625 -8.640625 Z M 0.90625 -10.046875 "/>
</g>
<g id="glyph-1-4">
<path d="M 4 -0.828125 C 4.570312 -0.828125 5.046875 -1.066406 5.421875 -1.546875 C 5.804688 -2.023438 6 -2.742188 6 -3.703125 C 6 -4.285156 5.914062 -4.785156 5.75 -5.203125 C 5.425781 -6.015625 4.84375 -6.421875 4 -6.421875 C 3.144531 -6.421875 2.5625 -5.992188 2.25 -5.140625 C 2.070312 -4.679688 1.984375 -4.101562 1.984375 -3.40625 C 1.984375 -2.84375 2.070312 -2.363281 2.25 -1.96875 C 2.5625 -1.207031 3.144531 -0.828125 4 -0.828125 Z M 0.8125 -7.28125 L 2 -7.28125 L 2 -6.3125 C 2.25 -6.644531 2.519531 -6.90625 2.8125 -7.09375 C 3.226562 -7.363281 3.710938 -7.5 4.265625 -7.5 C 5.097656 -7.5 5.800781 -7.179688 6.375 -6.546875 C 6.957031 -5.910156 7.25 -5.003906 7.25 -3.828125 C 7.25 -2.222656 6.832031 -1.082031 6 -0.40625 C 5.46875 0.0273438 4.851562 0.25 4.15625 0.25 C 3.601562 0.25 3.140625 0.128906 2.765625 -0.109375 C 2.546875 -0.253906 2.300781 -0.492188 2.03125 -0.828125 L 2.03125 2.921875 L 0.8125 2.921875 Z M 0.8125 -7.28125 "/>
</g>
<g id="glyph-1-5">
<path d="M 3.953125 -7.484375 C 4.472656 -7.484375 4.972656 -7.359375 5.453125 -7.109375 C 5.941406 -6.867188 6.316406 -6.554688 6.578125 -6.171875 C 6.828125 -5.804688 6.988281 -5.375 7.0625 -4.875 C 7.132812 -4.539062 7.171875 -4.003906 7.171875 -3.265625 L 1.8125 -3.265625 C 1.832031 -2.523438 2.003906 -1.929688 2.328125 -1.484375 C 2.660156 -1.035156 3.171875 -0.8125 3.859375 -0.8125 C 4.503906 -0.8125 5.019531 -1.019531 5.40625 -1.4375 C 5.625 -1.6875 5.773438 -1.972656 5.859375 -2.296875 L 7.078125 -2.296875 C 7.046875 -2.023438 6.9375 -1.722656 6.75 -1.390625 C 6.570312 -1.066406 6.375 -0.800781 6.15625 -0.59375 C 5.78125 -0.226562 5.316406 0.0195312 4.765625 0.15625 C 4.472656 0.226562 4.140625 0.265625 3.765625 0.265625 C 2.847656 0.265625 2.070312 -0.0664062 1.4375 -0.734375 C 0.8125 -1.398438 0.5 -2.328125 0.5 -3.515625 C 0.5 -4.691406 0.816406 -5.644531 1.453125 -6.375 C 2.085938 -7.113281 2.921875 -7.484375 3.953125 -7.484375 Z M 5.90625 -4.25 C 5.863281 -4.78125 5.75 -5.207031 5.5625 -5.53125 C 5.226562 -6.113281 4.664062 -6.40625 3.875 -6.40625 C 3.3125 -6.40625 2.835938 -6.203125 2.453125 -5.796875 C 2.066406 -5.390625 1.863281 -4.875 1.84375 -4.25 Z M 3.828125 -7.5 Z M 3.828125 -7.5 "/>
</g>
<g id="glyph-1-6">
<path d="M 0.9375 -7.328125 L 2.109375 -7.328125 L 2.109375 -6.0625 C 2.203125 -6.300781 2.4375 -6.597656 2.8125 -6.953125 C 3.1875 -7.304688 3.617188 -7.484375 4.109375 -7.484375 C 4.128906 -7.484375 4.164062 -7.476562 4.21875 -7.46875 C 4.269531 -7.46875 4.363281 -7.460938 4.5 -7.453125 L 4.5 -6.15625 C 4.425781 -6.164062 4.359375 -6.171875 4.296875 -6.171875 C 4.234375 -6.179688 4.164062 -6.1875 4.09375 -6.1875 C 3.476562 -6.1875 3.003906 -5.984375 2.671875 -5.578125 C 2.335938 -5.179688 2.171875 -4.726562 2.171875 -4.21875 L 2.171875 0 L 0.9375 0 Z M 0.9375 -7.328125 "/>
</g>
<g id="glyph-1-7">
</g>
<g id="glyph-1-8">
<path d="M 0.90625 -7.328125 L 2.078125 -7.328125 L 2.078125 -6.28125 C 2.421875 -6.707031 2.785156 -7.015625 3.171875 -7.203125 C 3.554688 -7.390625 3.988281 -7.484375 4.46875 -7.484375 C 5.5 -7.484375 6.195312 -7.125 6.5625 -6.40625 C 6.769531 -6 6.875 -5.429688 6.875 -4.703125 L 6.875 0 L 5.625 0 L 5.625 -4.609375 C 5.625 -5.054688 5.554688 -5.414062 5.421875 -5.6875 C 5.203125 -6.144531 4.804688 -6.375 4.234375 -6.375 C 3.941406 -6.375 3.703125 -6.347656 3.515625 -6.296875 C 3.179688 -6.191406 2.882812 -5.988281 2.625 -5.6875 C 2.414062 -5.445312 2.28125 -5.195312 2.21875 -4.9375 C 2.164062 -4.675781 2.140625 -4.304688 2.140625 -3.828125 L 2.140625 0 L 0.90625 0 Z M 3.796875 -7.5 Z M 3.796875 -7.5 "/>
</g>
<g id="glyph-1-9">
<path d="M 3.484375 -7.453125 C 4.054688 -7.453125 4.554688 -7.3125 4.984375 -7.03125 C 5.222656 -6.863281 5.460938 -6.628906 5.703125 -6.328125 L 5.703125 -7.25 L 6.84375 -7.25 L 6.84375 -0.59375 C 6.84375 0.332031 6.703125 1.066406 6.421875 1.609375 C 5.910156 2.597656 4.945312 3.09375 3.53125 3.09375 C 2.75 3.09375 2.085938 2.914062 1.546875 2.5625 C 1.003906 2.207031 0.703125 1.65625 0.640625 0.90625 L 1.890625 0.90625 C 1.953125 1.238281 2.070312 1.492188 2.25 1.671875 C 2.53125 1.941406 2.96875 2.078125 3.5625 2.078125 C 4.507812 2.078125 5.128906 1.742188 5.421875 1.078125 C 5.585938 0.691406 5.664062 -0.00390625 5.65625 -1.015625 C 5.40625 -0.640625 5.109375 -0.359375 4.765625 -0.171875 C 4.421875 0.00390625 3.960938 0.09375 3.390625 0.09375 C 2.597656 0.09375 1.90625 -0.1875 1.3125 -0.75 C 0.71875 -1.3125 0.421875 -2.242188 0.421875 -3.546875 C 0.421875 -4.773438 0.71875 -5.734375 1.3125 -6.421875 C 1.914062 -7.109375 2.640625 -7.453125 3.484375 -7.453125 Z M 5.703125 -3.6875 C 5.703125 -4.59375 5.515625 -5.265625 5.140625 -5.703125 C 4.765625 -6.140625 4.289062 -6.359375 3.71875 -6.359375 C 2.84375 -6.359375 2.25 -5.953125 1.9375 -5.140625 C 1.769531 -4.710938 1.6875 -4.148438 1.6875 -3.453125 C 1.6875 -2.617188 1.851562 -1.988281 2.1875 -1.5625 C 2.519531 -1.132812 2.96875 -0.921875 3.53125 -0.921875 C 4.414062 -0.921875 5.039062 -1.316406 5.40625 -2.109375 C 5.601562 -2.566406 5.703125 -3.09375 5.703125 -3.6875 Z M 3.625 -7.5 Z M 3.625 -7.5 "/>
</g>
<g id="glyph-1-10">
<path d="M 1.15625 -9.359375 L 2.390625 -9.359375 L 2.390625 -7.328125 L 3.5625 -7.328125 L 3.5625 -6.3125 L 2.390625 -6.3125 L 2.390625 -1.53125 C 2.390625 -1.28125 2.476562 -1.113281 2.65625 -1.03125 C 2.75 -0.976562 2.90625 -0.953125 3.125 -0.953125 C 3.1875 -0.953125 3.25 -0.953125 3.3125 -0.953125 C 3.382812 -0.953125 3.46875 -0.957031 3.5625 -0.96875 L 3.5625 0 C 3.414062 0.0390625 3.265625 0.0664062 3.109375 0.078125 C 2.960938 0.0976562 2.800781 0.109375 2.625 0.109375 C 2.050781 0.109375 1.660156 -0.0351562 1.453125 -0.328125 C 1.253906 -0.617188 1.15625 -1 1.15625 -1.46875 L 1.15625 -6.3125 L 0.15625 -6.3125 L 0.15625 -7.328125 L 1.15625 -7.328125 Z M 1.15625 -9.359375 "/>
</g>
<g id="glyph-1-11">
<path d="M 0.90625 -10.078125 L 2.140625 -10.078125 L 2.140625 -6.328125 C 2.429688 -6.703125 2.691406 -6.960938 2.921875 -7.109375 C 3.316406 -7.367188 3.8125 -7.5 4.40625 -7.5 C 5.46875 -7.5 6.1875 -7.128906 6.5625 -6.390625 C 6.769531 -5.984375 6.875 -5.421875 6.875 -4.703125 L 6.875 0 L 5.609375 0 L 5.609375 -4.609375 C 5.609375 -5.148438 5.539062 -5.546875 5.40625 -5.796875 C 5.175781 -6.203125 4.753906 -6.40625 4.140625 -6.40625 C 3.628906 -6.40625 3.164062 -6.226562 2.75 -5.875 C 2.34375 -5.519531 2.140625 -4.859375 2.140625 -3.890625 L 2.140625 0 L 0.90625 0 Z M 0.90625 -10.078125 "/>
</g>
<g id="glyph-1-12">
<path d="M 4.140625 -10.203125 C 3.421875 -8.816406 2.957031 -7.796875 2.75 -7.140625 C 2.425781 -6.140625 2.265625 -4.984375 2.265625 -3.671875 C 2.265625 -2.359375 2.445312 -1.15625 2.8125 -0.0625 C 3.039062 0.613281 3.488281 1.585938 4.15625 2.859375 L 3.34375 2.859375 C 2.675781 1.816406 2.257812 1.148438 2.09375 0.859375 C 1.9375 0.578125 1.765625 0.191406 1.578125 -0.296875 C 1.328125 -0.972656 1.148438 -1.695312 1.046875 -2.46875 C 0.992188 -2.863281 0.96875 -3.238281 0.96875 -3.59375 C 0.96875 -4.945312 1.179688 -6.148438 1.609375 -7.203125 C 1.878906 -7.867188 2.4375 -8.867188 3.28125 -10.203125 Z M 4.140625 -10.203125 "/>
</g>
<g id="glyph-1-13">
<path d="M 0.90625 -7.328125 L 2.125 -7.328125 L 2.125 -6.28125 C 2.414062 -6.644531 2.675781 -6.90625 2.90625 -7.0625 C 3.3125 -7.34375 3.773438 -7.484375 4.296875 -7.484375 C 4.878906 -7.484375 5.347656 -7.34375 5.703125 -7.0625 C 5.898438 -6.894531 6.082031 -6.648438 6.25 -6.328125 C 6.519531 -6.722656 6.835938 -7.015625 7.203125 -7.203125 C 7.578125 -7.390625 7.992188 -7.484375 8.453125 -7.484375 C 9.441406 -7.484375 10.113281 -7.128906 10.46875 -6.421875 C 10.65625 -6.035156 10.75 -5.519531 10.75 -4.875 L 10.75 0 L 9.46875 0 L 9.46875 -5.09375 C 9.46875 -5.570312 9.347656 -5.898438 9.109375 -6.078125 C 8.867188 -6.265625 8.570312 -6.359375 8.21875 -6.359375 C 7.738281 -6.359375 7.320312 -6.195312 6.96875 -5.875 C 6.625 -5.550781 6.453125 -5.015625 6.453125 -4.265625 L 6.453125 0 L 5.203125 0 L 5.203125 -4.78125 C 5.203125 -5.28125 5.140625 -5.640625 5.015625 -5.859375 C 4.828125 -6.203125 4.476562 -6.375 3.96875 -6.375 C 3.507812 -6.375 3.085938 -6.191406 2.703125 -5.828125 C 2.328125 -5.472656 2.140625 -4.828125 2.140625 -3.890625 L 2.140625 0 L 0.90625 0 Z M 0.90625 -7.328125 "/>
</g>
<g id="glyph-1-14">
<path d="M 0.484375 2.859375 C 1.210938 1.441406 1.679688 0.410156 1.890625 -0.234375 C 2.203125 -1.210938 2.359375 -2.359375 2.359375 -3.671875 C 2.359375 -4.992188 2.175781 -6.203125 1.8125 -7.296875 C 1.582031 -7.972656 1.132812 -8.941406 0.46875 -10.203125 L 1.296875 -10.203125 C 1.992188 -9.085938 2.414062 -8.394531 2.5625 -8.125 C 2.71875 -7.863281 2.878906 -7.503906 3.046875 -7.046875 C 3.265625 -6.472656 3.421875 -5.910156 3.515625 -5.359375 C 3.609375 -4.804688 3.65625 -4.269531 3.65625 -3.75 C 3.65625 -2.40625 3.441406 -1.203125 3.015625 -0.140625 C 2.742188 0.535156 2.1875 1.535156 1.34375 2.859375 Z M 0.484375 2.859375 "/>
</g>
<g id="glyph-1-15">
<path d="M 1.203125 -8.4375 C 1.222656 -8.945312 1.316406 -9.320312 1.484375 -9.5625 C 1.765625 -9.976562 2.316406 -10.1875 3.140625 -10.1875 C 3.210938 -10.1875 3.289062 -10.179688 3.375 -10.171875 C 3.457031 -10.171875 3.550781 -10.164062 3.65625 -10.15625 L 3.65625 -9.03125 C 3.53125 -9.039062 3.4375 -9.046875 3.375 -9.046875 C 3.320312 -9.054688 3.269531 -9.0625 3.21875 -9.0625 C 2.84375 -9.0625 2.617188 -8.960938 2.546875 -8.765625 C 2.472656 -8.578125 2.4375 -8.082031 2.4375 -7.28125 L 3.65625 -7.28125 L 3.65625 -6.3125 L 2.421875 -6.3125 L 2.421875 0 L 1.203125 0 L 1.203125 -6.3125 L 0.1875 -6.3125 L 0.1875 -7.28125 L 1.203125 -7.28125 Z M 1.203125 -8.4375 "/>
</g>
<g id="glyph-1-16">
<path d="M 3.71875 -7.53125 C 4.550781 -7.53125 5.222656 -7.328125 5.734375 -6.921875 C 6.253906 -6.523438 6.566406 -5.835938 6.671875 -4.859375 L 5.46875 -4.859375 C 5.394531 -5.304688 5.226562 -5.679688 4.96875 -5.984375 C 4.71875 -6.285156 4.300781 -6.4375 3.71875 -6.4375 C 2.9375 -6.4375 2.378906 -6.050781 2.046875 -5.28125 C 1.828125 -4.789062 1.71875 -4.179688 1.71875 -3.453125 C 1.71875 -2.710938 1.867188 -2.09375 2.171875 -1.59375 C 2.484375 -1.09375 2.972656 -0.84375 3.640625 -0.84375 C 4.148438 -0.84375 4.554688 -1 4.859375 -1.3125 C 5.160156 -1.625 5.363281 -2.050781 5.46875 -2.59375 L 6.671875 -2.59375 C 6.535156 -1.625 6.191406 -0.910156 5.640625 -0.453125 C 5.097656 -0.00390625 4.398438 0.21875 3.546875 0.21875 C 2.585938 0.21875 1.820312 -0.128906 1.25 -0.828125 C 0.6875 -1.535156 0.40625 -2.410156 0.40625 -3.453125 C 0.40625 -4.742188 0.71875 -5.742188 1.34375 -6.453125 C 1.96875 -7.171875 2.757812 -7.53125 3.71875 -7.53125 Z M 3.53125 -7.5 Z M 3.53125 -7.5 "/>
</g>
<g id="glyph-1-17">
<path d="M 1.640625 -2.296875 C 1.671875 -1.890625 1.769531 -1.578125 1.9375 -1.359375 C 2.25 -0.960938 2.789062 -0.765625 3.5625 -0.765625 C 4.007812 -0.765625 4.40625 -0.863281 4.75 -1.0625 C 5.101562 -1.257812 5.28125 -1.5625 5.28125 -1.96875 C 5.28125 -2.289062 5.140625 -2.53125 4.859375 -2.6875 C 4.679688 -2.789062 4.332031 -2.910156 3.8125 -3.046875 L 2.828125 -3.28125 C 2.203125 -3.4375 1.742188 -3.613281 1.453125 -3.8125 C 0.921875 -4.144531 0.65625 -4.601562 0.65625 -5.1875 C 0.65625 -5.882812 0.90625 -6.445312 1.40625 -6.875 C 1.90625 -7.300781 2.578125 -7.515625 3.421875 -7.515625 C 4.523438 -7.515625 5.316406 -7.191406 5.796875 -6.546875 C 6.109375 -6.128906 6.257812 -5.6875 6.25 -5.21875 L 5.09375 -5.21875 C 5.0625 -5.5 4.960938 -5.75 4.796875 -5.96875 C 4.515625 -6.289062 4.023438 -6.453125 3.328125 -6.453125 C 2.859375 -6.453125 2.503906 -6.363281 2.265625 -6.1875 C 2.023438 -6.007812 1.90625 -5.773438 1.90625 -5.484375 C 1.90625 -5.171875 2.0625 -4.914062 2.375 -4.71875 C 2.5625 -4.601562 2.832031 -4.503906 3.1875 -4.421875 L 4 -4.21875 C 4.882812 -4.007812 5.476562 -3.804688 5.78125 -3.609375 C 6.257812 -3.285156 6.5 -2.789062 6.5 -2.125 C 6.5 -1.46875 6.25 -0.898438 5.75 -0.421875 C 5.257812 0.0429688 4.507812 0.28125 3.5 0.28125 C 2.40625 0.28125 1.628906 0.0351562 1.171875 -0.453125 C 0.722656 -0.953125 0.484375 -1.566406 0.453125 -2.296875 Z M 3.453125 -7.5 Z M 3.453125 -7.5 "/>
</g>
<g id="glyph-1-18">
<path d="M 1.84375 -1.953125 C 1.84375 -1.597656 1.972656 -1.316406 2.234375 -1.109375 C 2.492188 -0.898438 2.800781 -0.796875 3.15625 -0.796875 C 3.59375 -0.796875 4.015625 -0.894531 4.421875 -1.09375 C 5.097656 -1.425781 5.4375 -1.972656 5.4375 -2.734375 L 5.4375 -3.71875 C 5.289062 -3.625 5.097656 -3.546875 4.859375 -3.484375 C 4.617188 -3.421875 4.382812 -3.375 4.15625 -3.34375 L 3.421875 -3.25 C 2.972656 -3.195312 2.632812 -3.101562 2.40625 -2.96875 C 2.03125 -2.757812 1.84375 -2.421875 1.84375 -1.953125 Z M 4.828125 -4.4375 C 5.109375 -4.46875 5.296875 -4.585938 5.390625 -4.796875 C 5.441406 -4.898438 5.46875 -5.054688 5.46875 -5.265625 C 5.46875 -5.679688 5.316406 -5.984375 5.015625 -6.171875 C 4.722656 -6.359375 4.300781 -6.453125 3.75 -6.453125 C 3.101562 -6.453125 2.644531 -6.28125 2.375 -5.9375 C 2.226562 -5.75 2.128906 -5.46875 2.078125 -5.09375 L 0.9375 -5.09375 C 0.957031 -5.988281 1.25 -6.613281 1.8125 -6.96875 C 2.375 -7.320312 3.03125 -7.5 3.78125 -7.5 C 4.632812 -7.5 5.332031 -7.332031 5.875 -7 C 6.40625 -6.675781 6.671875 -6.164062 6.671875 -5.46875 L 6.671875 -1.265625 C 6.671875 -1.128906 6.695312 -1.019531 6.75 -0.9375 C 6.800781 -0.863281 6.910156 -0.828125 7.078125 -0.828125 C 7.140625 -0.828125 7.203125 -0.832031 7.265625 -0.84375 C 7.335938 -0.851562 7.410156 -0.863281 7.484375 -0.875 L 7.484375 0.03125 C 7.296875 0.0820312 7.148438 0.113281 7.046875 0.125 C 6.941406 0.144531 6.804688 0.15625 6.640625 0.15625 C 6.210938 0.15625 5.90625 0.00390625 5.71875 -0.296875 C 5.613281 -0.453125 5.539062 -0.675781 5.5 -0.96875 C 5.25 -0.644531 4.890625 -0.359375 4.421875 -0.109375 C 3.953125 0.128906 3.4375 0.25 2.875 0.25 C 2.195312 0.25 1.640625 0.0429688 1.203125 -0.359375 C 0.773438 -0.773438 0.5625 -1.296875 0.5625 -1.921875 C 0.5625 -2.597656 0.769531 -3.125 1.1875 -3.5 C 1.613281 -3.875 2.171875 -4.101562 2.859375 -4.1875 Z M 3.8125 -7.5 Z M 3.8125 -7.5 "/>
</g>
<g id="glyph-1-19">
<path d="M 2.140625 -7.328125 L 2.140625 -2.46875 C 2.140625 -2.09375 2.195312 -1.785156 2.3125 -1.546875 C 2.53125 -1.109375 2.9375 -0.890625 3.53125 -0.890625 C 4.382812 -0.890625 4.96875 -1.269531 5.28125 -2.03125 C 5.445312 -2.445312 5.53125 -3.007812 5.53125 -3.71875 L 5.53125 -7.328125 L 6.765625 -7.328125 L 6.765625 0 L 5.609375 0 L 5.625 -1.078125 C 5.457031 -0.796875 5.257812 -0.5625 5.03125 -0.375 C 4.5625 0.0078125 3.988281 0.203125 3.3125 0.203125 C 2.269531 0.203125 1.5625 -0.144531 1.1875 -0.84375 C 0.976562 -1.21875 0.875 -1.71875 0.875 -2.34375 L 0.875 -7.328125 Z M 3.828125 -7.5 Z M 3.828125 -7.5 "/>
</g>
<g id="glyph-1-20">
<path d="M 3.8125 -0.796875 C 4.625 -0.796875 5.179688 -1.101562 5.484375 -1.71875 C 5.785156 -2.332031 5.9375 -3.019531 5.9375 -3.78125 C 5.9375 -4.46875 5.828125 -5.023438 5.609375 -5.453125 C 5.265625 -6.117188 4.671875 -6.453125 3.828125 -6.453125 C 3.066406 -6.453125 2.515625 -6.164062 2.171875 -5.59375 C 1.835938 -5.019531 1.671875 -4.328125 1.671875 -3.515625 C 1.671875 -2.742188 1.835938 -2.097656 2.171875 -1.578125 C 2.515625 -1.054688 3.0625 -0.796875 3.8125 -0.796875 Z M 3.859375 -7.53125 C 4.796875 -7.53125 5.585938 -7.210938 6.234375 -6.578125 C 6.890625 -5.953125 7.21875 -5.03125 7.21875 -3.8125 C 7.21875 -2.632812 6.929688 -1.660156 6.359375 -0.890625 C 5.785156 -0.117188 4.894531 0.265625 3.6875 0.265625 C 2.6875 0.265625 1.890625 -0.0703125 1.296875 -0.75 C 0.703125 -1.4375 0.40625 -2.351562 0.40625 -3.5 C 0.40625 -4.726562 0.71875 -5.707031 1.34375 -6.4375 C 1.96875 -7.164062 2.804688 -7.53125 3.859375 -7.53125 Z M 3.8125 -7.5 Z M 3.8125 -7.5 "/>
</g>
<g id="glyph-1-21">
<path d="M 1.6875 -3.578125 C 1.6875 -2.796875 1.851562 -2.140625 2.1875 -1.609375 C 2.519531 -1.078125 3.050781 -0.8125 3.78125 -0.8125 C 4.351562 -0.8125 4.820312 -1.054688 5.1875 -1.546875 C 5.550781 -2.035156 5.734375 -2.738281 5.734375 -3.65625 C 5.734375 -4.582031 5.539062 -5.265625 5.15625 -5.703125 C 4.78125 -6.148438 4.316406 -6.375 3.765625 -6.375 C 3.148438 -6.375 2.648438 -6.132812 2.265625 -5.65625 C 1.878906 -5.1875 1.6875 -4.492188 1.6875 -3.578125 Z M 3.53125 -7.453125 C 4.09375 -7.453125 4.5625 -7.332031 4.9375 -7.09375 C 5.15625 -6.957031 5.40625 -6.71875 5.6875 -6.375 L 5.6875 -10.078125 L 6.875 -10.078125 L 6.875 0 L 5.765625 0 L 5.765625 -1.015625 C 5.472656 -0.566406 5.128906 -0.238281 4.734375 -0.03125 C 4.347656 0.164062 3.898438 0.265625 3.390625 0.265625 C 2.578125 0.265625 1.875 -0.078125 1.28125 -0.765625 C 0.6875 -1.453125 0.390625 -2.363281 0.390625 -3.5 C 0.390625 -4.570312 0.660156 -5.5 1.203125 -6.28125 C 1.742188 -7.0625 2.519531 -7.453125 3.53125 -7.453125 Z M 3.53125 -7.453125 "/>
</g>
<g id="glyph-1-22">
<path d="M 1.5 -7.328125 L 3.453125 -1.359375 L 5.5 -7.328125 L 6.84375 -7.328125 L 4.09375 0 L 2.78125 0 L 0.078125 -7.328125 Z M 1.5 -7.328125 "/>
</g>
<g id="glyph-1-23">
<path d="M 5.46875 -7.328125 L 6.84375 -7.328125 C 6.664062 -6.859375 6.28125 -5.785156 5.6875 -4.109375 C 5.238281 -2.847656 4.863281 -1.820312 4.5625 -1.03125 C 3.851562 0.832031 3.351562 1.96875 3.0625 2.375 C 2.769531 2.789062 2.265625 3 1.546875 3 C 1.378906 3 1.25 2.988281 1.15625 2.96875 C 1.0625 2.957031 0.945312 2.9375 0.8125 2.90625 L 0.8125 1.78125 C 1.019531 1.84375 1.171875 1.878906 1.265625 1.890625 C 1.367188 1.910156 1.457031 1.921875 1.53125 1.921875 C 1.75 1.921875 1.910156 1.878906 2.015625 1.796875 C 2.128906 1.722656 2.222656 1.632812 2.296875 1.53125 C 2.316406 1.488281 2.394531 1.296875 2.53125 0.953125 C 2.675781 0.617188 2.78125 0.375 2.84375 0.21875 L 0.140625 -7.328125 L 1.53125 -7.328125 L 3.5 -1.359375 Z M 3.5 -7.5 Z M 3.5 -7.5 "/>
</g>
<g id="glyph-2-0">
<path d="M 0 -0.453125 L -10.046875 -0.453125 L -10.046875 -8.421875 L 0 -8.421875 Z M -1.265625 -7.171875 L -8.78125 -7.171875 L -8.78125 -1.703125 L -1.265625 -1.703125 Z M -1.265625 -7.171875 "/>
</g>
<g id="glyph-2-1">
<path d="M -10.046875 -1.203125 L -10.046875 -5.71875 C -10.046875 -6.613281 -9.789062 -7.332031 -9.28125 -7.875 C -8.78125 -8.425781 -8.078125 -8.703125 -7.171875 -8.703125 C -6.378906 -8.703125 -5.691406 -8.457031 -5.109375 -7.96875 C -4.535156 -7.476562 -4.25 -6.726562 -4.25 -5.71875 L -4.25 -2.5625 L 0 -2.5625 L 0 -1.203125 Z M -7.15625 -7.328125 C -7.894531 -7.328125 -8.394531 -7.050781 -8.65625 -6.5 C -8.800781 -6.195312 -8.875 -5.785156 -8.875 -5.265625 L -8.875 -2.5625 L -5.390625 -2.5625 L -5.390625 -5.265625 C -5.390625 -5.878906 -5.519531 -6.375 -5.78125 -6.75 C -6.039062 -7.132812 -6.5 -7.328125 -7.15625 -7.328125 Z M -7.15625 -7.328125 "/>
</g>
<g id="glyph-2-2">
<path d="M -10.203125 -4.140625 C -8.816406 -3.421875 -7.796875 -2.957031 -7.140625 -2.75 C -6.140625 -2.425781 -4.984375 -2.265625 -3.671875 -2.265625 C -2.359375 -2.265625 -1.15625 -2.445312 -0.0625 -2.8125 C 0.613281 -3.039062 1.585938 -3.488281 2.859375 -4.15625 L 2.859375 -3.34375 C 1.816406 -2.675781 1.148438 -2.257812 0.859375 -2.09375 C 0.578125 -1.9375 0.191406 -1.765625 -0.296875 -1.578125 C -0.972656 -1.328125 -1.695312 -1.148438 -2.46875 -1.046875 C -2.863281 -0.992188 -3.238281 -0.96875 -3.59375 -0.96875 C -4.945312 -0.96875 -6.148438 -1.179688 -7.203125 -1.609375 C -7.867188 -1.878906 -8.867188 -2.4375 -10.203125 -3.28125 Z M -10.203125 -4.140625 "/>
</g>
<g id="glyph-2-3">
<path d="M -1.953125 -1.84375 C -1.597656 -1.84375 -1.316406 -1.972656 -1.109375 -2.234375 C -0.898438 -2.492188 -0.796875 -2.800781 -0.796875 -3.15625 C -0.796875 -3.59375 -0.894531 -4.015625 -1.09375 -4.421875 C -1.425781 -5.097656 -1.972656 -5.4375 -2.734375 -5.4375 L -3.71875 -5.4375 C -3.625 -5.289062 -3.546875 -5.097656 -3.484375 -4.859375 C -3.421875 -4.617188 -3.375 -4.382812 -3.34375 -4.15625 L -3.25 -3.421875 C -3.195312 -2.972656 -3.101562 -2.632812 -2.96875 -2.40625 C -2.757812 -2.03125 -2.421875 -1.84375 -1.953125 -1.84375 Z M -4.4375 -4.828125 C -4.46875 -5.109375 -4.585938 -5.296875 -4.796875 -5.390625 C -4.898438 -5.441406 -5.054688 -5.46875 -5.265625 -5.46875 C -5.679688 -5.46875 -5.984375 -5.316406 -6.171875 -5.015625 C -6.359375 -4.722656 -6.453125 -4.300781 -6.453125 -3.75 C -6.453125 -3.101562 -6.28125 -2.644531 -5.9375 -2.375 C -5.75 -2.226562 -5.46875 -2.128906 -5.09375 -2.078125 L -5.09375 -0.9375 C -5.988281 -0.957031 -6.613281 -1.25 -6.96875 -1.8125 C -7.320312 -2.375 -7.5 -3.03125 -7.5 -3.78125 C -7.5 -4.632812 -7.332031 -5.332031 -7 -5.875 C -6.675781 -6.40625 -6.164062 -6.671875 -5.46875 -6.671875 L -1.265625 -6.671875 C -1.128906 -6.671875 -1.019531 -6.695312 -0.9375 -6.75 C -0.863281 -6.800781 -0.828125 -6.910156 -0.828125 -7.078125 C -0.828125 -7.140625 -0.832031 -7.203125 -0.84375 -7.265625 C -0.851562 -7.335938 -0.863281 -7.410156 -0.875 -7.484375 L 0.03125 -7.484375 C 0.0820312 -7.296875 0.113281 -7.148438 0.125 -7.046875 C 0.144531 -6.941406 0.15625 -6.804688 0.15625 -6.640625 C 0.15625 -6.210938 0.00390625 -5.90625 -0.296875 -5.71875 C -0.453125 -5.613281 -0.675781 -5.539062 -0.96875 -5.5 C -0.644531 -5.25 -0.359375 -4.890625 -0.109375 -4.421875 C 0.128906 -3.953125 0.25 -3.4375 0.25 -2.875 C 0.25 -2.195312 0.0429688 -1.640625 -0.359375 -1.203125 C -0.773438 -0.773438 -1.296875 -0.5625 -1.921875 -0.5625 C -2.597656 -0.5625 -3.125 -0.769531 -3.5 -1.1875 C -3.875 -1.613281 -4.101562 -2.171875 -4.1875 -2.859375 Z M -7.5 -3.8125 Z M -7.5 -3.8125 "/>
</g>
<g id="glyph-2-4">
<path d="M -10.078125 -0.8125 L -10.078125 -2 L -6.4375 -2 C -6.78125 -2.269531 -7.046875 -2.59375 -7.234375 -2.96875 C -7.421875 -3.34375 -7.515625 -3.75 -7.515625 -4.1875 C -7.515625 -5.09375 -7.203125 -5.828125 -6.578125 -6.390625 C -5.953125 -6.960938 -5.023438 -7.25 -3.796875 -7.25 C -2.640625 -7.25 -1.675781 -6.96875 -0.90625 -6.40625 C -0.144531 -5.851562 0.234375 -5.078125 0.234375 -4.078125 C 0.234375 -3.523438 0.0976562 -3.054688 -0.171875 -2.671875 C -0.328125 -2.441406 -0.582031 -2.195312 -0.9375 -1.9375 L 0 -1.9375 L 0 -0.8125 Z M -0.859375 -4 C -0.859375 -4.664062 -1.117188 -5.164062 -1.640625 -5.5 C -2.171875 -5.832031 -2.867188 -6 -3.734375 -6 C -4.503906 -6 -5.140625 -5.832031 -5.640625 -5.5 C -6.148438 -5.164062 -6.40625 -4.679688 -6.40625 -4.046875 C -6.40625 -3.484375 -6.195312 -2.988281 -5.78125 -2.5625 C -5.375 -2.144531 -4.691406 -1.9375 -3.734375 -1.9375 C -3.046875 -1.9375 -2.488281 -2.019531 -2.0625 -2.1875 C -1.257812 -2.519531 -0.859375 -3.125 -0.859375 -4 Z M -0.859375 -4 "/>
</g>
<g id="glyph-2-5">
<path d="M -0.796875 -3.8125 C -0.796875 -4.625 -1.101562 -5.179688 -1.71875 -5.484375 C -2.332031 -5.785156 -3.019531 -5.9375 -3.78125 -5.9375 C -4.46875 -5.9375 -5.023438 -5.828125 -5.453125 -5.609375 C -6.117188 -5.265625 -6.453125 -4.671875 -6.453125 -3.828125 C -6.453125 -3.066406 -6.164062 -2.515625 -5.59375 -2.171875 C -5.019531 -1.835938 -4.328125 -1.671875 -3.515625 -1.671875 C -2.742188 -1.671875 -2.097656 -1.835938 -1.578125 -2.171875 C -1.054688 -2.515625 -0.796875 -3.0625 -0.796875 -3.8125 Z M -7.53125 -3.859375 C -7.53125 -4.796875 -7.210938 -5.585938 -6.578125 -6.234375 C -5.953125 -6.890625 -5.03125 -7.21875 -3.8125 -7.21875 C -2.632812 -7.21875 -1.660156 -6.929688 -0.890625 -6.359375 C -0.117188 -5.785156 0.265625 -4.894531 0.265625 -3.6875 C 0.265625 -2.6875 -0.0703125 -1.890625 -0.75 -1.296875 C -1.4375 -0.703125 -2.351562 -0.40625 -3.5 -0.40625 C -4.726562 -0.40625 -5.707031 -0.71875 -6.4375 -1.34375 C -7.164062 -1.96875 -7.53125 -2.804688 -7.53125 -3.859375 Z M -7.5 -3.8125 Z M -7.5 -3.8125 "/>
</g>
<g id="glyph-2-6">
<path d="M -7.328125 -1.5 L -1.359375 -3.453125 L -7.328125 -5.5 L -7.328125 -6.84375 L 0 -4.09375 L 0 -2.78125 L -7.328125 -0.078125 Z M -7.328125 -1.5 "/>
</g>
<g id="glyph-2-7">
<path d="M -7.484375 -3.953125 C -7.484375 -4.472656 -7.359375 -4.972656 -7.109375 -5.453125 C -6.867188 -5.941406 -6.554688 -6.316406 -6.171875 -6.578125 C -5.804688 -6.828125 -5.375 -6.988281 -4.875 -7.0625 C -4.539062 -7.132812 -4.003906 -7.171875 -3.265625 -7.171875 L -3.265625 -1.8125 C -2.523438 -1.832031 -1.929688 -2.003906 -1.484375 -2.328125 C -1.035156 -2.660156 -0.8125 -3.171875 -0.8125 -3.859375 C -0.8125 -4.503906 -1.019531 -5.019531 -1.4375 -5.40625 C -1.6875 -5.625 -1.972656 -5.773438 -2.296875 -5.859375 L -2.296875 -7.078125 C -2.023438 -7.046875 -1.722656 -6.9375 -1.390625 -6.75 C -1.066406 -6.570312 -0.800781 -6.375 -0.59375 -6.15625 C -0.226562 -5.78125 0.0195312 -5.316406 0.15625 -4.765625 C 0.226562 -4.472656 0.265625 -4.140625 0.265625 -3.765625 C 0.265625 -2.847656 -0.0664062 -2.070312 -0.734375 -1.4375 C -1.398438 -0.8125 -2.328125 -0.5 -3.515625 -0.5 C -4.691406 -0.5 -5.644531 -0.816406 -6.375 -1.453125 C -7.113281 -2.085938 -7.484375 -2.921875 -7.484375 -3.953125 Z M -4.25 -5.90625 C -4.78125 -5.863281 -5.207031 -5.75 -5.53125 -5.5625 C -6.113281 -5.226562 -6.40625 -4.664062 -6.40625 -3.875 C -6.40625 -3.3125 -6.203125 -2.835938 -5.796875 -2.453125 C -5.390625 -2.066406 -4.875 -1.863281 -4.25 -1.84375 Z M -7.5 -3.828125 Z M -7.5 -3.828125 "/>
</g>
<g id="glyph-2-8">
<path d="M -4.53125 -0.578125 L -4.53125 -4.015625 L -3.265625 -4.015625 L -3.265625 -0.578125 Z M -4.53125 -0.578125 "/>
</g>
<g id="glyph-2-9">
<path d="M -7.328125 -0.90625 L -7.328125 -2.125 L -6.28125 -2.125 C -6.644531 -2.414062 -6.90625 -2.675781 -7.0625 -2.90625 C -7.34375 -3.3125 -7.484375 -3.773438 -7.484375 -4.296875 C -7.484375 -4.878906 -7.34375 -5.347656 -7.0625 -5.703125 C -6.894531 -5.898438 -6.648438 -6.082031 -6.328125 -6.25 C -6.722656 -6.519531 -7.015625 -6.835938 -7.203125 -7.203125 C -7.390625 -7.578125 -7.484375 -7.992188 -7.484375 -8.453125 C -7.484375 -9.441406 -7.128906 -10.113281 -6.421875 -10.46875 C -6.035156 -10.65625 -5.519531 -10.75 -4.875 -10.75 L 0 -10.75 L 0 -9.46875 L -5.09375 -9.46875 C -5.570312 -9.46875 -5.898438 -9.347656 -6.078125 -9.109375 C -6.265625 -8.867188 -6.359375 -8.570312 -6.359375 -8.21875 C -6.359375 -7.738281 -6.195312 -7.320312 -5.875 -6.96875 C -5.550781 -6.625 -5.015625 -6.453125 -4.265625 -6.453125 L 0 -6.453125 L 0 -5.203125 L -4.78125 -5.203125 C -5.28125 -5.203125 -5.640625 -5.140625 -5.859375 -5.015625 C -6.203125 -4.828125 -6.375 -4.476562 -6.375 -3.96875 C -6.375 -3.507812 -6.191406 -3.085938 -5.828125 -2.703125 C -5.472656 -2.328125 -4.828125 -2.140625 -3.890625 -2.140625 L 0 -2.140625 L 0 -0.90625 Z M -7.328125 -0.90625 "/>
</g>
<g id="glyph-2-10">
<path d="M -3.578125 -1.6875 C -2.796875 -1.6875 -2.140625 -1.851562 -1.609375 -2.1875 C -1.078125 -2.519531 -0.8125 -3.050781 -0.8125 -3.78125 C -0.8125 -4.351562 -1.054688 -4.820312 -1.546875 -5.1875 C -2.035156 -5.550781 -2.738281 -5.734375 -3.65625 -5.734375 C -4.582031 -5.734375 -5.265625 -5.539062 -5.703125 -5.15625 C -6.148438 -4.78125 -6.375 -4.316406 -6.375 -3.765625 C -6.375 -3.148438 -6.132812 -2.648438 -5.65625 -2.265625 C -5.1875 -1.878906 -4.492188 -1.6875 -3.578125 -1.6875 Z M -7.453125 -3.53125 C -7.453125 -4.09375 -7.332031 -4.5625 -7.09375 -4.9375 C -6.957031 -5.15625 -6.71875 -5.40625 -6.375 -5.6875 L -10.078125 -5.6875 L -10.078125 -6.875 L 0 -6.875 L 0 -5.765625 L -1.015625 -5.765625 C -0.566406 -5.472656 -0.238281 -5.128906 -0.03125 -4.734375 C 0.164062 -4.347656 0.265625 -3.898438 0.265625 -3.390625 C 0.265625 -2.578125 -0.078125 -1.875 -0.765625 -1.28125 C -1.453125 -0.6875 -2.363281 -0.390625 -3.5 -0.390625 C -4.570312 -0.390625 -5.5 -0.660156 -6.28125 -1.203125 C -7.0625 -1.742188 -7.453125 -2.519531 -7.453125 -3.53125 Z M -7.453125 -3.53125 "/>
</g>
<g id="glyph-2-11">
<path d="M -7.28125 -0.90625 L -7.28125 -2.15625 L 0 -2.15625 L 0 -0.90625 Z M -10.046875 -0.90625 L -10.046875 -2.15625 L -8.640625 -2.15625 L -8.640625 -0.90625 Z M -10.046875 -0.90625 "/>
</g>
<g id="glyph-2-12">
<path d="M -7.328125 -0.90625 L -7.328125 -2.078125 L -6.28125 -2.078125 C -6.707031 -2.421875 -7.015625 -2.785156 -7.203125 -3.171875 C -7.390625 -3.554688 -7.484375 -3.988281 -7.484375 -4.46875 C -7.484375 -5.5 -7.125 -6.195312 -6.40625 -6.5625 C -6 -6.769531 -5.429688 -6.875 -4.703125 -6.875 L 0 -6.875 L 0 -5.625 L -4.609375 -5.625 C -5.054688 -5.625 -5.414062 -5.554688 -5.6875 -5.421875 C -6.144531 -5.203125 -6.375 -4.804688 -6.375 -4.234375 C -6.375 -3.941406 -6.347656 -3.703125 -6.296875 -3.515625 C -6.191406 -3.179688 -5.988281 -2.882812 -5.6875 -2.625 C -5.445312 -2.414062 -5.195312 -2.28125 -4.9375 -2.21875 C -4.675781 -2.164062 -4.304688 -2.140625 -3.828125 -2.140625 L 0 -2.140625 L 0 -0.90625 Z M -7.5 -3.796875 Z M -7.5 -3.796875 "/>
</g>
<g id="glyph-2-13">
</g>
<g id="glyph-2-14">
<path d="M -2.296875 -1.640625 C -1.890625 -1.671875 -1.578125 -1.769531 -1.359375 -1.9375 C -0.960938 -2.25 -0.765625 -2.789062 -0.765625 -3.5625 C -0.765625 -4.007812 -0.863281 -4.40625 -1.0625 -4.75 C -1.257812 -5.101562 -1.5625 -5.28125 -1.96875 -5.28125 C -2.289062 -5.28125 -2.53125 -5.140625 -2.6875 -4.859375 C -2.789062 -4.679688 -2.910156 -4.332031 -3.046875 -3.8125 L -3.28125 -2.828125 C -3.4375 -2.203125 -3.613281 -1.742188 -3.8125 -1.453125 C -4.144531 -0.921875 -4.601562 -0.65625 -5.1875 -0.65625 C -5.882812 -0.65625 -6.445312 -0.90625 -6.875 -1.40625 C -7.300781 -1.90625 -7.515625 -2.578125 -7.515625 -3.421875 C -7.515625 -4.523438 -7.191406 -5.316406 -6.546875 -5.796875 C -6.128906 -6.109375 -5.6875 -6.257812 -5.21875 -6.25 L -5.21875 -5.09375 C -5.5 -5.0625 -5.75 -4.960938 -5.96875 -4.796875 C -6.289062 -4.515625 -6.453125 -4.023438 -6.453125 -3.328125 C -6.453125 -2.859375 -6.363281 -2.503906 -6.1875 -2.265625 C -6.007812 -2.023438 -5.773438 -1.90625 -5.484375 -1.90625 C -5.171875 -1.90625 -4.914062 -2.0625 -4.71875 -2.375 C -4.601562 -2.5625 -4.503906 -2.832031 -4.421875 -3.1875 L -4.21875 -4 C -4.007812 -4.882812 -3.804688 -5.476562 -3.609375 -5.78125 C -3.285156 -6.257812 -2.789062 -6.5 -2.125 -6.5 C -1.46875 -6.5 -0.898438 -6.25 -0.421875 -5.75 C 0.0429688 -5.257812 0.28125 -4.507812 0.28125 -3.5 C 0.28125 -2.40625 0.0351562 -1.628906 -0.453125 -1.171875 C -0.953125 -0.722656 -1.566406 -0.484375 -2.296875 -0.453125 Z M -7.5 -3.453125 Z M -7.5 -3.453125 "/>
</g>
<g id="glyph-2-15">
<path d="M 2.859375 -0.484375 C 1.441406 -1.210938 0.410156 -1.679688 -0.234375 -1.890625 C -1.210938 -2.203125 -2.359375 -2.359375 -3.671875 -2.359375 C -4.992188 -2.359375 -6.203125 -2.175781 -7.296875 -1.8125 C -7.972656 -1.582031 -8.941406 -1.132812 -10.203125 -0.46875 L -10.203125 -1.296875 C -9.085938 -1.992188 -8.394531 -2.414062 -8.125 -2.5625 C -7.863281 -2.71875 -7.503906 -2.878906 -7.046875 -3.046875 C -6.472656 -3.265625 -5.910156 -3.421875 -5.359375 -3.515625 C -4.804688 -3.609375 -4.269531 -3.65625 -3.75 -3.65625 C -2.40625 -3.65625 -1.203125 -3.441406 -0.140625 -3.015625 C 0.535156 -2.742188 1.535156 -2.1875 2.859375 -1.34375 Z M 2.859375 -0.484375 "/>
</g>
<g id="glyph-3-0">
<path d="M 0.984375 -9.359375 L 8.515625 -9.359375 L 8.515625 0 L 0.984375 0 Z M 7.34375 -1.171875 L 7.34375 -8.1875 L 2.140625 -8.1875 L 2.140625 -1.171875 Z M 7.34375 -1.171875 "/>
</g>
<g id="glyph-3-1">
<path d="M 4.390625 -1.359375 C 4.847656 -1.359375 5.222656 -1.40625 5.515625 -1.5 C 6.054688 -1.695312 6.328125 -2.0625 6.328125 -2.59375 C 6.328125 -2.894531 6.191406 -3.132812 5.921875 -3.3125 C 5.648438 -3.476562 5.222656 -3.625 4.640625 -3.75 L 3.65625 -3.96875 C 2.6875 -4.1875 2.015625 -4.425781 1.640625 -4.6875 C 1.003906 -5.113281 0.6875 -5.785156 0.6875 -6.703125 C 0.6875 -7.546875 0.988281 -8.242188 1.59375 -8.796875 C 2.207031 -9.347656 3.109375 -9.625 4.296875 -9.625 C 5.273438 -9.625 6.113281 -9.363281 6.8125 -8.84375 C 7.507812 -8.320312 7.875 -7.5625 7.90625 -6.5625 L 6.03125 -6.5625 C 6 -7.132812 5.753906 -7.535156 5.296875 -7.765625 C 4.992188 -7.921875 4.613281 -8 4.15625 -8 C 3.65625 -8 3.253906 -7.894531 2.953125 -7.6875 C 2.648438 -7.488281 2.5 -7.207031 2.5 -6.84375 C 2.5 -6.507812 2.648438 -6.257812 2.953125 -6.09375 C 3.140625 -5.988281 3.546875 -5.863281 4.171875 -5.71875 L 5.78125 -5.328125 C 6.488281 -5.160156 7.019531 -4.929688 7.375 -4.640625 C 7.9375 -4.203125 8.21875 -3.566406 8.21875 -2.734375 C 8.21875 -1.878906 7.890625 -1.171875 7.234375 -0.609375 C 6.578125 -0.046875 5.65625 0.234375 4.46875 0.234375 C 3.25 0.234375 2.289062 -0.0390625 1.59375 -0.59375 C 0.894531 -1.144531 0.546875 -1.910156 0.546875 -2.890625 L 2.40625 -2.890625 C 2.46875 -2.460938 2.582031 -2.144531 2.75 -1.9375 C 3.070312 -1.550781 3.617188 -1.359375 4.390625 -1.359375 Z M 4.390625 -1.359375 "/>
</g>
<g id="glyph-3-2">
<path d="M 6.765625 -2.03125 C 6.722656 -1.625 6.507812 -1.207031 6.125 -0.78125 C 5.53125 -0.101562 4.703125 0.234375 3.640625 0.234375 C 2.753906 0.234375 1.972656 -0.046875 1.296875 -0.609375 C 0.628906 -1.179688 0.296875 -2.109375 0.296875 -3.390625 C 0.296875 -4.585938 0.597656 -5.503906 1.203125 -6.140625 C 1.816406 -6.785156 2.609375 -7.109375 3.578125 -7.109375 C 4.148438 -7.109375 4.664062 -7 5.125 -6.78125 C 5.59375 -6.5625 5.972656 -6.21875 6.265625 -5.75 C 6.535156 -5.34375 6.710938 -4.867188 6.796875 -4.328125 C 6.847656 -4.015625 6.867188 -3.554688 6.859375 -2.953125 L 2.125 -2.953125 C 2.144531 -2.265625 2.363281 -1.78125 2.78125 -1.5 C 3.03125 -1.320312 3.328125 -1.234375 3.671875 -1.234375 C 4.046875 -1.234375 4.347656 -1.34375 4.578125 -1.5625 C 4.710938 -1.675781 4.828125 -1.832031 4.921875 -2.03125 Z M 4.984375 -4.15625 C 4.953125 -4.632812 4.804688 -4.992188 4.546875 -5.234375 C 4.285156 -5.484375 3.960938 -5.609375 3.578125 -5.609375 C 3.160156 -5.609375 2.832031 -5.476562 2.59375 -5.21875 C 2.363281 -4.957031 2.222656 -4.601562 2.171875 -4.15625 Z M 4.984375 -4.15625 "/>
</g>
<g id="glyph-3-3">
<path d="M 7.015625 0 L 4.75 0 L 3.5625 -2.078125 L 2.359375 0 L 0.171875 0 L 2.53125 -3.5 L 0.265625 -6.90625 L 2.484375 -6.90625 L 3.640625 -4.90625 L 4.765625 -6.90625 L 6.921875 -6.90625 L 4.640625 -3.53125 Z M 7.015625 0 "/>
</g>
<g id="glyph-4-0">
<path d="M 1.359375 -12.953125 L 11.78125 -12.953125 L 11.78125 0 L 1.359375 0 Z M 10.171875 -1.625 L 10.171875 -11.34375 L 2.96875 -11.34375 L 2.96875 -1.625 Z M 10.171875 -1.625 "/>
</g>
<g id="glyph-4-1">
<path d="M 3.84375 0 L 1.328125 0 L 1.328125 -12.953125 L 5.265625 -12.953125 L 7.625 -2.765625 L 9.953125 -12.953125 L 13.859375 -12.953125 L 13.859375 0 L 11.328125 0 L 11.328125 -8.765625 C 11.328125 -9.015625 11.328125 -9.363281 11.328125 -9.8125 C 11.335938 -10.269531 11.34375 -10.625 11.34375 -10.875 L 8.890625 0 L 6.265625 0 L 3.828125 -10.875 C 3.828125 -10.625 3.828125 -10.269531 3.828125 -9.8125 C 3.835938 -9.363281 3.84375 -9.015625 3.84375 -8.765625 Z M 3.84375 0 "/>
</g>
<g id="glyph-4-2">
<path d="M 1.53125 -8.546875 C 2.1875 -9.390625 3.320312 -9.8125 4.9375 -9.8125 C 5.988281 -9.8125 6.921875 -9.601562 7.734375 -9.1875 C 8.546875 -8.769531 8.953125 -7.984375 8.953125 -6.828125 L 8.953125 -2.4375 C 8.953125 -2.132812 8.957031 -1.765625 8.96875 -1.328125 C 8.988281 -0.992188 9.039062 -0.769531 9.125 -0.65625 C 9.207031 -0.539062 9.332031 -0.445312 9.5 -0.375 L 9.5 0 L 6.765625 0 C 6.691406 -0.195312 6.640625 -0.378906 6.609375 -0.546875 C 6.578125 -0.710938 6.554688 -0.90625 6.546875 -1.125 C 6.191406 -0.75 5.789062 -0.429688 5.34375 -0.171875 C 4.800781 0.136719 4.191406 0.296875 3.515625 0.296875 C 2.648438 0.296875 1.929688 0.0507812 1.359375 -0.4375 C 0.796875 -0.9375 0.515625 -1.640625 0.515625 -2.546875 C 0.515625 -3.722656 0.96875 -4.578125 1.875 -5.109375 C 2.375 -5.390625 3.109375 -5.59375 4.078125 -5.71875 L 4.9375 -5.828125 C 5.394531 -5.890625 5.722656 -5.960938 5.921875 -6.046875 C 6.273438 -6.203125 6.453125 -6.441406 6.453125 -6.765625 C 6.453125 -7.148438 6.316406 -7.414062 6.046875 -7.5625 C 5.773438 -7.71875 5.378906 -7.796875 4.859375 -7.796875 C 4.265625 -7.796875 3.84375 -7.648438 3.59375 -7.359375 C 3.414062 -7.140625 3.300781 -6.847656 3.25 -6.484375 L 0.828125 -6.484375 C 0.878906 -7.316406 1.113281 -8.003906 1.53125 -8.546875 Z M 3.390625 -1.8125 C 3.628906 -1.613281 3.914062 -1.515625 4.25 -1.515625 C 4.789062 -1.515625 5.285156 -1.671875 5.734375 -1.984375 C 6.191406 -2.304688 6.429688 -2.890625 6.453125 -3.734375 L 6.453125 -4.65625 C 6.296875 -4.5625 6.132812 -4.484375 5.96875 -4.421875 C 5.8125 -4.359375 5.59375 -4.300781 5.3125 -4.25 L 4.75 -4.140625 C 4.21875 -4.046875 3.835938 -3.929688 3.609375 -3.796875 C 3.222656 -3.566406 3.03125 -3.210938 3.03125 -2.734375 C 3.03125 -2.304688 3.148438 -2 3.390625 -1.8125 Z M 3.390625 -1.8125 "/>
</g>
<g id="glyph-4-3">
<path d="M 5.984375 -7.265625 C 4.972656 -7.265625 4.296875 -6.9375 3.953125 -6.28125 C 3.765625 -5.914062 3.671875 -5.347656 3.671875 -4.578125 L 3.671875 0 L 1.140625 0 L 1.140625 -9.578125 L 3.53125 -9.578125 L 3.53125 -7.90625 C 3.914062 -8.550781 4.253906 -8.988281 4.546875 -9.21875 C 5.015625 -9.613281 5.625 -9.8125 6.375 -9.8125 C 6.414062 -9.8125 6.453125 -9.804688 6.484375 -9.796875 C 6.523438 -9.796875 6.597656 -9.796875 6.703125 -9.796875 L 6.703125 -7.21875 C 6.546875 -7.238281 6.40625 -7.25 6.28125 -7.25 C 6.15625 -7.257812 6.054688 -7.265625 5.984375 -7.265625 Z M 5.984375 -7.265625 "/>
</g>
<g id="glyph-4-4">
<path d="M 3.875 1.671875 C 4.144531 1.898438 4.597656 2.015625 5.234375 2.015625 C 6.140625 2.015625 6.742188 1.710938 7.046875 1.109375 C 7.242188 0.722656 7.34375 0.0742188 7.34375 -0.828125 L 7.34375 -1.453125 C 7.101562 -1.035156 6.847656 -0.726562 6.578125 -0.53125 C 6.078125 -0.144531 5.425781 0.046875 4.625 0.046875 C 3.394531 0.046875 2.410156 -0.382812 1.671875 -1.25 C 0.941406 -2.113281 0.578125 -3.285156 0.578125 -4.765625 C 0.578125 -6.191406 0.929688 -7.390625 1.640625 -8.359375 C 2.347656 -9.328125 3.351562 -9.8125 4.65625 -9.8125 C 5.132812 -9.8125 5.554688 -9.738281 5.921875 -9.59375 C 6.523438 -9.34375 7.015625 -8.878906 7.390625 -8.203125 L 7.390625 -9.578125 L 9.828125 -9.578125 L 9.828125 -0.5 C 9.828125 0.738281 9.617188 1.671875 9.203125 2.296875 C 8.484375 3.378906 7.113281 3.921875 5.09375 3.921875 C 3.863281 3.921875 2.863281 3.679688 2.09375 3.203125 C 1.320312 2.722656 0.894531 2.003906 0.8125 1.046875 L 3.53125 1.046875 C 3.601562 1.335938 3.71875 1.546875 3.875 1.671875 Z M 3.453125 -3.265625 C 3.796875 -2.460938 4.40625 -2.0625 5.28125 -2.0625 C 5.863281 -2.0625 6.359375 -2.28125 6.765625 -2.71875 C 7.171875 -3.164062 7.375 -3.867188 7.375 -4.828125 C 7.375 -5.742188 7.179688 -6.4375 6.796875 -6.90625 C 6.410156 -7.382812 5.894531 -7.625 5.25 -7.625 C 4.375 -7.625 3.769531 -7.207031 3.4375 -6.375 C 3.257812 -5.9375 3.171875 -5.394531 3.171875 -4.75 C 3.171875 -4.195312 3.265625 -3.703125 3.453125 -3.265625 Z M 3.453125 -3.265625 "/>
</g>
<g id="glyph-4-5">
<path d="M 3.75 -9.578125 L 3.75 0 L 1.203125 0 L 1.203125 -9.578125 Z M 3.75 -13.03125 L 3.75 -10.71875 L 1.203125 -10.71875 L 1.203125 -13.03125 Z M 3.75 -13.03125 "/>
</g>
<g id="glyph-4-6">
<path d="M 5.671875 -7.71875 C 4.828125 -7.71875 4.242188 -7.359375 3.921875 -6.640625 C 3.765625 -6.265625 3.6875 -5.78125 3.6875 -5.1875 L 3.6875 0 L 1.1875 0 L 1.1875 -9.5625 L 3.609375 -9.5625 L 3.609375 -8.171875 C 3.929688 -8.660156 4.234375 -9.015625 4.515625 -9.234375 C 5.035156 -9.617188 5.691406 -9.8125 6.484375 -9.8125 C 7.472656 -9.8125 8.28125 -9.550781 8.90625 -9.03125 C 9.539062 -8.507812 9.859375 -7.648438 9.859375 -6.453125 L 9.859375 0 L 7.28125 0 L 7.28125 -5.828125 C 7.28125 -6.328125 7.210938 -6.710938 7.078125 -6.984375 C 6.835938 -7.472656 6.367188 -7.71875 5.671875 -7.71875 Z M 5.671875 -7.71875 "/>
</g>
<g id="glyph-4-7">
<path d="M 1.21875 -12.953125 L 3.734375 -12.953125 L 3.734375 0 L 1.21875 0 Z M 1.21875 -12.953125 "/>
</g>
<g id="glyph-4-8">
</g>
<g id="glyph-4-9">
<path d="M 10.390625 -5.65625 L 4.09375 -5.65625 L 4.09375 -2.328125 L 11.265625 -2.328125 L 11.265625 0 L 1.453125 0 L 1.453125 -12.953125 L 10.953125 -12.953125 L 10.953125 -10.65625 L 4.09375 -10.65625 L 4.09375 -7.90625 L 10.390625 -7.90625 Z M 10.390625 -5.65625 "/>
</g>
<g id="glyph-4-10">
<path d="M 5.65625 -13.03125 L 5.65625 -11 C 5.519531 -11.007812 5.285156 -11.019531 4.953125 -11.03125 C 4.617188 -11.039062 4.390625 -10.96875 4.265625 -10.8125 C 4.140625 -10.65625 4.078125 -10.484375 4.078125 -10.296875 L 4.078125 -9.5 L 5.71875 -9.5 L 5.71875 -7.71875 L 4.078125 -7.71875 L 4.078125 0 L 1.578125 0 L 1.578125 -7.71875 L 0.1875 -7.71875 L 0.1875 -9.5 L 1.5625 -9.5 L 1.5625 -10.109375 C 1.5625 -11.128906 1.734375 -11.832031 2.078125 -12.21875 C 2.441406 -12.800781 3.316406 -13.09375 4.703125 -13.09375 C 4.859375 -13.09375 5 -13.085938 5.125 -13.078125 C 5.257812 -13.066406 5.4375 -13.050781 5.65625 -13.03125 Z M 5.65625 -13.03125 "/>
</g>
<g id="glyph-4-11">
<path d="M 9.375 -2.8125 C 9.300781 -2.238281 9.003906 -1.660156 8.484375 -1.078125 C 7.660156 -0.148438 6.507812 0.3125 5.03125 0.3125 C 3.8125 0.3125 2.734375 -0.078125 1.796875 -0.859375 C 0.867188 -1.648438 0.40625 -2.925781 0.40625 -4.6875 C 0.40625 -6.351562 0.828125 -7.625 1.671875 -8.5 C 2.515625 -9.382812 3.609375 -9.828125 4.953125 -9.828125 C 5.742188 -9.828125 6.457031 -9.675781 7.09375 -9.375 C 7.738281 -9.082031 8.269531 -8.613281 8.6875 -7.96875 C 9.0625 -7.40625 9.300781 -6.75 9.40625 -6 C 9.476562 -5.550781 9.507812 -4.914062 9.5 -4.09375 L 2.9375 -4.09375 C 2.96875 -3.132812 3.269531 -2.460938 3.84375 -2.078125 C 4.1875 -1.835938 4.601562 -1.71875 5.09375 -1.71875 C 5.601562 -1.71875 6.019531 -1.863281 6.34375 -2.15625 C 6.519531 -2.3125 6.675781 -2.53125 6.8125 -2.8125 Z M 6.890625 -5.75 C 6.847656 -6.40625 6.644531 -6.90625 6.28125 -7.25 C 5.925781 -7.59375 5.484375 -7.765625 4.953125 -7.765625 C 4.367188 -7.765625 3.914062 -7.582031 3.59375 -7.21875 C 3.28125 -6.863281 3.082031 -6.375 3 -5.75 Z M 6.890625 -5.75 "/>
</g>
<g id="glyph-4-12">
<path d="M 9.453125 -6.140625 L 6.890625 -6.140625 C 6.847656 -6.503906 6.726562 -6.828125 6.53125 -7.109375 C 6.25 -7.492188 5.8125 -7.6875 5.21875 -7.6875 C 4.375 -7.6875 3.796875 -7.269531 3.484375 -6.4375 C 3.328125 -5.988281 3.25 -5.394531 3.25 -4.65625 C 3.25 -3.957031 3.328125 -3.394531 3.484375 -2.96875 C 3.785156 -2.164062 4.347656 -1.765625 5.171875 -1.765625 C 5.765625 -1.765625 6.179688 -1.921875 6.421875 -2.234375 C 6.671875 -2.554688 6.820312 -2.96875 6.875 -3.46875 L 9.4375 -3.46875 C 9.375 -2.707031 9.097656 -1.988281 8.609375 -1.3125 C 7.816406 -0.21875 6.648438 0.328125 5.109375 0.328125 C 3.566406 0.328125 2.429688 -0.125 1.703125 -1.03125 C 0.984375 -1.945312 0.625 -3.132812 0.625 -4.59375 C 0.625 -6.238281 1.023438 -7.519531 1.828125 -8.4375 C 2.628906 -9.351562 3.738281 -9.8125 5.15625 -9.8125 C 6.351562 -9.8125 7.332031 -9.539062 8.09375 -9 C 8.863281 -8.457031 9.316406 -7.503906 9.453125 -6.140625 Z M 9.453125 -6.140625 "/>
</g>
<g id="glyph-4-13">
<path d="M 5.5625 -1.78125 L 5.5625 0.09375 L 4.375 0.125 C 3.1875 0.164062 2.375 -0.0351562 1.9375 -0.484375 C 1.65625 -0.773438 1.515625 -1.21875 1.515625 -1.8125 L 1.515625 -7.703125 L 0.1875 -7.703125 L 0.1875 -9.5 L 1.515625 -9.5 L 1.515625 -12.171875 L 4 -12.171875 L 4 -9.5 L 5.5625 -9.5 L 5.5625 -7.703125 L 4 -7.703125 L 4 -2.640625 C 4 -2.253906 4.046875 -2.007812 4.140625 -1.90625 C 4.242188 -1.8125 4.550781 -1.765625 5.0625 -1.765625 C 5.132812 -1.765625 5.210938 -1.765625 5.296875 -1.765625 C 5.390625 -1.773438 5.476562 -1.78125 5.5625 -1.78125 Z M 5.5625 -1.78125 "/>
</g>
<g id="glyph-4-14">
<path d="M 9.15625 -8.375 C 9.96875 -7.351562 10.375 -6.148438 10.375 -4.765625 C 10.375 -3.359375 9.96875 -2.15625 9.15625 -1.15625 C 8.351562 -0.164062 7.125 0.328125 5.46875 0.328125 C 3.820312 0.328125 2.59375 -0.164062 1.78125 -1.15625 C 0.976562 -2.15625 0.578125 -3.359375 0.578125 -4.765625 C 0.578125 -6.148438 0.976562 -7.347656 1.78125 -8.359375 C 2.59375 -9.378906 3.820312 -9.890625 5.46875 -9.890625 C 7.125 -9.890625 8.351562 -9.382812 9.15625 -8.375 Z M 5.46875 -7.765625 C 4.738281 -7.765625 4.175781 -7.503906 3.78125 -6.984375 C 3.382812 -6.472656 3.1875 -5.734375 3.1875 -4.765625 C 3.1875 -3.804688 3.382812 -3.066406 3.78125 -2.546875 C 4.175781 -2.023438 4.738281 -1.765625 5.46875 -1.765625 C 6.195312 -1.765625 6.757812 -2.023438 7.15625 -2.546875 C 7.550781 -3.066406 7.75 -3.804688 7.75 -4.765625 C 7.75 -5.734375 7.550781 -6.472656 7.15625 -6.984375 C 6.757812 -7.503906 6.195312 -7.765625 5.46875 -7.765625 Z M 5.46875 -7.765625 "/>
</g>
<g id="glyph-4-15">
<path d="M 10.5625 -10.65625 L 4.0625 -10.65625 L 4.0625 -7.6875 L 9.75 -7.6875 L 9.75 -5.4375 L 4.0625 -5.4375 L 4.0625 0 L 1.375 0 L 1.375 -12.9375 L 10.5625 -12.9375 Z M 10.5625 -10.65625 "/>
</g>
<g id="glyph-4-16">
<path d="M 9.1875 -8.546875 C 9.96875 -7.722656 10.359375 -6.507812 10.359375 -4.90625 C 10.359375 -3.21875 9.976562 -1.929688 9.21875 -1.046875 C 8.457031 -0.171875 7.476562 0.265625 6.28125 0.265625 C 5.519531 0.265625 4.890625 0.0742188 4.390625 -0.296875 C 4.109375 -0.503906 3.835938 -0.8125 3.578125 -1.21875 L 3.578125 3.765625 L 1.09375 3.765625 L 1.09375 -9.578125 L 3.5 -9.578125 L 3.5 -8.171875 C 3.769531 -8.585938 4.054688 -8.914062 4.359375 -9.15625 C 4.910156 -9.582031 5.570312 -9.796875 6.34375 -9.796875 C 7.46875 -9.796875 8.414062 -9.378906 9.1875 -8.546875 Z M 7.765625 -4.796875 C 7.765625 -5.523438 7.597656 -6.175781 7.265625 -6.75 C 6.929688 -7.320312 6.382812 -7.609375 5.625 -7.609375 C 4.71875 -7.609375 4.09375 -7.175781 3.75 -6.3125 C 3.570312 -5.851562 3.484375 -5.273438 3.484375 -4.578125 C 3.484375 -3.460938 3.78125 -2.675781 4.375 -2.21875 C 4.726562 -1.957031 5.144531 -1.828125 5.625 -1.828125 C 6.320312 -1.828125 6.851562 -2.097656 7.21875 -2.640625 C 7.582031 -3.179688 7.765625 -3.898438 7.765625 -4.796875 Z M 7.765625 -4.796875 "/>
</g>
<g id="glyph-4-17">
<path d="M 1.375 -12.953125 L 4.078125 -12.953125 L 4.078125 -2.328125 L 10.5 -2.328125 L 10.5 0 L 1.375 0 Z M 1.375 -12.953125 "/>
</g>
<g id="glyph-4-18">
<path d="M 9.828125 -5.625 L 9.828125 0 L 7.265625 0 L 7.265625 -5.828125 C 7.265625 -6.335938 7.175781 -6.753906 7 -7.078125 C 6.769531 -7.523438 6.335938 -7.75 5.703125 -7.75 C 5.046875 -7.75 4.546875 -7.523438 4.203125 -7.078125 C 3.859375 -6.640625 3.6875 -6.007812 3.6875 -5.1875 L 3.6875 0 L 1.1875 0 L 1.1875 -12.90625 L 3.6875 -12.90625 L 3.6875 -8.328125 C 4.050781 -8.890625 4.46875 -9.28125 4.9375 -9.5 C 5.414062 -9.71875 5.921875 -9.828125 6.453125 -9.828125 C 7.046875 -9.828125 7.582031 -9.722656 8.0625 -9.515625 C 8.550781 -9.316406 8.945312 -9.003906 9.25 -8.578125 C 9.519531 -8.222656 9.679688 -7.851562 9.734375 -7.46875 C 9.796875 -7.09375 9.828125 -6.476562 9.828125 -5.625 Z M 9.828125 -5.625 "/>
</g>
<g id="glyph-4-19">
<path d="M 6.375 0.25 C 5.582031 0.25 4.945312 0.0898438 4.46875 -0.21875 C 4.175781 -0.40625 3.863281 -0.734375 3.53125 -1.203125 L 3.53125 0 L 1.078125 0 L 1.078125 -12.9375 L 3.578125 -12.9375 L 3.578125 -8.328125 C 3.890625 -8.773438 4.238281 -9.117188 4.625 -9.359375 C 5.070312 -9.648438 5.644531 -9.796875 6.34375 -9.796875 C 7.601562 -9.796875 8.585938 -9.335938 9.296875 -8.421875 C 10.015625 -7.515625 10.375 -6.34375 10.375 -4.90625 C 10.375 -3.425781 10.019531 -2.195312 9.3125 -1.21875 C 8.613281 -0.238281 7.632812 0.25 6.375 0.25 Z M 7.75 -4.65625 C 7.75 -5.332031 7.660156 -5.894531 7.484375 -6.34375 C 7.148438 -7.1875 6.535156 -7.609375 5.640625 -7.609375 C 4.722656 -7.609375 4.097656 -7.191406 3.765625 -6.359375 C 3.585938 -5.921875 3.5 -5.351562 3.5 -4.65625 C 3.5 -3.832031 3.679688 -3.148438 4.046875 -2.609375 C 4.410156 -2.078125 4.960938 -1.8125 5.703125 -1.8125 C 6.347656 -1.8125 6.847656 -2.070312 7.203125 -2.59375 C 7.566406 -3.113281 7.75 -3.800781 7.75 -4.65625 Z M 7.75 -4.65625 "/>
</g>
<g id="glyph-4-20">
<path d="M 5.0625 -2.515625 L 7.046875 -9.578125 L 9.703125 -9.578125 L 6.421875 -0.15625 C 5.785156 1.65625 5.28125 2.78125 4.90625 3.21875 C 4.539062 3.65625 3.804688 3.875 2.703125 3.875 C 2.472656 3.875 2.289062 3.875 2.15625 3.875 C 2.019531 3.875 1.820312 3.863281 1.5625 3.84375 L 1.5625 1.84375 L 1.875 1.859375 C 2.113281 1.867188 2.34375 1.859375 2.5625 1.828125 C 2.789062 1.796875 2.984375 1.726562 3.140625 1.625 C 3.285156 1.53125 3.421875 1.320312 3.546875 1 C 3.671875 0.6875 3.722656 0.492188 3.703125 0.421875 L 0.1875 -9.578125 L 2.96875 -9.578125 Z M 5.0625 -2.515625 "/>
</g>
<g id="glyph-4-21">
<path d="M 6.078125 -1.875 C 6.710938 -1.875 7.226562 -1.941406 7.625 -2.078125 C 8.382812 -2.347656 8.765625 -2.851562 8.765625 -3.59375 C 8.765625 -4.019531 8.578125 -4.347656 8.203125 -4.578125 C 7.828125 -4.804688 7.238281 -5.007812 6.4375 -5.1875 L 5.0625 -5.5 C 3.71875 -5.800781 2.785156 -6.128906 2.265625 -6.484375 C 1.390625 -7.085938 0.953125 -8.023438 0.953125 -9.296875 C 0.953125 -10.453125 1.375 -11.410156 2.21875 -12.171875 C 3.0625 -12.941406 4.300781 -13.328125 5.9375 -13.328125 C 7.300781 -13.328125 8.460938 -12.960938 9.421875 -12.234375 C 10.390625 -11.515625 10.898438 -10.46875 10.953125 -9.09375 L 8.34375 -9.09375 C 8.300781 -9.875 7.960938 -10.429688 7.328125 -10.765625 C 6.910156 -10.972656 6.382812 -11.078125 5.75 -11.078125 C 5.0625 -11.078125 4.507812 -10.9375 4.09375 -10.65625 C 3.675781 -10.375 3.46875 -9.984375 3.46875 -9.484375 C 3.46875 -9.023438 3.671875 -8.679688 4.078125 -8.453125 C 4.335938 -8.296875 4.898438 -8.113281 5.765625 -7.90625 L 8 -7.375 C 8.976562 -7.132812 9.71875 -6.820312 10.21875 -6.4375 C 10.988281 -5.820312 11.375 -4.9375 11.375 -3.78125 C 11.375 -2.601562 10.921875 -1.625 10.015625 -0.84375 C 9.109375 -0.0625 7.828125 0.328125 6.171875 0.328125 C 4.484375 0.328125 3.15625 -0.0546875 2.1875 -0.828125 C 1.226562 -1.597656 0.75 -2.65625 0.75 -4 L 3.328125 -4 C 3.410156 -3.40625 3.570312 -2.960938 3.8125 -2.671875 C 4.25 -2.140625 5.003906 -1.875 6.078125 -1.875 Z M 6.078125 -1.875 "/>
</g>
<g id="glyph-4-22">
<path d="M 9.703125 0 L 6.578125 0 L 4.9375 -2.875 L 3.265625 0 L 0.234375 0 L 3.5 -4.859375 L 0.375 -9.5625 L 3.4375 -9.5625 L 5.03125 -6.78125 L 6.59375 -9.5625 L 9.578125 -9.5625 L 6.4375 -4.890625 Z M 9.703125 0 "/>
</g>
<g id="glyph-4-23">
<path d="M 3.921875 3.625 L 3.296875 2.78125 C 2.890625 2.257812 2.457031 1.488281 2 0.46875 C 1.1875 -1.351562 0.78125 -3.144531 0.78125 -4.90625 C 0.78125 -6.507812 1.125 -8.101562 1.8125 -9.6875 C 2.269531 -10.757812 2.945312 -11.921875 3.84375 -13.171875 L 5.734375 -13.171875 L 5.1875 -12.1875 C 4.457031 -10.832031 3.945312 -9.410156 3.65625 -7.921875 C 3.46875 -6.953125 3.375 -5.894531 3.375 -4.75 C 3.375 -2.957031 3.632812 -1.304688 4.15625 0.203125 C 4.457031 1.085938 5 2.226562 5.78125 3.625 Z M 3.921875 3.625 "/>
</g>
<g id="glyph-4-24">
<path d="M 8.953125 -2.65625 L 4.1875 -2.65625 L 3.28125 0 L 0.453125 0 L 5.078125 -12.953125 L 8.140625 -12.953125 L 12.734375 0 L 9.796875 0 Z M 8.203125 -4.890625 L 6.578125 -10 L 4.90625 -4.890625 Z M 8.203125 -4.890625 "/>
</g>
<g id="glyph-4-25">
<path d="M 9.890625 -12.9375 L 9.890625 0 L 7.453125 0 L 7.453125 -1.328125 C 7.097656 -0.753906 6.691406 -0.335938 6.234375 -0.078125 C 5.773438 0.171875 5.207031 0.296875 4.53125 0.296875 C 3.40625 0.296875 2.457031 -0.15625 1.6875 -1.0625 C 0.925781 -1.96875 0.546875 -3.128906 0.546875 -4.546875 C 0.546875 -6.179688 0.921875 -7.46875 1.671875 -8.40625 C 2.429688 -9.34375 3.441406 -9.8125 4.703125 -9.8125 C 5.285156 -9.8125 5.800781 -9.679688 6.25 -9.421875 C 6.695312 -9.171875 7.0625 -8.820312 7.34375 -8.375 L 7.34375 -12.9375 Z M 3.140625 -4.734375 C 3.140625 -3.847656 3.316406 -3.140625 3.671875 -2.609375 C 4.015625 -2.078125 4.539062 -1.8125 5.25 -1.8125 C 5.957031 -1.8125 6.492188 -2.070312 6.859375 -2.59375 C 7.234375 -3.125 7.421875 -3.8125 7.421875 -4.65625 C 7.421875 -5.820312 7.125 -6.65625 6.53125 -7.15625 C 6.164062 -7.46875 5.742188 -7.625 5.265625 -7.625 C 4.535156 -7.625 4 -7.34375 3.65625 -6.78125 C 3.3125 -6.226562 3.140625 -5.546875 3.140625 -4.734375 Z M 3.140625 -4.734375 "/>
</g>
<g id="glyph-4-26">
<path d="M 2.65625 2.78125 L 2.046875 3.625 L 0.1875 3.625 C 0.957031 2.226562 1.492188 1.085938 1.796875 0.203125 C 2.316406 -1.304688 2.578125 -2.957031 2.578125 -4.75 C 2.578125 -5.894531 2.484375 -6.953125 2.296875 -7.921875 C 2.015625 -9.410156 1.503906 -10.832031 0.765625 -12.1875 L 0.234375 -13.171875 L 2.125 -13.171875 C 3.007812 -11.921875 3.6875 -10.757812 4.15625 -9.6875 C 4.832031 -8.101562 5.171875 -6.507812 5.171875 -4.90625 C 5.171875 -3.144531 4.765625 -1.351562 3.953125 0.46875 C 3.492188 1.488281 3.0625 2.257812 2.65625 2.78125 Z M 2.65625 2.78125 "/>
</g>
</g>
<clipPath id="clip-0">
<path clip-rule="nonzero" d="M 59.738281 374 L 857.027344 374 L 857.027344 376 L 59.738281 376 Z M 59.738281 374 "/>
</clipPath>
<clipPath id="clip-1">
<path clip-rule="nonzero" d="M 59.738281 308 L 857.027344 308 L 857.027344 311 L 59.738281 311 Z M 59.738281 308 "/>
</clipPath>
<clipPath id="clip-2">
<path clip-rule="nonzero" d="M 59.738281 243 L 857.027344 243 L 857.027344 245 L 59.738281 245 Z M 59.738281 243 "/>
</clipPath>
<clipPath id="clip-3">
<path clip-rule="nonzero" d="M 59.738281 177 L 857.027344 177 L 857.027344 180 L 59.738281 180 Z M 59.738281 177 "/>
</clipPath>
<clipPath id="clip-4">
<path clip-rule="nonzero" d="M 59.738281 112 L 857.027344 112 L 857.027344 114 L 59.738281 114 Z M 59.738281 112 "/>
</clipPath>
<clipPath id="clip-5">
<path clip-rule="nonzero" d="M 206 100.089844 L 209 100.089844 L 209 388.261719 L 206 388.261719 Z M 206 100.089844 "/>
</clipPath>
<clipPath id="clip-6">
<path clip-rule="nonzero" d="M 429 100.089844 L 432 100.089844 L 432 388.261719 L 429 388.261719 Z M 429 100.089844 "/>
</clipPath>
<clipPath id="clip-7">
<path clip-rule="nonzero" d="M 652 100.089844 L 655 100.089844 L 655 388.261719 L 652 388.261719 Z M 652 100.089844 "/>
</clipPath>
</defs>
<rect x="-86.4" y="-43.2" width="1036.8" height="518.4" fill="rgb(100%, 100%, 100%)" fill-opacity="1"/>
<rect x="-86.4" y="-43.2" width="1036.8" height="518.4" fill="rgb(100%, 100%, 100%)" fill-opacity="1"/>
<g clip-path="url(#clip-0)">
<path fill="none" stroke-width="1.357972" stroke-linecap="butt" stroke-linejoin="round" stroke="rgb(92.156863%, 92.156863%, 92.156863%)" stroke-opacity="1" stroke-miterlimit="10" d="M 59.738281 375.222656 L 857.027344 375.222656 "/>
</g>
<g clip-path="url(#clip-1)">
<path fill="none" stroke-width="1.357972" stroke-linecap="butt" stroke-linejoin="round" stroke="rgb(92.156863%, 92.156863%, 92.156863%)" stroke-opacity="1" stroke-miterlimit="10" d="M 59.738281 309.65625 L 857.027344 309.65625 "/>
</g>
<g clip-path="url(#clip-2)">
<path fill="none" stroke-width="1.357972" stroke-linecap="butt" stroke-linejoin="round" stroke="rgb(92.156863%, 92.156863%, 92.156863%)" stroke-opacity="1" stroke-miterlimit="10" d="M 59.738281 244.089844 L 857.027344 244.089844 "/>
</g>
<g clip-path="url(#clip-3)">
<path fill="none" stroke-width="1.357972" stroke-linecap="butt" stroke-linejoin="round" stroke="rgb(92.156863%, 92.156863%, 92.156863%)" stroke-opacity="1" stroke-miterlimit="10" d="M 59.738281 178.523438 L 857.027344 178.523438 "/>
</g>
<g clip-path="url(#clip-4)">
<path fill="none" stroke-width="1.357972" stroke-linecap="butt" stroke-linejoin="round" stroke="rgb(92.156863%, 92.156863%, 92.156863%)" stroke-opacity="1" stroke-miterlimit="10" d="M 59.738281 112.957031 L 857.027344 112.957031 "/>
</g>
<g clip-path="url(#clip-5)">
<path fill="none" stroke-width="1.357972" stroke-linecap="butt" stroke-linejoin="round" stroke="rgb(92.156863%, 92.156863%, 92.156863%)" stroke-opacity="1" stroke-miterlimit="10" d="M 207.488281 388.261719 L 207.488281 100.089844 "/>
</g>
<g clip-path="url(#clip-6)">
<path fill="none" stroke-width="1.357972" stroke-linecap="butt" stroke-linejoin="round" stroke="rgb(92.156863%, 92.156863%, 92.156863%)" stroke-opacity="1" stroke-miterlimit="10" d="M 430.503906 388.261719 L 430.503906 100.089844 "/>
</g>
<g clip-path="url(#clip-7)">
<path fill="none" stroke-width="1.357972" stroke-linecap="butt" stroke-linejoin="round" stroke="rgb(92.156863%, 92.156863%, 92.156863%)" stroke-opacity="1" stroke-miterlimit="10" d="M 653.523438 388.261719 L 653.523438 100.089844 "/>
</g>
<path fill-rule="nonzero" fill="rgb(83.529412%, 36.862745%, 0%)" fill-opacity="0.14902" d="M 95.976562 358.128906 L 107.128906 357.191406 L 118.28125 356.183594 L 129.429688 355.097656 L 140.582031 353.929688 L 151.730469 352.667969 L 162.882812 351.300781 L 174.035156 349.828125 L 185.183594 348.230469 L 196.335938 346.5 L 207.488281 344.621094 L 218.636719 342.585938 L 229.789062 340.375 L 240.9375 337.976562 L 252.089844 335.371094 L 263.242188 332.542969 L 274.390625 329.472656 L 285.542969 326.144531 L 296.695312 322.535156 L 307.84375 318.636719 L 318.996094 314.421875 L 330.144531 309.878906 L 341.296875 304.996094 L 352.449219 299.761719 L 363.597656 294.171875 L 374.75 288.226562 L 385.902344 281.929688 L 397.050781 275.296875 L 408.203125 268.34375 L 419.355469 261.105469 L 430.503906 253.617188 L 441.65625 245.925781 L 452.804688 238.085938 L 463.957031 230.15625 L 475.109375 222.199219 L 486.257812 214.285156 L 497.410156 206.484375 L 508.5625 198.855469 L 519.710938 191.464844 L 530.863281 184.363281 L 542.011719 177.601562 L 553.164062 171.210938 L 564.316406 165.222656 L 575.464844 159.65625 L 586.617188 154.515625 L 597.769531 149.800781 L 608.917969 145.507812 L 620.070312 141.621094 L 631.21875 138.121094 L 642.371094 134.984375 L 653.523438 132.191406 L 664.671875 129.710938 L 675.824219 127.515625 L 686.976562 125.585938 L 698.125 123.890625 L 709.277344 122.40625 L 720.425781 121.109375 L 731.578125 119.984375 L 742.730469 119.003906 L 753.878906 118.152344 L 765.03125 117.417969 L 776.183594 116.785156 L 787.332031 116.234375 L 798.484375 115.765625 L 809.636719 115.359375 L 820.785156 115.011719 L 820.785156 363.097656 L 809.636719 363.550781 L 798.484375 363.996094 L 787.332031 364.429688 L 776.183594 364.851562 L 765.03125 365.261719 L 753.878906 365.664062 L 742.730469 366.058594 L 731.578125 366.441406 L 720.425781 366.8125 L 709.277344 367.175781 L 698.125 367.53125 L 686.976562 367.875 L 675.824219 368.210938 L 664.671875 368.539062 L 653.523438 368.855469 L 642.371094 369.164062 L 631.21875 369.464844 L 620.070312 369.757812 L 608.917969 370.039062 L 597.769531 370.316406 L 586.617188 370.582031 L 575.464844 370.839844 L 564.316406 371.085938 L 553.164062 371.328125 L 542.011719 371.558594 L 530.863281 371.785156 L 519.710938 372 L 508.5625 372.207031 L 497.410156 372.40625 L 486.257812 372.59375 L 475.109375 372.777344 L 463.957031 372.953125 L 452.804688 373.117188 L 441.65625 373.273438 L 430.503906 373.425781 L 419.355469 373.566406 L 408.203125 373.703125 L 397.050781 373.828125 L 385.902344 373.945312 L 374.75 374.058594 L 363.597656 374.160156 L 352.449219 374.257812 L 341.296875 374.347656 L 330.144531 374.433594 L 318.996094 374.511719 L 307.84375 374.582031 L 296.695312 374.648438 L 285.542969 374.707031 L 274.390625 374.761719 L 263.242188 374.8125 L 240.9375 374.898438 L 229.789062 374.933594 L 218.636719 374.96875 L 207.488281 374.996094 L 196.335938 375.023438 L 185.183594 375.046875 L 174.035156 375.070312 L 162.882812 375.089844 L 151.730469 375.105469 L 140.582031 375.121094 L 129.429688 375.132812 L 118.28125 375.144531 L 107.128906 375.15625 L 95.976562 375.164062 Z M 95.976562 358.128906 "/>
<path fill-rule="nonzero" fill="rgb(0%, 44.705882%, 69.803922%)" fill-opacity="0.14902" d="M 95.976562 283.660156 L 107.128906 281.304688 L 118.28125 278.867188 L 129.429688 276.339844 L 140.582031 273.714844 L 151.730469 270.988281 L 162.882812 268.148438 L 174.035156 265.191406 L 185.183594 262.105469 L 196.335938 258.886719 L 207.488281 255.519531 L 218.636719 252 L 229.789062 248.3125 L 240.9375 244.453125 L 252.089844 240.414062 L 263.242188 236.183594 L 274.390625 231.761719 L 285.542969 227.144531 L 296.695312 222.335938 L 307.84375 217.339844 L 318.996094 212.171875 L 330.144531 206.851562 L 341.296875 201.40625 L 352.449219 195.867188 L 363.597656 190.277344 L 374.75 184.679688 L 385.902344 179.121094 L 397.050781 173.65625 L 408.203125 168.335938 L 419.355469 163.203125 L 430.503906 158.300781 L 441.65625 153.660156 L 452.804688 149.3125 L 463.957031 145.273438 L 475.109375 141.554688 L 486.257812 138.15625 L 497.410156 135.074219 L 508.5625 132.296875 L 519.710938 129.816406 L 530.863281 127.605469 L 542.011719 125.652344 L 553.164062 123.929688 L 564.316406 122.417969 L 575.464844 121.097656 L 586.617188 119.953125 L 597.769531 118.953125 L 608.917969 118.09375 L 620.070312 117.347656 L 631.21875 116.707031 L 642.371094 116.15625 L 653.523438 115.683594 L 664.671875 115.277344 L 675.824219 114.933594 L 686.976562 114.636719 L 698.125 114.382812 L 709.277344 114.167969 L 720.425781 113.984375 L 731.578125 113.828125 L 742.730469 113.695312 L 753.878906 113.582031 L 765.03125 113.488281 L 776.183594 113.40625 L 787.332031 113.339844 L 798.484375 113.28125 L 809.636719 113.230469 L 820.785156 113.1875 L 820.785156 219.046875 L 809.636719 220.972656 L 798.484375 222.921875 L 787.332031 224.898438 L 776.183594 226.902344 L 765.03125 228.929688 L 753.878906 230.988281 L 742.730469 233.070312 L 731.578125 235.183594 L 720.425781 237.324219 L 709.277344 239.5 L 698.125 241.703125 L 686.976562 243.9375 L 675.824219 246.207031 L 664.671875 248.511719 L 653.523438 250.851562 L 642.371094 253.230469 L 631.21875 255.648438 L 620.070312 258.109375 L 608.917969 260.613281 L 597.769531 263.160156 L 586.617188 265.757812 L 575.464844 268.40625 L 564.316406 271.105469 L 553.164062 273.863281 L 542.011719 276.679688 L 530.863281 279.558594 L 519.710938 282.503906 L 508.5625 285.515625 L 497.410156 288.59375 L 486.257812 291.746094 L 475.109375 294.972656 L 463.957031 298.269531 L 452.804688 301.636719 L 441.65625 305.070312 L 430.503906 308.5625 L 419.355469 312.113281 L 408.203125 315.703125 L 397.050781 319.320312 L 385.902344 322.949219 L 374.75 326.566406 L 363.597656 330.15625 L 352.449219 333.6875 L 341.296875 337.136719 L 330.144531 340.476562 L 318.996094 343.6875 L 307.84375 346.75 L 296.695312 349.640625 L 285.542969 352.347656 L 274.390625 354.863281 L 263.242188 357.179688 L 252.089844 359.296875 L 240.9375 361.222656 L 229.789062 362.957031 L 218.636719 364.515625 L 207.488281 365.902344 L 196.335938 367.132812 L 185.183594 368.21875 L 174.035156 369.171875 L 162.882812 370.007812 L 151.730469 370.734375 L 140.582031 371.367188 L 129.429688 371.917969 L 118.28125 372.390625 L 107.128906 372.800781 L 95.976562 373.15625 Z M 95.976562 283.660156 "/>
<path fill="none" stroke-width="2.560748" stroke-linecap="butt" stroke-linejoin="round" stroke="rgb(83.529412%, 36.862745%, 0%)" stroke-opacity="1" stroke-miterlimit="10" d="M 95.976562 374.191406 L 107.128906 374.082031 L 118.28125 373.964844 L 129.429688 373.835938 L 140.582031 373.691406 L 151.730469 373.535156 L 162.882812 373.359375 L 174.035156 373.167969 L 185.183594 372.953125 L 196.335938 372.71875 L 207.488281 372.460938 L 218.636719 372.175781 L 229.789062 371.863281 L 240.9375 371.519531 L 252.089844 371.140625 L 263.242188 370.71875 L 274.390625 370.261719 L 285.542969 369.753906 L 296.695312 369.199219 L 307.84375 368.585938 L 318.996094 367.914062 L 330.144531 367.175781 L 341.296875 366.367188 L 352.449219 365.476562 L 363.597656 364.503906 L 374.75 363.4375 L 385.902344 362.269531 L 397.050781 360.992188 L 408.203125 359.597656 L 419.355469 358.078125 L 430.503906 356.417969 L 441.65625 354.613281 L 452.804688 352.648438 L 463.957031 350.519531 L 475.109375 348.210938 L 486.257812 345.714844 L 497.410156 343.015625 L 508.5625 340.109375 L 519.710938 336.984375 L 530.863281 333.632812 L 542.011719 330.046875 L 553.164062 326.21875 L 564.316406 322.148438 L 575.464844 317.828125 L 586.617188 313.257812 L 597.769531 308.449219 L 608.917969 303.394531 L 620.070312 298.113281 L 631.21875 292.609375 L 642.371094 286.898438 L 653.523438 281.003906 L 664.671875 274.941406 L 675.824219 268.734375 L 686.976562 262.414062 L 698.125 256 L 709.277344 249.53125 L 720.425781 243.039062 L 731.578125 236.546875 L 742.730469 230.09375 L 753.878906 223.710938 L 765.03125 217.421875 L 776.183594 211.257812 L 787.332031 205.246094 L 798.484375 199.410156 L 809.636719 193.765625 L 820.785156 188.332031 "/>
<path fill="none" stroke-width="2.560748" stroke-linecap="butt" stroke-linejoin="round" stroke="rgb(0%, 44.705882%, 69.803922%)" stroke-opacity="1" stroke-miterlimit="10" d="M 95.976562 359.148438 L 107.128906 357.585938 L 118.28125 355.886719 L 129.429688 354.03125 L 140.582031 352.019531 L 151.730469 349.835938 L 162.882812 347.472656 L 174.035156 344.914062 L 185.183594 342.15625 L 196.335938 339.183594 L 207.488281 335.992188 L 218.636719 332.566406 L 229.789062 328.910156 L 240.9375 325.007812 L 252.089844 320.859375 L 263.242188 316.464844 L 274.390625 311.820312 L 285.542969 306.9375 L 296.695312 301.8125 L 307.84375 296.460938 L 318.996094 290.894531 L 330.144531 285.125 L 341.296875 279.175781 L 352.449219 273.066406 L 363.597656 266.824219 L 374.75 260.472656 L 385.902344 254.039062 L 397.050781 247.558594 L 408.203125 241.0625 L 419.355469 234.582031 L 430.503906 228.144531 L 441.65625 221.785156 L 452.804688 215.535156 L 463.957031 209.414062 L 475.109375 203.453125 L 486.257812 197.671875 L 497.410156 192.089844 L 508.5625 186.722656 L 519.710938 181.585938 L 530.863281 176.683594 L 542.011719 172.023438 L 553.164062 167.613281 L 564.316406 163.449219 L 575.464844 159.53125 L 586.617188 155.855469 L 597.769531 152.414062 L 608.917969 149.207031 L 620.070312 146.21875 L 631.21875 143.445312 L 642.371094 140.875 L 653.523438 138.5 L 664.671875 136.304688 L 675.824219 134.28125 L 686.976562 132.417969 L 698.125 130.707031 L 709.277344 129.132812 L 720.425781 127.695312 L 731.578125 126.375 L 742.730469 125.167969 L 753.878906 124.0625 L 765.03125 123.054688 L 776.183594 122.136719 L 787.332031 121.296875 L 798.484375 120.535156 L 809.636719 119.839844 L 820.785156 119.203125 "/>
<g fill="rgb(30.196078%, 30.196078%, 30.196078%)" fill-opacity="1">
<use xlink:href="#glyph-0-1" x="37.460938" y="379.34668"/>
<use xlink:href="#glyph-0-2" x="43.460938" y="379.34668"/>
</g>
<g fill="rgb(30.196078%, 30.196078%, 30.196078%)" fill-opacity="1">
<use xlink:href="#glyph-0-3" x="31.460938" y="313.780273"/>
<use xlink:href="#glyph-0-4" x="37.460938" y="313.780273"/>
<use xlink:href="#glyph-0-2" x="43.460938" y="313.780273"/>
</g>
<g fill="rgb(30.196078%, 30.196078%, 30.196078%)" fill-opacity="1">
<use xlink:href="#glyph-0-4" x="31.460938" y="248.213867"/>
<use xlink:href="#glyph-0-1" x="37.460938" y="248.213867"/>
<use xlink:href="#glyph-0-2" x="43.460938" y="248.213867"/>
</g>
<g fill="rgb(30.196078%, 30.196078%, 30.196078%)" fill-opacity="1">
<use xlink:href="#glyph-0-5" x="31.460938" y="182.647461"/>
<use xlink:href="#glyph-0-4" x="37.460938" y="182.647461"/>
<use xlink:href="#glyph-0-2" x="43.460938" y="182.647461"/>
</g>
<g fill="rgb(30.196078%, 30.196078%, 30.196078%)" fill-opacity="1">
<use xlink:href="#glyph-0-6" x="25.460938" y="117.081055"/>
<use xlink:href="#glyph-0-1" x="31.460938" y="117.081055"/>
<use xlink:href="#glyph-0-1" x="37.460938" y="117.081055"/>
<use xlink:href="#glyph-0-2" x="43.460938" y="117.081055"/>
</g>
<g fill="rgb(30.196078%, 30.196078%, 30.196078%)" fill-opacity="1">
<use xlink:href="#glyph-0-6" x="198.488281" y="403.163086"/>
<use xlink:href="#glyph-0-7" x="204.488281" y="403.163086"/>
<use xlink:href="#glyph-0-1" x="210.488281" y="403.163086"/>
</g>
<g fill="rgb(30.196078%, 30.196078%, 30.196078%)" fill-opacity="1">
<use xlink:href="#glyph-0-3" x="421.503906" y="403.163086"/>
<use xlink:href="#glyph-0-1" x="427.503906" y="403.163086"/>
<use xlink:href="#glyph-0-1" x="433.503906" y="403.163086"/>
</g>
<g fill="rgb(30.196078%, 30.196078%, 30.196078%)" fill-opacity="1">
<use xlink:href="#glyph-0-3" x="644.523438" y="403.163086"/>
<use xlink:href="#glyph-0-3" x="650.523438" y="403.163086"/>
<use xlink:href="#glyph-0-1" x="656.523438" y="403.163086"/>
</g>
<g fill="rgb(30.196078%, 30.196078%, 30.196078%)" fill-opacity="1">
<use xlink:href="#glyph-1-1" x="395.882812" y="420.807617"/>
<use xlink:href="#glyph-1-2" x="404.882812" y="420.807617"/>
<use xlink:href="#glyph-1-3" x="407.882812" y="420.807617"/>
<use xlink:href="#glyph-1-4" x="410.882812" y="420.807617"/>
<use xlink:href="#glyph-1-4" x="418.882812" y="420.807617"/>
<use xlink:href="#glyph-1-5" x="426.882812" y="420.807617"/>
<use xlink:href="#glyph-1-6" x="434.882812" y="420.807617"/>
<use xlink:href="#glyph-1-7" x="439.882812" y="420.807617"/>
<use xlink:href="#glyph-1-2" x="443.882812" y="420.807617"/>
<use xlink:href="#glyph-1-5" x="446.882812" y="420.807617"/>
<use xlink:href="#glyph-1-8" x="454.882812" y="420.807617"/>
<use xlink:href="#glyph-1-9" x="462.882812" y="420.807617"/>
<use xlink:href="#glyph-1-10" x="470.882812" y="420.807617"/>
<use xlink:href="#glyph-1-11" x="474.882812" y="420.807617"/>
<use xlink:href="#glyph-1-7" x="482.882812" y="420.807617"/>
<use xlink:href="#glyph-1-12" x="486.882812" y="420.807617"/>
<use xlink:href="#glyph-1-13" x="491.882812" y="420.807617"/>
<use xlink:href="#glyph-1-13" x="503.882812" y="420.807617"/>
<use xlink:href="#glyph-1-14" x="515.882812" y="420.807617"/>
</g>
<g fill="rgb(30.196078%, 30.196078%, 30.196078%)" fill-opacity="1">
<use xlink:href="#glyph-2-1" x="17.75293" y="318.175781"/>
<use xlink:href="#glyph-2-2" x="17.75293" y="309.175781"/>
<use xlink:href="#glyph-2-3" x="17.75293" y="304.175781"/>
<use xlink:href="#glyph-2-4" x="17.75293" y="296.175781"/>
<use xlink:href="#glyph-2-5" x="17.75293" y="288.175781"/>
<use xlink:href="#glyph-2-6" x="17.75293" y="280.175781"/>
<use xlink:href="#glyph-2-7" x="17.75293" y="273.175781"/>
<use xlink:href="#glyph-2-8" x="17.75293" y="265.175781"/>
<use xlink:href="#glyph-2-9" x="17.75293" y="260.175781"/>
<use xlink:href="#glyph-2-7" x="17.75293" y="248.175781"/>
<use xlink:href="#glyph-2-10" x="17.75293" y="240.175781"/>
<use xlink:href="#glyph-2-11" x="17.75293" y="232.175781"/>
<use xlink:href="#glyph-2-3" x="17.75293" y="229.175781"/>
<use xlink:href="#glyph-2-12" x="17.75293" y="221.175781"/>
<use xlink:href="#glyph-2-13" x="17.75293" y="213.175781"/>
<use xlink:href="#glyph-2-9" x="17.75293" y="209.175781"/>
<use xlink:href="#glyph-2-3" x="17.75293" y="197.175781"/>
<use xlink:href="#glyph-2-14" x="17.75293" y="189.175781"/>
<use xlink:href="#glyph-2-14" x="17.75293" y="182.175781"/>
<use xlink:href="#glyph-2-15" x="17.75293" y="175.175781"/>
</g>
<g fill="rgb(0%, 0%, 0%)" fill-opacity="1">
<use xlink:href="#glyph-3-1" x="388.152344" y="74.538086"/>
<use xlink:href="#glyph-3-2" x="397.152344" y="74.538086"/>
<use xlink:href="#glyph-3-3" x="404.152344" y="74.538086"/>
</g>
<path fill-rule="nonzero" fill="rgb(83.529412%, 36.862745%, 0%)" fill-opacity="0.14902" d="M 419.03125 78.265625 L 434.507812 78.265625 L 434.507812 62.789062 L 419.03125 62.789062 Z M 419.03125 78.265625 "/>
<path fill="none" stroke-width="2.560748" stroke-linecap="butt" stroke-linejoin="round" stroke="rgb(83.529412%, 36.862745%, 0%)" stroke-opacity="1" stroke-miterlimit="10" d="M 419.855469 70.527344 L 433.679688 70.527344 "/>
<path fill-rule="nonzero" fill="rgb(0%, 44.705882%, 69.803922%)" fill-opacity="0.14902" d="M 482.257812 78.265625 L 497.734375 78.265625 L 497.734375 62.789062 L 482.257812 62.789062 Z M 482.257812 78.265625 "/>
<path fill="none" stroke-width="2.560748" stroke-linecap="butt" stroke-linejoin="round" stroke="rgb(0%, 44.705882%, 69.803922%)" stroke-opacity="1" stroke-miterlimit="10" d="M 483.082031 70.527344 L 496.90625 70.527344 "/>
<g fill="rgb(0%, 0%, 0%)" fill-opacity="1">
<use xlink:href="#glyph-0-8" x="442.382812" y="74.651367"/>
<use xlink:href="#glyph-0-9" x="445.382812" y="74.651367"/>
<use xlink:href="#glyph-0-10" x="451.382812" y="74.651367"/>
<use xlink:href="#glyph-0-11" x="460.382812" y="74.651367"/>
<use xlink:href="#glyph-0-12" x="466.382812" y="74.651367"/>
<use xlink:href="#glyph-0-9" x="468.382812" y="74.651367"/>
</g>
<g fill="rgb(0%, 0%, 0%)" fill-opacity="1">
<use xlink:href="#glyph-0-10" x="505.609375" y="74.651367"/>
<use xlink:href="#glyph-0-11" x="514.609375" y="74.651367"/>
<use xlink:href="#glyph-0-12" x="520.609375" y="74.651367"/>
<use xlink:href="#glyph-0-9" x="522.609375" y="74.651367"/>
</g>
<g fill="rgb(40%, 40%, 40%)" fill-opacity="1">
<use xlink:href="#glyph-1-9" x="6.972656" y="38.737305"/>
<use xlink:href="#glyph-1-9" x="14.972656" y="38.737305"/>
<use xlink:href="#glyph-1-5" x="22.972656" y="38.737305"/>
<use xlink:href="#glyph-1-15" x="30.972656" y="38.737305"/>
<use xlink:href="#glyph-1-15" x="34.972656" y="38.737305"/>
<use xlink:href="#glyph-1-5" x="38.972656" y="38.737305"/>
<use xlink:href="#glyph-1-16" x="46.972656" y="38.737305"/>
<use xlink:href="#glyph-1-10" x="53.972656" y="38.737305"/>
<use xlink:href="#glyph-1-17" x="57.972656" y="38.737305"/>
<use xlink:href="#glyph-1-7" x="64.972656" y="38.737305"/>
<use xlink:href="#glyph-1-18" x="68.972656" y="38.737305"/>
<use xlink:href="#glyph-1-19" x="76.972656" y="38.737305"/>
<use xlink:href="#glyph-1-10" x="84.972656" y="38.737305"/>
<use xlink:href="#glyph-1-20" x="88.972656" y="38.737305"/>
<use xlink:href="#glyph-1-13" x="96.972656" y="38.737305"/>
<use xlink:href="#glyph-1-18" x="108.972656" y="38.737305"/>
<use xlink:href="#glyph-1-10" x="116.972656" y="38.737305"/>
<use xlink:href="#glyph-1-5" x="120.972656" y="38.737305"/>
<use xlink:href="#glyph-1-17" x="128.972656" y="38.737305"/>
<use xlink:href="#glyph-1-7" x="135.972656" y="38.737305"/>
<use xlink:href="#glyph-1-4" x="139.972656" y="38.737305"/>
<use xlink:href="#glyph-1-6" x="147.972656" y="38.737305"/>
<use xlink:href="#glyph-1-5" x="152.972656" y="38.737305"/>
<use xlink:href="#glyph-1-21" x="160.972656" y="38.737305"/>
<use xlink:href="#glyph-1-3" x="168.972656" y="38.737305"/>
<use xlink:href="#glyph-1-16" x="171.972656" y="38.737305"/>
<use xlink:href="#glyph-1-10" x="178.972656" y="38.737305"/>
<use xlink:href="#glyph-1-5" x="182.972656" y="38.737305"/>
<use xlink:href="#glyph-1-21" x="190.972656" y="38.737305"/>
<use xlink:href="#glyph-1-7" x="198.972656" y="38.737305"/>
<use xlink:href="#glyph-1-22" x="202.972656" y="38.737305"/>
<use xlink:href="#glyph-1-18" x="209.972656" y="38.737305"/>
<use xlink:href="#glyph-1-2" x="217.972656" y="38.737305"/>
<use xlink:href="#glyph-1-19" x="220.972656" y="38.737305"/>
<use xlink:href="#glyph-1-5" x="228.972656" y="38.737305"/>
<use xlink:href="#glyph-1-17" x="236.972656" y="38.737305"/>
<use xlink:href="#glyph-1-7" x="243.972656" y="38.737305"/>
<use xlink:href="#glyph-1-15" x="247.972656" y="38.737305"/>
<use xlink:href="#glyph-1-20" x="251.972656" y="38.737305"/>
<use xlink:href="#glyph-1-6" x="259.972656" y="38.737305"/>
<use xlink:href="#glyph-1-7" x="264.972656" y="38.737305"/>
<use xlink:href="#glyph-1-18" x="268.972656" y="38.737305"/>
<use xlink:href="#glyph-1-8" x="276.972656" y="38.737305"/>
<use xlink:href="#glyph-1-23" x="284.972656" y="38.737305"/>
<use xlink:href="#glyph-1-7" x="291.972656" y="38.737305"/>
<use xlink:href="#glyph-1-13" x="295.972656" y="38.737305"/>
<use xlink:href="#glyph-1-20" x="307.972656" y="38.737305"/>
<use xlink:href="#glyph-1-21" x="315.972656" y="38.737305"/>
<use xlink:href="#glyph-1-5" x="323.972656" y="38.737305"/>
<use xlink:href="#glyph-1-2" x="331.972656" y="38.737305"/>
</g>
<g fill="rgb(10.196078%, 10.196078%, 18.039216%)" fill-opacity="1">
<use xlink:href="#glyph-4-1" x="6.972656" y="19.833008"/>
<use xlink:href="#glyph-4-2" x="21.972656" y="19.833008"/>
<use xlink:href="#glyph-4-3" x="31.972656" y="19.833008"/>
<use xlink:href="#glyph-4-4" x="38.972656" y="19.833008"/>
<use xlink:href="#glyph-4-5" x="49.972656" y="19.833008"/>
<use xlink:href="#glyph-4-6" x="54.972656" y="19.833008"/>
<use xlink:href="#glyph-4-2" x="65.972656" y="19.833008"/>
<use xlink:href="#glyph-4-7" x="75.972656" y="19.833008"/>
<use xlink:href="#glyph-4-8" x="80.972656" y="19.833008"/>
<use xlink:href="#glyph-4-9" x="85.972656" y="19.833008"/>
<use xlink:href="#glyph-4-10" x="97.972656" y="19.833008"/>
<use xlink:href="#glyph-4-10" x="103.972656" y="19.833008"/>
<use xlink:href="#glyph-4-11" x="109.972656" y="19.833008"/>
<use xlink:href="#glyph-4-12" x="119.972656" y="19.833008"/>
<use xlink:href="#glyph-4-13" x="129.972656" y="19.833008"/>
<use xlink:href="#glyph-4-8" x="135.972656" y="19.833008"/>
<use xlink:href="#glyph-4-14" x="140.972656" y="19.833008"/>
<use xlink:href="#glyph-4-10" x="151.972656" y="19.833008"/>
<use xlink:href="#glyph-4-8" x="157.972656" y="19.833008"/>
<use xlink:href="#glyph-4-15" x="162.972656" y="19.833008"/>
<use xlink:href="#glyph-4-7" x="173.972656" y="19.833008"/>
<use xlink:href="#glyph-4-5" x="178.972656" y="19.833008"/>
<use xlink:href="#glyph-4-16" x="183.972656" y="19.833008"/>
<use xlink:href="#glyph-4-16" x="194.972656" y="19.833008"/>
<use xlink:href="#glyph-4-11" x="205.972656" y="19.833008"/>
<use xlink:href="#glyph-4-3" x="215.972656" y="19.833008"/>
<use xlink:href="#glyph-4-8" x="222.972656" y="19.833008"/>
<use xlink:href="#glyph-4-17" x="227.972656" y="19.833008"/>
<use xlink:href="#glyph-4-11" x="238.972656" y="19.833008"/>
<use xlink:href="#glyph-4-6" x="248.972656" y="19.833008"/>
<use xlink:href="#glyph-4-4" x="259.972656" y="19.833008"/>
<use xlink:href="#glyph-4-13" x="270.972656" y="19.833008"/>
<use xlink:href="#glyph-4-18" x="276.972656" y="19.833008"/>
<use xlink:href="#glyph-4-8" x="287.972656" y="19.833008"/>
<use xlink:href="#glyph-4-19" x="292.972656" y="19.833008"/>
<use xlink:href="#glyph-4-20" x="303.972656" y="19.833008"/>
<use xlink:href="#glyph-4-8" x="313.972656" y="19.833008"/>
<use xlink:href="#glyph-4-21" x="318.972656" y="19.833008"/>
<use xlink:href="#glyph-4-11" x="330.972656" y="19.833008"/>
<use xlink:href="#glyph-4-22" x="340.972656" y="19.833008"/>
<use xlink:href="#glyph-4-8" x="350.972656" y="19.833008"/>
<use xlink:href="#glyph-4-23" x="355.972656" y="19.833008"/>
<use xlink:href="#glyph-4-24" x="361.972656" y="19.833008"/>
<use xlink:href="#glyph-4-25" x="374.972656" y="19.833008"/>
<use xlink:href="#glyph-4-11" x="385.972656" y="19.833008"/>
<use xlink:href="#glyph-4-7" x="395.972656" y="19.833008"/>
<use xlink:href="#glyph-4-5" x="400.972656" y="19.833008"/>
<use xlink:href="#glyph-4-11" x="405.972656" y="19.833008"/>
<use xlink:href="#glyph-4-26" x="415.972656" y="19.833008"/>
</g>
</svg>
