<?xml version="1.0" encoding="UTF-8"?>
<svg xmlns="http://www.w3.org/2000/svg" xmlns:xlink="http://www.w3.org/1999/xlink" width="864pt" height="360pt" viewBox="0 0 864 360">
<defs>
<g>
<g id="glyph-0-0">
<path d="M 0.359375 0 L 0.359375 -8.03125 L 6.734375 -8.03125 L 6.734375 0 Z M 5.734375 -1 L 5.734375 -7.03125 L 1.375 -7.03125 L 1.375 -1 Z M 5.734375 -1 "/>
</g>
<g id="glyph-0-1">
<path d="M 0.953125 -8.03125 L 6.8125 -8.03125 L 6.8125 -7.046875 L 2.015625 -7.046875 L 2.015625 -4.609375 L 6.453125 -4.609375 L 6.453125 -3.6875 L 2.015625 -3.6875 L 2.015625 -0.953125 L 6.890625 -0.953125 L 6.890625 0 L 0.953125 0 Z M 3.921875 -8.03125 Z M 3.921875 -8.03125 "/>
</g>
<g id="glyph-0-2">
<path d="M 0.171875 -5.859375 L 1.4375 -5.859375 L 2.78125 -3.796875 L 4.140625 -5.859375 L 5.34375 -5.828125 L 3.375 -3 L 5.4375 0 L 4.171875 0 L 2.71875 -2.203125 L 1.3125 0 L 0.0625 0 L 2.125 -3 Z M 0.171875 -5.859375 "/>
</g>
<g id="glyph-0-3">
<path d="M 3.15625 -5.984375 C 3.570312 -5.984375 3.972656 -5.882812 4.359375 -5.6875 C 4.753906 -5.5 5.054688 -5.25 5.265625 -4.9375 C 5.460938 -4.644531 5.59375 -4.300781 5.65625 -3.90625 C 5.71875 -3.632812 5.75 -3.203125 5.75 -2.609375 L 1.453125 -2.609375 C 1.472656 -2.015625 1.613281 -1.535156 1.875 -1.171875 C 2.132812 -0.816406 2.539062 -0.640625 3.09375 -0.640625 C 3.601562 -0.640625 4.015625 -0.8125 4.328125 -1.15625 C 4.492188 -1.351562 4.613281 -1.582031 4.6875 -1.84375 L 5.65625 -1.84375 C 5.632812 -1.625 5.550781 -1.378906 5.40625 -1.109375 C 5.257812 -0.847656 5.097656 -0.632812 4.921875 -0.46875 C 4.617188 -0.175781 4.25 0.0195312 3.8125 0.125 C 3.570312 0.175781 3.304688 0.203125 3.015625 0.203125 C 2.285156 0.203125 1.664062 -0.0625 1.15625 -0.59375 C 0.644531 -1.125 0.390625 -1.863281 0.390625 -2.8125 C 0.390625 -3.757812 0.644531 -4.523438 1.15625 -5.109375 C 1.664062 -5.691406 2.332031 -5.984375 3.15625 -5.984375 Z M 4.734375 -3.390625 C 4.691406 -3.816406 4.597656 -4.160156 4.453125 -4.421875 C 4.179688 -4.890625 3.734375 -5.125 3.109375 -5.125 C 2.648438 -5.125 2.265625 -4.960938 1.953125 -4.640625 C 1.648438 -4.316406 1.492188 -3.898438 1.484375 -3.390625 Z M 3.0625 -6 Z M 3.0625 -6 "/>
</g>
<g id="glyph-0-4">
<path d="M 0.75 -5.859375 L 1.6875 -5.859375 L 1.6875 -4.84375 C 1.757812 -5.039062 1.945312 -5.28125 2.25 -5.5625 C 2.550781 -5.84375 2.894531 -5.984375 3.28125 -5.984375 C 3.300781 -5.984375 3.332031 -5.984375 3.375 -5.984375 C 3.414062 -5.984375 3.488281 -5.976562 3.59375 -5.96875 L 3.59375 -4.921875 C 3.539062 -4.929688 3.488281 -4.9375 3.4375 -4.9375 C 3.382812 -4.945312 3.332031 -4.953125 3.28125 -4.953125 C 2.78125 -4.953125 2.394531 -4.789062 2.125 -4.46875 C 1.863281 -4.15625 1.734375 -3.789062 1.734375 -3.375 L 1.734375 0 L 0.75 0 Z M 0.75 -5.859375 "/>
</g>
<g id="glyph-0-5">
<path d="M 2.984375 -6.03125 C 3.640625 -6.03125 4.175781 -5.867188 4.59375 -5.546875 C 5.007812 -5.222656 5.257812 -4.671875 5.34375 -3.890625 L 4.375 -3.890625 C 4.320312 -4.253906 4.191406 -4.550781 3.984375 -4.78125 C 3.773438 -5.019531 3.441406 -5.140625 2.984375 -5.140625 C 2.359375 -5.140625 1.910156 -4.835938 1.640625 -4.234375 C 1.460938 -3.828125 1.375 -3.332031 1.375 -2.75 C 1.375 -2.164062 1.492188 -1.671875 1.734375 -1.265625 C 1.984375 -0.867188 2.378906 -0.671875 2.921875 -0.671875 C 3.328125 -0.671875 3.648438 -0.796875 3.890625 -1.046875 C 4.128906 -1.296875 4.289062 -1.640625 4.375 -2.078125 L 5.34375 -2.078125 C 5.226562 -1.296875 4.953125 -0.722656 4.515625 -0.359375 C 4.078125 -0.00390625 3.519531 0.171875 2.84375 0.171875 C 2.070312 0.171875 1.457031 -0.109375 1 -0.671875 C 0.550781 -1.234375 0.328125 -1.929688 0.328125 -2.765625 C 0.328125 -3.796875 0.578125 -4.597656 1.078125 -5.171875 C 1.578125 -5.742188 2.210938 -6.03125 2.984375 -6.03125 Z M 2.828125 -6 Z M 2.828125 -6 "/>
</g>
<g id="glyph-0-6">
<path d="M 0.71875 -5.828125 L 1.71875 -5.828125 L 1.71875 0 L 0.71875 0 Z M 0.71875 -8.03125 L 1.71875 -8.03125 L 1.71875 -6.921875 L 0.71875 -6.921875 Z M 0.71875 -8.03125 "/>
</g>
<g id="glyph-0-7">
<path d="M 1.3125 -1.84375 C 1.332031 -1.507812 1.410156 -1.253906 1.546875 -1.078125 C 1.796875 -0.765625 2.226562 -0.609375 2.84375 -0.609375 C 3.207031 -0.609375 3.523438 -0.6875 3.796875 -0.84375 C 4.078125 -1 4.21875 -1.242188 4.21875 -1.578125 C 4.21875 -1.828125 4.109375 -2.019531 3.890625 -2.15625 C 3.742188 -2.238281 3.460938 -2.332031 3.046875 -2.4375 L 2.265625 -2.625 C 1.765625 -2.75 1.394531 -2.890625 1.15625 -3.046875 C 0.738281 -3.316406 0.53125 -3.6875 0.53125 -4.15625 C 0.53125 -4.707031 0.726562 -5.15625 1.125 -5.5 C 1.519531 -5.84375 2.054688 -6.015625 2.734375 -6.015625 C 3.617188 -6.015625 4.253906 -5.753906 4.640625 -5.234375 C 4.890625 -4.910156 5.007812 -4.554688 5 -4.171875 L 4.0625 -4.171875 C 4.050781 -4.390625 3.972656 -4.59375 3.828125 -4.78125 C 3.609375 -5.039062 3.21875 -5.171875 2.65625 -5.171875 C 2.28125 -5.171875 2 -5.097656 1.8125 -4.953125 C 1.625 -4.816406 1.53125 -4.628906 1.53125 -4.390625 C 1.53125 -4.140625 1.65625 -3.9375 1.90625 -3.78125 C 2.050781 -3.6875 2.265625 -3.609375 2.546875 -3.546875 L 3.203125 -3.375 C 3.910156 -3.207031 4.382812 -3.046875 4.625 -2.890625 C 5.007812 -2.628906 5.203125 -2.234375 5.203125 -1.703125 C 5.203125 -1.171875 5.003906 -0.71875 4.609375 -0.34375 C 4.210938 0.0273438 3.609375 0.21875 2.796875 0.21875 C 1.921875 0.21875 1.300781 0.0195312 0.9375 -0.375 C 0.582031 -0.769531 0.390625 -1.257812 0.359375 -1.84375 Z M 2.765625 -6 Z M 2.765625 -6 "/>
</g>
<g id="glyph-0-8">
<path d="M 1.5625 -2.59375 C 1.59375 -2.132812 1.703125 -1.765625 1.890625 -1.484375 C 2.242188 -0.953125 2.878906 -0.6875 3.796875 -0.6875 C 4.203125 -0.6875 4.570312 -0.742188 4.90625 -0.859375 C 5.5625 -1.085938 5.890625 -1.492188 5.890625 -2.078125 C 5.890625 -2.515625 5.75 -2.828125 5.46875 -3.015625 C 5.195312 -3.191406 4.765625 -3.347656 4.171875 -3.484375 L 3.078125 -3.734375 C 2.367188 -3.890625 1.867188 -4.066406 1.578125 -4.265625 C 1.066406 -4.597656 0.8125 -5.097656 0.8125 -5.765625 C 0.8125 -6.484375 1.0625 -7.070312 1.5625 -7.53125 C 2.0625 -8 2.769531 -8.234375 3.6875 -8.234375 C 4.519531 -8.234375 5.234375 -8.03125 5.828125 -7.625 C 6.421875 -7.21875 6.71875 -6.566406 6.71875 -5.671875 L 5.6875 -5.671875 C 5.632812 -6.109375 5.519531 -6.441406 5.34375 -6.671875 C 5.007812 -7.085938 4.445312 -7.296875 3.65625 -7.296875 C 3.007812 -7.296875 2.546875 -7.160156 2.265625 -6.890625 C 1.984375 -6.617188 1.84375 -6.304688 1.84375 -5.953125 C 1.84375 -5.554688 2.003906 -5.269531 2.328125 -5.09375 C 2.546875 -4.96875 3.035156 -4.820312 3.796875 -4.65625 L 4.921875 -4.390625 C 5.460938 -4.265625 5.882812 -4.097656 6.1875 -3.890625 C 6.695312 -3.515625 6.953125 -2.96875 6.953125 -2.25 C 6.953125 -1.351562 6.625 -0.710938 5.96875 -0.328125 C 5.320312 0.0429688 4.570312 0.234375 3.71875 0.234375 C 2.71875 0.234375 1.9375 -0.0195312 1.375 -0.53125 C 0.8125 -1.039062 0.535156 -1.726562 0.546875 -2.59375 Z M 3.765625 -8.25 Z M 3.765625 -8.25 "/>
</g>
<g id="glyph-0-9">
<path d="M 0.75 -8.03125 L 1.734375 -8.03125 L 1.734375 0 L 0.75 0 Z M 0.75 -8.03125 "/>
</g>
<g id="glyph-0-10">
<path d="M 3.1875 -0.65625 C 3.65625 -0.65625 4.039062 -0.847656 4.34375 -1.234375 C 4.644531 -1.617188 4.796875 -2.195312 4.796875 -2.96875 C 4.796875 -3.4375 4.726562 -3.835938 4.59375 -4.171875 C 4.34375 -4.816406 3.875 -5.140625 3.1875 -5.140625 C 2.507812 -5.140625 2.046875 -4.796875 1.796875 -4.109375 C 1.660156 -3.742188 1.59375 -3.28125 1.59375 -2.71875 C 1.59375 -2.269531 1.660156 -1.882812 1.796875 -1.5625 C 2.046875 -0.957031 2.507812 -0.65625 3.1875 -0.65625 Z M 0.640625 -5.828125 L 1.609375 -5.828125 L 1.609375 -5.046875 C 1.796875 -5.316406 2.007812 -5.523438 2.25 -5.671875 C 2.582031 -5.890625 2.972656 -6 3.421875 -6 C 4.085938 -6 4.648438 -5.742188 5.109375 -5.234375 C 5.566406 -4.722656 5.796875 -4 5.796875 -3.0625 C 5.796875 -1.78125 5.460938 -0.867188 4.796875 -0.328125 C 4.378906 0.0234375 3.890625 0.203125 3.328125 0.203125 C 2.878906 0.203125 2.507812 0.101562 2.21875 -0.09375 C 2.039062 -0.195312 1.84375 -0.382812 1.625 -0.65625 L 1.625 2.328125 L 0.640625 2.328125 Z M 0.640625 -5.828125 "/>
</g>
<g id="glyph-0-11">
<path d="M 1.09375 -8.03125 L 2.203125 -8.03125 L 2.203125 0 L 1.09375 0 Z M 1.09375 -8.03125 "/>
</g>
<g id="glyph-0-12">
<path d="M 0.71875 -5.859375 L 1.65625 -5.859375 L 1.65625 -5.03125 C 1.9375 -5.375 2.226562 -5.617188 2.53125 -5.765625 C 2.84375 -5.910156 3.191406 -5.984375 3.578125 -5.984375 C 4.398438 -5.984375 4.957031 -5.695312 5.25 -5.125 C 5.414062 -4.800781 5.5 -4.347656 5.5 -3.765625 L 5.5 0 L 4.5 0 L 4.5 -3.6875 C 4.5 -4.050781 4.445312 -4.34375 4.34375 -4.5625 C 4.164062 -4.925781 3.847656 -5.109375 3.390625 -5.109375 C 3.148438 -5.109375 2.957031 -5.082031 2.8125 -5.03125 C 2.539062 -4.945312 2.300781 -4.785156 2.09375 -4.546875 C 1.9375 -4.359375 1.832031 -4.160156 1.78125 -3.953125 C 1.726562 -3.742188 1.703125 -3.445312 1.703125 -3.0625 L 1.703125 0 L 0.71875 0 Z M 3.03125 -6 Z M 3.03125 -6 "/>
</g>
<g id="glyph-0-13">
<path d="M 3.046875 -0.640625 C 3.703125 -0.640625 4.148438 -0.882812 4.390625 -1.375 C 4.628906 -1.863281 4.75 -2.414062 4.75 -3.03125 C 4.75 -3.570312 4.660156 -4.015625 4.484375 -4.359375 C 4.210938 -4.898438 3.738281 -5.171875 3.0625 -5.171875 C 2.457031 -5.171875 2.015625 -4.941406 1.734375 -4.484375 C 1.460938 -4.023438 1.328125 -3.46875 1.328125 -2.8125 C 1.328125 -2.1875 1.460938 -1.664062 1.734375 -1.25 C 2.015625 -0.84375 2.453125 -0.640625 3.046875 -0.640625 Z M 3.078125 -6.03125 C 3.835938 -6.03125 4.476562 -5.773438 5 -5.265625 C 5.519531 -4.765625 5.78125 -4.023438 5.78125 -3.046875 C 5.78125 -2.109375 5.550781 -1.328125 5.09375 -0.703125 C 4.632812 -0.0859375 3.921875 0.21875 2.953125 0.21875 C 2.148438 0.21875 1.507812 -0.0507812 1.03125 -0.59375 C 0.5625 -1.144531 0.328125 -1.878906 0.328125 -2.796875 C 0.328125 -3.785156 0.578125 -4.570312 1.078125 -5.15625 C 1.578125 -5.738281 2.242188 -6.03125 3.078125 -6.03125 Z M 3.046875 -6 Z M 3.046875 -6 "/>
</g>
<g id="glyph-0-14">
<path d="M 0.71875 -5.859375 L 1.703125 -5.859375 L 1.703125 -5.03125 C 1.929688 -5.3125 2.140625 -5.519531 2.328125 -5.65625 C 2.648438 -5.875 3.019531 -5.984375 3.4375 -5.984375 C 3.90625 -5.984375 4.28125 -5.867188 4.5625 -5.640625 C 4.71875 -5.515625 4.863281 -5.320312 5 -5.0625 C 5.21875 -5.375 5.472656 -5.601562 5.765625 -5.75 C 6.066406 -5.90625 6.398438 -5.984375 6.765625 -5.984375 C 7.554688 -5.984375 8.09375 -5.703125 8.375 -5.140625 C 8.53125 -4.828125 8.609375 -4.414062 8.609375 -3.90625 L 8.609375 0 L 7.578125 0 L 7.578125 -4.0625 C 7.578125 -4.457031 7.476562 -4.726562 7.28125 -4.875 C 7.09375 -5.019531 6.859375 -5.09375 6.578125 -5.09375 C 6.191406 -5.09375 5.859375 -4.960938 5.578125 -4.703125 C 5.296875 -4.441406 5.15625 -4.007812 5.15625 -3.40625 L 5.15625 0 L 4.15625 0 L 4.15625 -3.828125 C 4.15625 -4.222656 4.109375 -4.507812 4.015625 -4.6875 C 3.867188 -4.96875 3.585938 -5.109375 3.171875 -5.109375 C 2.804688 -5.109375 2.46875 -4.960938 2.15625 -4.671875 C 1.851562 -4.378906 1.703125 -3.859375 1.703125 -3.109375 L 1.703125 0 L 0.71875 0 Z M 0.71875 -5.859375 "/>
</g>
<g id="glyph-0-15">
<path d="M 4.984375 -3.296875 L 3.765625 -6.84375 L 2.46875 -3.296875 Z M 3.1875 -8.03125 L 4.421875 -8.03125 L 7.328125 0 L 6.140625 0 L 5.328125 -2.40625 L 2.15625 -2.40625 L 1.28125 0 L 0.171875 0 Z M 3.1875 -8.03125 "/>
</g>
<g id="glyph-0-16">
<path d="M 2.796875 -5.96875 C 3.253906 -5.96875 3.65625 -5.851562 4 -5.625 C 4.175781 -5.5 4.363281 -5.3125 4.5625 -5.0625 L 4.5625 -5.796875 L 5.46875 -5.796875 L 5.46875 -0.46875 C 5.46875 0.269531 5.359375 0.851562 5.140625 1.28125 C 4.734375 2.082031 3.960938 2.484375 2.828125 2.484375 C 2.191406 2.484375 1.660156 2.335938 1.234375 2.046875 C 0.804688 1.765625 0.566406 1.328125 0.515625 0.734375 L 1.515625 0.734375 C 1.566406 0.992188 1.660156 1.191406 1.796875 1.328125 C 2.023438 1.546875 2.375 1.65625 2.84375 1.65625 C 3.601562 1.65625 4.097656 1.390625 4.328125 0.859375 C 4.472656 0.546875 4.539062 -0.0078125 4.53125 -0.8125 C 4.332031 -0.507812 4.09375 -0.285156 3.8125 -0.140625 C 3.53125 0.00390625 3.164062 0.078125 2.71875 0.078125 C 2.082031 0.078125 1.523438 -0.144531 1.046875 -0.59375 C 0.566406 -1.050781 0.328125 -1.800781 0.328125 -2.84375 C 0.328125 -3.820312 0.566406 -4.585938 1.046875 -5.140625 C 1.523438 -5.691406 2.109375 -5.96875 2.796875 -5.96875 Z M 4.5625 -2.953125 C 4.5625 -3.679688 4.410156 -4.21875 4.109375 -4.5625 C 3.816406 -4.914062 3.4375 -5.09375 2.96875 -5.09375 C 2.28125 -5.09375 1.804688 -4.769531 1.546875 -4.125 C 1.410156 -3.769531 1.34375 -3.3125 1.34375 -2.75 C 1.34375 -2.09375 1.476562 -1.59375 1.75 -1.25 C 2.019531 -0.90625 2.378906 -0.734375 2.828125 -0.734375 C 3.535156 -0.734375 4.035156 -1.050781 4.328125 -1.6875 C 4.484375 -2.050781 4.5625 -2.472656 4.5625 -2.953125 Z M 2.90625 -6 Z M 2.90625 -6 "/>
</g>
<g id="glyph-0-17">
<path d="M 0.703125 -8.03125 L 1.640625 -8.03125 L 1.640625 -3.375 L 4.171875 -5.859375 L 5.4375 -5.859375 L 3.1875 -3.671875 L 5.5625 0 L 4.296875 0 L 2.46875 -2.953125 L 1.640625 -2.203125 L 1.640625 0 L 0.703125 0 Z M 0.703125 -8.03125 "/>
</g>
<g id="glyph-0-18">
<path d="M 0.46875 -3.625 L 3.21875 -3.625 L 3.21875 -2.609375 L 0.46875 -2.609375 Z M 0.46875 -3.625 "/>
</g>
<g id="glyph-0-19">
<path d="M 3.03125 -7.828125 C 4.039062 -7.828125 4.773438 -7.410156 5.234375 -6.578125 C 5.578125 -5.929688 5.75 -5.046875 5.75 -3.921875 C 5.75 -2.859375 5.59375 -1.976562 5.28125 -1.28125 C 4.820312 -0.28125 4.070312 0.21875 3.03125 0.21875 C 2.082031 0.21875 1.378906 -0.191406 0.921875 -1.015625 C 0.535156 -1.691406 0.34375 -2.609375 0.34375 -3.765625 C 0.34375 -4.648438 0.457031 -5.410156 0.6875 -6.046875 C 1.125 -7.234375 1.90625 -7.828125 3.03125 -7.828125 Z M 3.015625 -0.6875 C 3.523438 -0.6875 3.929688 -0.910156 4.234375 -1.359375 C 4.535156 -1.816406 4.6875 -2.660156 4.6875 -3.890625 C 4.6875 -4.773438 4.578125 -5.503906 4.359375 -6.078125 C 4.140625 -6.660156 3.71875 -6.953125 3.09375 -6.953125 C 2.507812 -6.953125 2.082031 -6.675781 1.8125 -6.125 C 1.550781 -5.582031 1.421875 -4.78125 1.421875 -3.71875 C 1.421875 -2.914062 1.503906 -2.273438 1.671875 -1.796875 C 1.929688 -1.054688 2.378906 -0.6875 3.015625 -0.6875 Z M 3.015625 -0.6875 "/>
</g>
<g id="glyph-0-20">
<path d="M 0.953125 -1.1875 L 2.09375 -1.1875 L 2.09375 0 L 0.953125 0 Z M 0.953125 -1.1875 "/>
</g>
<g id="glyph-0-21">
<path d="M 1.390625 -2 C 1.453125 -1.4375 1.710938 -1.046875 2.171875 -0.828125 C 2.398438 -0.722656 2.664062 -0.671875 2.96875 -0.671875 C 3.550781 -0.671875 3.984375 -0.851562 4.265625 -1.21875 C 4.546875 -1.59375 4.6875 -2.007812 4.6875 -2.46875 C 4.6875 -3.007812 4.519531 -3.425781 4.1875 -3.71875 C 3.851562 -4.019531 3.457031 -4.171875 3 -4.171875 C 2.65625 -4.171875 2.359375 -4.101562 2.109375 -3.96875 C 1.867188 -3.84375 1.664062 -3.664062 1.5 -3.4375 L 0.640625 -3.484375 L 1.234375 -7.703125 L 5.3125 -7.703125 L 5.3125 -6.75 L 1.984375 -6.75 L 1.640625 -4.578125 C 1.828125 -4.710938 2.003906 -4.816406 2.171875 -4.890625 C 2.460938 -5.003906 2.796875 -5.0625 3.171875 -5.0625 C 3.890625 -5.0625 4.5 -4.828125 5 -4.359375 C 5.5 -3.898438 5.75 -3.316406 5.75 -2.609375 C 5.75 -1.867188 5.519531 -1.210938 5.0625 -0.640625 C 4.601562 -0.078125 3.875 0.203125 2.875 0.203125 C 2.238281 0.203125 1.675781 0.0234375 1.1875 -0.328125 C 0.695312 -0.691406 0.421875 -1.25 0.359375 -2 Z M 1.390625 -2 "/>
</g>
<g id="glyph-0-22">
<path d="M 1.078125 -5.546875 L 1.078125 -6.296875 C 1.785156 -6.367188 2.28125 -6.484375 2.5625 -6.640625 C 2.84375 -6.804688 3.050781 -7.191406 3.1875 -7.796875 L 3.96875 -7.796875 L 3.96875 0 L 2.921875 0 L 2.921875 -5.546875 Z M 1.078125 -5.546875 "/>
</g>
<g id="glyph-1-0">
<path d="M 0.453125 0 L 0.453125 -10.046875 L 8.421875 -10.046875 L 8.421875 0 Z M 7.171875 -1.265625 L 7.171875 -8.78125 L 1.703125 -8.78125 L 1.703125 -1.265625 Z M 7.171875 -1.265625 "/>
</g>
<g id="glyph-1-1">
<path d="M 1.0625 -10.046875 L 2.421875 -10.046875 L 2.421875 -1.203125 L 7.515625 -1.203125 L 7.515625 0 L 1.0625 0 Z M 1.0625 -10.046875 "/>
</g>
<g id="glyph-1-2">
<path d="M 3.8125 -0.796875 C 4.625 -0.796875 5.179688 -1.101562 5.484375 -1.71875 C 5.785156 -2.332031 5.9375 -3.019531 5.9375 -3.78125 C 5.9375 -4.46875 5.828125 -5.023438 5.609375 -5.453125 C 5.265625 -6.117188 4.671875 -6.453125 3.828125 -6.453125 C 3.066406 -6.453125 2.515625 -6.164062 2.171875 -5.59375 C 1.835938 -5.019531 1.671875 -4.328125 1.671875 -3.515625 C 1.671875 -2.742188 1.835938 -2.097656 2.171875 -1.578125 C 2.515625 -1.054688 3.0625 -0.796875 3.8125 -0.796875 Z M 3.859375 -7.53125 C 4.796875 -7.53125 5.585938 -7.210938 6.234375 -6.578125 C 6.890625 -5.953125 7.21875 -5.03125 7.21875 -3.8125 C 7.21875 -2.632812 6.929688 -1.660156 6.359375 -0.890625 C 5.785156 -0.117188 4.894531 0.265625 3.6875 0.265625 C 2.6875 0.265625 1.890625 -0.0703125 1.296875 -0.75 C 0.703125 -1.4375 0.40625 -2.351562 0.40625 -3.5 C 0.40625 -4.726562 0.71875 -5.707031 1.34375 -6.4375 C 1.96875 -7.164062 2.804688 -7.53125 3.859375 -7.53125 Z M 3.8125 -7.5 Z M 3.8125 -7.5 "/>
</g>
<g id="glyph-1-3">
<path d="M 3.484375 -7.453125 C 4.054688 -7.453125 4.554688 -7.3125 4.984375 -7.03125 C 5.222656 -6.863281 5.460938 -6.628906 5.703125 -6.328125 L 5.703125 -7.25 L 6.84375 -7.25 L 6.84375 -0.59375 C 6.84375 0.332031 6.703125 1.066406 6.421875 1.609375 C 5.910156 2.597656 4.945312 3.09375 3.53125 3.09375 C 2.75 3.09375 2.085938 2.914062 1.546875 2.5625 C 1.003906 2.207031 0.703125 1.65625 0.640625 0.90625 L 1.890625 0.90625 C 1.953125 1.238281 2.070312 1.492188 2.25 1.671875 C 2.53125 1.941406 2.96875 2.078125 3.5625 2.078125 C 4.507812 2.078125 5.128906 1.742188 5.421875 1.078125 C 5.585938 0.691406 5.664062 -0.00390625 5.65625 -1.015625 C 5.40625 -0.640625 5.109375 -0.359375 4.765625 -0.171875 C 4.421875 0.00390625 3.960938 0.09375 3.390625 0.09375 C 2.597656 0.09375 1.90625 -0.1875 1.3125 -0.75 C 0.71875 -1.3125 0.421875 -2.242188 0.421875 -3.546875 C 0.421875 -4.773438 0.71875 -5.734375 1.3125 -6.421875 C 1.914062 -7.109375 2.640625 -7.453125 3.484375 -7.453125 Z M 5.703125 -3.6875 C 5.703125 -4.59375 5.515625 -5.265625 5.140625 -5.703125 C 4.765625 -6.140625 4.289062 -6.359375 3.71875 -6.359375 C 2.84375 -6.359375 2.25 -5.953125 1.9375 -5.140625 C 1.769531 -4.710938 1.6875 -4.148438 1.6875 -3.453125 C 1.6875 -2.617188 1.851562 -1.988281 2.1875 -1.5625 C 2.519531 -1.132812 2.96875 -0.921875 3.53125 -0.921875 C 4.414062 -0.921875 5.039062 -1.316406 5.40625 -2.109375 C 5.601562 -2.566406 5.703125 -3.09375 5.703125 -3.6875 Z M 3.625 -7.5 Z M 3.625 -7.5 "/>
</g>
<g id="glyph-1-4">
</g>
<g id="glyph-1-5">
<path d="M 1.6875 -3.578125 C 1.6875 -2.796875 1.851562 -2.140625 2.1875 -1.609375 C 2.519531 -1.078125 3.050781 -0.8125 3.78125 -0.8125 C 4.351562 -0.8125 4.820312 -1.054688 5.1875 -1.546875 C 5.550781 -2.035156 5.734375 -2.738281 5.734375 -3.65625 C 5.734375 -4.582031 5.539062 -5.265625 5.15625 -5.703125 C 4.78125 -6.148438 4.316406 -6.375 3.765625 -6.375 C 3.148438 -6.375 2.648438 -6.132812 2.265625 -5.65625 C 1.878906 -5.1875 1.6875 -4.492188 1.6875 -3.578125 Z M 3.53125 -7.453125 C 4.09375 -7.453125 4.5625 -7.332031 4.9375 -7.09375 C 5.15625 -6.957031 5.40625 -6.71875 5.6875 -6.375 L 5.6875 -10.078125 L 6.875 -10.078125 L 6.875 0 L 5.765625 0 L 5.765625 -1.015625 C 5.472656 -0.566406 5.128906 -0.238281 4.734375 -0.03125 C 4.347656 0.164062 3.898438 0.265625 3.390625 0.265625 C 2.578125 0.265625 1.875 -0.078125 1.28125 -0.765625 C 0.6875 -1.453125 0.390625 -2.363281 0.390625 -3.5 C 0.390625 -4.570312 0.660156 -5.5 1.203125 -6.28125 C 1.742188 -7.0625 2.519531 -7.453125 3.53125 -7.453125 Z M 3.53125 -7.453125 "/>
</g>
<g id="glyph-1-6">
<path d="M 1.640625 -2.296875 C 1.671875 -1.890625 1.769531 -1.578125 1.9375 -1.359375 C 2.25 -0.960938 2.789062 -0.765625 3.5625 -0.765625 C 4.007812 -0.765625 4.40625 -0.863281 4.75 -1.0625 C 5.101562 -1.257812 5.28125 -1.5625 5.28125 -1.96875 C 5.28125 -2.289062 5.140625 -2.53125 4.859375 -2.6875 C 4.679688 -2.789062 4.332031 -2.910156 3.8125 -3.046875 L 2.828125 -3.28125 C 2.203125 -3.4375 1.742188 -3.613281 1.453125 -3.8125 C 0.921875 -4.144531 0.65625 -4.601562 0.65625 -5.1875 C 0.65625 -5.882812 0.90625 -6.445312 1.40625 -6.875 C 1.90625 -7.300781 2.578125 -7.515625 3.421875 -7.515625 C 4.523438 -7.515625 5.316406 -7.191406 5.796875 -6.546875 C 6.109375 -6.128906 6.257812 -5.6875 6.25 -5.21875 L 5.09375 -5.21875 C 5.0625 -5.5 4.960938 -5.75 4.796875 -5.96875 C 4.515625 -6.289062 4.023438 -6.453125 3.328125 -6.453125 C 2.859375 -6.453125 2.503906 -6.363281 2.265625 -6.1875 C 2.023438 -6.007812 1.90625 -5.773438 1.90625 -5.484375 C 1.90625 -5.171875 2.0625 -4.914062 2.375 -4.71875 C 2.5625 -4.601562 2.832031 -4.503906 3.1875 -4.421875 L 4 -4.21875 C 4.882812 -4.007812 5.476562 -3.804688 5.78125 -3.609375 C 6.257812 -3.285156 6.5 -2.789062 6.5 -2.125 C 6.5 -1.46875 6.25 -0.898438 5.75 -0.421875 C 5.257812 0.0429688 4.507812 0.28125 3.5 0.28125 C 2.40625 0.28125 1.628906 0.0351562 1.171875 -0.453125 C 0.722656 -0.953125 0.484375 -1.566406 0.453125 -2.296875 Z M 3.453125 -7.5 Z M 3.453125 -7.5 "/>
</g>
<g id="glyph-1-7">
<path d="M 0.9375 -7.328125 L 2.109375 -7.328125 L 2.109375 -6.0625 C 2.203125 -6.300781 2.4375 -6.597656 2.8125 -6.953125 C 3.1875 -7.304688 3.617188 -7.484375 4.109375 -7.484375 C 4.128906 -7.484375 4.164062 -7.476562 4.21875 -7.46875 C 4.269531 -7.46875 4.363281 -7.460938 4.5 -7.453125 L 4.5 -6.15625 C 4.425781 -6.164062 4.359375 -6.171875 4.296875 -6.171875 C 4.234375 -6.179688 4.164062 -6.1875 4.09375 -6.1875 C 3.476562 -6.1875 3.003906 -5.984375 2.671875 -5.578125 C 2.335938 -5.179688 2.171875 -4.726562 2.171875 -4.21875 L 2.171875 0 L 0.9375 0 Z M 0.9375 -7.328125 "/>
</g>
<g id="glyph-1-8">
<path d="M 1.84375 -1.953125 C 1.84375 -1.597656 1.972656 -1.316406 2.234375 -1.109375 C 2.492188 -0.898438 2.800781 -0.796875 3.15625 -0.796875 C 3.59375 -0.796875 4.015625 -0.894531 4.421875 -1.09375 C 5.097656 -1.425781 5.4375 -1.972656 5.4375 -2.734375 L 5.4375 -3.71875 C 5.289062 -3.625 5.097656 -3.546875 4.859375 -3.484375 C 4.617188 -3.421875 4.382812 -3.375 4.15625 -3.34375 L 3.421875 -3.25 C 2.972656 -3.195312 2.632812 -3.101562 2.40625 -2.96875 C 2.03125 -2.757812 1.84375 -2.421875 1.84375 -1.953125 Z M 4.828125 -4.4375 C 5.109375 -4.46875 5.296875 -4.585938 5.390625 -4.796875 C 5.441406 -4.898438 5.46875 -5.054688 5.46875 -5.265625 C 5.46875 -5.679688 5.316406 -5.984375 5.015625 -6.171875 C 4.722656 -6.359375 4.300781 -6.453125 3.75 -6.453125 C 3.101562 -6.453125 2.644531 -6.28125 2.375 -5.9375 C 2.226562 -5.75 2.128906 -5.46875 2.078125 -5.09375 L 0.9375 -5.09375 C 0.957031 -5.988281 1.25 -6.613281 1.8125 -6.96875 C 2.375 -7.320312 3.03125 -7.5 3.78125 -7.5 C 4.632812 -7.5 5.332031 -7.332031 5.875 -7 C 6.40625 -6.675781 6.671875 -6.164062 6.671875 -5.46875 L 6.671875 -1.265625 C 6.671875 -1.128906 6.695312 -1.019531 6.75 -0.9375 C 6.800781 -0.863281 6.910156 -0.828125 7.078125 -0.828125 C 7.140625 -0.828125 7.203125 -0.832031 7.265625 -0.84375 C 7.335938 -0.851562 7.410156 -0.863281 7.484375 -0.875 L 7.484375 0.03125 C 7.296875 0.0820312 7.148438 0.113281 7.046875 0.125 C 6.941406 0.144531 6.804688 0.15625 6.640625 0.15625 C 6.210938 0.15625 5.90625 0.00390625 5.71875 -0.296875 C 5.613281 -0.453125 5.539062 -0.675781 5.5 -0.96875 C 5.25 -0.644531 4.890625 -0.359375 4.421875 -0.109375 C 3.953125 0.128906 3.4375 0.25 2.875 0.25 C 2.195312 0.25 1.640625 0.0429688 1.203125 -0.359375 C 0.773438 -0.773438 0.5625 -1.296875 0.5625 -1.921875 C 0.5625 -2.597656 0.769531 -3.125 1.1875 -3.5 C 1.613281 -3.875 2.171875 -4.101562 2.859375 -4.1875 Z M 3.8125 -7.5 Z M 3.8125 -7.5 "/>
</g>
<g id="glyph-1-9">
<path d="M 1.15625 -9.359375 L 2.390625 -9.359375 L 2.390625 -7.328125 L 3.5625 -7.328125 L 3.5625 -6.3125 L 2.390625 -6.3125 L 2.390625 -1.53125 C 2.390625 -1.28125 2.476562 -1.113281 2.65625 -1.03125 C 2.75 -0.976562 2.90625 -0.953125 3.125 -0.953125 C 3.1875 -0.953125 3.25 -0.953125 3.3125 -0.953125 C 3.382812 -0.953125 3.46875 -0.957031 3.5625 -0.96875 L 3.5625 0 C 3.414062 0.0390625 3.265625 0.0664062 3.109375 0.078125 C 2.960938 0.0976562 2.800781 0.109375 2.625 0.109375 C 2.050781 0.109375 1.660156 -0.0351562 1.453125 -0.328125 C 1.253906 -0.617188 1.15625 -1 1.15625 -1.46875 L 1.15625 -6.3125 L 0.15625 -6.3125 L 0.15625 -7.328125 L 1.15625 -7.328125 Z M 1.15625 -9.359375 "/>
</g>
<g id="glyph-1-10">
<path d="M 0.90625 -7.28125 L 2.15625 -7.28125 L 2.15625 0 L 0.90625 0 Z M 0.90625 -10.046875 L 2.15625 -10.046875 L 2.15625 -8.640625 L 0.90625 -8.640625 Z M 0.90625 -10.046875 "/>
</g>
<g id="glyph-1-11">
<path d="M 8.375 -10.046875 L 8.375 -8.84375 L 4.984375 -8.84375 L 4.984375 0 L 3.609375 0 L 3.609375 -8.84375 L 0.21875 -8.84375 L 0.21875 -10.046875 Z M 8.375 -10.046875 "/>
</g>
<g id="glyph-1-12">
<path d="M 0.90625 -10.078125 L 2.140625 -10.078125 L 2.140625 -6.328125 C 2.429688 -6.703125 2.691406 -6.960938 2.921875 -7.109375 C 3.316406 -7.367188 3.8125 -7.5 4.40625 -7.5 C 5.46875 -7.5 6.1875 -7.128906 6.5625 -6.390625 C 6.769531 -5.984375 6.875 -5.421875 6.875 -4.703125 L 6.875 0 L 5.609375 0 L 5.609375 -4.609375 C 5.609375 -5.148438 5.539062 -5.546875 5.40625 -5.796875 C 5.175781 -6.203125 4.753906 -6.40625 4.140625 -6.40625 C 3.628906 -6.40625 3.164062 -6.226562 2.75 -5.875 C 2.34375 -5.519531 2.140625 -4.859375 2.140625 -3.890625 L 2.140625 0 L 0.90625 0 Z M 0.90625 -10.078125 "/>
</g>
<g id="glyph-1-13">
<path d="M 3.71875 -7.53125 C 4.550781 -7.53125 5.222656 -7.328125 5.734375 -6.921875 C 6.253906 -6.523438 6.566406 -5.835938 6.671875 -4.859375 L 5.46875 -4.859375 C 5.394531 -5.304688 5.226562 -5.679688 4.96875 -5.984375 C 4.71875 -6.285156 4.300781 -6.4375 3.71875 -6.4375 C 2.9375 -6.4375 2.378906 -6.050781 2.046875 -5.28125 C 1.828125 -4.789062 1.71875 -4.179688 1.71875 -3.453125 C 1.71875 -2.710938 1.867188 -2.09375 2.171875 -1.59375 C 2.484375 -1.09375 2.972656 -0.84375 3.640625 -0.84375 C 4.148438 -0.84375 4.554688 -1 4.859375 -1.3125 C 5.160156 -1.625 5.363281 -2.050781 5.46875 -2.59375 L 6.671875 -2.59375 C 6.535156 -1.625 6.191406 -0.910156 5.640625 -0.453125 C 5.097656 -0.00390625 4.398438 0.21875 3.546875 0.21875 C 2.585938 0.21875 1.820312 -0.128906 1.25 -0.828125 C 0.6875 -1.535156 0.40625 -2.410156 0.40625 -3.453125 C 0.40625 -4.742188 0.71875 -5.742188 1.34375 -6.453125 C 1.96875 -7.171875 2.757812 -7.53125 3.71875 -7.53125 Z M 3.53125 -7.5 Z M 3.53125 -7.5 "/>
</g>
<g id="glyph-1-14">
<path d="M 0.875 -10.046875 L 2.0625 -10.046875 L 2.0625 -4.21875 L 5.21875 -7.328125 L 6.78125 -7.328125 L 3.984375 -4.578125 L 6.953125 0 L 5.375 0 L 3.09375 -3.6875 L 2.0625 -2.75 L 2.0625 0 L 0.875 0 Z M 0.875 -10.046875 "/>
</g>
<g id="glyph-1-15">
<path d="M 0.8125 -10.078125 L 2 -10.078125 L 2 -6.4375 C 2.269531 -6.78125 2.59375 -7.046875 2.96875 -7.234375 C 3.34375 -7.421875 3.75 -7.515625 4.1875 -7.515625 C 5.09375 -7.515625 5.828125 -7.203125 6.390625 -6.578125 C 6.960938 -5.953125 7.25 -5.023438 7.25 -3.796875 C 7.25 -2.640625 6.96875 -1.675781 6.40625 -0.90625 C 5.851562 -0.144531 5.078125 0.234375 4.078125 0.234375 C 3.523438 0.234375 3.054688 0.0976562 2.671875 -0.171875 C 2.441406 -0.328125 2.195312 -0.582031 1.9375 -0.9375 L 1.9375 0 L 0.8125 0 Z M 4 -0.859375 C 4.664062 -0.859375 5.164062 -1.117188 5.5 -1.640625 C 5.832031 -2.171875 6 -2.867188 6 -3.734375 C 6 -4.503906 5.832031 -5.140625 5.5 -5.640625 C 5.164062 -6.148438 4.679688 -6.40625 4.046875 -6.40625 C 3.484375 -6.40625 2.988281 -6.195312 2.5625 -5.78125 C 2.144531 -5.375 1.9375 -4.691406 1.9375 -3.734375 C 1.9375 -3.046875 2.019531 -2.488281 2.1875 -2.0625 C 2.519531 -1.257812 3.125 -0.859375 4 -0.859375 Z M 4 -0.859375 "/>
</g>
<g id="glyph-1-16">
<path d="M 0.90625 -7.328125 L 2.078125 -7.328125 L 2.078125 -6.28125 C 2.421875 -6.707031 2.785156 -7.015625 3.171875 -7.203125 C 3.554688 -7.390625 3.988281 -7.484375 4.46875 -7.484375 C 5.5 -7.484375 6.195312 -7.125 6.5625 -6.40625 C 6.769531 -6 6.875 -5.429688 6.875 -4.703125 L 6.875 0 L 5.625 0 L 5.625 -4.609375 C 5.625 -5.054688 5.554688 -5.414062 5.421875 -5.6875 C 5.203125 -6.144531 4.804688 -6.375 4.234375 -6.375 C 3.941406 -6.375 3.703125 -6.347656 3.515625 -6.296875 C 3.179688 -6.191406 2.882812 -5.988281 2.625 -5.6875 C 2.414062 -5.445312 2.28125 -5.195312 2.21875 -4.9375 C 2.164062 -4.675781 2.140625 -4.304688 2.140625 -3.828125 L 2.140625 0 L 0.90625 0 Z M 3.796875 -7.5 Z M 3.796875 -7.5 "/>
</g>
<g id="glyph-1-17">
<path d="M 7.765625 -5.625 L 7.765625 -4.46875 L 0.625 -4.46875 L 0.625 -5.625 Z M 7.765625 -2.6875 L 7.765625 -1.515625 L 0.625 -1.515625 L 0.625 -2.6875 Z M 7.765625 -2.6875 "/>
</g>
<g id="glyph-1-18">
<path d="M 1.734375 -2.5 C 1.816406 -1.789062 2.140625 -1.304688 2.703125 -1.046875 C 2.992188 -0.898438 3.332031 -0.828125 3.71875 -0.828125 C 4.445312 -0.828125 4.984375 -1.0625 5.328125 -1.53125 C 5.679688 -2 5.859375 -2.515625 5.859375 -3.078125 C 5.859375 -3.765625 5.648438 -4.289062 5.234375 -4.65625 C 4.816406 -5.03125 4.316406 -5.21875 3.734375 -5.21875 C 3.316406 -5.21875 2.953125 -5.132812 2.640625 -4.96875 C 2.335938 -4.8125 2.082031 -4.585938 1.875 -4.296875 L 0.8125 -4.359375 L 1.546875 -9.625 L 6.640625 -9.625 L 6.640625 -8.4375 L 2.46875 -8.4375 L 2.0625 -5.71875 C 2.289062 -5.882812 2.503906 -6.015625 2.703125 -6.109375 C 3.066406 -6.253906 3.488281 -6.328125 3.96875 -6.328125 C 4.863281 -6.328125 5.625 -6.035156 6.25 -5.453125 C 6.875 -4.878906 7.1875 -4.148438 7.1875 -3.265625 C 7.1875 -2.335938 6.898438 -1.519531 6.328125 -0.8125 C 5.753906 -0.101562 4.84375 0.25 3.59375 0.25 C 2.800781 0.25 2.097656 0.0234375 1.484375 -0.421875 C 0.867188 -0.867188 0.523438 -1.5625 0.453125 -2.5 Z M 1.734375 -2.5 "/>
</g>
<g id="glyph-1-19">
<path d="M 3.78125 -9.796875 C 5.050781 -9.796875 5.96875 -9.269531 6.53125 -8.21875 C 6.96875 -7.414062 7.1875 -6.3125 7.1875 -4.90625 C 7.1875 -3.570312 6.988281 -2.472656 6.59375 -1.609375 C 6.019531 -0.359375 5.082031 0.265625 3.78125 0.265625 C 2.601562 0.265625 1.726562 -0.242188 1.15625 -1.265625 C 0.675781 -2.117188 0.4375 -3.265625 0.4375 -4.703125 C 0.4375 -5.804688 0.582031 -6.757812 0.875 -7.5625 C 1.40625 -9.050781 2.375 -9.796875 3.78125 -9.796875 Z M 3.78125 -0.859375 C 4.414062 -0.859375 4.921875 -1.140625 5.296875 -1.703125 C 5.671875 -2.265625 5.859375 -3.316406 5.859375 -4.859375 C 5.859375 -5.972656 5.722656 -6.890625 5.453125 -7.609375 C 5.179688 -8.328125 4.648438 -8.6875 3.859375 -8.6875 C 3.140625 -8.6875 2.609375 -8.34375 2.265625 -7.65625 C 1.929688 -6.976562 1.765625 -5.976562 1.765625 -4.65625 C 1.765625 -3.65625 1.875 -2.851562 2.09375 -2.25 C 2.414062 -1.320312 2.976562 -0.859375 3.78125 -0.859375 Z M 3.78125 -0.859375 "/>
</g>
<g id="glyph-1-20">
<path d="M 9.546875 -4.765625 C 10.203125 -4.765625 10.757812 -4.53125 11.21875 -4.0625 C 11.6875 -3.59375 11.921875 -3.03125 11.921875 -2.375 C 11.921875 -1.71875 11.6875 -1.15625 11.21875 -0.6875 C 10.757812 -0.226562 10.203125 0 9.546875 0 C 8.878906 0 8.3125 -0.226562 7.84375 -0.6875 C 7.382812 -1.15625 7.15625 -1.71875 7.15625 -2.375 C 7.15625 -3.03125 7.382812 -3.59375 7.84375 -4.0625 C 8.3125 -4.53125 8.878906 -4.765625 9.546875 -4.765625 Z M 8.546875 -9.75 L 9.3125 -9.75 L 3.828125 0.265625 L 3.078125 0.265625 Z M 2.828125 -5.703125 C 3.222656 -5.703125 3.554688 -5.835938 3.828125 -6.109375 C 4.109375 -6.390625 4.25 -6.722656 4.25 -7.109375 C 4.25 -7.492188 4.109375 -7.820312 3.828125 -8.09375 C 3.554688 -8.375 3.222656 -8.515625 2.828125 -8.515625 C 2.441406 -8.515625 2.109375 -8.378906 1.828125 -8.109375 C 1.554688 -7.835938 1.421875 -7.503906 1.421875 -7.109375 C 1.421875 -6.722656 1.554688 -6.390625 1.828125 -6.109375 C 2.109375 -5.835938 2.441406 -5.703125 2.828125 -5.703125 Z M 2.828125 -9.5 C 3.492188 -9.5 4.054688 -9.265625 4.515625 -8.796875 C 4.984375 -8.328125 5.21875 -7.765625 5.21875 -7.109375 C 5.21875 -6.453125 4.984375 -5.890625 4.515625 -5.421875 C 4.054688 -4.960938 3.492188 -4.734375 2.828125 -4.734375 C 2.171875 -4.734375 1.609375 -4.960938 1.140625 -5.421875 C 0.679688 -5.890625 0.453125 -6.453125 0.453125 -7.109375 C 0.453125 -7.765625 0.679688 -8.328125 1.140625 -8.796875 C 1.609375 -9.265625 2.171875 -9.5 2.828125 -9.5 Z M 9.546875 -0.96875 C 9.929688 -0.96875 10.257812 -1.101562 10.53125 -1.375 C 10.8125 -1.65625 10.953125 -1.988281 10.953125 -2.375 C 10.953125 -2.757812 10.8125 -3.085938 10.53125 -3.359375 C 10.257812 -3.640625 9.929688 -3.78125 9.546875 -3.78125 C 9.148438 -3.78125 8.8125 -3.640625 8.53125 -3.359375 C 8.257812 -3.085938 8.125 -2.757812 8.125 -2.375 C 8.125 -1.988281 8.257812 -1.65625 8.53125 -1.375 C 8.8125 -1.101562 9.148438 -0.96875 9.546875 -0.96875 Z M 9.546875 -0.96875 "/>
</g>
<g id="glyph-1-21">
<path d="M 3.953125 -7.484375 C 4.472656 -7.484375 4.972656 -7.359375 5.453125 -7.109375 C 5.941406 -6.867188 6.316406 -6.554688 6.578125 -6.171875 C 6.828125 -5.804688 6.988281 -5.375 7.0625 -4.875 C 7.132812 -4.539062 7.171875 -4.003906 7.171875 -3.265625 L 1.8125 -3.265625 C 1.832031 -2.523438 2.003906 -1.929688 2.328125 -1.484375 C 2.660156 -1.035156 3.171875 -0.8125 3.859375 -0.8125 C 4.503906 -0.8125 5.019531 -1.019531 5.40625 -1.4375 C 5.625 -1.6875 5.773438 -1.972656 5.859375 -2.296875 L 7.078125 -2.296875 C 7.046875 -2.023438 6.9375 -1.722656 6.75 -1.390625 C 6.570312 -1.066406 6.375 -0.800781 6.15625 -0.59375 C 5.78125 -0.226562 5.316406 0.0195312 4.765625 0.15625 C 4.472656 0.226562 4.140625 0.265625 3.765625 0.265625 C 2.847656 0.265625 2.070312 -0.0664062 1.4375 -0.734375 C 0.8125 -1.398438 0.5 -2.328125 0.5 -3.515625 C 0.5 -4.691406 0.816406 -5.644531 1.453125 -6.375 C 2.085938 -7.113281 2.921875 -7.484375 3.953125 -7.484375 Z M 5.90625 -4.25 C 5.863281 -4.78125 5.75 -5.207031 5.5625 -5.53125 C 5.226562 -6.113281 4.664062 -6.40625 3.875 -6.40625 C 3.3125 -6.40625 2.835938 -6.203125 2.453125 -5.796875 C 2.066406 -5.390625 1.863281 -4.875 1.84375 -4.25 Z M 3.828125 -7.5 Z M 3.828125 -7.5 "/>
</g>
<g id="glyph-1-22">
<path d="M 1.5 -7.328125 L 3.453125 -1.359375 L 5.5 -7.328125 L 6.84375 -7.328125 L 4.09375 0 L 2.78125 0 L 0.078125 -7.328125 Z M 1.5 -7.328125 "/>
</g>
<g id="glyph-1-23">
<path d="M 0.9375 -10.046875 L 2.171875 -10.046875 L 2.171875 0 L 0.9375 0 Z M 0.9375 -10.046875 "/>
</g>
<g id="glyph-1-24">
<path d="M 1.15625 1.421875 C 1.476562 1.367188 1.703125 1.148438 1.828125 0.765625 C 1.890625 0.554688 1.921875 0.359375 1.921875 0.171875 C 1.921875 0.140625 1.921875 0.109375 1.921875 0.078125 C 1.921875 0.0546875 1.914062 0.03125 1.90625 0 L 1.15625 0 L 1.15625 -1.484375 L 2.625 -1.484375 L 2.625 -0.109375 C 2.625 0.429688 2.515625 0.90625 2.296875 1.3125 C 2.078125 1.726562 1.695312 1.984375 1.15625 2.078125 Z M 1.15625 1.421875 "/>
</g>
<g id="glyph-1-25">
<path d="M 1.859375 -2.359375 C 1.898438 -1.679688 2.160156 -1.210938 2.640625 -0.953125 C 2.890625 -0.816406 3.175781 -0.75 3.5 -0.75 C 4.082031 -0.75 4.582031 -0.992188 5 -1.484375 C 5.414062 -1.972656 5.707031 -2.96875 5.875 -4.46875 C 5.601562 -4.039062 5.265625 -3.738281 4.859375 -3.5625 C 4.460938 -3.382812 4.03125 -3.296875 3.5625 -3.296875 C 2.613281 -3.296875 1.863281 -3.585938 1.3125 -4.171875 C 0.769531 -4.765625 0.5 -5.523438 0.5 -6.453125 C 0.5 -7.335938 0.769531 -8.113281 1.3125 -8.78125 C 1.851562 -9.457031 2.65625 -9.796875 3.71875 -9.796875 C 5.144531 -9.796875 6.128906 -9.15625 6.671875 -7.875 C 6.960938 -7.164062 7.109375 -6.28125 7.109375 -5.21875 C 7.109375 -4.019531 6.929688 -2.957031 6.578125 -2.03125 C 5.984375 -0.488281 4.972656 0.28125 3.546875 0.28125 C 2.585938 0.28125 1.859375 0.0273438 1.359375 -0.46875 C 0.859375 -0.976562 0.609375 -1.609375 0.609375 -2.359375 Z M 3.71875 -4.375 C 4.207031 -4.375 4.65625 -4.535156 5.0625 -4.859375 C 5.46875 -5.179688 5.671875 -5.742188 5.671875 -6.546875 C 5.671875 -7.265625 5.488281 -7.800781 5.125 -8.15625 C 4.757812 -8.507812 4.296875 -8.6875 3.734375 -8.6875 C 3.140625 -8.6875 2.664062 -8.484375 2.3125 -8.078125 C 1.957031 -7.671875 1.78125 -7.128906 1.78125 -6.453125 C 1.78125 -5.816406 1.929688 -5.3125 2.234375 -4.9375 C 2.546875 -4.5625 3.039062 -4.375 3.71875 -4.375 Z M 3.71875 -4.375 "/>
</g>
<g id="glyph-2-0">
<path d="M 1.359375 -12.953125 L 11.78125 -12.953125 L 11.78125 0 L 1.359375 0 Z M 10.171875 -1.625 L 10.171875 -11.34375 L 2.96875 -11.34375 L 2.96875 -1.625 Z M 10.171875 -1.625 "/>
</g>
<g id="glyph-2-1">
<path d="M 10.515625 -0.96875 C 9.546875 -0.0820312 8.304688 0.359375 6.796875 0.359375 C 4.941406 0.359375 3.476562 -0.238281 2.40625 -1.4375 C 1.34375 -2.632812 0.8125 -4.28125 0.8125 -6.375 C 0.8125 -8.632812 1.414062 -10.378906 2.625 -11.609375 C 3.675781 -12.671875 5.019531 -13.203125 6.65625 -13.203125 C 8.832031 -13.203125 10.425781 -12.488281 11.4375 -11.0625 C 11.988281 -10.257812 12.285156 -9.453125 12.328125 -8.640625 L 9.625 -8.640625 C 9.445312 -9.265625 9.222656 -9.734375 8.953125 -10.046875 C 8.453125 -10.609375 7.722656 -10.890625 6.765625 -10.890625 C 5.773438 -10.890625 4.992188 -10.492188 4.421875 -9.703125 C 3.859375 -8.910156 3.578125 -7.785156 3.578125 -6.328125 C 3.578125 -4.878906 3.875 -3.789062 4.46875 -3.0625 C 5.070312 -2.34375 5.835938 -1.984375 6.765625 -1.984375 C 7.710938 -1.984375 8.4375 -2.289062 8.9375 -2.90625 C 9.21875 -3.238281 9.445312 -3.738281 9.625 -4.40625 L 12.3125 -4.40625 C 12.070312 -3 11.472656 -1.851562 10.515625 -0.96875 Z M 10.515625 -0.96875 "/>
</g>
<g id="glyph-2-2">
<path d="M 9.15625 -8.375 C 9.96875 -7.351562 10.375 -6.148438 10.375 -4.765625 C 10.375 -3.359375 9.96875 -2.15625 9.15625 -1.15625 C 8.351562 -0.164062 7.125 0.328125 5.46875 0.328125 C 3.820312 0.328125 2.59375 -0.164062 1.78125 -1.15625 C 0.976562 -2.15625 0.578125 -3.359375 0.578125 -4.765625 C 0.578125 -6.148438 0.976562 -7.347656 1.78125 -8.359375 C 2.59375 -9.378906 3.820312 -9.890625 5.46875 -9.890625 C 7.125 -9.890625 8.351562 -9.382812 9.15625 -8.375 Z M 5.46875 -7.765625 C 4.738281 -7.765625 4.175781 -7.503906 3.78125 -6.984375 C 3.382812 -6.472656 3.1875 -5.734375 3.1875 -4.765625 C 3.1875 -3.804688 3.382812 -3.066406 3.78125 -2.546875 C 4.175781 -2.023438 4.738281 -1.765625 5.46875 -1.765625 C 6.195312 -1.765625 6.757812 -2.023438 7.15625 -2.546875 C 7.550781 -3.066406 7.75 -3.804688 7.75 -4.765625 C 7.75 -5.734375 7.550781 -6.472656 7.15625 -6.984375 C 6.757812 -7.503906 6.195312 -7.765625 5.46875 -7.765625 Z M 5.46875 -7.765625 "/>
</g>
<g id="glyph-2-3">
<path d="M 9.375 -2.8125 C 9.300781 -2.238281 9.003906 -1.660156 8.484375 -1.078125 C 7.660156 -0.148438 6.507812 0.3125 5.03125 0.3125 C 3.8125 0.3125 2.734375 -0.078125 1.796875 -0.859375 C 0.867188 -1.648438 0.40625 -2.925781 0.40625 -4.6875 C 0.40625 -6.351562 0.828125 -7.625 1.671875 -8.5 C 2.515625 -9.382812 3.609375 -9.828125 4.953125 -9.828125 C 5.742188 -9.828125 6.457031 -9.675781 7.09375 -9.375 C 7.738281 -9.082031 8.269531 -8.613281 8.6875 -7.96875 C 9.0625 -7.40625 9.300781 -6.75 9.40625 -6 C 9.476562 -5.550781 9.507812 -4.914062 9.5 -4.09375 L 2.9375 -4.09375 C 2.96875 -3.132812 3.269531 -2.460938 3.84375 -2.078125 C 4.1875 -1.835938 4.601562 -1.71875 5.09375 -1.71875 C 5.601562 -1.71875 6.019531 -1.863281 6.34375 -2.15625 C 6.519531 -2.3125 6.675781 -2.53125 6.8125 -2.8125 Z M 6.890625 -5.75 C 6.847656 -6.40625 6.644531 -6.90625 6.28125 -7.25 C 5.925781 -7.59375 5.484375 -7.765625 4.953125 -7.765625 C 4.367188 -7.765625 3.914062 -7.582031 3.59375 -7.21875 C 3.28125 -6.863281 3.082031 -6.375 3 -5.75 Z M 6.890625 -5.75 "/>
</g>
<g id="glyph-2-4">
<path d="M 5.65625 -13.03125 L 5.65625 -11 C 5.519531 -11.007812 5.285156 -11.019531 4.953125 -11.03125 C 4.617188 -11.039062 4.390625 -10.96875 4.265625 -10.8125 C 4.140625 -10.65625 4.078125 -10.484375 4.078125 -10.296875 L 4.078125 -9.5 L 5.71875 -9.5 L 5.71875 -7.71875 L 4.078125 -7.71875 L 4.078125 0 L 1.578125 0 L 1.578125 -7.71875 L 0.1875 -7.71875 L 0.1875 -9.5 L 1.5625 -9.5 L 1.5625 -10.109375 C 1.5625 -11.128906 1.734375 -11.832031 2.078125 -12.21875 C 2.441406 -12.800781 3.316406 -13.09375 4.703125 -13.09375 C 4.859375 -13.09375 5 -13.085938 5.125 -13.078125 C 5.257812 -13.066406 5.4375 -13.050781 5.65625 -13.03125 Z M 5.65625 -13.03125 "/>
</g>
<g id="glyph-2-5">
<path d="M 4.140625 0 L 1.640625 0 L 1.640625 -7.71875 L 0.25 -7.71875 L 0.25 -9.5 L 1.625 -9.5 L 1.625 -10.109375 C 1.625 -11.128906 1.847656 -11.890625 2.296875 -12.390625 C 2.703125 -12.859375 3.523438 -13.09375 4.765625 -13.09375 C 4.921875 -13.09375 5.078125 -13.082031 5.234375 -13.0625 C 5.390625 -13.050781 5.550781 -13.039062 5.71875 -13.03125 L 5.71875 -11 C 5.601562 -11 5.488281 -11 5.375 -11 C 5.269531 -11.007812 5.132812 -11.015625 4.96875 -11.015625 C 4.582031 -11.015625 4.34375 -10.90625 4.25 -10.6875 C 4.164062 -10.46875 4.128906 -10.128906 4.140625 -9.671875 L 4.140625 -9.5 L 5.78125 -9.5 L 5.78125 -7.71875 L 4.140625 -7.71875 Z M 9.765625 -9.53125 L 9.765625 0 L 7.265625 0 L 7.265625 -9.53125 Z M 7.265625 -10.75 L 7.265625 -13.03125 L 9.71875 -13.03125 L 9.71875 -10.75 Z M 7.265625 -10.75 "/>
</g>
<g id="glyph-2-6">
<path d="M 9.453125 -6.140625 L 6.890625 -6.140625 C 6.847656 -6.503906 6.726562 -6.828125 6.53125 -7.109375 C 6.25 -7.492188 5.8125 -7.6875 5.21875 -7.6875 C 4.375 -7.6875 3.796875 -7.269531 3.484375 -6.4375 C 3.328125 -5.988281 3.25 -5.394531 3.25 -4.65625 C 3.25 -3.957031 3.328125 -3.394531 3.484375 -2.96875 C 3.785156 -2.164062 4.347656 -1.765625 5.171875 -1.765625 C 5.765625 -1.765625 6.179688 -1.921875 6.421875 -2.234375 C 6.671875 -2.554688 6.820312 -2.96875 6.875 -3.46875 L 9.4375 -3.46875 C 9.375 -2.707031 9.097656 -1.988281 8.609375 -1.3125 C 7.816406 -0.21875 6.648438 0.328125 5.109375 0.328125 C 3.566406 0.328125 2.429688 -0.125 1.703125 -1.03125 C 0.984375 -1.945312 0.625 -3.132812 0.625 -4.59375 C 0.625 -6.238281 1.023438 -7.519531 1.828125 -8.4375 C 2.628906 -9.351562 3.738281 -9.8125 5.15625 -9.8125 C 6.351562 -9.8125 7.332031 -9.539062 8.09375 -9 C 8.863281 -8.457031 9.316406 -7.503906 9.453125 -6.140625 Z M 9.453125 -6.140625 "/>
</g>
<g id="glyph-2-7">
<path d="M 3.75 -9.578125 L 3.75 0 L 1.203125 0 L 1.203125 -9.578125 Z M 3.75 -13.03125 L 3.75 -10.71875 L 1.203125 -10.71875 L 1.203125 -13.03125 Z M 3.75 -13.03125 "/>
</g>
<g id="glyph-2-8">
<path d="M 5.671875 -7.71875 C 4.828125 -7.71875 4.242188 -7.359375 3.921875 -6.640625 C 3.765625 -6.265625 3.6875 -5.78125 3.6875 -5.1875 L 3.6875 0 L 1.1875 0 L 1.1875 -9.5625 L 3.609375 -9.5625 L 3.609375 -8.171875 C 3.929688 -8.660156 4.234375 -9.015625 4.515625 -9.234375 C 5.035156 -9.617188 5.691406 -9.8125 6.484375 -9.8125 C 7.472656 -9.8125 8.28125 -9.550781 8.90625 -9.03125 C 9.539062 -8.507812 9.859375 -7.648438 9.859375 -6.453125 L 9.859375 0 L 7.28125 0 L 7.28125 -5.828125 C 7.28125 -6.328125 7.210938 -6.710938 7.078125 -6.984375 C 6.835938 -7.472656 6.367188 -7.71875 5.671875 -7.71875 Z M 5.671875 -7.71875 "/>
</g>
<g id="glyph-2-9">
<path d="M 5.5625 -1.78125 L 5.5625 0.09375 L 4.375 0.125 C 3.1875 0.164062 2.375 -0.0351562 1.9375 -0.484375 C 1.65625 -0.773438 1.515625 -1.21875 1.515625 -1.8125 L 1.515625 -7.703125 L 0.1875 -7.703125 L 0.1875 -9.5 L 1.515625 -9.5 L 1.515625 -12.171875 L 4 -12.171875 L 4 -9.5 L 5.5625 -9.5 L 5.5625 -7.703125 L 4 -7.703125 L 4 -2.640625 C 4 -2.253906 4.046875 -2.007812 4.140625 -1.90625 C 4.242188 -1.8125 4.550781 -1.765625 5.0625 -1.765625 C 5.132812 -1.765625 5.210938 -1.765625 5.296875 -1.765625 C 5.390625 -1.773438 5.476562 -1.78125 5.5625 -1.78125 Z M 5.5625 -1.78125 "/>
</g>
<g id="glyph-2-10">
</g>
<g id="glyph-2-11">
<path d="M 6.875 -4.65625 L 4.125 -4.65625 L 4.125 0 L 1.4375 0 L 1.4375 -12.953125 L 7.078125 -12.953125 C 8.378906 -12.953125 9.414062 -12.617188 10.1875 -11.953125 C 10.957031 -11.285156 11.34375 -10.25 11.34375 -8.84375 C 11.34375 -7.320312 10.957031 -6.242188 10.1875 -5.609375 C 9.414062 -4.972656 8.3125 -4.65625 6.875 -4.65625 Z M 8.140625 -7.359375 C 8.492188 -7.671875 8.671875 -8.160156 8.671875 -8.828125 C 8.671875 -9.503906 8.492188 -9.984375 8.140625 -10.265625 C 7.785156 -10.554688 7.285156 -10.703125 6.640625 -10.703125 L 4.125 -10.703125 L 4.125 -6.890625 L 6.640625 -6.890625 C 7.285156 -6.890625 7.785156 -7.046875 8.140625 -7.359375 Z M 8.140625 -7.359375 "/>
</g>
<g id="glyph-2-12">
<path d="M 1.21875 -12.953125 L 3.734375 -12.953125 L 3.734375 0 L 1.21875 0 Z M 1.21875 -12.953125 "/>
</g>
<g id="glyph-2-13">
<path d="M 8.4375 0 L 6.9375 -6.984375 L 5.421875 0 L 2.8125 0 L 0.125 -9.578125 L 2.8125 -9.578125 L 4.3125 -2.703125 L 5.6875 -9.578125 L 8.234375 -9.578125 L 9.6875 -2.6875 L 11.1875 -9.578125 L 13.796875 -9.578125 L 11.015625 0 Z M 8.4375 0 "/>
</g>
<g id="glyph-2-14">
<path d="M 9.828125 -5.625 L 9.828125 0 L 7.265625 0 L 7.265625 -5.828125 C 7.265625 -6.335938 7.175781 -6.753906 7 -7.078125 C 6.769531 -7.523438 6.335938 -7.75 5.703125 -7.75 C 5.046875 -7.75 4.546875 -7.523438 4.203125 -7.078125 C 3.859375 -6.640625 3.6875 -6.007812 3.6875 -5.1875 L 3.6875 0 L 1.1875 0 L 1.1875 -12.90625 L 3.6875 -12.90625 L 3.6875 -8.328125 C 4.050781 -8.890625 4.46875 -9.28125 4.9375 -9.5 C 5.414062 -9.71875 5.921875 -9.828125 6.453125 -9.828125 C 7.046875 -9.828125 7.582031 -9.722656 8.0625 -9.515625 C 8.550781 -9.316406 8.945312 -9.003906 9.25 -8.578125 C 9.519531 -8.222656 9.679688 -7.851562 9.734375 -7.46875 C 9.796875 -7.09375 9.828125 -6.476562 9.828125 -5.625 Z M 9.828125 -5.625 "/>
</g>
<g id="glyph-2-15">
<path d="M 10.5625 -10.65625 L 4.0625 -10.65625 L 4.0625 -7.6875 L 9.75 -7.6875 L 9.75 -5.4375 L 4.0625 -5.4375 L 4.0625 0 L 1.375 0 L 1.375 -12.9375 L 10.5625 -12.9375 Z M 10.5625 -10.65625 "/>
</g>
<g id="glyph-2-16">
<path d="M 7.3125 -1.359375 C 7.289062 -1.328125 7.234375 -1.238281 7.140625 -1.09375 C 7.046875 -0.945312 6.929688 -0.816406 6.796875 -0.703125 C 6.410156 -0.347656 6.03125 -0.109375 5.65625 0.015625 C 5.289062 0.148438 4.863281 0.21875 4.375 0.21875 C 2.957031 0.21875 2.003906 -0.289062 1.515625 -1.3125 C 1.234375 -1.875 1.09375 -2.707031 1.09375 -3.8125 L 1.09375 -9.578125 L 3.671875 -9.578125 L 3.671875 -3.8125 C 3.671875 -3.257812 3.734375 -2.847656 3.859375 -2.578125 C 4.085938 -2.085938 4.535156 -1.84375 5.203125 -1.84375 C 6.054688 -1.84375 6.644531 -2.191406 6.96875 -2.890625 C 7.125 -3.265625 7.203125 -3.757812 7.203125 -4.375 L 7.203125 -9.578125 L 9.75 -9.578125 L 9.75 0 L 7.3125 0 Z M 7.3125 -1.359375 "/>
</g>
<g id="glyph-2-17">
<path d="M 6.078125 -1.875 C 6.710938 -1.875 7.226562 -1.941406 7.625 -2.078125 C 8.382812 -2.347656 8.765625 -2.851562 8.765625 -3.59375 C 8.765625 -4.019531 8.578125 -4.347656 8.203125 -4.578125 C 7.828125 -4.804688 7.238281 -5.007812 6.4375 -5.1875 L 5.0625 -5.5 C 3.71875 -5.800781 2.785156 -6.128906 2.265625 -6.484375 C 1.390625 -7.085938 0.953125 -8.023438 0.953125 -9.296875 C 0.953125 -10.453125 1.375 -11.410156 2.21875 -12.171875 C 3.0625 -12.941406 4.300781 -13.328125 5.9375 -13.328125 C 7.300781 -13.328125 8.460938 -12.960938 9.421875 -12.234375 C 10.390625 -11.515625 10.898438 -10.46875 10.953125 -9.09375 L 8.34375 -9.09375 C 8.300781 -9.875 7.960938 -10.429688 7.328125 -10.765625 C 6.910156 -10.972656 6.382812 -11.078125 5.75 -11.078125 C 5.0625 -11.078125 4.507812 -10.9375 4.09375 -10.65625 C 3.675781 -10.375 3.46875 -9.984375 3.46875 -9.484375 C 3.46875 -9.023438 3.671875 -8.679688 4.078125 -8.453125 C 4.335938 -8.296875 4.898438 -8.113281 5.765625 -7.90625 L 8 -7.375 C 8.976562 -7.132812 9.71875 -6.820312 10.21875 -6.4375 C 10.988281 -5.820312 11.375 -4.9375 11.375 -3.78125 C 11.375 -2.601562 10.921875 -1.625 10.015625 -0.84375 C 9.109375 -0.0625 7.828125 0.328125 6.171875 0.328125 C 4.484375 0.328125 3.15625 -0.0546875 2.1875 -0.828125 C 1.226562 -1.597656 0.75 -2.65625 0.75 -4 L 3.328125 -4 C 3.410156 -3.40625 3.570312 -2.960938 3.8125 -2.671875 C 4.25 -2.140625 5.003906 -1.875 6.078125 -1.875 Z M 6.078125 -1.875 "/>
</g>
<g id="glyph-2-18">
<path d="M 1.53125 -8.546875 C 2.1875 -9.390625 3.320312 -9.8125 4.9375 -9.8125 C 5.988281 -9.8125 6.921875 -9.601562 7.734375 -9.1875 C 8.546875 -8.769531 8.953125 -7.984375 8.953125 -6.828125 L 8.953125 -2.4375 C 8.953125 -2.132812 8.957031 -1.765625 8.96875 -1.328125 C 8.988281 -0.992188 9.039062 -0.769531 9.125 -0.65625 C 9.207031 -0.539062 9.332031 -0.445312 9.5 -0.375 L 9.5 0 L 6.765625 0 C 6.691406 -0.195312 6.640625 -0.378906 6.609375 -0.546875 C 6.578125 -0.710938 6.554688 -0.90625 6.546875 -1.125 C 6.191406 -0.75 5.789062 -0.429688 5.34375 -0.171875 C 4.800781 0.136719 4.191406 0.296875 3.515625 0.296875 C 2.648438 0.296875 1.929688 0.0507812 1.359375 -0.4375 C 0.796875 -0.9375 0.515625 -1.640625 0.515625 -2.546875 C 0.515625 -3.722656 0.96875 -4.578125 1.875 -5.109375 C 2.375 -5.390625 3.109375 -5.59375 4.078125 -5.71875 L 4.9375 -5.828125 C 5.394531 -5.890625 5.722656 -5.960938 5.921875 -6.046875 C 6.273438 -6.203125 6.453125 -6.441406 6.453125 -6.765625 C 6.453125 -7.148438 6.316406 -7.414062 6.046875 -7.5625 C 5.773438 -7.71875 5.378906 -7.796875 4.859375 -7.796875 C 4.265625 -7.796875 3.84375 -7.648438 3.59375 -7.359375 C 3.414062 -7.140625 3.300781 -6.847656 3.25 -6.484375 L 0.828125 -6.484375 C 0.878906 -7.316406 1.113281 -8.003906 1.53125 -8.546875 Z M 3.390625 -1.8125 C 3.628906 -1.613281 3.914062 -1.515625 4.25 -1.515625 C 4.789062 -1.515625 5.285156 -1.671875 5.734375 -1.984375 C 6.191406 -2.304688 6.429688 -2.890625 6.453125 -3.734375 L 6.453125 -4.65625 C 6.296875 -4.5625 6.132812 -4.484375 5.96875 -4.421875 C 5.8125 -4.359375 5.59375 -4.300781 5.3125 -4.25 L 4.75 -4.140625 C 4.21875 -4.046875 3.835938 -3.929688 3.609375 -3.796875 C 3.222656 -3.566406 3.03125 -3.210938 3.03125 -2.734375 C 3.03125 -2.304688 3.148438 -2 3.390625 -1.8125 Z M 3.390625 -1.8125 "/>
</g>
<g id="glyph-2-19">
<path d="M 6.546875 -6.9375 C 6.335938 -7.40625 5.925781 -7.640625 5.3125 -7.640625 C 4.59375 -7.640625 4.113281 -7.40625 3.875 -6.9375 C 3.738281 -6.675781 3.671875 -6.285156 3.671875 -5.765625 L 3.671875 0 L 1.125 0 L 1.125 -9.5625 L 3.5625 -9.5625 L 3.5625 -8.171875 C 3.875 -8.660156 4.164062 -9.015625 4.4375 -9.234375 C 4.925781 -9.609375 5.554688 -9.796875 6.328125 -9.796875 C 7.054688 -9.796875 7.648438 -9.632812 8.109375 -9.3125 C 8.472656 -9.007812 8.75 -8.625 8.9375 -8.15625 C 9.257812 -8.71875 9.664062 -9.128906 10.15625 -9.390625 C 10.664062 -9.660156 11.238281 -9.796875 11.875 -9.796875 C 12.289062 -9.796875 12.703125 -9.710938 13.109375 -9.546875 C 13.523438 -9.378906 13.898438 -9.09375 14.234375 -8.6875 C 14.503906 -8.351562 14.6875 -7.941406 14.78125 -7.453125 C 14.84375 -7.128906 14.875 -6.65625 14.875 -6.03125 L 14.859375 0 L 12.28125 0 L 12.28125 -6.09375 C 12.28125 -6.457031 12.222656 -6.757812 12.109375 -7 C 11.890625 -7.445312 11.476562 -7.671875 10.875 -7.671875 C 10.1875 -7.671875 9.710938 -7.378906 9.453125 -6.796875 C 9.316406 -6.492188 9.25 -6.128906 9.25 -5.703125 L 9.25 0 L 6.71875 0 L 6.71875 -5.703125 C 6.71875 -6.273438 6.660156 -6.6875 6.546875 -6.9375 Z M 6.546875 -6.9375 "/>
</g>
<g id="glyph-2-20">
<path d="M 9.1875 -8.546875 C 9.96875 -7.722656 10.359375 -6.507812 10.359375 -4.90625 C 10.359375 -3.21875 9.976562 -1.929688 9.21875 -1.046875 C 8.457031 -0.171875 7.476562 0.265625 6.28125 0.265625 C 5.519531 0.265625 4.890625 0.0742188 4.390625 -0.296875 C 4.109375 -0.503906 3.835938 -0.8125 3.578125 -1.21875 L 3.578125 3.765625 L 1.09375 3.765625 L 1.09375 -9.578125 L 3.5 -9.578125 L 3.5 -8.171875 C 3.769531 -8.585938 4.054688 -8.914062 4.359375 -9.15625 C 4.910156 -9.582031 5.570312 -9.796875 6.34375 -9.796875 C 7.46875 -9.796875 8.414062 -9.378906 9.1875 -8.546875 Z M 7.765625 -4.796875 C 7.765625 -5.523438 7.597656 -6.175781 7.265625 -6.75 C 6.929688 -7.320312 6.382812 -7.609375 5.625 -7.609375 C 4.71875 -7.609375 4.09375 -7.175781 3.75 -6.3125 C 3.570312 -5.851562 3.484375 -5.273438 3.484375 -4.578125 C 3.484375 -3.460938 3.78125 -2.675781 4.375 -2.21875 C 4.726562 -1.957031 5.144531 -1.828125 5.625 -1.828125 C 6.320312 -1.828125 6.851562 -2.097656 7.21875 -2.640625 C 7.582031 -3.179688 7.765625 -3.898438 7.765625 -4.796875 Z M 7.765625 -4.796875 "/>
</g>
<g id="glyph-2-21">
<path d="M 3.875 1.671875 C 4.144531 1.898438 4.597656 2.015625 5.234375 2.015625 C 6.140625 2.015625 6.742188 1.710938 7.046875 1.109375 C 7.242188 0.722656 7.34375 0.0742188 7.34375 -0.828125 L 7.34375 -1.453125 C 7.101562 -1.035156 6.847656 -0.726562 6.578125 -0.53125 C 6.078125 -0.144531 5.425781 0.046875 4.625 0.046875 C 3.394531 0.046875 2.410156 -0.382812 1.671875 -1.25 C 0.941406 -2.113281 0.578125 -3.285156 0.578125 -4.765625 C 0.578125 -6.191406 0.929688 -7.390625 1.640625 -8.359375 C 2.347656 -9.328125 3.351562 -9.8125 4.65625 -9.8125 C 5.132812 -9.8125 5.554688 -9.738281 5.921875 -9.59375 C 6.523438 -9.34375 7.015625 -8.878906 7.390625 -8.203125 L 7.390625 -9.578125 L 9.828125 -9.578125 L 9.828125 -0.5 C 9.828125 0.738281 9.617188 1.671875 9.203125 2.296875 C 8.484375 3.378906 7.113281 3.921875 5.09375 3.921875 C 3.863281 3.921875 2.863281 3.679688 2.09375 3.203125 C 1.320312 2.722656 0.894531 2.003906 0.8125 1.046875 L 3.53125 1.046875 C 3.601562 1.335938 3.71875 1.546875 3.875 1.671875 Z M 3.453125 -3.265625 C 3.796875 -2.460938 4.40625 -2.0625 5.28125 -2.0625 C 5.863281 -2.0625 6.359375 -2.28125 6.765625 -2.71875 C 7.171875 -3.164062 7.375 -3.867188 7.375 -4.828125 C 7.375 -5.742188 7.179688 -6.4375 6.796875 -6.90625 C 6.410156 -7.382812 5.894531 -7.625 5.25 -7.625 C 4.375 -7.625 3.769531 -7.207031 3.4375 -6.375 C 3.257812 -5.9375 3.171875 -5.394531 3.171875 -4.75 C 3.171875 -4.195312 3.265625 -3.703125 3.453125 -3.265625 Z M 3.453125 -3.265625 "/>
</g>
<g id="glyph-2-22">
<path d="M 6.953125 0 L 1.375 0 L 1.375 -12.953125 L 6.953125 -12.953125 C 7.753906 -12.941406 8.421875 -12.847656 8.953125 -12.671875 C 9.859375 -12.367188 10.59375 -11.820312 11.15625 -11.03125 C 11.613281 -10.382812 11.921875 -9.6875 12.078125 -8.9375 C 12.242188 -8.1875 12.328125 -7.472656 12.328125 -6.796875 C 12.328125 -5.066406 11.984375 -3.609375 11.296875 -2.421875 C 10.359375 -0.804688 8.910156 0 6.953125 0 Z M 8.96875 -9.65625 C 8.550781 -10.351562 7.726562 -10.703125 6.5 -10.703125 L 4 -10.703125 L 4 -2.25 L 6.5 -2.25 C 7.769531 -2.25 8.660156 -2.878906 9.171875 -4.140625 C 9.441406 -4.828125 9.578125 -5.648438 9.578125 -6.609375 C 9.578125 -7.929688 9.375 -8.945312 8.96875 -9.65625 Z M 8.96875 -9.65625 "/>
</g>
<g id="glyph-2-23">
<path d="M 7.765625 -9.140625 C 8.515625 -8.660156 8.945312 -7.832031 9.0625 -6.65625 L 6.5625 -6.65625 C 6.519531 -6.976562 6.425781 -7.234375 6.28125 -7.421875 C 6.007812 -7.765625 5.539062 -7.9375 4.875 -7.9375 C 4.332031 -7.9375 3.941406 -7.847656 3.703125 -7.671875 C 3.472656 -7.503906 3.359375 -7.304688 3.359375 -7.078125 C 3.359375 -6.796875 3.484375 -6.585938 3.734375 -6.453125 C 3.984375 -6.328125 4.851562 -6.097656 6.34375 -5.765625 C 7.34375 -5.535156 8.09375 -5.179688 8.59375 -4.703125 C 9.082031 -4.222656 9.328125 -3.625 9.328125 -2.90625 C 9.328125 -1.957031 8.972656 -1.179688 8.265625 -0.578125 C 7.554688 0.0234375 6.46875 0.328125 5 0.328125 C 3.488281 0.328125 2.375 0.0078125 1.65625 -0.625 C 0.9375 -1.257812 0.578125 -2.070312 0.578125 -3.0625 L 3.125 -3.0625 C 3.175781 -2.613281 3.289062 -2.296875 3.46875 -2.109375 C 3.769531 -1.773438 4.34375 -1.609375 5.1875 -1.609375 C 5.675781 -1.609375 6.066406 -1.679688 6.359375 -1.828125 C 6.648438 -1.972656 6.796875 -2.191406 6.796875 -2.484375 C 6.796875 -2.765625 6.675781 -2.976562 6.4375 -3.125 C 6.207031 -3.269531 5.335938 -3.523438 3.828125 -3.890625 C 2.742188 -4.160156 1.976562 -4.492188 1.53125 -4.890625 C 1.09375 -5.296875 0.875 -5.875 0.875 -6.625 C 0.875 -7.507812 1.21875 -8.269531 1.90625 -8.90625 C 2.601562 -9.539062 3.582031 -9.859375 4.84375 -9.859375 C 6.039062 -9.859375 7.015625 -9.617188 7.765625 -9.140625 Z M 7.765625 -9.140625 "/>
</g>
<g id="glyph-2-24">
<path d="M 5.984375 -7.265625 C 4.972656 -7.265625 4.296875 -6.9375 3.953125 -6.28125 C 3.765625 -5.914062 3.671875 -5.347656 3.671875 -4.578125 L 3.671875 0 L 1.140625 0 L 1.140625 -9.578125 L 3.53125 -9.578125 L 3.53125 -7.90625 C 3.914062 -8.550781 4.253906 -8.988281 4.546875 -9.21875 C 5.015625 -9.613281 5.625 -9.8125 6.375 -9.8125 C 6.414062 -9.8125 6.453125 -9.804688 6.484375 -9.796875 C 6.523438 -9.796875 6.597656 -9.796875 6.703125 -9.796875 L 6.703125 -7.21875 C 6.546875 -7.238281 6.40625 -7.25 6.28125 -7.25 C 6.15625 -7.257812 6.054688 -7.265625 5.984375 -7.265625 Z M 5.984375 -7.265625 "/>
</g>
<g id="glyph-2-25">
<path d="M 6.375 0.25 C 5.582031 0.25 4.945312 0.0898438 4.46875 -0.21875 C 4.175781 -0.40625 3.863281 -0.734375 3.53125 -1.203125 L 3.53125 0 L 1.078125 0 L 1.078125 -12.9375 L 3.578125 -12.9375 L 3.578125 -8.328125 C 3.890625 -8.773438 4.238281 -9.117188 4.625 -9.359375 C 5.070312 -9.648438 5.644531 -9.796875 6.34375 -9.796875 C 7.601562 -9.796875 8.585938 -9.335938 9.296875 -8.421875 C 10.015625 -7.515625 10.375 -6.34375 10.375 -4.90625 C 10.375 -3.425781 10.019531 -2.195312 9.3125 -1.21875 C 8.613281 -0.238281 7.632812 0.25 6.375 0.25 Z M 7.75 -4.65625 C 7.75 -5.332031 7.660156 -5.894531 7.484375 -6.34375 C 7.148438 -7.1875 6.535156 -7.609375 5.640625 -7.609375 C 4.722656 -7.609375 4.097656 -7.191406 3.765625 -6.359375 C 3.585938 -5.921875 3.5 -5.351562 3.5 -4.65625 C 3.5 -3.832031 3.679688 -3.148438 4.046875 -2.609375 C 4.410156 -2.078125 4.960938 -1.8125 5.703125 -1.8125 C 6.347656 -1.8125 6.847656 -2.070312 7.203125 -2.59375 C 7.566406 -3.113281 7.75 -3.800781 7.75 -4.65625 Z M 7.75 -4.65625 "/>
</g>
</g>
<clipPath id="clip-0">
<path clip-rule="nonzero" d="M 56.25 287 L 857.027344 287 L 857.027344 289 L 56.25 289 Z M 56.25 287 "/>
</clipPath>
<clipPath id="clip-1">
<path clip-rule="nonzero" d="M 56.25 240 L 857.027344 240 L 857.027344 243 L 56.25 243 Z M 56.25 240 "/>
</clipPath>
<clipPath id="clip-2">
<path clip-rule="nonzero" d="M 56.25 194 L 857.027344 194 L 857.027344 196 L 56.25 196 Z M 56.25 194 "/>
</clipPath>
<clipPath id="clip-3">
<path clip-rule="nonzero" d="M 56.25 147 L 857.027344 147 L 857.027344 149 L 56.25 149 Z M 56.25 147 "/>
</clipPath>
<clipPath id="clip-4">
<path clip-rule="nonzero" d="M 56.25 100 L 857.027344 100 L 857.027344 103 L 56.25 103 Z M 56.25 100 "/>
</clipPath>
<clipPath id="clip-5">
<path clip-rule="nonzero" d="M 178 54.914062 L 181 54.914062 L 181 316.261719 L 178 316.261719 Z M 178 54.914062 "/>
</clipPath>
<clipPath id="clip-6">
<path clip-rule="nonzero" d="M 398 54.914062 L 400 54.914062 L 400 316.261719 L 398 316.261719 Z M 398 54.914062 "/>
</clipPath>
<clipPath id="clip-7">
<path clip-rule="nonzero" d="M 618 54.914062 L 620 54.914062 L 620 316.261719 L 618 316.261719 Z M 618 54.914062 "/>
</clipPath>
<clipPath id="clip-8">
<path clip-rule="nonzero" d="M 837 54.914062 L 840 54.914062 L 840 316.261719 L 837 316.261719 Z M 837 54.914062 "/>
</clipPath>
<clipPath id="clip-9">
<path clip-rule="nonzero" d="M 398 54.914062 L 400 54.914062 L 400 316.261719 L 398 316.261719 Z M 398 54.914062 "/>
</clipPath>
</defs>
<rect x="-86.4" y="-36" width="1036.8" height="432" fill="rgb(100%, 100%, 100%)" fill-opacity="1"/>
<rect x="-86.4" y="-36" width="1036.8" height="432" fill="rgb(100%, 100%, 100%)" fill-opacity="1"/>
<g clip-path="url(#clip-0)">
<path fill="none" stroke-width="1.357972" stroke-linecap="butt" stroke-linejoin="round" stroke="rgb(92.156863%, 92.156863%, 92.156863%)" stroke-opacity="1" stroke-miterlimit="10" d="M 56.25 288.261719 L 857.027344 288.261719 "/>
</g>
<g clip-path="url(#clip-1)">
<path fill="none" stroke-width="1.357972" stroke-linecap="butt" stroke-linejoin="round" stroke="rgb(92.156863%, 92.156863%, 92.156863%)" stroke-opacity="1" stroke-miterlimit="10" d="M 56.25 241.589844 L 857.027344 241.589844 "/>
</g>
<g clip-path="url(#clip-2)">
<path fill="none" stroke-width="1.357972" stroke-linecap="butt" stroke-linejoin="round" stroke="rgb(92.156863%, 92.156863%, 92.156863%)" stroke-opacity="1" stroke-miterlimit="10" d="M 56.25 194.921875 L 857.027344 194.921875 "/>
</g>
<g clip-path="url(#clip-3)">
<path fill="none" stroke-width="1.357972" stroke-linecap="butt" stroke-linejoin="round" stroke="rgb(92.156863%, 92.156863%, 92.156863%)" stroke-opacity="1" stroke-miterlimit="10" d="M 56.25 148.253906 L 857.027344 148.253906 "/>
</g>
<g clip-path="url(#clip-4)">
<path fill="none" stroke-width="1.357972" stroke-linecap="butt" stroke-linejoin="round" stroke="rgb(92.156863%, 92.156863%, 92.156863%)" stroke-opacity="1" stroke-miterlimit="10" d="M 56.25 101.582031 L 857.027344 101.582031 "/>
</g>
<g clip-path="url(#clip-5)">
<path fill="none" stroke-width="1.357972" stroke-linecap="butt" stroke-linejoin="round" stroke="rgb(92.156863%, 92.156863%, 92.156863%)" stroke-opacity="1" stroke-miterlimit="10" d="M 179.332031 316.261719 L 179.332031 54.914062 "/>
</g>
<g clip-path="url(#clip-6)">
<path fill="none" stroke-width="1.357972" stroke-linecap="butt" stroke-linejoin="round" stroke="rgb(92.156863%, 92.156863%, 92.156863%)" stroke-opacity="1" stroke-miterlimit="10" d="M 399.101562 316.261719 L 399.101562 54.914062 "/>
</g>
<g clip-path="url(#clip-7)">
<path fill="none" stroke-width="1.357972" stroke-linecap="butt" stroke-linejoin="round" stroke="rgb(92.156863%, 92.156863%, 92.156863%)" stroke-opacity="1" stroke-miterlimit="10" d="M 618.871094 316.261719 L 618.871094 54.914062 "/>
</g>
<g clip-path="url(#clip-8)">
<path fill="none" stroke-width="1.357972" stroke-linecap="butt" stroke-linejoin="round" stroke="rgb(92.156863%, 92.156863%, 92.156863%)" stroke-opacity="1" stroke-miterlimit="10" d="M 838.636719 316.261719 L 838.636719 54.914062 "/>
</g>
<path fill-rule="nonzero" fill="rgb(18.039216%, 52.54902%, 67.058824%)" fill-opacity="0.6" d="M 92.648438 101.582031 L 503.230469 101.582031 L 504.683594 101.578125 L 510.507812 101.578125 L 511.964844 101.574219 L 516.332031 101.574219 L 517.789062 101.570312 L 519.246094 101.570312 L 520.699219 101.566406 L 522.15625 101.566406 L 523.613281 101.5625 L 525.066406 101.5625 L 529.4375 101.550781 L 530.890625 101.546875 L 533.804688 101.539062 L 535.261719 101.53125 L 536.714844 101.527344 L 539.628906 101.511719 L 541.082031 101.503906 L 542.539062 101.496094 L 545.453125 101.472656 L 546.90625 101.460938 L 548.363281 101.449219 L 549.820312 101.433594 L 551.273438 101.417969 L 555.644531 101.359375 L 557.097656 101.335938 L 558.554688 101.3125 L 560.011719 101.285156 L 561.46875 101.253906 L 562.921875 101.222656 L 565.835938 101.152344 L 567.289062 101.113281 L 568.746094 101.070312 L 570.203125 101.023438 L 571.660156 100.972656 L 573.113281 100.917969 L 574.570312 100.859375 L 576.027344 100.796875 L 577.484375 100.730469 L 578.9375 100.660156 L 580.394531 100.582031 L 581.851562 100.5 L 583.304688 100.414062 L 584.761719 100.324219 L 587.675781 100.121094 L 589.128906 100.011719 L 590.585938 99.894531 L 592.042969 99.769531 L 593.5 99.640625 L 594.953125 99.503906 L 596.410156 99.359375 L 597.867188 99.207031 L 599.320312 99.046875 L 600.777344 98.878906 L 602.234375 98.703125 L 603.691406 98.519531 L 605.144531 98.328125 L 606.601562 98.128906 L 608.058594 97.921875 L 609.511719 97.707031 L 610.96875 97.480469 L 612.425781 97.25 L 613.882812 97.007812 L 615.335938 96.761719 L 616.792969 96.503906 L 618.25 96.242188 L 619.707031 95.96875 L 621.160156 95.691406 L 622.617188 95.402344 L 624.074219 95.109375 L 625.527344 94.8125 L 628.441406 94.195312 L 629.898438 93.878906 L 631.351562 93.558594 L 634.265625 92.902344 L 635.722656 92.570312 L 637.175781 92.238281 L 638.632812 91.898438 L 640.089844 91.5625 L 641.542969 91.226562 L 643 90.886719 L 644.457031 90.550781 L 645.914062 90.21875 L 647.367188 89.886719 L 648.824219 89.558594 L 650.28125 89.234375 L 651.738281 88.914062 L 653.191406 88.601562 L 654.648438 88.296875 L 656.105469 88 L 657.558594 87.710938 L 659.015625 87.429688 L 660.472656 87.160156 L 661.929688 86.902344 L 663.382812 86.652344 L 664.839844 86.417969 L 666.296875 86.199219 L 667.75 85.992188 L 669.207031 85.796875 L 670.664062 85.621094 L 672.121094 85.457031 L 673.574219 85.3125 L 675.03125 85.183594 L 676.488281 85.070312 L 677.945312 84.976562 L 679.398438 84.898438 L 680.855469 84.839844 L 682.3125 84.800781 L 683.765625 84.777344 L 685.222656 84.773438 L 686.679688 84.789062 L 688.136719 84.820312 L 689.589844 84.871094 L 691.046875 84.941406 L 692.503906 85.027344 L 693.960938 85.132812 L 695.414062 85.253906 L 696.871094 85.394531 L 698.328125 85.550781 L 699.78125 85.722656 L 701.238281 85.90625 L 702.695312 86.109375 L 704.152344 86.324219 L 705.605469 86.554688 L 707.0625 86.796875 L 708.519531 87.050781 L 709.972656 87.316406 L 711.429688 87.589844 L 712.886719 87.875 L 714.34375 88.171875 L 715.796875 88.472656 L 718.710938 89.097656 L 720.167969 89.421875 L 721.621094 89.746094 L 724.535156 90.410156 L 725.988281 90.746094 L 727.445312 91.082031 L 728.902344 91.421875 L 730.359375 91.757812 L 731.8125 92.09375 L 734.726562 92.765625 L 736.183594 93.09375 L 737.636719 93.421875 L 739.09375 93.746094 L 740.550781 94.0625 L 742.003906 94.375 L 743.460938 94.683594 L 744.917969 94.984375 L 746.375 95.28125 L 747.828125 95.570312 L 749.285156 95.851562 L 750.742188 96.128906 L 752.199219 96.394531 L 753.652344 96.65625 L 755.109375 96.90625 L 756.566406 97.148438 L 758.019531 97.386719 L 759.476562 97.613281 L 760.933594 97.832031 L 762.390625 98.042969 L 763.84375 98.246094 L 765.300781 98.441406 L 766.757812 98.628906 L 768.210938 98.804688 L 769.667969 98.976562 L 771.125 99.140625 L 772.582031 99.296875 L 774.035156 99.441406 L 775.492188 99.582031 L 776.949219 99.714844 L 778.40625 99.84375 L 779.859375 99.960938 L 781.316406 100.074219 L 782.773438 100.179688 L 784.226562 100.28125 L 785.683594 100.375 L 787.140625 100.464844 L 788.597656 100.550781 L 790.050781 100.628906 L 792.964844 100.769531 L 794.421875 100.832031 L 795.875 100.894531 L 797.332031 100.949219 L 798.789062 101 L 800.242188 101.050781 L 803.15625 101.136719 L 804.613281 101.175781 L 806.066406 101.210938 L 808.980469 101.273438 L 810.4375 101.300781 L 811.890625 101.328125 L 813.347656 101.351562 L 814.804688 101.371094 L 816.257812 101.390625 L 817.714844 101.410156 L 820.628906 101.441406 L 820.628906 101.582031 Z M 92.648438 101.582031 "/>
<path fill-rule="nonzero" fill="rgb(18.039216%, 52.54902%, 67.058824%)" fill-opacity="0.6" d="M 92.648438 148.253906 L 338.707031 148.253906 L 340.160156 148.25 L 345.984375 148.25 L 348.898438 148.242188 L 350.351562 148.238281 L 351.808594 148.234375 L 354.722656 148.21875 L 356.175781 148.207031 L 357.632812 148.191406 L 359.089844 148.167969 L 360.546875 148.140625 L 362 148.105469 L 363.457031 148.058594 L 364.914062 147.996094 L 366.367188 147.921875 L 367.824219 147.824219 L 369.28125 147.703125 L 370.738281 147.554688 L 372.191406 147.371094 L 373.648438 147.148438 L 375.105469 146.875 L 376.5625 146.550781 L 378.015625 146.160156 L 379.472656 145.699219 L 380.929688 145.15625 L 382.382812 144.523438 L 383.839844 143.792969 L 385.296875 142.957031 L 386.753906 142.003906 L 388.207031 140.933594 L 389.664062 139.734375 L 391.121094 138.410156 L 392.574219 136.960938 L 394.03125 135.378906 L 395.488281 133.683594 L 396.945312 131.871094 L 398.398438 129.960938 L 399.855469 127.96875 L 401.3125 125.914062 L 402.769531 123.820312 L 404.222656 121.707031 L 405.679688 119.613281 L 407.136719 117.566406 L 408.589844 115.59375 L 410.046875 113.734375 L 411.503906 112.015625 L 412.960938 110.476562 L 414.414062 109.136719 L 415.871094 108.027344 L 417.328125 107.171875 L 418.785156 106.582031 L 420.238281 106.273438 L 421.695312 106.25 L 423.152344 106.515625 L 424.605469 107.0625 L 426.0625 107.878906 L 427.519531 108.953125 L 428.976562 110.257812 L 430.429688 111.769531 L 431.886719 113.460938 L 433.34375 115.300781 L 434.800781 117.257812 L 436.253906 119.296875 L 437.710938 121.386719 L 439.167969 123.496094 L 440.621094 125.59375 L 442.078125 127.660156 L 443.535156 129.664062 L 444.992188 131.585938 L 446.445312 133.410156 L 447.902344 135.128906 L 449.359375 136.726562 L 450.8125 138.199219 L 452.269531 139.542969 L 453.726562 140.757812 L 455.183594 141.847656 L 456.636719 142.816406 L 458.09375 143.671875 L 459.550781 144.417969 L 461.007812 145.0625 L 462.460938 145.621094 L 463.917969 146.09375 L 465.375 146.496094 L 466.828125 146.832031 L 468.285156 147.109375 L 469.742188 147.339844 L 471.199219 147.53125 L 472.652344 147.683594 L 474.109375 147.808594 L 475.566406 147.90625 L 477.023438 147.988281 L 478.476562 148.050781 L 479.933594 148.097656 L 481.390625 148.136719 L 482.84375 148.164062 L 484.300781 148.1875 L 487.214844 148.21875 L 488.667969 148.226562 L 490.125 148.234375 L 493.039062 148.242188 L 494.492188 148.246094 L 495.949219 148.246094 L 497.40625 148.25 L 501.773438 148.25 L 503.230469 148.253906 L 820.628906 148.253906 Z M 92.648438 148.253906 "/>
<path fill-rule="nonzero" fill="rgb(18.039216%, 52.54902%, 67.058824%)" fill-opacity="0.6" d="M 92.648438 194.921875 L 178.550781 194.921875 L 180.007812 194.917969 L 185.832031 194.917969 L 187.285156 194.914062 L 188.742188 194.914062 L 190.199219 194.910156 L 191.652344 194.910156 L 194.566406 194.902344 L 196.023438 194.902344 L 197.476562 194.894531 L 200.390625 194.886719 L 201.847656 194.878906 L 203.300781 194.871094 L 204.757812 194.863281 L 206.214844 194.851562 L 207.667969 194.839844 L 210.582031 194.808594 L 212.039062 194.789062 L 213.492188 194.765625 L 214.949219 194.742188 L 216.40625 194.714844 L 217.863281 194.679688 L 219.316406 194.644531 L 220.773438 194.601562 L 222.230469 194.554688 L 223.683594 194.5 L 225.140625 194.441406 L 226.597656 194.375 L 228.054688 194.296875 L 229.507812 194.214844 L 230.964844 194.121094 L 232.421875 194.015625 L 233.875 193.902344 L 235.332031 193.773438 L 236.789062 193.632812 L 238.246094 193.476562 L 239.699219 193.308594 L 241.15625 193.121094 L 242.613281 192.917969 L 244.070312 192.699219 L 245.523438 192.460938 L 246.980469 192.203125 L 248.4375 191.921875 L 249.890625 191.621094 L 251.347656 191.300781 L 252.804688 190.957031 L 254.261719 190.585938 L 255.714844 190.195312 L 257.171875 189.78125 L 258.628906 189.34375 L 260.085938 188.878906 L 261.539062 188.390625 L 262.996094 187.882812 L 264.453125 187.347656 L 265.90625 186.792969 L 267.363281 186.214844 L 268.820312 185.621094 L 270.277344 185.003906 L 271.730469 184.371094 L 273.1875 183.722656 L 274.644531 183.0625 L 276.101562 182.390625 L 277.554688 181.710938 L 279.011719 181.027344 L 280.46875 180.335938 L 281.921875 179.648438 L 283.378906 178.960938 L 284.835938 178.285156 L 286.292969 177.613281 L 287.746094 176.957031 L 289.203125 176.320312 L 290.660156 175.703125 L 292.113281 175.105469 L 293.570312 174.539062 L 295.027344 174.003906 L 296.484375 173.5 L 297.9375 173.035156 L 299.394531 172.609375 L 300.851562 172.226562 L 302.308594 171.886719 L 303.761719 171.597656 L 305.21875 171.355469 L 306.675781 171.164062 L 308.128906 171.023438 L 309.585938 170.9375 L 311.042969 170.90625 L 312.5 170.925781 L 313.953125 171.003906 L 315.410156 171.128906 L 316.867188 171.3125 L 318.324219 171.542969 L 319.777344 171.824219 L 321.234375 172.152344 L 322.691406 172.523438 L 324.144531 172.941406 L 325.601562 173.398438 L 327.058594 173.894531 L 328.515625 174.425781 L 329.96875 174.984375 L 331.425781 175.574219 L 332.882812 176.1875 L 334.339844 176.824219 L 335.792969 177.476562 L 337.25 178.144531 L 338.707031 178.820312 L 340.160156 179.503906 L 341.617188 180.191406 L 343.074219 180.882812 L 344.53125 181.570312 L 345.984375 182.25 L 347.441406 182.921875 L 348.898438 183.585938 L 350.351562 184.238281 L 351.808594 184.875 L 353.265625 185.492188 L 354.722656 186.09375 L 356.175781 186.675781 L 357.632812 187.234375 L 359.089844 187.773438 L 360.546875 188.289062 L 362 188.777344 L 363.457031 189.246094 L 364.914062 189.691406 L 366.367188 190.113281 L 367.824219 190.507812 L 369.28125 190.878906 L 370.738281 191.230469 L 372.191406 191.558594 L 373.648438 191.863281 L 375.105469 192.144531 L 376.5625 192.40625 L 378.015625 192.652344 L 379.472656 192.875 L 380.929688 193.082031 L 382.382812 193.269531 L 383.839844 193.445312 L 385.296875 193.601562 L 386.753906 193.746094 L 388.207031 193.875 L 389.664062 193.992188 L 391.121094 194.101562 L 392.574219 194.195312 L 394.03125 194.28125 L 395.488281 194.359375 L 396.945312 194.429688 L 398.398438 194.488281 L 399.855469 194.542969 L 401.3125 194.59375 L 402.769531 194.636719 L 404.222656 194.671875 L 405.679688 194.707031 L 407.136719 194.738281 L 408.589844 194.761719 L 410.046875 194.785156 L 411.503906 194.804688 L 412.960938 194.820312 L 414.414062 194.835938 L 418.785156 194.871094 L 420.238281 194.878906 L 421.695312 194.882812 L 423.152344 194.890625 L 424.605469 194.894531 L 428.976562 194.90625 L 430.429688 194.910156 L 431.886719 194.910156 L 433.34375 194.914062 L 434.800781 194.914062 L 436.253906 194.917969 L 442.078125 194.917969 L 443.535156 194.921875 L 820.628906 194.921875 Z M 92.648438 194.921875 "/>
<path fill-rule="nonzero" fill="rgb(18.039216%, 52.54902%, 67.058824%)" fill-opacity="0.6" d="M 92.648438 241.589844 L 102.839844 241.589844 L 104.296875 241.585938 L 110.121094 241.585938 L 111.578125 241.582031 L 114.488281 241.582031 L 115.945312 241.578125 L 117.402344 241.578125 L 118.855469 241.574219 L 120.3125 241.574219 L 121.769531 241.570312 L 123.222656 241.566406 L 127.59375 241.554688 L 129.046875 241.550781 L 130.503906 241.542969 L 131.960938 241.539062 L 133.414062 241.53125 L 134.871094 241.523438 L 136.328125 241.511719 L 137.785156 241.503906 L 139.238281 241.492188 L 140.695312 241.480469 L 143.609375 241.449219 L 145.0625 241.433594 L 147.976562 241.394531 L 149.429688 241.371094 L 152.34375 241.316406 L 153.800781 241.285156 L 155.253906 241.253906 L 158.167969 241.175781 L 159.625 241.128906 L 161.078125 241.082031 L 162.535156 241.03125 L 163.992188 240.972656 L 165.445312 240.910156 L 166.902344 240.84375 L 168.359375 240.769531 L 169.816406 240.691406 L 171.269531 240.605469 L 172.726562 240.515625 L 174.183594 240.417969 L 175.640625 240.3125 L 177.09375 240.199219 L 178.550781 240.078125 L 180.007812 239.949219 L 181.460938 239.8125 L 182.917969 239.664062 L 184.375 239.507812 L 185.832031 239.34375 L 187.285156 239.167969 L 188.742188 238.984375 L 190.199219 238.789062 L 191.652344 238.582031 L 193.109375 238.363281 L 194.566406 238.136719 L 196.023438 237.898438 L 197.476562 237.648438 L 198.933594 237.386719 L 200.390625 237.113281 L 201.847656 236.828125 L 203.300781 236.53125 L 204.757812 236.226562 L 206.214844 235.910156 L 207.667969 235.582031 L 209.125 235.242188 L 210.582031 234.894531 L 212.039062 234.535156 L 213.492188 234.171875 L 214.949219 233.792969 L 216.40625 233.410156 L 217.863281 233.019531 L 219.316406 232.625 L 220.773438 232.222656 L 222.230469 231.816406 L 223.683594 231.402344 L 226.597656 230.574219 L 228.054688 230.15625 L 229.507812 229.738281 L 232.421875 228.910156 L 233.875 228.503906 L 235.332031 228.101562 L 236.789062 227.703125 L 238.246094 227.3125 L 239.699219 226.933594 L 241.15625 226.5625 L 242.613281 226.203125 L 244.070312 225.855469 L 245.523438 225.523438 L 246.980469 225.207031 L 248.4375 224.90625 L 249.890625 224.625 L 251.347656 224.359375 L 252.804688 224.117188 L 254.261719 223.890625 L 255.714844 223.6875 L 257.171875 223.507812 L 258.628906 223.351562 L 260.085938 223.214844 L 261.539062 223.105469 L 262.996094 223.019531 L 264.453125 222.957031 L 265.90625 222.921875 L 267.363281 222.914062 L 268.820312 222.925781 L 270.277344 222.96875 L 271.730469 223.03125 L 273.1875 223.121094 L 274.644531 223.238281 L 276.101562 223.375 L 277.554688 223.535156 L 279.011719 223.722656 L 280.46875 223.929688 L 281.921875 224.15625 L 283.378906 224.402344 L 284.835938 224.671875 L 286.292969 224.957031 L 287.746094 225.261719 L 289.203125 225.582031 L 290.660156 225.914062 L 292.113281 226.261719 L 293.570312 226.625 L 295.027344 226.996094 L 296.484375 227.378906 L 297.9375 227.769531 L 299.394531 228.167969 L 300.851562 228.570312 L 302.308594 228.980469 L 303.761719 229.394531 L 305.21875 229.808594 L 306.675781 230.226562 L 308.128906 230.644531 L 311.042969 231.472656 L 312.5 231.882812 L 313.953125 232.289062 L 315.410156 232.691406 L 316.867188 233.085938 L 318.324219 233.476562 L 319.777344 233.859375 L 321.234375 234.234375 L 322.691406 234.597656 L 324.144531 234.953125 L 325.601562 235.300781 L 327.058594 235.636719 L 328.515625 235.964844 L 329.96875 236.277344 L 331.425781 236.582031 L 332.882812 236.878906 L 334.339844 237.160156 L 335.792969 237.429688 L 337.25 237.691406 L 338.707031 237.9375 L 340.160156 238.175781 L 341.617188 238.402344 L 343.074219 238.617188 L 344.53125 238.820312 L 345.984375 239.015625 L 347.441406 239.199219 L 348.898438 239.371094 L 350.351562 239.535156 L 351.808594 239.691406 L 353.265625 239.835938 L 354.722656 239.972656 L 356.175781 240.101562 L 357.632812 240.21875 L 359.089844 240.332031 L 360.546875 240.433594 L 362 240.53125 L 363.457031 240.621094 L 364.914062 240.707031 L 366.367188 240.78125 L 367.824219 240.855469 L 369.28125 240.921875 L 370.738281 240.980469 L 372.191406 241.039062 L 373.648438 241.089844 L 375.105469 241.136719 L 376.5625 241.179688 L 378.015625 241.222656 L 380.929688 241.292969 L 382.382812 241.320312 L 385.296875 241.375 L 386.753906 241.398438 L 388.207031 241.417969 L 389.664062 241.4375 L 391.121094 241.453125 L 392.574219 241.46875 L 394.03125 241.480469 L 395.488281 241.496094 L 396.945312 241.503906 L 398.398438 241.515625 L 402.769531 241.539062 L 404.222656 241.546875 L 407.136719 241.554688 L 408.589844 241.558594 L 412.960938 241.570312 L 414.414062 241.574219 L 415.871094 241.574219 L 417.328125 241.578125 L 418.785156 241.578125 L 420.238281 241.582031 L 423.152344 241.582031 L 424.605469 241.585938 L 428.976562 241.585938 L 430.429688 241.589844 L 820.628906 241.589844 Z M 92.648438 241.589844 "/>
<path fill-rule="nonzero" fill="rgb(18.039216%, 52.54902%, 67.058824%)" fill-opacity="0.6" d="M 92.648438 288.082031 L 94.105469 288.058594 L 95.5625 288.03125 L 97.015625 288.003906 L 99.929688 287.933594 L 101.386719 287.890625 L 102.839844 287.84375 L 104.296875 287.792969 L 105.753906 287.738281 L 107.207031 287.675781 L 108.664062 287.609375 L 111.578125 287.453125 L 113.03125 287.363281 L 114.488281 287.265625 L 115.945312 287.15625 L 117.402344 287.042969 L 118.855469 286.917969 L 120.3125 286.78125 L 121.769531 286.632812 L 123.222656 286.476562 L 124.679688 286.304688 L 126.136719 286.125 L 127.59375 285.925781 L 129.046875 285.71875 L 130.503906 285.496094 L 131.960938 285.257812 L 133.414062 285.003906 L 134.871094 284.734375 L 136.328125 284.453125 L 137.785156 284.152344 L 139.238281 283.835938 L 140.695312 283.503906 L 142.152344 283.15625 L 143.609375 282.792969 L 145.0625 282.414062 L 146.519531 282.019531 L 147.976562 281.609375 L 149.429688 281.183594 L 150.886719 280.746094 L 152.34375 280.292969 L 153.800781 279.828125 L 155.253906 279.347656 L 156.710938 278.859375 L 158.167969 278.363281 L 159.625 277.855469 L 161.078125 277.339844 L 162.535156 276.820312 L 163.992188 276.296875 L 165.445312 275.769531 L 168.359375 274.714844 L 169.816406 274.191406 L 171.269531 273.671875 L 172.726562 273.160156 L 174.183594 272.65625 L 175.640625 272.164062 L 177.09375 271.683594 L 178.550781 271.21875 L 180.007812 270.769531 L 181.460938 270.339844 L 182.917969 269.933594 L 184.375 269.546875 L 185.832031 269.1875 L 187.285156 268.855469 L 188.742188 268.546875 L 190.199219 268.269531 L 191.652344 268.023438 L 193.109375 267.8125 L 194.566406 267.628906 L 196.023438 267.484375 L 197.476562 267.371094 L 198.933594 267.292969 L 200.390625 267.253906 L 201.847656 267.25 L 203.300781 267.28125 L 204.757812 267.347656 L 206.214844 267.449219 L 207.667969 267.585938 L 209.125 267.757812 L 210.582031 267.964844 L 212.039062 268.203125 L 213.492188 268.472656 L 214.949219 268.769531 L 216.40625 269.097656 L 217.863281 269.449219 L 219.316406 269.828125 L 220.773438 270.230469 L 222.230469 270.65625 L 223.683594 271.097656 L 225.140625 271.558594 L 226.597656 272.035156 L 228.054688 272.523438 L 229.507812 273.023438 L 230.964844 273.535156 L 232.421875 274.054688 L 233.875 274.574219 L 238.246094 276.15625 L 239.699219 276.683594 L 241.15625 277.203125 L 242.613281 277.71875 L 244.070312 278.226562 L 245.523438 278.730469 L 246.980469 279.21875 L 248.4375 279.699219 L 249.890625 280.171875 L 251.347656 280.625 L 252.804688 281.070312 L 254.261719 281.5 L 255.714844 281.914062 L 257.171875 282.3125 L 258.628906 282.695312 L 260.085938 283.0625 L 261.539062 283.414062 L 262.996094 283.75 L 264.453125 284.070312 L 265.90625 284.375 L 267.363281 284.660156 L 268.820312 284.933594 L 270.277344 285.191406 L 271.730469 285.433594 L 273.1875 285.660156 L 274.644531 285.871094 L 276.101562 286.074219 L 277.554688 286.257812 L 279.011719 286.433594 L 280.46875 286.59375 L 281.921875 286.742188 L 283.378906 286.882812 L 284.835938 287.011719 L 286.292969 287.128906 L 287.746094 287.238281 L 289.203125 287.335938 L 290.660156 287.429688 L 292.113281 287.511719 L 293.570312 287.589844 L 295.027344 287.660156 L 296.484375 287.722656 L 297.9375 287.78125 L 299.394531 287.832031 L 300.851562 287.878906 L 302.308594 287.921875 L 303.761719 287.960938 L 305.21875 287.996094 L 306.675781 288.023438 L 308.128906 288.054688 L 311.042969 288.101562 L 312.5 288.121094 L 313.953125 288.136719 L 316.867188 288.167969 L 318.324219 288.179688 L 319.777344 288.1875 L 321.234375 288.199219 L 322.691406 288.207031 L 324.144531 288.214844 L 325.601562 288.21875 L 327.058594 288.226562 L 328.515625 288.230469 L 329.96875 288.234375 L 334.339844 288.246094 L 335.792969 288.246094 L 337.25 288.25 L 338.707031 288.25 L 340.160156 288.253906 L 343.074219 288.253906 L 344.53125 288.257812 L 354.722656 288.257812 L 356.175781 288.261719 L 820.628906 288.261719 L 92.648438 288.261719 Z M 92.648438 288.082031 "/>
<path fill="none" stroke-width="1.280374" stroke-linecap="butt" stroke-linejoin="round" stroke="rgb(0%, 0%, 0%)" stroke-opacity="1" stroke-miterlimit="10" d="M 598.652344 101.582031 L 770.949219 101.582031 "/>
<path fill="none" stroke-width="1.280374" stroke-linecap="butt" stroke-linejoin="round" stroke="rgb(0%, 0%, 0%)" stroke-opacity="1" stroke-miterlimit="10" d="M 189.707031 241.589844 L 344.773438 241.589844 "/>
<path fill="none" stroke-width="1.280374" stroke-linecap="butt" stroke-linejoin="round" stroke="rgb(0%, 0%, 0%)" stroke-opacity="1" stroke-miterlimit="10" d="M 132.394531 288.261719 L 270.230469 288.261719 "/>
<path fill="none" stroke-width="1.280374" stroke-linecap="butt" stroke-linejoin="round" stroke="rgb(0%, 0%, 0%)" stroke-opacity="1" stroke-miterlimit="10" d="M 250.890625 194.921875 L 371.496094 194.921875 "/>
<path fill="none" stroke-width="1.280374" stroke-linecap="butt" stroke-linejoin="round" stroke="rgb(0%, 0%, 0%)" stroke-opacity="1" stroke-miterlimit="10" d="M 386.621094 148.253906 L 455.539062 148.253906 "/>
<path fill="none" stroke-width="2.987539" stroke-linecap="butt" stroke-linejoin="round" stroke="rgb(0%, 0%, 0%)" stroke-opacity="1" stroke-miterlimit="10" d="M 655.152344 101.582031 L 714.445312 101.582031 "/>
<path fill="none" stroke-width="2.987539" stroke-linecap="butt" stroke-linejoin="round" stroke="rgb(0%, 0%, 0%)" stroke-opacity="1" stroke-miterlimit="10" d="M 240.558594 241.589844 L 293.921875 241.589844 "/>
<path fill="none" stroke-width="2.987539" stroke-linecap="butt" stroke-linejoin="round" stroke="rgb(0%, 0%, 0%)" stroke-opacity="1" stroke-miterlimit="10" d="M 177.59375 288.261719 L 225.027344 288.261719 "/>
<path fill="none" stroke-width="2.987539" stroke-linecap="butt" stroke-linejoin="round" stroke="rgb(0%, 0%, 0%)" stroke-opacity="1" stroke-miterlimit="10" d="M 290.441406 194.921875 L 331.945312 194.921875 "/>
<path fill="none" stroke-width="2.987539" stroke-linecap="butt" stroke-linejoin="round" stroke="rgb(0%, 0%, 0%)" stroke-opacity="1" stroke-miterlimit="10" d="M 409.21875 148.253906 L 432.9375 148.253906 "/>
<path fill-rule="nonzero" fill="rgb(0%, 0%, 0%)" fill-opacity="1" stroke-width="1.062992" stroke-linecap="round" stroke-linejoin="round" stroke="rgb(0%, 0%, 0%)" stroke-opacity="1" stroke-miterlimit="10" d="M 689.066406 101.582031 C 689.066406 107.269531 680.535156 107.269531 680.535156 101.582031 C 680.535156 95.894531 689.066406 95.894531 689.066406 101.582031 "/>
<path fill-rule="nonzero" fill="rgb(0%, 0%, 0%)" fill-opacity="1" stroke-width="1.062992" stroke-linecap="round" stroke-linejoin="round" stroke="rgb(0%, 0%, 0%)" stroke-opacity="1" stroke-miterlimit="10" d="M 271.507812 241.589844 C 271.507812 247.28125 262.976562 247.28125 262.976562 241.589844 C 262.976562 235.902344 271.507812 235.902344 271.507812 241.589844 "/>
<path fill-rule="nonzero" fill="rgb(0%, 0%, 0%)" fill-opacity="1" stroke-width="1.062992" stroke-linecap="round" stroke-linejoin="round" stroke="rgb(0%, 0%, 0%)" stroke-opacity="1" stroke-miterlimit="10" d="M 205.578125 288.261719 C 205.578125 293.949219 197.042969 293.949219 197.042969 288.261719 C 197.042969 282.574219 205.578125 282.574219 205.578125 288.261719 "/>
<path fill-rule="nonzero" fill="rgb(0%, 0%, 0%)" fill-opacity="1" stroke-width="1.062992" stroke-linecap="round" stroke-linejoin="round" stroke="rgb(0%, 0%, 0%)" stroke-opacity="1" stroke-miterlimit="10" d="M 315.460938 194.921875 C 315.460938 200.609375 306.929688 200.609375 306.929688 194.921875 C 306.929688 189.234375 315.460938 189.234375 315.460938 194.921875 "/>
<path fill-rule="nonzero" fill="rgb(0%, 0%, 0%)" fill-opacity="1" stroke-width="1.062992" stroke-linecap="round" stroke-linejoin="round" stroke="rgb(0%, 0%, 0%)" stroke-opacity="1" stroke-miterlimit="10" d="M 425.34375 148.253906 C 425.34375 153.941406 416.8125 153.941406 416.8125 148.253906 C 416.8125 142.566406 425.34375 142.566406 425.34375 148.253906 "/>
<path fill-rule="nonzero" fill="rgb(0%, 0%, 0%)" fill-opacity="1" stroke-width="1.062992" stroke-linecap="round" stroke-linejoin="round" stroke="rgb(0%, 0%, 0%)" stroke-opacity="1" stroke-miterlimit="10" d="M 689.066406 101.582031 C 689.066406 107.269531 680.535156 107.269531 680.535156 101.582031 C 680.535156 95.894531 689.066406 95.894531 689.066406 101.582031 "/>
<path fill-rule="nonzero" fill="rgb(0%, 0%, 0%)" fill-opacity="1" stroke-width="1.062992" stroke-linecap="round" stroke-linejoin="round" stroke="rgb(0%, 0%, 0%)" stroke-opacity="1" stroke-miterlimit="10" d="M 271.507812 241.589844 C 271.507812 247.28125 262.976562 247.28125 262.976562 241.589844 C 262.976562 235.902344 271.507812 235.902344 271.507812 241.589844 "/>
<path fill-rule="nonzero" fill="rgb(0%, 0%, 0%)" fill-opacity="1" stroke-width="1.062992" stroke-linecap="round" stroke-linejoin="round" stroke="rgb(0%, 0%, 0%)" stroke-opacity="1" stroke-miterlimit="10" d="M 205.578125 288.261719 C 205.578125 293.949219 197.042969 293.949219 197.042969 288.261719 C 197.042969 282.574219 205.578125 282.574219 205.578125 288.261719 "/>
<path fill-rule="nonzero" fill="rgb(0%, 0%, 0%)" fill-opacity="1" stroke-width="1.062992" stroke-linecap="round" stroke-linejoin="round" stroke="rgb(0%, 0%, 0%)" stroke-opacity="1" stroke-miterlimit="10" d="M 315.460938 194.921875 C 315.460938 200.609375 306.929688 200.609375 306.929688 194.921875 C 306.929688 189.234375 315.460938 189.234375 315.460938 194.921875 "/>
<path fill-rule="nonzero" fill="rgb(0%, 0%, 0%)" fill-opacity="1" stroke-width="1.062992" stroke-linecap="round" stroke-linejoin="round" stroke="rgb(0%, 0%, 0%)" stroke-opacity="1" stroke-miterlimit="10" d="M 425.34375 148.253906 C 425.34375 153.941406 416.8125 153.941406 416.8125 148.253906 C 416.8125 142.566406 425.34375 142.566406 425.34375 148.253906 "/>
<g clip-path="url(#clip-9)">
<path fill="none" stroke-width="1.357972" stroke-linecap="butt" stroke-linejoin="round" stroke="rgb(40%, 40%, 40%)" stroke-opacity="1" stroke-dasharray="5.43189 5.43189" stroke-miterlimit="10" d="M 399.101562 316.261719 L 399.101562 54.914062 "/>
</g>
<g fill="rgb(30.196078%, 30.196078%, 30.196078%)" fill-opacity="1">
<use xlink:href="#glyph-0-1" x="6.972656" y="292.385742"/>
<use xlink:href="#glyph-0-2" x="13.972656" y="292.385742"/>
<use xlink:href="#glyph-0-3" x="19.972656" y="292.385742"/>
<use xlink:href="#glyph-0-4" x="25.972656" y="292.385742"/>
<use xlink:href="#glyph-0-5" x="29.972656" y="292.385742"/>
<use xlink:href="#glyph-0-6" x="35.972656" y="292.385742"/>
<use xlink:href="#glyph-0-7" x="37.972656" y="292.385742"/>
<use xlink:href="#glyph-0-3" x="43.972656" y="292.385742"/>
</g>
<g fill="rgb(30.196078%, 30.196078%, 30.196078%)" fill-opacity="1">
<use xlink:href="#glyph-0-8" x="22.972656" y="245.713867"/>
<use xlink:href="#glyph-0-9" x="29.972656" y="245.713867"/>
<use xlink:href="#glyph-0-3" x="31.972656" y="245.713867"/>
<use xlink:href="#glyph-0-3" x="37.972656" y="245.713867"/>
<use xlink:href="#glyph-0-10" x="43.972656" y="245.713867"/>
</g>
<g fill="rgb(30.196078%, 30.196078%, 30.196078%)" fill-opacity="1">
<use xlink:href="#glyph-0-11" x="13.972656" y="199.045898"/>
<use xlink:href="#glyph-0-12" x="16.972656" y="199.045898"/>
<use xlink:href="#glyph-0-5" x="22.972656" y="199.045898"/>
<use xlink:href="#glyph-0-13" x="28.972656" y="199.045898"/>
<use xlink:href="#glyph-0-14" x="34.972656" y="199.045898"/>
<use xlink:href="#glyph-0-3" x="43.972656" y="199.045898"/>
</g>
<g fill="rgb(30.196078%, 30.196078%, 30.196078%)" fill-opacity="1">
<use xlink:href="#glyph-0-15" x="30.972656" y="152.37793"/>
<use xlink:href="#glyph-0-16" x="37.972656" y="152.37793"/>
<use xlink:href="#glyph-0-3" x="43.972656" y="152.37793"/>
</g>
<g fill="rgb(30.196078%, 30.196078%, 30.196078%)" fill-opacity="1">
<use xlink:href="#glyph-0-8" x="7.972656" y="105.706055"/>
<use xlink:href="#glyph-0-14" x="14.972656" y="105.706055"/>
<use xlink:href="#glyph-0-13" x="23.972656" y="105.706055"/>
<use xlink:href="#glyph-0-17" x="29.972656" y="105.706055"/>
<use xlink:href="#glyph-0-6" x="35.972656" y="105.706055"/>
<use xlink:href="#glyph-0-12" x="37.972656" y="105.706055"/>
<use xlink:href="#glyph-0-16" x="43.972656" y="105.706055"/>
</g>
<g fill="rgb(30.196078%, 30.196078%, 30.196078%)" fill-opacity="1">
<use xlink:href="#glyph-0-18" x="169.832031" y="331.163086"/>
<use xlink:href="#glyph-0-19" x="173.832031" y="331.163086"/>
<use xlink:href="#glyph-0-20" x="179.832031" y="331.163086"/>
<use xlink:href="#glyph-0-21" x="182.832031" y="331.163086"/>
</g>
<g fill="rgb(30.196078%, 30.196078%, 30.196078%)" fill-opacity="1">
<use xlink:href="#glyph-0-19" x="391.601562" y="331.163086"/>
<use xlink:href="#glyph-0-20" x="397.601562" y="331.163086"/>
<use xlink:href="#glyph-0-19" x="400.601562" y="331.163086"/>
</g>
<g fill="rgb(30.196078%, 30.196078%, 30.196078%)" fill-opacity="1">
<use xlink:href="#glyph-0-19" x="611.371094" y="331.163086"/>
<use xlink:href="#glyph-0-20" x="617.371094" y="331.163086"/>
<use xlink:href="#glyph-0-21" x="620.371094" y="331.163086"/>
</g>
<g fill="rgb(30.196078%, 30.196078%, 30.196078%)" fill-opacity="1">
<use xlink:href="#glyph-0-22" x="831.136719" y="331.163086"/>
<use xlink:href="#glyph-0-20" x="837.136719" y="331.163086"/>
<use xlink:href="#glyph-0-19" x="840.136719" y="331.163086"/>
</g>
<g fill="rgb(30.196078%, 30.196078%, 30.196078%)" fill-opacity="1">
<use xlink:href="#glyph-1-1" x="411.136719" y="348.807617"/>
<use xlink:href="#glyph-1-2" x="419.136719" y="348.807617"/>
<use xlink:href="#glyph-1-3" x="427.136719" y="348.807617"/>
<use xlink:href="#glyph-1-4" x="435.136719" y="348.807617"/>
<use xlink:href="#glyph-1-2" x="439.136719" y="348.807617"/>
<use xlink:href="#glyph-1-5" x="447.136719" y="348.807617"/>
<use xlink:href="#glyph-1-5" x="455.136719" y="348.807617"/>
<use xlink:href="#glyph-1-6" x="463.136719" y="348.807617"/>
<use xlink:href="#glyph-1-4" x="470.136719" y="348.807617"/>
<use xlink:href="#glyph-1-7" x="474.136719" y="348.807617"/>
<use xlink:href="#glyph-1-8" x="479.136719" y="348.807617"/>
<use xlink:href="#glyph-1-9" x="487.136719" y="348.807617"/>
<use xlink:href="#glyph-1-10" x="491.136719" y="348.807617"/>
<use xlink:href="#glyph-1-2" x="494.136719" y="348.807617"/>
</g>
<g fill="rgb(40%, 40%, 40%)" fill-opacity="1">
<use xlink:href="#glyph-1-11" x="6.972656" y="38.737305"/>
<use xlink:href="#glyph-1-12" x="15.972656" y="38.737305"/>
<use xlink:href="#glyph-1-10" x="23.972656" y="38.737305"/>
<use xlink:href="#glyph-1-13" x="26.972656" y="38.737305"/>
<use xlink:href="#glyph-1-14" x="33.972656" y="38.737305"/>
<use xlink:href="#glyph-1-4" x="40.972656" y="38.737305"/>
<use xlink:href="#glyph-1-15" x="44.972656" y="38.737305"/>
<use xlink:href="#glyph-1-8" x="52.972656" y="38.737305"/>
<use xlink:href="#glyph-1-16" x="60.972656" y="38.737305"/>
<use xlink:href="#glyph-1-5" x="68.972656" y="38.737305"/>
<use xlink:href="#glyph-1-4" x="76.972656" y="38.737305"/>
<use xlink:href="#glyph-1-17" x="80.972656" y="38.737305"/>
<use xlink:href="#glyph-1-4" x="88.972656" y="38.737305"/>
<use xlink:href="#glyph-1-18" x="92.972656" y="38.737305"/>
<use xlink:href="#glyph-1-19" x="100.972656" y="38.737305"/>
<use xlink:href="#glyph-1-20" x="108.972656" y="38.737305"/>
<use xlink:href="#glyph-1-4" x="120.972656" y="38.737305"/>
<use xlink:href="#glyph-1-10" x="124.972656" y="38.737305"/>
<use xlink:href="#glyph-1-16" x="127.972656" y="38.737305"/>
<use xlink:href="#glyph-1-9" x="135.972656" y="38.737305"/>
<use xlink:href="#glyph-1-21" x="139.972656" y="38.737305"/>
<use xlink:href="#glyph-1-7" x="147.972656" y="38.737305"/>
<use xlink:href="#glyph-1-22" x="152.972656" y="38.737305"/>
<use xlink:href="#glyph-1-8" x="159.972656" y="38.737305"/>
<use xlink:href="#glyph-1-23" x="167.972656" y="38.737305"/>
<use xlink:href="#glyph-1-24" x="170.972656" y="38.737305"/>
<use xlink:href="#glyph-1-4" x="174.972656" y="38.737305"/>
<use xlink:href="#glyph-1-9" x="178.972656" y="38.737305"/>
<use xlink:href="#glyph-1-12" x="182.972656" y="38.737305"/>
<use xlink:href="#glyph-1-10" x="190.972656" y="38.737305"/>
<use xlink:href="#glyph-1-16" x="193.972656" y="38.737305"/>
<use xlink:href="#glyph-1-4" x="201.972656" y="38.737305"/>
<use xlink:href="#glyph-1-23" x="205.972656" y="38.737305"/>
<use xlink:href="#glyph-1-10" x="208.972656" y="38.737305"/>
<use xlink:href="#glyph-1-16" x="211.972656" y="38.737305"/>
<use xlink:href="#glyph-1-21" x="219.972656" y="38.737305"/>
<use xlink:href="#glyph-1-4" x="227.972656" y="38.737305"/>
<use xlink:href="#glyph-1-17" x="231.972656" y="38.737305"/>
<use xlink:href="#glyph-1-4" x="239.972656" y="38.737305"/>
<use xlink:href="#glyph-1-25" x="243.972656" y="38.737305"/>
<use xlink:href="#glyph-1-18" x="251.972656" y="38.737305"/>
<use xlink:href="#glyph-1-20" x="259.972656" y="38.737305"/>
<use xlink:href="#glyph-1-4" x="271.972656" y="38.737305"/>
<use xlink:href="#glyph-1-10" x="275.972656" y="38.737305"/>
<use xlink:href="#glyph-1-16" x="278.972656" y="38.737305"/>
<use xlink:href="#glyph-1-9" x="286.972656" y="38.737305"/>
<use xlink:href="#glyph-1-21" x="290.972656" y="38.737305"/>
<use xlink:href="#glyph-1-7" x="298.972656" y="38.737305"/>
<use xlink:href="#glyph-1-22" x="303.972656" y="38.737305"/>
<use xlink:href="#glyph-1-8" x="310.972656" y="38.737305"/>
<use xlink:href="#glyph-1-23" x="318.972656" y="38.737305"/>
</g>
<g fill="rgb(10.196078%, 10.196078%, 18.039216%)" fill-opacity="1">
<use xlink:href="#glyph-2-1" x="6.972656" y="19.833008"/>
<use xlink:href="#glyph-2-2" x="19.972656" y="19.833008"/>
<use xlink:href="#glyph-2-3" x="30.972656" y="19.833008"/>
<use xlink:href="#glyph-2-4" x="40.972656" y="19.833008"/>
<use xlink:href="#glyph-2-5" x="46.972656" y="19.833008"/>
<use xlink:href="#glyph-2-6" x="57.972656" y="19.833008"/>
<use xlink:href="#glyph-2-7" x="67.972656" y="19.833008"/>
<use xlink:href="#glyph-2-3" x="72.972656" y="19.833008"/>
<use xlink:href="#glyph-2-8" x="82.972656" y="19.833008"/>
<use xlink:href="#glyph-2-9" x="93.972656" y="19.833008"/>
<use xlink:href="#glyph-2-10" x="99.972656" y="19.833008"/>
<use xlink:href="#glyph-2-11" x="104.972656" y="19.833008"/>
<use xlink:href="#glyph-2-12" x="116.972656" y="19.833008"/>
<use xlink:href="#glyph-2-2" x="121.972656" y="19.833008"/>
<use xlink:href="#glyph-2-9" x="132.972656" y="19.833008"/>
<use xlink:href="#glyph-2-10" x="138.972656" y="19.833008"/>
<use xlink:href="#glyph-2-13" x="143.972656" y="19.833008"/>
<use xlink:href="#glyph-2-7" x="157.972656" y="19.833008"/>
<use xlink:href="#glyph-2-9" x="162.972656" y="19.833008"/>
<use xlink:href="#glyph-2-14" x="168.972656" y="19.833008"/>
<use xlink:href="#glyph-2-10" x="179.972656" y="19.833008"/>
<use xlink:href="#glyph-2-15" x="184.972656" y="19.833008"/>
<use xlink:href="#glyph-2-16" x="195.972656" y="19.833008"/>
<use xlink:href="#glyph-2-12" x="206.972656" y="19.833008"/>
<use xlink:href="#glyph-2-12" x="211.972656" y="19.833008"/>
<use xlink:href="#glyph-2-10" x="216.972656" y="19.833008"/>
<use xlink:href="#glyph-2-17" x="221.972656" y="19.833008"/>
<use xlink:href="#glyph-2-18" x="233.972656" y="19.833008"/>
<use xlink:href="#glyph-2-19" x="243.972656" y="19.833008"/>
<use xlink:href="#glyph-2-20" x="259.972656" y="19.833008"/>
<use xlink:href="#glyph-2-12" x="270.972656" y="19.833008"/>
<use xlink:href="#glyph-2-7" x="275.972656" y="19.833008"/>
<use xlink:href="#glyph-2-8" x="280.972656" y="19.833008"/>
<use xlink:href="#glyph-2-21" x="291.972656" y="19.833008"/>
<use xlink:href="#glyph-2-10" x="302.972656" y="19.833008"/>
<use xlink:href="#glyph-2-22" x="307.972656" y="19.833008"/>
<use xlink:href="#glyph-2-7" x="320.972656" y="19.833008"/>
<use xlink:href="#glyph-2-23" x="325.972656" y="19.833008"/>
<use xlink:href="#glyph-2-9" x="335.972656" y="19.833008"/>
<use xlink:href="#glyph-2-24" x="341.972656" y="19.833008"/>
<use xlink:href="#glyph-2-7" x="348.972656" y="19.833008"/>
<use xlink:href="#glyph-2-25" x="353.972656" y="19.833008"/>
<use xlink:href="#glyph-2-16" x="364.972656" y="19.833008"/>
<use xlink:href="#glyph-2-9" x="375.972656" y="19.833008"/>
<use xlink:href="#glyph-2-7" x="381.972656" y="19.833008"/>
<use xlink:href="#glyph-2-2" x="386.972656" y="19.833008"/>
<use xlink:href="#glyph-2-8" x="397.972656" y="19.833008"/>
<use xlink:href="#glyph-2-23" x="408.972656" y="19.833008"/>
</g>
</svg>
