<?xml version="1.0" encoding="UTF-8"?>
<svg xmlns="http://www.w3.org/2000/svg" xmlns:xlink="http://www.w3.org/1999/xlink" width="864pt" height="432pt" viewBox="0 0 864 432">
<defs>
<g>
<g id="glyph-0-0">
<path d="M 1.0625 -10.234375 L 9.3125 -10.234375 L 9.3125 0 L 1.0625 0 Z M 8.03125 -1.28125 L 8.03125 -8.953125 L 2.34375 -8.953125 L 2.34375 -1.28125 Z M 8.03125 -1.28125 "/>
</g>
<g id="glyph-0-1">
<path d="M 5.609375 0.28125 C 4.148438 0.28125 3.03125 -0.113281 2.25 -0.90625 C 1.21875 -1.882812 0.703125 -3.289062 0.703125 -5.125 C 0.703125 -7 1.21875 -8.410156 2.25 -9.359375 C 3.03125 -10.148438 4.148438 -10.546875 5.609375 -10.546875 C 7.066406 -10.546875 8.1875 -10.148438 8.96875 -9.359375 C 10 -8.410156 10.515625 -7 10.515625 -5.125 C 10.515625 -3.289062 10 -1.882812 8.96875 -0.90625 C 8.1875 -0.113281 7.066406 0.28125 5.609375 0.28125 Z M 7.625 -2.46875 C 8.125 -3.09375 8.375 -3.976562 8.375 -5.125 C 8.375 -6.28125 8.125 -7.171875 7.625 -7.796875 C 7.125 -8.421875 6.453125 -8.734375 5.609375 -8.734375 C 4.765625 -8.734375 4.085938 -8.421875 3.578125 -7.796875 C 3.078125 -7.171875 2.828125 -6.28125 2.828125 -5.125 C 2.828125 -3.976562 3.078125 -3.09375 3.578125 -2.46875 C 4.085938 -1.84375 4.765625 -1.53125 5.609375 -1.53125 C 6.453125 -1.53125 7.125 -1.84375 7.625 -2.46875 Z M 7.625 -2.46875 "/>
</g>
<g id="glyph-0-2">
<path d="M 4.734375 -5.734375 C 3.929688 -5.734375 3.394531 -5.476562 3.125 -4.96875 C 2.96875 -4.675781 2.890625 -4.222656 2.890625 -3.609375 L 2.890625 0 L 0.90625 0 L 0.90625 -7.5625 L 2.796875 -7.5625 L 2.796875 -6.25 C 3.097656 -6.75 3.363281 -7.09375 3.59375 -7.28125 C 3.957031 -7.59375 4.4375 -7.75 5.03125 -7.75 C 5.070312 -7.75 5.101562 -7.742188 5.125 -7.734375 C 5.15625 -7.734375 5.210938 -7.734375 5.296875 -7.734375 L 5.296875 -5.703125 C 5.171875 -5.722656 5.054688 -5.734375 4.953125 -5.734375 C 4.859375 -5.734375 4.785156 -5.734375 4.734375 -5.734375 Z M 4.734375 -5.734375 "/>
</g>
<g id="glyph-0-3">
<path d="M 1.203125 -6.75 C 1.734375 -7.414062 2.632812 -7.75 3.90625 -7.75 C 4.726562 -7.75 5.460938 -7.582031 6.109375 -7.25 C 6.753906 -6.925781 7.078125 -6.304688 7.078125 -5.390625 L 7.078125 -1.921875 C 7.078125 -1.679688 7.082031 -1.390625 7.09375 -1.046875 C 7.101562 -0.785156 7.140625 -0.609375 7.203125 -0.515625 C 7.265625 -0.421875 7.363281 -0.347656 7.5 -0.296875 L 7.5 0 L 5.34375 0 C 5.28125 -0.15625 5.238281 -0.296875 5.21875 -0.421875 C 5.195312 -0.554688 5.179688 -0.710938 5.171875 -0.890625 C 4.890625 -0.585938 4.570312 -0.332031 4.21875 -0.125 C 3.789062 0.113281 3.3125 0.234375 2.78125 0.234375 C 2.09375 0.234375 1.523438 0.0390625 1.078125 -0.34375 C 0.628906 -0.738281 0.40625 -1.296875 0.40625 -2.015625 C 0.40625 -2.941406 0.765625 -3.613281 1.484375 -4.03125 C 1.878906 -4.257812 2.457031 -4.421875 3.21875 -4.515625 L 3.890625 -4.609375 C 4.253906 -4.648438 4.515625 -4.707031 4.671875 -4.78125 C 4.960938 -4.894531 5.109375 -5.082031 5.109375 -5.34375 C 5.109375 -5.644531 5 -5.851562 4.78125 -5.96875 C 4.5625 -6.09375 4.242188 -6.15625 3.828125 -6.15625 C 3.359375 -6.15625 3.03125 -6.039062 2.84375 -5.8125 C 2.695312 -5.632812 2.601562 -5.398438 2.5625 -5.109375 L 0.65625 -5.109375 C 0.695312 -5.773438 0.878906 -6.320312 1.203125 -6.75 Z M 2.6875 -1.4375 C 2.863281 -1.28125 3.085938 -1.203125 3.359375 -1.203125 C 3.785156 -1.203125 4.175781 -1.328125 4.53125 -1.578125 C 4.894531 -1.828125 5.082031 -2.28125 5.09375 -2.9375 L 5.09375 -3.671875 C 4.96875 -3.597656 4.84375 -3.535156 4.71875 -3.484375 C 4.59375 -3.441406 4.414062 -3.398438 4.1875 -3.359375 L 3.75 -3.265625 C 3.332031 -3.191406 3.035156 -3.101562 2.859375 -3 C 2.546875 -2.820312 2.390625 -2.539062 2.390625 -2.15625 C 2.390625 -1.820312 2.488281 -1.582031 2.6875 -1.4375 Z M 2.6875 -1.4375 "/>
</g>
<g id="glyph-0-4">
<path d="M 4.484375 -6.109375 C 3.816406 -6.109375 3.359375 -5.820312 3.109375 -5.25 C 2.972656 -4.945312 2.90625 -4.5625 2.90625 -4.09375 L 2.90625 0 L 0.9375 0 L 0.9375 -7.546875 L 2.84375 -7.546875 L 2.84375 -6.453125 C 3.101562 -6.835938 3.34375 -7.117188 3.5625 -7.296875 C 3.96875 -7.597656 4.484375 -7.75 5.109375 -7.75 C 5.898438 -7.75 6.539062 -7.539062 7.03125 -7.125 C 7.53125 -6.71875 7.78125 -6.039062 7.78125 -5.09375 L 7.78125 0 L 5.75 0 L 5.75 -4.609375 C 5.75 -5.003906 5.695312 -5.304688 5.59375 -5.515625 C 5.394531 -5.910156 5.023438 -6.109375 4.484375 -6.109375 Z M 4.484375 -6.109375 "/>
</g>
<g id="glyph-0-5">
<path d="M 3.0625 1.328125 C 3.269531 1.503906 3.628906 1.59375 4.140625 1.59375 C 4.847656 1.59375 5.320312 1.351562 5.5625 0.875 C 5.71875 0.570312 5.796875 0.0585938 5.796875 -0.65625 L 5.796875 -1.140625 C 5.609375 -0.816406 5.40625 -0.578125 5.1875 -0.421875 C 4.800781 -0.117188 4.289062 0.03125 3.65625 0.03125 C 2.6875 0.03125 1.910156 -0.304688 1.328125 -0.984375 C 0.742188 -1.671875 0.453125 -2.597656 0.453125 -3.765625 C 0.453125 -4.890625 0.734375 -5.832031 1.296875 -6.59375 C 1.859375 -7.363281 2.648438 -7.75 3.671875 -7.75 C 4.054688 -7.75 4.390625 -7.691406 4.671875 -7.578125 C 5.148438 -7.378906 5.539062 -7.015625 5.84375 -6.484375 L 5.84375 -7.5625 L 7.765625 -7.5625 L 7.765625 -0.390625 C 7.765625 0.585938 7.597656 1.320312 7.265625 1.8125 C 6.703125 2.664062 5.617188 3.09375 4.015625 3.09375 C 3.046875 3.09375 2.253906 2.898438 1.640625 2.515625 C 1.035156 2.140625 0.703125 1.578125 0.640625 0.828125 L 2.796875 0.828125 C 2.847656 1.054688 2.9375 1.222656 3.0625 1.328125 Z M 2.734375 -2.578125 C 2.992188 -1.941406 3.472656 -1.625 4.171875 -1.625 C 4.628906 -1.625 5.019531 -1.796875 5.34375 -2.140625 C 5.664062 -2.492188 5.828125 -3.050781 5.828125 -3.8125 C 5.828125 -4.53125 5.675781 -5.078125 5.375 -5.453125 C 5.070312 -5.828125 4.664062 -6.015625 4.15625 -6.015625 C 3.457031 -6.015625 2.976562 -5.691406 2.71875 -5.046875 C 2.570312 -4.691406 2.5 -4.257812 2.5 -3.75 C 2.5 -3.3125 2.578125 -2.921875 2.734375 -2.578125 Z M 2.734375 -2.578125 "/>
</g>
<g id="glyph-0-6">
<path d="M 7.40625 -2.21875 C 7.351562 -1.769531 7.117188 -1.316406 6.703125 -0.859375 C 6.054688 -0.117188 5.148438 0.25 3.984375 0.25 C 3.015625 0.25 2.160156 -0.0546875 1.421875 -0.671875 C 0.691406 -1.296875 0.328125 -2.304688 0.328125 -3.703125 C 0.328125 -5.015625 0.65625 -6.019531 1.3125 -6.71875 C 1.976562 -7.414062 2.84375 -7.765625 3.90625 -7.765625 C 4.539062 -7.765625 5.109375 -7.644531 5.609375 -7.40625 C 6.109375 -7.175781 6.523438 -6.804688 6.859375 -6.296875 C 7.148438 -5.847656 7.34375 -5.328125 7.4375 -4.734375 C 7.488281 -4.390625 7.507812 -3.890625 7.5 -3.234375 L 2.3125 -3.234375 C 2.34375 -2.472656 2.582031 -1.941406 3.03125 -1.640625 C 3.300781 -1.453125 3.628906 -1.359375 4.015625 -1.359375 C 4.421875 -1.359375 4.753906 -1.472656 5.015625 -1.703125 C 5.148438 -1.828125 5.269531 -2 5.375 -2.21875 Z M 5.4375 -4.546875 C 5.40625 -5.066406 5.25 -5.460938 4.96875 -5.734375 C 4.6875 -6.003906 4.332031 -6.140625 3.90625 -6.140625 C 3.445312 -6.140625 3.09375 -5.992188 2.84375 -5.703125 C 2.59375 -5.421875 2.4375 -5.035156 2.375 -4.546875 Z M 5.4375 -4.546875 "/>
</g>
<g id="glyph-0-7">
</g>
<g id="glyph-0-8">
<path d="M 2.265625 -5.96875 L 0.859375 -5.96875 L 1.171875 -7.140625 L 2.578125 -7.140625 L 3.34375 -9.9375 L 4.71875 -9.9375 L 3.96875 -7.140625 L 5.109375 -7.140625 L 5.859375 -9.9375 L 7.234375 -9.9375 L 6.5 -7.140625 L 7.890625 -7.140625 L 7.578125 -5.96875 L 6.1875 -5.96875 L 5.625 -3.9375 L 7.046875 -3.9375 L 6.734375 -2.78125 L 5.3125 -2.78125 L 4.5625 0 L 3.1875 0 L 3.921875 -2.78125 L 2.796875 -2.78125 L 2.03125 0 L 0.65625 0 L 1.40625 -2.78125 L 0 -2.78125 L 0.3125 -3.9375 L 1.71875 -3.9375 Z M 4.234375 -3.9375 L 4.796875 -5.96875 L 3.65625 -5.96875 L 3.109375 -3.9375 Z M 4.234375 -3.9375 "/>
</g>
<g id="glyph-0-9">
<path d="M 8.203125 -4.46875 L 3.234375 -4.46875 L 3.234375 -1.84375 L 8.90625 -1.84375 L 8.90625 0 L 1.140625 0 L 1.140625 -10.234375 L 8.65625 -10.234375 L 8.65625 -8.421875 L 3.234375 -8.421875 L 3.234375 -6.25 L 8.203125 -6.25 Z M 8.203125 -4.46875 "/>
</g>
<g id="glyph-0-10">
<path d="M 4.34375 -6.53125 C 5.238281 -6.53125 5.972656 -6.226562 6.546875 -5.625 C 7.117188 -5.019531 7.40625 -4.242188 7.40625 -3.296875 C 7.40625 -2.359375 7.125 -1.53125 6.5625 -0.8125 C 6 -0.09375 5.128906 0.265625 3.953125 0.265625 C 2.679688 0.265625 1.742188 -0.265625 1.140625 -1.328125 C 0.671875 -2.148438 0.4375 -3.21875 0.4375 -4.53125 C 0.4375 -5.300781 0.472656 -5.925781 0.546875 -6.40625 C 0.660156 -7.257812 0.882812 -7.972656 1.21875 -8.546875 C 1.5 -9.035156 1.875 -9.425781 2.34375 -9.71875 C 2.8125 -10.019531 3.367188 -10.171875 4.015625 -10.171875 C 4.953125 -10.171875 5.695312 -9.929688 6.25 -9.453125 C 6.800781 -8.972656 7.113281 -8.332031 7.1875 -7.53125 L 5.21875 -7.53125 C 5.21875 -7.695312 5.15625 -7.875 5.03125 -8.0625 C 4.8125 -8.382812 4.488281 -8.546875 4.0625 -8.546875 C 3.414062 -8.546875 2.957031 -8.179688 2.6875 -7.453125 C 2.539062 -7.054688 2.4375 -6.46875 2.375 -5.6875 C 2.625 -5.976562 2.910156 -6.191406 3.234375 -6.328125 C 3.554688 -6.460938 3.925781 -6.53125 4.34375 -6.53125 Z M 3.015625 -4.640625 C 2.628906 -4.335938 2.4375 -3.851562 2.4375 -3.1875 C 2.4375 -2.644531 2.582031 -2.203125 2.875 -1.859375 C 3.164062 -1.515625 3.535156 -1.34375 3.984375 -1.34375 C 4.421875 -1.34375 4.765625 -1.507812 5.015625 -1.84375 C 5.265625 -2.175781 5.390625 -2.601562 5.390625 -3.125 C 5.390625 -3.71875 5.242188 -4.171875 4.953125 -4.484375 C 4.671875 -4.796875 4.320312 -4.953125 3.90625 -4.953125 C 3.570312 -4.953125 3.273438 -4.847656 3.015625 -4.640625 Z M 3.015625 -4.640625 "/>
</g>
<g id="glyph-0-11">
<path d="M 3.6875 0.296875 C 2.9375 0.296875 2.257812 0.0703125 1.65625 -0.375 C 1.050781 -0.820312 0.707031 -1.472656 0.625 -2.328125 L 2.59375 -2.328125 C 2.644531 -2.035156 2.769531 -1.796875 2.96875 -1.609375 C 3.175781 -1.421875 3.445312 -1.328125 3.78125 -1.328125 C 4.4375 -1.328125 4.894531 -1.691406 5.15625 -2.421875 C 5.300781 -2.816406 5.390625 -3.394531 5.421875 -4.15625 C 5.242188 -3.925781 5.054688 -3.753906 4.859375 -3.640625 C 4.484375 -3.421875 4.023438 -3.3125 3.484375 -3.3125 C 2.679688 -3.3125 1.96875 -3.585938 1.34375 -4.140625 C 0.726562 -4.691406 0.421875 -5.488281 0.421875 -6.53125 C 0.421875 -7.601562 0.734375 -8.472656 1.359375 -9.140625 C 1.984375 -9.816406 2.789062 -10.15625 3.78125 -10.15625 C 5.3125 -10.15625 6.363281 -9.472656 6.9375 -8.109375 C 7.257812 -7.347656 7.421875 -6.335938 7.421875 -5.078125 C 7.421875 -3.859375 7.265625 -2.84375 6.953125 -2.03125 C 6.359375 -0.476562 5.269531 0.296875 3.6875 0.296875 Z M 3 -8.21875 C 2.625 -7.914062 2.4375 -7.410156 2.4375 -6.703125 C 2.4375 -6.109375 2.554688 -5.660156 2.796875 -5.359375 C 3.035156 -5.066406 3.410156 -4.921875 3.921875 -4.921875 C 4.191406 -4.921875 4.445312 -5 4.6875 -5.15625 C 5.132812 -5.4375 5.359375 -5.929688 5.359375 -6.640625 C 5.359375 -7.210938 5.222656 -7.664062 4.953125 -8 C 4.691406 -8.332031 4.328125 -8.5 3.859375 -8.5 C 3.523438 -8.5 3.238281 -8.40625 3 -8.21875 Z M 3 -8.21875 "/>
</g>
<g id="glyph-0-12">
<path d="M 8.34375 -8.421875 L 3.203125 -8.421875 L 3.203125 -6.0625 L 7.703125 -6.0625 L 7.703125 -4.296875 L 3.203125 -4.296875 L 3.203125 0 L 1.078125 0 L 1.078125 -10.21875 L 8.34375 -10.21875 Z M 8.34375 -8.421875 "/>
</g>
<g id="glyph-0-13">
<path d="M 3.921875 0.25 C 2.640625 0.25 1.738281 -0.195312 1.21875 -1.09375 C 0.695312 -1.988281 0.4375 -3.269531 0.4375 -4.9375 C 0.4375 -6.59375 0.695312 -7.875 1.21875 -8.78125 C 1.738281 -9.6875 2.640625 -10.140625 3.921875 -10.140625 C 5.203125 -10.140625 6.097656 -9.6875 6.609375 -8.78125 C 7.128906 -7.875 7.390625 -6.59375 7.390625 -4.9375 C 7.390625 -3.269531 7.128906 -1.988281 6.609375 -1.09375 C 6.097656 -0.195312 5.203125 0.25 3.921875 0.25 Z M 5.078125 -2.28125 C 5.253906 -2.894531 5.34375 -3.78125 5.34375 -4.9375 C 5.34375 -6.144531 5.25 -7.039062 5.0625 -7.625 C 4.882812 -8.207031 4.503906 -8.5 3.921875 -8.5 C 3.328125 -8.5 2.9375 -8.207031 2.75 -7.625 C 2.5625 -7.039062 2.46875 -6.144531 2.46875 -4.9375 C 2.46875 -3.78125 2.5625 -2.894531 2.75 -2.28125 C 2.9375 -1.664062 3.328125 -1.359375 3.921875 -1.359375 C 4.503906 -1.359375 4.890625 -1.664062 5.078125 -2.28125 Z M 5.078125 -2.28125 "/>
</g>
<g id="glyph-0-14">
<path d="M 4.796875 -1.484375 C 5.296875 -1.484375 5.707031 -1.535156 6.03125 -1.640625 C 6.625 -1.859375 6.921875 -2.253906 6.921875 -2.828125 C 6.921875 -3.171875 6.773438 -3.429688 6.484375 -3.609375 C 6.179688 -3.796875 5.710938 -3.957031 5.078125 -4.09375 L 4 -4.34375 C 2.9375 -4.582031 2.203125 -4.84375 1.796875 -5.125 C 1.097656 -5.59375 0.75 -6.332031 0.75 -7.34375 C 0.75 -8.257812 1.082031 -9.019531 1.75 -9.625 C 2.414062 -10.226562 3.394531 -10.53125 4.6875 -10.53125 C 5.769531 -10.53125 6.691406 -10.242188 7.453125 -9.671875 C 8.210938 -9.097656 8.613281 -8.269531 8.65625 -7.1875 L 6.59375 -7.1875 C 6.5625 -7.800781 6.296875 -8.238281 5.796875 -8.5 C 5.460938 -8.664062 5.046875 -8.75 4.546875 -8.75 C 3.992188 -8.75 3.550781 -8.640625 3.21875 -8.421875 C 2.894531 -8.203125 2.734375 -7.890625 2.734375 -7.484375 C 2.734375 -7.117188 2.894531 -6.847656 3.21875 -6.671875 C 3.425781 -6.546875 3.867188 -6.40625 4.546875 -6.25 L 6.3125 -5.828125 C 7.09375 -5.640625 7.675781 -5.390625 8.0625 -5.078125 C 8.675781 -4.597656 8.984375 -3.90625 8.984375 -3 C 8.984375 -2.0625 8.625 -1.28125 7.90625 -0.65625 C 7.195312 -0.0390625 6.1875 0.265625 4.875 0.265625 C 3.539062 0.265625 2.492188 -0.0351562 1.734375 -0.640625 C 0.972656 -1.253906 0.59375 -2.09375 0.59375 -3.15625 L 2.625 -3.15625 C 2.695312 -2.6875 2.828125 -2.335938 3.015625 -2.109375 C 3.359375 -1.691406 3.953125 -1.484375 4.796875 -1.484375 Z M 4.796875 -1.484375 "/>
</g>
<g id="glyph-0-15">
<path d="M 7.859375 0 L 5.484375 0 L 3.671875 -3.234375 L 2.84375 -2.375 L 2.84375 0 L 0.90625 0 L 0.90625 -10.203125 L 2.84375 -10.203125 L 2.84375 -4.6875 L 5.3125 -7.53125 L 7.765625 -7.53125 L 5.109375 -4.640625 Z M 7.859375 0 "/>
</g>
<g id="glyph-0-16">
<path d="M 4 -1.984375 L 5.5625 -7.5625 L 7.671875 -7.5625 L 5.0625 -0.125 C 4.5625 1.3125 4.164062 2.203125 3.875 2.546875 C 3.582031 2.890625 3 3.0625 2.125 3.0625 C 1.957031 3.0625 1.816406 3.0625 1.703125 3.0625 C 1.597656 3.0625 1.441406 3.050781 1.234375 3.03125 L 1.234375 1.453125 L 1.484375 1.46875 C 1.671875 1.476562 1.851562 1.46875 2.03125 1.4375 C 2.207031 1.414062 2.359375 1.363281 2.484375 1.28125 C 2.597656 1.207031 2.703125 1.046875 2.796875 0.796875 C 2.898438 0.546875 2.941406 0.390625 2.921875 0.328125 L 0.140625 -7.5625 L 2.34375 -7.5625 Z M 4 -1.984375 "/>
</g>
<g id="glyph-0-17">
<path d="M 5.75 0 L 1.125 0 L 1.125 -10.234375 L 6.09375 -10.234375 C 7.34375 -10.210938 8.226562 -9.847656 8.75 -9.140625 C 9.070312 -8.703125 9.234375 -8.179688 9.234375 -7.578125 C 9.234375 -6.953125 9.070312 -6.453125 8.75 -6.078125 C 8.570312 -5.859375 8.316406 -5.660156 7.984375 -5.484375 C 8.503906 -5.296875 8.894531 -4.992188 9.15625 -4.578125 C 9.425781 -4.171875 9.5625 -3.675781 9.5625 -3.09375 C 9.5625 -2.488281 9.410156 -1.941406 9.109375 -1.453125 C 8.910156 -1.140625 8.664062 -0.875 8.375 -0.65625 C 8.039062 -0.40625 7.648438 -0.234375 7.203125 -0.140625 C 6.765625 -0.046875 6.28125 0 5.75 0 Z M 5.703125 -4.5 L 3.15625 -4.5 L 3.15625 -1.78125 L 5.671875 -1.78125 C 6.117188 -1.78125 6.46875 -1.835938 6.71875 -1.953125 C 7.175781 -2.179688 7.40625 -2.609375 7.40625 -3.234375 C 7.40625 -3.765625 7.179688 -4.128906 6.734375 -4.328125 C 6.492188 -4.441406 6.148438 -4.5 5.703125 -4.5 Z M 6.765625 -6.453125 C 7.046875 -6.617188 7.1875 -6.921875 7.1875 -7.359375 C 7.1875 -7.828125 7 -8.140625 6.625 -8.296875 C 6.3125 -8.398438 5.90625 -8.453125 5.40625 -8.453125 L 3.15625 -8.453125 L 3.15625 -6.203125 L 5.671875 -6.203125 C 6.117188 -6.203125 6.484375 -6.285156 6.765625 -6.453125 Z M 6.765625 -6.453125 "/>
</g>
<g id="glyph-0-18">
<path d="M 0.96875 -10.234375 L 2.9375 -10.234375 L 2.9375 0 L 0.96875 0 Z M 0.96875 -10.234375 "/>
</g>
<g id="glyph-0-19">
<path d="M 5.78125 -1.0625 C 5.757812 -1.039062 5.710938 -0.972656 5.640625 -0.859375 C 5.566406 -0.742188 5.476562 -0.644531 5.375 -0.5625 C 5.0625 -0.28125 4.757812 -0.0859375 4.46875 0.015625 C 4.1875 0.117188 3.847656 0.171875 3.453125 0.171875 C 2.335938 0.171875 1.582031 -0.234375 1.1875 -1.046875 C 0.976562 -1.484375 0.875 -2.132812 0.875 -3 L 0.875 -7.5625 L 2.890625 -7.5625 L 2.890625 -3 C 2.890625 -2.570312 2.941406 -2.25 3.046875 -2.03125 C 3.222656 -1.644531 3.578125 -1.453125 4.109375 -1.453125 C 4.785156 -1.453125 5.25 -1.726562 5.5 -2.28125 C 5.625 -2.570312 5.6875 -2.960938 5.6875 -3.453125 L 5.6875 -7.5625 L 7.703125 -7.5625 L 7.703125 0 L 5.78125 0 Z M 5.78125 -1.0625 "/>
</g>
<g id="glyph-0-20">
<path d="M 3.796875 -5 C 3.554688 -5 3.347656 -4.96875 3.171875 -4.90625 C 2.859375 -4.789062 2.625 -4.585938 2.46875 -4.296875 L 0.6875 -4.375 L 1.390625 -9.9375 L 6.9375 -9.9375 L 6.9375 -8.25 L 2.828125 -8.25 L 2.46875 -6.046875 C 2.769531 -6.253906 3.007812 -6.390625 3.1875 -6.453125 C 3.46875 -6.554688 3.816406 -6.609375 4.234375 -6.609375 C 5.066406 -6.609375 5.789062 -6.328125 6.40625 -5.765625 C 7.03125 -5.203125 7.34375 -4.390625 7.34375 -3.328125 C 7.34375 -2.398438 7.039062 -1.566406 6.4375 -0.828125 C 5.84375 -0.0976562 4.953125 0.265625 3.765625 0.265625 C 2.804688 0.265625 2.019531 0.0078125 1.40625 -0.5 C 0.789062 -1.019531 0.445312 -1.75 0.375 -2.6875 L 2.34375 -2.6875 C 2.425781 -2.257812 2.578125 -1.925781 2.796875 -1.6875 C 3.015625 -1.457031 3.335938 -1.34375 3.765625 -1.34375 C 4.253906 -1.34375 4.628906 -1.515625 4.890625 -1.859375 C 5.148438 -2.203125 5.28125 -2.640625 5.28125 -3.171875 C 5.28125 -3.679688 5.15625 -4.113281 4.90625 -4.46875 C 4.664062 -4.820312 4.296875 -5 3.796875 -5 Z M 3.796875 -5 "/>
</g>
<g id="glyph-0-21">
<path d="M 7.4375 -3.71875 L 7.4375 -2.171875 L 6.296875 -2.171875 L 6.296875 0 L 4.359375 0 L 4.359375 -2.171875 L 0.375 -2.171875 L 0.375 -3.890625 L 4.078125 -10 L 6.296875 -10 L 6.296875 -3.71875 Z M 1.84375 -3.71875 L 4.359375 -3.71875 L 4.359375 -8.0625 Z M 1.84375 -3.71875 "/>
</g>
<g id="glyph-0-22">
<path d="M 7.359375 -0.25 C 6.796875 0.0898438 6.101562 0.265625 5.28125 0.265625 C 3.925781 0.265625 2.8125 -0.203125 1.9375 -1.140625 C 1.039062 -2.085938 0.59375 -3.378906 0.59375 -5.015625 C 0.59375 -6.671875 1.046875 -8 1.953125 -9 C 2.867188 -10 4.078125 -10.5 5.578125 -10.5 C 6.878906 -10.5 7.921875 -10.164062 8.703125 -9.5 C 9.492188 -8.84375 9.945312 -8.023438 10.0625 -7.046875 L 7.96875 -7.046875 C 7.800781 -7.742188 7.40625 -8.226562 6.78125 -8.5 C 6.425781 -8.65625 6.035156 -8.734375 5.609375 -8.734375 C 4.773438 -8.734375 4.09375 -8.421875 3.5625 -7.796875 C 3.039062 -7.171875 2.78125 -6.234375 2.78125 -4.984375 C 2.78125 -3.734375 3.066406 -2.84375 3.640625 -2.3125 C 4.210938 -1.789062 4.863281 -1.53125 5.59375 -1.53125 C 6.3125 -1.53125 6.898438 -1.738281 7.359375 -2.15625 C 7.816406 -2.570312 8.097656 -3.113281 8.203125 -3.78125 L 5.84375 -3.78125 L 5.84375 -5.484375 L 10.109375 -5.484375 L 10.109375 0 L 8.6875 0 L 8.46875 -1.28125 C 8.0625 -0.789062 7.691406 -0.445312 7.359375 -0.25 Z M 7.359375 -0.25 "/>
</g>
<g id="glyph-0-23">
<path d="M 6.265625 -6.828125 C 5.734375 -6.078125 5.289062 -5.304688 4.9375 -4.515625 C 4.65625 -3.890625 4.398438 -3.125 4.171875 -2.21875 C 3.941406 -1.320312 3.828125 -0.582031 3.828125 0 L 1.78125 0 C 1.84375 -1.800781 2.4375 -3.675781 3.5625 -5.625 C 4.28125 -6.832031 4.882812 -7.675781 5.375 -8.15625 L 0.359375 -8.15625 L 0.390625 -9.9375 L 7.5 -9.9375 L 7.5 -8.390625 C 7.195312 -8.097656 6.785156 -7.578125 6.265625 -6.828125 Z M 6.265625 -6.828125 "/>
</g>
<g id="glyph-0-24">
<path d="M 2.71875 -8.0625 C 2.5 -7.757812 2.394531 -7.363281 2.40625 -6.875 L 0.5625 -6.875 C 0.570312 -7.375 0.65625 -7.847656 0.8125 -8.296875 C 0.976562 -8.691406 1.234375 -9.054688 1.578125 -9.390625 C 1.835938 -9.617188 2.144531 -9.796875 2.5 -9.921875 C 2.851562 -10.046875 3.289062 -10.109375 3.8125 -10.109375 C 4.769531 -10.109375 5.546875 -9.859375 6.140625 -9.359375 C 6.734375 -8.867188 7.03125 -8.203125 7.03125 -7.359375 C 7.03125 -6.773438 6.851562 -6.273438 6.5 -5.859375 C 6.28125 -5.609375 6.046875 -5.4375 5.796875 -5.34375 C 5.984375 -5.34375 6.242188 -5.1875 6.578125 -4.875 C 7.085938 -4.40625 7.34375 -3.769531 7.34375 -2.96875 C 7.34375 -2.113281 7.046875 -1.363281 6.453125 -0.71875 C 5.859375 -0.0703125 4.984375 0.25 3.828125 0.25 C 2.398438 0.25 1.410156 -0.210938 0.859375 -1.140625 C 0.566406 -1.640625 0.40625 -2.289062 0.375 -3.09375 L 2.3125 -3.09375 C 2.3125 -2.6875 2.378906 -2.351562 2.515625 -2.09375 C 2.753906 -1.601562 3.191406 -1.359375 3.828125 -1.359375 C 4.210938 -1.359375 4.550781 -1.488281 4.84375 -1.75 C 5.132812 -2.019531 5.28125 -2.40625 5.28125 -2.90625 C 5.28125 -3.570312 5.007812 -4.015625 4.46875 -4.234375 C 4.164062 -4.359375 3.6875 -4.421875 3.03125 -4.421875 L 3.03125 -5.84375 C 3.664062 -5.851562 4.113281 -5.914062 4.375 -6.03125 C 4.8125 -6.21875 5.03125 -6.609375 5.03125 -7.203125 C 5.03125 -7.585938 4.914062 -7.898438 4.6875 -8.140625 C 4.46875 -8.378906 4.15625 -8.5 3.75 -8.5 C 3.28125 -8.5 2.9375 -8.351562 2.71875 -8.0625 Z M 2.71875 -8.0625 "/>
</g>
<g id="glyph-0-25">
<path d="M 9.34375 -10.234375 L 5.921875 -3.84375 L 5.921875 0 L 3.78125 0 L 3.78125 -3.84375 L 0.25 -10.234375 L 2.765625 -10.234375 L 4.890625 -5.78125 L 6.921875 -10.234375 Z M 9.34375 -10.234375 "/>
</g>
<g id="glyph-0-26">
<path d="M 7.234375 -6.609375 C 7.867188 -5.804688 8.1875 -4.859375 8.1875 -3.765625 C 8.1875 -2.660156 7.867188 -1.710938 7.234375 -0.921875 C 6.597656 -0.128906 5.628906 0.265625 4.328125 0.265625 C 3.023438 0.265625 2.050781 -0.128906 1.40625 -0.921875 C 0.769531 -1.710938 0.453125 -2.660156 0.453125 -3.765625 C 0.453125 -4.859375 0.769531 -5.804688 1.40625 -6.609375 C 2.050781 -7.410156 3.023438 -7.8125 4.328125 -7.8125 C 5.628906 -7.8125 6.597656 -7.410156 7.234375 -6.609375 Z M 4.3125 -6.140625 C 3.738281 -6.140625 3.296875 -5.929688 2.984375 -5.515625 C 2.671875 -5.109375 2.515625 -4.523438 2.515625 -3.765625 C 2.515625 -3.003906 2.671875 -2.414062 2.984375 -2 C 3.296875 -1.59375 3.738281 -1.390625 4.3125 -1.390625 C 4.894531 -1.390625 5.335938 -1.59375 5.640625 -2 C 5.953125 -2.414062 6.109375 -3.003906 6.109375 -3.765625 C 6.109375 -4.523438 5.953125 -5.109375 5.640625 -5.515625 C 5.335938 -5.929688 4.894531 -6.140625 4.3125 -6.140625 Z M 4.3125 -6.140625 "/>
</g>
<g id="glyph-0-27">
<path d="M 6.671875 0 L 5.484375 -5.515625 L 4.28125 0 L 2.21875 0 L 0.09375 -7.5625 L 2.21875 -7.5625 L 3.40625 -2.140625 L 4.484375 -7.5625 L 6.5 -7.5625 L 7.65625 -2.125 L 8.828125 -7.5625 L 10.890625 -7.5625 L 8.703125 0 Z M 6.671875 0 "/>
</g>
<g id="glyph-0-28">
<path d="M 4.9375 -8.015625 C 4.707031 -8.296875 4.367188 -8.4375 3.921875 -8.4375 C 3.328125 -8.4375 2.921875 -8.210938 2.703125 -7.765625 C 2.578125 -7.503906 2.503906 -7.09375 2.484375 -6.53125 L 0.5625 -6.53125 C 0.59375 -7.382812 0.742188 -8.078125 1.015625 -8.609375 C 1.546875 -9.609375 2.484375 -10.109375 3.828125 -10.109375 C 4.890625 -10.109375 5.734375 -9.8125 6.359375 -9.21875 C 6.992188 -8.632812 7.3125 -7.859375 7.3125 -6.890625 C 7.3125 -6.140625 7.09375 -5.476562 6.65625 -4.90625 C 6.363281 -4.519531 5.882812 -4.085938 5.21875 -3.609375 L 4.421875 -3.0625 C 3.921875 -2.707031 3.578125 -2.453125 3.390625 -2.296875 C 3.210938 -2.140625 3.0625 -1.957031 2.9375 -1.75 L 7.34375 -1.75 L 7.34375 0 L 0.4375 0 C 0.457031 -0.71875 0.613281 -1.378906 0.90625 -1.984375 C 1.1875 -2.648438 1.851562 -3.359375 2.90625 -4.109375 C 3.820312 -4.765625 4.410156 -5.234375 4.671875 -5.515625 C 5.085938 -5.953125 5.296875 -6.429688 5.296875 -6.953125 C 5.296875 -7.378906 5.175781 -7.734375 4.9375 -8.015625 Z M 4.9375 -8.015625 "/>
</g>
<g id="glyph-0-29">
<path d="M 0.328125 -10.234375 L 2.609375 -10.234375 L 4.828125 -2.46875 L 7.078125 -10.234375 L 9.296875 -10.234375 L 5.796875 0 L 3.78125 0 Z M 0.328125 -10.234375 "/>
</g>
<g id="glyph-0-30">
<path d="M 5.171875 -5.484375 C 5.003906 -5.847656 4.675781 -6.03125 4.1875 -6.03125 C 3.625 -6.03125 3.25 -5.847656 3.0625 -5.484375 C 2.945312 -5.273438 2.890625 -4.960938 2.890625 -4.546875 L 2.890625 0 L 0.890625 0 L 0.890625 -7.546875 L 2.8125 -7.546875 L 2.8125 -6.453125 C 3.0625 -6.847656 3.289062 -7.128906 3.5 -7.296875 C 3.882812 -7.585938 4.382812 -7.734375 5 -7.734375 C 5.570312 -7.734375 6.039062 -7.609375 6.40625 -7.359375 C 6.6875 -7.117188 6.898438 -6.8125 7.046875 -6.4375 C 7.304688 -6.882812 7.628906 -7.210938 8.015625 -7.421875 C 8.421875 -7.628906 8.875 -7.734375 9.375 -7.734375 C 9.707031 -7.734375 10.035156 -7.664062 10.359375 -7.53125 C 10.679688 -7.40625 10.976562 -7.179688 11.25 -6.859375 C 11.457031 -6.597656 11.597656 -6.273438 11.671875 -5.890625 C 11.722656 -5.628906 11.75 -5.253906 11.75 -4.765625 L 11.734375 0 L 9.703125 0 L 9.703125 -4.8125 C 9.703125 -5.101562 9.65625 -5.34375 9.5625 -5.53125 C 9.382812 -5.875 9.0625 -6.046875 8.59375 -6.046875 C 8.050781 -6.046875 7.675781 -5.820312 7.46875 -5.375 C 7.351562 -5.132812 7.296875 -4.84375 7.296875 -4.5 L 7.296875 0 L 5.3125 0 L 5.3125 -4.5 C 5.3125 -4.945312 5.265625 -5.273438 5.171875 -5.484375 Z M 5.171875 -5.484375 "/>
</g>
<g id="glyph-0-31">
<path d="M 2.953125 -7.5625 L 2.953125 0 L 0.953125 0 L 0.953125 -7.5625 Z M 2.953125 -10.296875 L 2.953125 -8.46875 L 0.953125 -8.46875 L 0.953125 -10.296875 Z M 2.953125 -10.296875 "/>
</g>
<g id="glyph-0-32">
<path d="M 5.484375 0 L 1.078125 0 L 1.078125 -10.234375 L 5.484375 -10.234375 C 6.117188 -10.222656 6.648438 -10.148438 7.078125 -10.015625 C 7.796875 -9.773438 8.375 -9.34375 8.8125 -8.71875 C 9.175781 -8.207031 9.421875 -7.65625 9.546875 -7.0625 C 9.671875 -6.46875 9.734375 -5.898438 9.734375 -5.359375 C 9.734375 -4.003906 9.460938 -2.851562 8.921875 -1.90625 C 8.179688 -0.632812 7.035156 0 5.484375 0 Z M 7.078125 -7.625 C 6.753906 -8.175781 6.101562 -8.453125 5.125 -8.453125 L 3.15625 -8.453125 L 3.15625 -1.78125 L 5.125 -1.78125 C 6.132812 -1.78125 6.835938 -2.273438 7.234375 -3.265625 C 7.453125 -3.816406 7.5625 -4.46875 7.5625 -5.21875 C 7.5625 -6.257812 7.398438 -7.0625 7.078125 -7.625 Z M 7.078125 -7.625 "/>
</g>
<g id="glyph-0-33">
<path d="M 5.421875 -3.671875 L 3.25 -3.671875 L 3.25 0 L 1.125 0 L 1.125 -10.234375 L 5.59375 -10.234375 C 6.613281 -10.234375 7.429688 -9.96875 8.046875 -9.4375 C 8.660156 -8.914062 8.96875 -8.097656 8.96875 -6.984375 C 8.96875 -5.773438 8.660156 -4.921875 8.046875 -4.421875 C 7.429688 -3.921875 6.554688 -3.671875 5.421875 -3.671875 Z M 6.421875 -5.8125 C 6.703125 -6.050781 6.84375 -6.441406 6.84375 -6.984375 C 6.84375 -7.515625 6.703125 -7.890625 6.421875 -8.109375 C 6.140625 -8.335938 5.75 -8.453125 5.25 -8.453125 L 3.25 -8.453125 L 3.25 -5.4375 L 5.25 -5.4375 C 5.75 -5.4375 6.140625 -5.5625 6.421875 -5.8125 Z M 6.421875 -5.8125 "/>
</g>
<g id="glyph-0-34">
<path d="M 8.296875 -0.765625 C 7.535156 -0.0664062 6.5625 0.28125 5.375 0.28125 C 3.90625 0.28125 2.75 -0.1875 1.90625 -1.125 C 1.0625 -2.082031 0.640625 -3.382812 0.640625 -5.03125 C 0.640625 -6.820312 1.117188 -8.203125 2.078125 -9.171875 C 2.910156 -10.003906 3.96875 -10.421875 5.25 -10.421875 C 6.976562 -10.421875 8.238281 -9.859375 9.03125 -8.734375 C 9.46875 -8.097656 9.703125 -7.460938 9.734375 -6.828125 L 7.609375 -6.828125 C 7.460938 -7.316406 7.28125 -7.6875 7.0625 -7.9375 C 6.675781 -8.382812 6.101562 -8.609375 5.34375 -8.609375 C 4.5625 -8.609375 3.945312 -8.289062 3.5 -7.65625 C 3.050781 -7.03125 2.828125 -6.144531 2.828125 -5 C 2.828125 -3.851562 3.0625 -2.992188 3.53125 -2.421875 C 4.007812 -1.847656 4.613281 -1.5625 5.34375 -1.5625 C 6.09375 -1.5625 6.664062 -1.804688 7.0625 -2.296875 C 7.28125 -2.554688 7.460938 -2.953125 7.609375 -3.484375 L 9.71875 -3.484375 C 9.53125 -2.367188 9.054688 -1.460938 8.296875 -0.765625 Z M 8.296875 -0.765625 "/>
</g>
<g id="glyph-0-35">
<path d="M 7.078125 -2.109375 L 3.3125 -2.109375 L 2.59375 0 L 0.359375 0 L 4.015625 -10.234375 L 6.421875 -10.234375 L 10.046875 0 L 7.734375 0 Z M 6.484375 -3.859375 L 5.203125 -7.890625 L 3.875 -3.859375 Z M 6.484375 -3.859375 "/>
</g>
<g id="glyph-0-36">
<path d="M 7.46875 -4.859375 L 5.4375 -4.859375 C 5.40625 -5.140625 5.3125 -5.390625 5.15625 -5.609375 C 4.9375 -5.921875 4.59375 -6.078125 4.125 -6.078125 C 3.457031 -6.078125 3 -5.742188 2.75 -5.078125 C 2.625 -4.722656 2.5625 -4.253906 2.5625 -3.671875 C 2.5625 -3.117188 2.625 -2.675781 2.75 -2.34375 C 2.988281 -1.707031 3.4375 -1.390625 4.09375 -1.390625 C 4.550781 -1.390625 4.875 -1.515625 5.0625 -1.765625 C 5.257812 -2.015625 5.378906 -2.34375 5.421875 -2.75 L 7.453125 -2.75 C 7.398438 -2.144531 7.179688 -1.570312 6.796875 -1.03125 C 6.171875 -0.164062 5.253906 0.265625 4.046875 0.265625 C 2.828125 0.265625 1.929688 -0.09375 1.359375 -0.8125 C 0.785156 -1.539062 0.5 -2.476562 0.5 -3.625 C 0.5 -4.925781 0.8125 -5.9375 1.4375 -6.65625 C 2.070312 -7.382812 2.945312 -7.75 4.0625 -7.75 C 5.007812 -7.75 5.785156 -7.535156 6.390625 -7.109375 C 6.992188 -6.679688 7.351562 -5.929688 7.46875 -4.859375 Z M 7.46875 -4.859375 "/>
</g>
<g id="glyph-1-0">
<path d="M 0.453125 0 L 0.453125 -10.046875 L 8.421875 -10.046875 L 8.421875 0 Z M 7.171875 -1.265625 L 7.171875 -8.78125 L 1.703125 -8.78125 L 1.703125 -1.265625 Z M 7.171875 -1.265625 "/>
</g>
<g id="glyph-1-1">
<path d="M 4.921875 -1.15625 C 5.378906 -1.15625 5.757812 -1.207031 6.0625 -1.3125 C 6.582031 -1.488281 7.015625 -1.828125 7.359375 -2.328125 C 7.628906 -2.734375 7.820312 -3.253906 7.9375 -3.890625 C 8.007812 -4.265625 8.046875 -4.613281 8.046875 -4.9375 C 8.046875 -6.1875 7.796875 -7.15625 7.296875 -7.84375 C 6.804688 -8.53125 6.007812 -8.875 4.90625 -8.875 L 2.5 -8.875 L 2.5 -1.15625 Z M 1.125 -10.046875 L 5.203125 -10.046875 C 6.578125 -10.046875 7.644531 -9.554688 8.40625 -8.578125 C 9.082031 -7.691406 9.421875 -6.554688 9.421875 -5.171875 C 9.421875 -4.109375 9.222656 -3.144531 8.828125 -2.28125 C 8.117188 -0.757812 6.90625 0 5.1875 0 L 1.125 0 Z M 1.125 -10.046875 "/>
</g>
<g id="glyph-1-2">
<path d="M 3.953125 -7.484375 C 4.472656 -7.484375 4.972656 -7.359375 5.453125 -7.109375 C 5.941406 -6.867188 6.316406 -6.554688 6.578125 -6.171875 C 6.828125 -5.804688 6.988281 -5.375 7.0625 -4.875 C 7.132812 -4.539062 7.171875 -4.003906 7.171875 -3.265625 L 1.8125 -3.265625 C 1.832031 -2.523438 2.003906 -1.929688 2.328125 -1.484375 C 2.660156 -1.035156 3.171875 -0.8125 3.859375 -0.8125 C 4.503906 -0.8125 5.019531 -1.019531 5.40625 -1.4375 C 5.625 -1.6875 5.773438 -1.972656 5.859375 -2.296875 L 7.078125 -2.296875 C 7.046875 -2.023438 6.9375 -1.722656 6.75 -1.390625 C 6.570312 -1.066406 6.375 -0.800781 6.15625 -0.59375 C 5.78125 -0.226562 5.316406 0.0195312 4.765625 0.15625 C 4.472656 0.226562 4.140625 0.265625 3.765625 0.265625 C 2.847656 0.265625 2.070312 -0.0664062 1.4375 -0.734375 C 0.8125 -1.398438 0.5 -2.328125 0.5 -3.515625 C 0.5 -4.691406 0.816406 -5.644531 1.453125 -6.375 C 2.085938 -7.113281 2.921875 -7.484375 3.953125 -7.484375 Z M 5.90625 -4.25 C 5.863281 -4.78125 5.75 -5.207031 5.5625 -5.53125 C 5.226562 -6.113281 4.664062 -6.40625 3.875 -6.40625 C 3.3125 -6.40625 2.835938 -6.203125 2.453125 -5.796875 C 2.066406 -5.390625 1.863281 -4.875 1.84375 -4.25 Z M 3.828125 -7.5 Z M 3.828125 -7.5 "/>
</g>
<g id="glyph-1-3">
<path d="M 1.640625 -2.296875 C 1.671875 -1.890625 1.769531 -1.578125 1.9375 -1.359375 C 2.25 -0.960938 2.789062 -0.765625 3.5625 -0.765625 C 4.007812 -0.765625 4.40625 -0.863281 4.75 -1.0625 C 5.101562 -1.257812 5.28125 -1.5625 5.28125 -1.96875 C 5.28125 -2.289062 5.140625 -2.53125 4.859375 -2.6875 C 4.679688 -2.789062 4.332031 -2.910156 3.8125 -3.046875 L 2.828125 -3.28125 C 2.203125 -3.4375 1.742188 -3.613281 1.453125 -3.8125 C 0.921875 -4.144531 0.65625 -4.601562 0.65625 -5.1875 C 0.65625 -5.882812 0.90625 -6.445312 1.40625 -6.875 C 1.90625 -7.300781 2.578125 -7.515625 3.421875 -7.515625 C 4.523438 -7.515625 5.316406 -7.191406 5.796875 -6.546875 C 6.109375 -6.128906 6.257812 -5.6875 6.25 -5.21875 L 5.09375 -5.21875 C 5.0625 -5.5 4.960938 -5.75 4.796875 -5.96875 C 4.515625 -6.289062 4.023438 -6.453125 3.328125 -6.453125 C 2.859375 -6.453125 2.503906 -6.363281 2.265625 -6.1875 C 2.023438 -6.007812 1.90625 -5.773438 1.90625 -5.484375 C 1.90625 -5.171875 2.0625 -4.914062 2.375 -4.71875 C 2.5625 -4.601562 2.832031 -4.503906 3.1875 -4.421875 L 4 -4.21875 C 4.882812 -4.007812 5.476562 -3.804688 5.78125 -3.609375 C 6.257812 -3.285156 6.5 -2.789062 6.5 -2.125 C 6.5 -1.46875 6.25 -0.898438 5.75 -0.421875 C 5.257812 0.0429688 4.507812 0.28125 3.5 0.28125 C 2.40625 0.28125 1.628906 0.0351562 1.171875 -0.453125 C 0.722656 -0.953125 0.484375 -1.566406 0.453125 -2.296875 Z M 3.453125 -7.5 Z M 3.453125 -7.5 "/>
</g>
<g id="glyph-1-4">
<path d="M 0.90625 -7.28125 L 2.15625 -7.28125 L 2.15625 0 L 0.90625 0 Z M 0.90625 -10.046875 L 2.15625 -10.046875 L 2.15625 -8.640625 L 0.90625 -8.640625 Z M 0.90625 -10.046875 "/>
</g>
<g id="glyph-1-5">
<path d="M 3.484375 -7.453125 C 4.054688 -7.453125 4.554688 -7.3125 4.984375 -7.03125 C 5.222656 -6.863281 5.460938 -6.628906 5.703125 -6.328125 L 5.703125 -7.25 L 6.84375 -7.25 L 6.84375 -0.59375 C 6.84375 0.332031 6.703125 1.066406 6.421875 1.609375 C 5.910156 2.597656 4.945312 3.09375 3.53125 3.09375 C 2.75 3.09375 2.085938 2.914062 1.546875 2.5625 C 1.003906 2.207031 0.703125 1.65625 0.640625 0.90625 L 1.890625 0.90625 C 1.953125 1.238281 2.070312 1.492188 2.25 1.671875 C 2.53125 1.941406 2.96875 2.078125 3.5625 2.078125 C 4.507812 2.078125 5.128906 1.742188 5.421875 1.078125 C 5.585938 0.691406 5.664062 -0.00390625 5.65625 -1.015625 C 5.40625 -0.640625 5.109375 -0.359375 4.765625 -0.171875 C 4.421875 0.00390625 3.960938 0.09375 3.390625 0.09375 C 2.597656 0.09375 1.90625 -0.1875 1.3125 -0.75 C 0.71875 -1.3125 0.421875 -2.242188 0.421875 -3.546875 C 0.421875 -4.773438 0.71875 -5.734375 1.3125 -6.421875 C 1.914062 -7.109375 2.640625 -7.453125 3.484375 -7.453125 Z M 5.703125 -3.6875 C 5.703125 -4.59375 5.515625 -5.265625 5.140625 -5.703125 C 4.765625 -6.140625 4.289062 -6.359375 3.71875 -6.359375 C 2.84375 -6.359375 2.25 -5.953125 1.9375 -5.140625 C 1.769531 -4.710938 1.6875 -4.148438 1.6875 -3.453125 C 1.6875 -2.617188 1.851562 -1.988281 2.1875 -1.5625 C 2.519531 -1.132812 2.96875 -0.921875 3.53125 -0.921875 C 4.414062 -0.921875 5.039062 -1.316406 5.40625 -2.109375 C 5.601562 -2.566406 5.703125 -3.09375 5.703125 -3.6875 Z M 3.625 -7.5 Z M 3.625 -7.5 "/>
</g>
<g id="glyph-1-6">
<path d="M 0.90625 -7.328125 L 2.078125 -7.328125 L 2.078125 -6.28125 C 2.421875 -6.707031 2.785156 -7.015625 3.171875 -7.203125 C 3.554688 -7.390625 3.988281 -7.484375 4.46875 -7.484375 C 5.5 -7.484375 6.195312 -7.125 6.5625 -6.40625 C 6.769531 -6 6.875 -5.429688 6.875 -4.703125 L 6.875 0 L 5.625 0 L 5.625 -4.609375 C 5.625 -5.054688 5.554688 -5.414062 5.421875 -5.6875 C 5.203125 -6.144531 4.804688 -6.375 4.234375 -6.375 C 3.941406 -6.375 3.703125 -6.347656 3.515625 -6.296875 C 3.179688 -6.191406 2.882812 -5.988281 2.625 -5.6875 C 2.414062 -5.445312 2.28125 -5.195312 2.21875 -4.9375 C 2.164062 -4.675781 2.140625 -4.304688 2.140625 -3.828125 L 2.140625 0 L 0.90625 0 Z M 3.796875 -7.5 Z M 3.796875 -7.5 "/>
</g>
<g id="glyph-1-7">
<path d="M 1.6875 -3.578125 C 1.6875 -2.796875 1.851562 -2.140625 2.1875 -1.609375 C 2.519531 -1.078125 3.050781 -0.8125 3.78125 -0.8125 C 4.351562 -0.8125 4.820312 -1.054688 5.1875 -1.546875 C 5.550781 -2.035156 5.734375 -2.738281 5.734375 -3.65625 C 5.734375 -4.582031 5.539062 -5.265625 5.15625 -5.703125 C 4.78125 -6.148438 4.316406 -6.375 3.765625 -6.375 C 3.148438 -6.375 2.648438 -6.132812 2.265625 -5.65625 C 1.878906 -5.1875 1.6875 -4.492188 1.6875 -3.578125 Z M 3.53125 -7.453125 C 4.09375 -7.453125 4.5625 -7.332031 4.9375 -7.09375 C 5.15625 -6.957031 5.40625 -6.71875 5.6875 -6.375 L 5.6875 -10.078125 L 6.875 -10.078125 L 6.875 0 L 5.765625 0 L 5.765625 -1.015625 C 5.472656 -0.566406 5.128906 -0.238281 4.734375 -0.03125 C 4.347656 0.164062 3.898438 0.265625 3.390625 0.265625 C 2.578125 0.265625 1.875 -0.078125 1.28125 -0.765625 C 0.6875 -1.453125 0.390625 -2.363281 0.390625 -3.5 C 0.390625 -4.570312 0.660156 -5.5 1.203125 -6.28125 C 1.742188 -7.0625 2.519531 -7.453125 3.53125 -7.453125 Z M 3.53125 -7.453125 "/>
</g>
<g id="glyph-1-8">
</g>
<g id="glyph-1-9">
<path d="M 1.203125 -8.4375 C 1.222656 -8.945312 1.316406 -9.320312 1.484375 -9.5625 C 1.765625 -9.976562 2.316406 -10.1875 3.140625 -10.1875 C 3.210938 -10.1875 3.289062 -10.179688 3.375 -10.171875 C 3.457031 -10.171875 3.550781 -10.164062 3.65625 -10.15625 L 3.65625 -9.03125 C 3.53125 -9.039062 3.4375 -9.046875 3.375 -9.046875 C 3.320312 -9.054688 3.269531 -9.0625 3.21875 -9.0625 C 2.84375 -9.0625 2.617188 -8.960938 2.546875 -8.765625 C 2.472656 -8.578125 2.4375 -8.082031 2.4375 -7.28125 L 3.65625 -7.28125 L 3.65625 -6.3125 L 2.421875 -6.3125 L 2.421875 0 L 1.203125 0 L 1.203125 -6.3125 L 0.1875 -6.3125 L 0.1875 -7.28125 L 1.203125 -7.28125 Z M 1.203125 -8.4375 "/>
</g>
<g id="glyph-1-10">
<path d="M 3.8125 -0.796875 C 4.625 -0.796875 5.179688 -1.101562 5.484375 -1.71875 C 5.785156 -2.332031 5.9375 -3.019531 5.9375 -3.78125 C 5.9375 -4.46875 5.828125 -5.023438 5.609375 -5.453125 C 5.265625 -6.117188 4.671875 -6.453125 3.828125 -6.453125 C 3.066406 -6.453125 2.515625 -6.164062 2.171875 -5.59375 C 1.835938 -5.019531 1.671875 -4.328125 1.671875 -3.515625 C 1.671875 -2.742188 1.835938 -2.097656 2.171875 -1.578125 C 2.515625 -1.054688 3.0625 -0.796875 3.8125 -0.796875 Z M 3.859375 -7.53125 C 4.796875 -7.53125 5.585938 -7.210938 6.234375 -6.578125 C 6.890625 -5.953125 7.21875 -5.03125 7.21875 -3.8125 C 7.21875 -2.632812 6.929688 -1.660156 6.359375 -0.890625 C 5.785156 -0.117188 4.894531 0.265625 3.6875 0.265625 C 2.6875 0.265625 1.890625 -0.0703125 1.296875 -0.75 C 0.703125 -1.4375 0.40625 -2.351562 0.40625 -3.5 C 0.40625 -4.726562 0.71875 -5.707031 1.34375 -6.4375 C 1.96875 -7.164062 2.804688 -7.53125 3.859375 -7.53125 Z M 3.8125 -7.5 Z M 3.8125 -7.5 "/>
</g>
<g id="glyph-1-11">
<path d="M 0.9375 -7.328125 L 2.109375 -7.328125 L 2.109375 -6.0625 C 2.203125 -6.300781 2.4375 -6.597656 2.8125 -6.953125 C 3.1875 -7.304688 3.617188 -7.484375 4.109375 -7.484375 C 4.128906 -7.484375 4.164062 -7.476562 4.21875 -7.46875 C 4.269531 -7.46875 4.363281 -7.460938 4.5 -7.453125 L 4.5 -6.15625 C 4.425781 -6.164062 4.359375 -6.171875 4.296875 -6.171875 C 4.234375 -6.179688 4.164062 -6.1875 4.09375 -6.1875 C 3.476562 -6.1875 3.003906 -5.984375 2.671875 -5.578125 C 2.335938 -5.179688 2.171875 -4.726562 2.171875 -4.21875 L 2.171875 0 L 0.9375 0 Z M 0.9375 -7.328125 "/>
</g>
<g id="glyph-1-12">
<path d="M 3.71875 -7.53125 C 4.550781 -7.53125 5.222656 -7.328125 5.734375 -6.921875 C 6.253906 -6.523438 6.566406 -5.835938 6.671875 -4.859375 L 5.46875 -4.859375 C 5.394531 -5.304688 5.226562 -5.679688 4.96875 -5.984375 C 4.71875 -6.285156 4.300781 -6.4375 3.71875 -6.4375 C 2.9375 -6.4375 2.378906 -6.050781 2.046875 -5.28125 C 1.828125 -4.789062 1.71875 -4.179688 1.71875 -3.453125 C 1.71875 -2.710938 1.867188 -2.09375 2.171875 -1.59375 C 2.484375 -1.09375 2.972656 -0.84375 3.640625 -0.84375 C 4.148438 -0.84375 4.554688 -1 4.859375 -1.3125 C 5.160156 -1.625 5.363281 -2.050781 5.46875 -2.59375 L 6.671875 -2.59375 C 6.535156 -1.625 6.191406 -0.910156 5.640625 -0.453125 C 5.097656 -0.00390625 4.398438 0.21875 3.546875 0.21875 C 2.585938 0.21875 1.820312 -0.128906 1.25 -0.828125 C 0.6875 -1.535156 0.40625 -2.410156 0.40625 -3.453125 C 0.40625 -4.742188 0.71875 -5.742188 1.34375 -6.453125 C 1.96875 -7.171875 2.757812 -7.53125 3.71875 -7.53125 Z M 3.53125 -7.5 Z M 3.53125 -7.5 "/>
</g>
<g id="glyph-1-13">
<path d="M 0.9375 -10.046875 L 2.171875 -10.046875 L 2.171875 0 L 0.9375 0 Z M 0.9375 -10.046875 "/>
</g>
<g id="glyph-1-14">
<path d="M 0.8125 -10.078125 L 2 -10.078125 L 2 -6.4375 C 2.269531 -6.78125 2.59375 -7.046875 2.96875 -7.234375 C 3.34375 -7.421875 3.75 -7.515625 4.1875 -7.515625 C 5.09375 -7.515625 5.828125 -7.203125 6.390625 -6.578125 C 6.960938 -5.953125 7.25 -5.023438 7.25 -3.796875 C 7.25 -2.640625 6.96875 -1.675781 6.40625 -0.90625 C 5.851562 -0.144531 5.078125 0.234375 4.078125 0.234375 C 3.523438 0.234375 3.054688 0.0976562 2.671875 -0.171875 C 2.441406 -0.328125 2.195312 -0.582031 1.9375 -0.9375 L 1.9375 0 L 0.8125 0 Z M 4 -0.859375 C 4.664062 -0.859375 5.164062 -1.117188 5.5 -1.640625 C 5.832031 -2.171875 6 -2.867188 6 -3.734375 C 6 -4.503906 5.832031 -5.140625 5.5 -5.640625 C 5.164062 -6.148438 4.679688 -6.40625 4.046875 -6.40625 C 3.484375 -6.40625 2.988281 -6.195312 2.5625 -5.78125 C 2.144531 -5.375 1.9375 -4.691406 1.9375 -3.734375 C 1.9375 -3.046875 2.019531 -2.488281 2.1875 -2.0625 C 2.519531 -1.257812 3.125 -0.859375 4 -0.859375 Z M 4 -0.859375 "/>
</g>
<g id="glyph-1-15">
<path d="M 1.84375 -1.953125 C 1.84375 -1.597656 1.972656 -1.316406 2.234375 -1.109375 C 2.492188 -0.898438 2.800781 -0.796875 3.15625 -0.796875 C 3.59375 -0.796875 4.015625 -0.894531 4.421875 -1.09375 C 5.097656 -1.425781 5.4375 -1.972656 5.4375 -2.734375 L 5.4375 -3.71875 C 5.289062 -3.625 5.097656 -3.546875 4.859375 -3.484375 C 4.617188 -3.421875 4.382812 -3.375 4.15625 -3.34375 L 3.421875 -3.25 C 2.972656 -3.195312 2.632812 -3.101562 2.40625 -2.96875 C 2.03125 -2.757812 1.84375 -2.421875 1.84375 -1.953125 Z M 4.828125 -4.4375 C 5.109375 -4.46875 5.296875 -4.585938 5.390625 -4.796875 C 5.441406 -4.898438 5.46875 -5.054688 5.46875 -5.265625 C 5.46875 -5.679688 5.316406 -5.984375 5.015625 -6.171875 C 4.722656 -6.359375 4.300781 -6.453125 3.75 -6.453125 C 3.101562 -6.453125 2.644531 -6.28125 2.375 -5.9375 C 2.226562 -5.75 2.128906 -5.46875 2.078125 -5.09375 L 0.9375 -5.09375 C 0.957031 -5.988281 1.25 -6.613281 1.8125 -6.96875 C 2.375 -7.320312 3.03125 -7.5 3.78125 -7.5 C 4.632812 -7.5 5.332031 -7.332031 5.875 -7 C 6.40625 -6.675781 6.671875 -6.164062 6.671875 -5.46875 L 6.671875 -1.265625 C 6.671875 -1.128906 6.695312 -1.019531 6.75 -0.9375 C 6.800781 -0.863281 6.910156 -0.828125 7.078125 -0.828125 C 7.140625 -0.828125 7.203125 -0.832031 7.265625 -0.84375 C 7.335938 -0.851562 7.410156 -0.863281 7.484375 -0.875 L 7.484375 0.03125 C 7.296875 0.0820312 7.148438 0.113281 7.046875 0.125 C 6.941406 0.144531 6.804688 0.15625 6.640625 0.15625 C 6.210938 0.15625 5.90625 0.00390625 5.71875 -0.296875 C 5.613281 -0.453125 5.539062 -0.675781 5.5 -0.96875 C 5.25 -0.644531 4.890625 -0.359375 4.421875 -0.109375 C 3.953125 0.128906 3.4375 0.25 2.875 0.25 C 2.195312 0.25 1.640625 0.0429688 1.203125 -0.359375 C 0.773438 -0.773438 0.5625 -1.296875 0.5625 -1.921875 C 0.5625 -2.597656 0.769531 -3.125 1.1875 -3.5 C 1.613281 -3.875 2.171875 -4.101562 2.859375 -4.1875 Z M 3.8125 -7.5 Z M 3.8125 -7.5 "/>
</g>
<g id="glyph-1-16">
<path d="M 1.15625 -9.359375 L 2.390625 -9.359375 L 2.390625 -7.328125 L 3.5625 -7.328125 L 3.5625 -6.3125 L 2.390625 -6.3125 L 2.390625 -1.53125 C 2.390625 -1.28125 2.476562 -1.113281 2.65625 -1.03125 C 2.75 -0.976562 2.90625 -0.953125 3.125 -0.953125 C 3.1875 -0.953125 3.25 -0.953125 3.3125 -0.953125 C 3.382812 -0.953125 3.46875 -0.957031 3.5625 -0.96875 L 3.5625 0 C 3.414062 0.0390625 3.265625 0.0664062 3.109375 0.078125 C 2.960938 0.0976562 2.800781 0.109375 2.625 0.109375 C 2.050781 0.109375 1.660156 -0.0351562 1.453125 -0.328125 C 1.253906 -0.617188 1.15625 -1 1.15625 -1.46875 L 1.15625 -6.3125 L 0.15625 -6.3125 L 0.15625 -7.328125 L 1.15625 -7.328125 Z M 1.15625 -9.359375 "/>
</g>
<g id="glyph-1-17">
<path d="M 5.46875 -7.328125 L 6.84375 -7.328125 C 6.664062 -6.859375 6.28125 -5.785156 5.6875 -4.109375 C 5.238281 -2.847656 4.863281 -1.820312 4.5625 -1.03125 C 3.851562 0.832031 3.351562 1.96875 3.0625 2.375 C 2.769531 2.789062 2.265625 3 1.546875 3 C 1.378906 3 1.25 2.988281 1.15625 2.96875 C 1.0625 2.957031 0.945312 2.9375 0.8125 2.90625 L 0.8125 1.78125 C 1.019531 1.84375 1.171875 1.878906 1.265625 1.890625 C 1.367188 1.910156 1.457031 1.921875 1.53125 1.921875 C 1.75 1.921875 1.910156 1.878906 2.015625 1.796875 C 2.128906 1.722656 2.222656 1.632812 2.296875 1.53125 C 2.316406 1.488281 2.394531 1.296875 2.53125 0.953125 C 2.675781 0.617188 2.78125 0.375 2.84375 0.21875 L 0.140625 -7.328125 L 1.53125 -7.328125 L 3.5 -1.359375 Z M 3.5 -7.5 Z M 3.5 -7.5 "/>
</g>
<g id="glyph-2-0">
<path d="M 1.265625 -12.09375 L 11 -12.09375 L 11 0 L 1.265625 0 Z M 9.484375 -1.515625 L 9.484375 -10.578125 L 2.765625 -10.578125 L 2.765625 -1.515625 Z M 9.484375 -1.515625 "/>
</g>
<g id="glyph-2-1">
<path d="M 6.625 0.34375 C 4.894531 0.34375 3.578125 -0.128906 2.671875 -1.078125 C 1.441406 -2.234375 0.828125 -3.894531 0.828125 -6.0625 C 0.828125 -8.269531 1.441406 -9.929688 2.671875 -11.046875 C 3.578125 -11.984375 4.894531 -12.453125 6.625 -12.453125 C 8.351562 -12.453125 9.675781 -11.984375 10.59375 -11.046875 C 11.8125 -9.929688 12.421875 -8.269531 12.421875 -6.0625 C 12.421875 -3.894531 11.8125 -2.234375 10.59375 -1.078125 C 9.675781 -0.128906 8.351562 0.34375 6.625 0.34375 Z M 9.015625 -2.90625 C 9.597656 -3.644531 9.890625 -4.695312 9.890625 -6.0625 C 9.890625 -7.414062 9.59375 -8.460938 9 -9.203125 C 8.414062 -9.941406 7.625 -10.3125 6.625 -10.3125 C 5.625 -10.3125 4.828125 -9.941406 4.234375 -9.203125 C 3.640625 -8.472656 3.34375 -7.425781 3.34375 -6.0625 C 3.34375 -4.695312 3.640625 -3.644531 4.234375 -2.90625 C 4.828125 -2.164062 5.625 -1.796875 6.625 -1.796875 C 7.625 -1.796875 8.421875 -2.164062 9.015625 -2.90625 Z M 9.015625 -2.90625 "/>
</g>
<g id="glyph-2-2">
<path d="M 9.296875 0 L 6.46875 0 L 4.328125 -3.828125 L 3.359375 -2.8125 L 3.359375 0 L 1.0625 0 L 1.0625 -12.046875 L 3.359375 -12.046875 L 3.359375 -5.53125 L 6.28125 -8.90625 L 9.171875 -8.90625 L 6.046875 -5.484375 Z M 9.296875 0 "/>
</g>
<g id="glyph-2-3">
<path d="M 1.421875 -7.96875 C 2.046875 -8.757812 3.109375 -9.15625 4.609375 -9.15625 C 5.585938 -9.15625 6.457031 -8.960938 7.21875 -8.578125 C 7.976562 -8.179688 8.359375 -7.445312 8.359375 -6.375 L 8.359375 -2.265625 C 8.359375 -1.984375 8.363281 -1.640625 8.375 -1.234375 C 8.394531 -0.929688 8.441406 -0.722656 8.515625 -0.609375 C 8.585938 -0.503906 8.703125 -0.414062 8.859375 -0.34375 L 8.859375 0 L 6.3125 0 C 6.238281 -0.175781 6.1875 -0.34375 6.15625 -0.5 C 6.132812 -0.664062 6.117188 -0.847656 6.109375 -1.046875 C 5.785156 -0.703125 5.410156 -0.40625 4.984375 -0.15625 C 4.484375 0.132812 3.914062 0.28125 3.28125 0.28125 C 2.46875 0.28125 1.796875 0.0507812 1.265625 -0.40625 C 0.742188 -0.875 0.484375 -1.53125 0.484375 -2.375 C 0.484375 -3.476562 0.90625 -4.273438 1.75 -4.765625 C 2.21875 -5.035156 2.90625 -5.226562 3.8125 -5.34375 L 4.59375 -5.4375 C 5.03125 -5.488281 5.34375 -5.554688 5.53125 -5.640625 C 5.863281 -5.785156 6.03125 -6.007812 6.03125 -6.3125 C 6.03125 -6.675781 5.898438 -6.925781 5.640625 -7.0625 C 5.390625 -7.207031 5.019531 -7.28125 4.53125 -7.28125 C 3.976562 -7.28125 3.585938 -7.140625 3.359375 -6.859375 C 3.191406 -6.660156 3.082031 -6.390625 3.03125 -6.046875 L 0.765625 -6.046875 C 0.816406 -6.828125 1.035156 -7.46875 1.421875 -7.96875 Z M 3.171875 -1.6875 C 3.390625 -1.507812 3.65625 -1.421875 3.96875 -1.421875 C 4.46875 -1.421875 4.929688 -1.566406 5.359375 -1.859375 C 5.785156 -2.148438 6.003906 -2.691406 6.015625 -3.484375 L 6.015625 -4.34375 C 5.867188 -4.25 5.71875 -4.171875 5.5625 -4.109375 C 5.414062 -4.054688 5.210938 -4.007812 4.953125 -3.96875 L 4.421875 -3.859375 C 3.929688 -3.773438 3.582031 -3.671875 3.375 -3.546875 C 3.007812 -3.328125 2.828125 -2.992188 2.828125 -2.546875 C 2.828125 -2.148438 2.941406 -1.863281 3.171875 -1.6875 Z M 3.171875 -1.6875 "/>
</g>
<g id="glyph-2-4">
<path d="M 5.953125 0.234375 C 5.210938 0.234375 4.617188 0.0859375 4.171875 -0.203125 C 3.898438 -0.378906 3.609375 -0.6875 3.296875 -1.125 L 3.296875 0 L 1.015625 0 L 1.015625 -12.078125 L 3.34375 -12.078125 L 3.34375 -7.78125 C 3.632812 -8.195312 3.957031 -8.507812 4.3125 -8.71875 C 4.738281 -9 5.273438 -9.140625 5.921875 -9.140625 C 7.097656 -9.140625 8.015625 -8.710938 8.671875 -7.859375 C 9.335938 -7.015625 9.671875 -5.921875 9.671875 -4.578125 C 9.671875 -3.191406 9.34375 -2.039062 8.6875 -1.125 C 8.03125 -0.21875 7.117188 0.234375 5.953125 0.234375 Z M 7.21875 -4.34375 C 7.21875 -4.976562 7.140625 -5.5 6.984375 -5.90625 C 6.671875 -6.695312 6.09375 -7.09375 5.25 -7.09375 C 4.40625 -7.09375 3.828125 -6.707031 3.515625 -5.9375 C 3.347656 -5.53125 3.265625 -5 3.265625 -4.34375 C 3.265625 -3.582031 3.429688 -2.945312 3.765625 -2.4375 C 4.109375 -1.9375 4.628906 -1.6875 5.328125 -1.6875 C 5.921875 -1.6875 6.382812 -1.929688 6.71875 -2.421875 C 7.050781 -2.910156 7.21875 -3.550781 7.21875 -4.34375 Z M 7.21875 -4.34375 "/>
</g>
<g id="glyph-2-5">
<path d="M 8.75 -2.625 C 8.6875 -2.09375 8.410156 -1.554688 7.921875 -1.015625 C 7.148438 -0.140625 6.078125 0.296875 4.703125 0.296875 C 3.566406 0.296875 2.5625 -0.0664062 1.6875 -0.796875 C 0.820312 -1.535156 0.390625 -2.726562 0.390625 -4.375 C 0.390625 -5.925781 0.78125 -7.113281 1.5625 -7.9375 C 2.34375 -8.757812 3.363281 -9.171875 4.625 -9.171875 C 5.363281 -9.171875 6.03125 -9.03125 6.625 -8.75 C 7.21875 -8.476562 7.710938 -8.039062 8.109375 -7.4375 C 8.453125 -6.90625 8.675781 -6.289062 8.78125 -5.59375 C 8.84375 -5.1875 8.867188 -4.597656 8.859375 -3.828125 L 2.734375 -3.828125 C 2.765625 -2.929688 3.046875 -2.300781 3.578125 -1.9375 C 3.898438 -1.707031 4.289062 -1.59375 4.75 -1.59375 C 5.226562 -1.59375 5.617188 -1.734375 5.921875 -2.015625 C 6.085938 -2.160156 6.234375 -2.363281 6.359375 -2.625 Z M 6.4375 -5.359375 C 6.394531 -5.984375 6.203125 -6.453125 5.859375 -6.765625 C 5.523438 -7.085938 5.113281 -7.25 4.625 -7.25 C 4.082031 -7.25 3.660156 -7.078125 3.359375 -6.734375 C 3.054688 -6.398438 2.867188 -5.941406 2.796875 -5.359375 Z M 6.4375 -5.359375 "/>
</g>
<g id="glyph-2-6">
<path d="M 0.390625 -5.796875 L 5.09375 -5.796875 L 5.09375 -3.578125 L 0.390625 -3.578125 Z M 0.390625 -5.796875 "/>
</g>
<g id="glyph-2-7">
<path d="M 1.078125 -12.09375 L 3.59375 -12.09375 L 3.59375 0 L 1.078125 0 Z M 1.078125 -12.09375 "/>
</g>
<g id="glyph-2-8">
<path d="M 5.1875 -1.671875 L 5.1875 0.078125 L 4.078125 0.125 C 2.972656 0.164062 2.21875 -0.0234375 1.8125 -0.453125 C 1.550781 -0.722656 1.421875 -1.132812 1.421875 -1.6875 L 1.421875 -7.1875 L 0.171875 -7.1875 L 0.171875 -8.859375 L 1.421875 -8.859375 L 1.421875 -11.34375 L 3.734375 -11.34375 L 3.734375 -8.859375 L 5.1875 -8.859375 L 5.1875 -7.1875 L 3.734375 -7.1875 L 3.734375 -2.46875 C 3.734375 -2.101562 3.78125 -1.875 3.875 -1.78125 C 3.96875 -1.695312 4.25 -1.65625 4.71875 -1.65625 C 4.789062 -1.65625 4.863281 -1.65625 4.9375 -1.65625 C 5.019531 -1.65625 5.101562 -1.660156 5.1875 -1.671875 Z M 5.1875 -1.671875 "/>
</g>
<g id="glyph-2-9">
<path d="M 8.546875 -7.8125 C 9.296875 -6.863281 9.671875 -5.742188 9.671875 -4.453125 C 9.671875 -3.140625 9.296875 -2.015625 8.546875 -1.078125 C 7.796875 -0.148438 6.648438 0.3125 5.109375 0.3125 C 3.578125 0.3125 2.429688 -0.148438 1.671875 -1.078125 C 0.921875 -2.015625 0.546875 -3.140625 0.546875 -4.453125 C 0.546875 -5.742188 0.921875 -6.863281 1.671875 -7.8125 C 2.429688 -8.757812 3.578125 -9.234375 5.109375 -9.234375 C 6.648438 -9.234375 7.796875 -8.757812 8.546875 -7.8125 Z M 5.09375 -7.25 C 4.414062 -7.25 3.890625 -7.003906 3.515625 -6.515625 C 3.148438 -6.035156 2.96875 -5.347656 2.96875 -4.453125 C 2.96875 -3.554688 3.148438 -2.863281 3.515625 -2.375 C 3.890625 -1.894531 4.414062 -1.65625 5.09375 -1.65625 C 5.78125 -1.65625 6.304688 -1.894531 6.671875 -2.375 C 7.035156 -2.863281 7.21875 -3.554688 7.21875 -4.453125 C 7.21875 -5.347656 7.035156 -6.035156 6.671875 -6.515625 C 6.304688 -7.003906 5.78125 -7.25 5.09375 -7.25 Z M 5.09375 -7.25 "/>
</g>
<g id="glyph-2-10">
</g>
<g id="glyph-2-11">
<path d="M 6.40625 -4.34375 L 3.84375 -4.34375 L 3.84375 0 L 1.34375 0 L 1.34375 -12.09375 L 6.609375 -12.09375 C 7.816406 -12.09375 8.78125 -11.78125 9.5 -11.15625 C 10.226562 -10.53125 10.59375 -9.566406 10.59375 -8.265625 C 10.59375 -6.835938 10.226562 -5.828125 9.5 -5.234375 C 8.78125 -4.640625 7.75 -4.34375 6.40625 -4.34375 Z M 7.59375 -6.859375 C 7.925781 -7.148438 8.09375 -7.613281 8.09375 -8.25 C 8.09375 -8.875 7.925781 -9.316406 7.59375 -9.578125 C 7.257812 -9.847656 6.796875 -9.984375 6.203125 -9.984375 L 3.84375 -9.984375 L 3.84375 -6.4375 L 6.203125 -6.4375 C 6.796875 -6.4375 7.257812 -6.578125 7.59375 -6.859375 Z M 7.59375 -6.859375 "/>
</g>
<g id="glyph-2-12">
<path d="M 1.140625 -12.09375 L 3.484375 -12.09375 L 3.484375 0 L 1.140625 0 Z M 1.140625 -12.09375 "/>
</g>
</g>
</defs>
<rect x="-86.4" y="-43.2" width="1036.8" height="518.4" fill="rgb(100%, 100%, 100%)" fill-opacity="1"/>
<path fill-rule="nonzero" fill="rgb(90.196078%, 62.352941%, 0%)" fill-opacity="1" d="M 91.636719 101.496094 L 248.726562 101.496094 L 248.726562 63.496094 L 91.636719 63.496094 Z M 91.636719 101.496094 "/>
<path fill-rule="nonzero" fill="rgb(33.72549%, 70.588235%, 91.372549%)" fill-opacity="1" d="M 91.636719 146.203125 L 248.726562 146.203125 L 248.726562 108.203125 L 91.636719 108.203125 Z M 91.636719 146.203125 "/>
<path fill-rule="nonzero" fill="rgb(0%, 61.960784%, 45.098039%)" fill-opacity="1" d="M 91.636719 190.914062 L 248.726562 190.914062 L 248.726562 152.914062 L 91.636719 152.914062 Z M 91.636719 190.914062 "/>
<path fill-rule="nonzero" fill="rgb(94.117647%, 89.411765%, 25.882353%)" fill-opacity="1" d="M 91.636719 235.621094 L 248.726562 235.621094 L 248.726562 197.621094 L 91.636719 197.621094 Z M 91.636719 235.621094 "/>
<path fill-rule="nonzero" fill="rgb(0%, 44.705882%, 69.803922%)" fill-opacity="1" d="M 91.636719 280.328125 L 248.726562 280.328125 L 248.726562 242.328125 L 91.636719 242.328125 Z M 91.636719 280.328125 "/>
<path fill-rule="nonzero" fill="rgb(83.529412%, 36.862745%, 0%)" fill-opacity="1" d="M 91.636719 325.035156 L 248.726562 325.035156 L 248.726562 287.035156 L 91.636719 287.035156 Z M 91.636719 325.035156 "/>
<path fill-rule="nonzero" fill="rgb(80%, 47.45098%, 65.490196%)" fill-opacity="1" d="M 91.636719 369.746094 L 248.726562 369.746094 L 248.726562 331.746094 L 91.636719 331.746094 Z M 91.636719 369.746094 "/>
<path fill-rule="nonzero" fill="rgb(0%, 0%, 0%)" fill-opacity="1" d="M 91.636719 414.453125 L 248.726562 414.453125 L 248.726562 376.453125 L 91.636719 376.453125 Z M 91.636719 414.453125 "/>
<g fill="rgb(0%, 0%, 0%)" fill-opacity="1">
<use xlink:href="#glyph-0-1" x="273.917969" y="87.950195"/>
<use xlink:href="#glyph-0-2" x="284.917969" y="87.950195"/>
<use xlink:href="#glyph-0-3" x="290.917969" y="87.950195"/>
<use xlink:href="#glyph-0-4" x="298.917969" y="87.950195"/>
<use xlink:href="#glyph-0-5" x="307.917969" y="87.950195"/>
<use xlink:href="#glyph-0-6" x="316.917969" y="87.950195"/>
<use xlink:href="#glyph-0-7" x="324.917969" y="87.950195"/>
<use xlink:href="#glyph-0-7" x="328.917969" y="87.950195"/>
<use xlink:href="#glyph-0-7" x="332.917969" y="87.950195"/>
<use xlink:href="#glyph-0-8" x="336.917969" y="87.950195"/>
<use xlink:href="#glyph-0-9" x="344.917969" y="87.950195"/>
<use xlink:href="#glyph-0-10" x="353.917969" y="87.950195"/>
<use xlink:href="#glyph-0-11" x="361.917969" y="87.950195"/>
<use xlink:href="#glyph-0-12" x="369.917969" y="87.950195"/>
<use xlink:href="#glyph-0-13" x="378.917969" y="87.950195"/>
<use xlink:href="#glyph-0-13" x="386.917969" y="87.950195"/>
</g>
<g fill="rgb(0%, 0%, 0%)" fill-opacity="1">
<use xlink:href="#glyph-0-14" x="274.917969" y="132.657227"/>
<use xlink:href="#glyph-0-15" x="283.917969" y="132.657227"/>
<use xlink:href="#glyph-0-16" x="291.917969" y="132.657227"/>
<use xlink:href="#glyph-0-7" x="299.917969" y="132.657227"/>
<use xlink:href="#glyph-0-17" x="303.917969" y="132.657227"/>
<use xlink:href="#glyph-0-18" x="313.917969" y="132.657227"/>
<use xlink:href="#glyph-0-19" x="317.917969" y="132.657227"/>
<use xlink:href="#glyph-0-6" x="326.917969" y="132.657227"/>
<use xlink:href="#glyph-0-7" x="334.917969" y="132.657227"/>
<use xlink:href="#glyph-0-7" x="338.917969" y="132.657227"/>
<use xlink:href="#glyph-0-7" x="342.917969" y="132.657227"/>
<use xlink:href="#glyph-0-8" x="346.917969" y="132.657227"/>
<use xlink:href="#glyph-0-20" x="354.917969" y="132.657227"/>
<use xlink:href="#glyph-0-10" x="362.917969" y="132.657227"/>
<use xlink:href="#glyph-0-17" x="370.917969" y="132.657227"/>
<use xlink:href="#glyph-0-21" x="380.917969" y="132.657227"/>
<use xlink:href="#glyph-0-9" x="388.917969" y="132.657227"/>
<use xlink:href="#glyph-0-11" x="397.917969" y="132.657227"/>
</g>
<g fill="rgb(0%, 0%, 0%)" fill-opacity="1">
<use xlink:href="#glyph-0-22" x="272.917969" y="177.364258"/>
<use xlink:href="#glyph-0-2" x="283.917969" y="177.364258"/>
<use xlink:href="#glyph-0-6" x="289.917969" y="177.364258"/>
<use xlink:href="#glyph-0-6" x="297.917969" y="177.364258"/>
<use xlink:href="#glyph-0-4" x="305.917969" y="177.364258"/>
<use xlink:href="#glyph-0-7" x="314.917969" y="177.364258"/>
<use xlink:href="#glyph-0-7" x="318.917969" y="177.364258"/>
<use xlink:href="#glyph-0-7" x="322.917969" y="177.364258"/>
<use xlink:href="#glyph-0-8" x="326.917969" y="177.364258"/>
<use xlink:href="#glyph-0-13" x="334.917969" y="177.364258"/>
<use xlink:href="#glyph-0-13" x="342.917969" y="177.364258"/>
<use xlink:href="#glyph-0-11" x="350.917969" y="177.364258"/>
<use xlink:href="#glyph-0-9" x="358.917969" y="177.364258"/>
<use xlink:href="#glyph-0-23" x="367.917969" y="177.364258"/>
<use xlink:href="#glyph-0-24" x="375.917969" y="177.364258"/>
</g>
<g fill="rgb(0%, 0%, 0%)" fill-opacity="1">
<use xlink:href="#glyph-0-25" x="273.316406" y="222.075195"/>
<use xlink:href="#glyph-0-6" x="282.316406" y="222.075195"/>
<use xlink:href="#glyph-0-18" x="290.316406" y="222.075195"/>
<use xlink:href="#glyph-0-18" x="294.316406" y="222.075195"/>
<use xlink:href="#glyph-0-26" x="298.316406" y="222.075195"/>
<use xlink:href="#glyph-0-27" x="307.316406" y="222.075195"/>
<use xlink:href="#glyph-0-7" x="318.316406" y="222.075195"/>
<use xlink:href="#glyph-0-7" x="322.316406" y="222.075195"/>
<use xlink:href="#glyph-0-7" x="326.316406" y="222.075195"/>
<use xlink:href="#glyph-0-8" x="330.316406" y="222.075195"/>
<use xlink:href="#glyph-0-12" x="338.316406" y="222.075195"/>
<use xlink:href="#glyph-0-13" x="347.316406" y="222.075195"/>
<use xlink:href="#glyph-0-9" x="355.316406" y="222.075195"/>
<use xlink:href="#glyph-0-21" x="364.316406" y="222.075195"/>
<use xlink:href="#glyph-0-21" x="372.316406" y="222.075195"/>
<use xlink:href="#glyph-0-28" x="380.316406" y="222.075195"/>
</g>
<g fill="rgb(0%, 0%, 0%)" fill-opacity="1">
<use xlink:href="#glyph-0-17" x="271.917969" y="266.782227"/>
<use xlink:href="#glyph-0-18" x="281.917969" y="266.782227"/>
<use xlink:href="#glyph-0-19" x="285.917969" y="266.782227"/>
<use xlink:href="#glyph-0-6" x="294.917969" y="266.782227"/>
<use xlink:href="#glyph-0-7" x="302.917969" y="266.782227"/>
<use xlink:href="#glyph-0-7" x="306.917969" y="266.782227"/>
<use xlink:href="#glyph-0-7" x="310.917969" y="266.782227"/>
<use xlink:href="#glyph-0-8" x="314.917969" y="266.782227"/>
<use xlink:href="#glyph-0-13" x="322.917969" y="266.782227"/>
<use xlink:href="#glyph-0-13" x="330.917969" y="266.782227"/>
<use xlink:href="#glyph-0-23" x="338.917969" y="266.782227"/>
<use xlink:href="#glyph-0-28" x="346.917969" y="266.782227"/>
<use xlink:href="#glyph-0-17" x="354.917969" y="266.782227"/>
<use xlink:href="#glyph-0-28" x="364.917969" y="266.782227"/>
</g>
<g fill="rgb(0%, 0%, 0%)" fill-opacity="1">
<use xlink:href="#glyph-0-29" x="275.917969" y="311.489258"/>
<use xlink:href="#glyph-0-6" x="284.917969" y="311.489258"/>
<use xlink:href="#glyph-0-2" x="292.917969" y="311.489258"/>
<use xlink:href="#glyph-0-30" x="298.917969" y="311.489258"/>
<use xlink:href="#glyph-0-31" x="311.917969" y="311.489258"/>
<use xlink:href="#glyph-0-18" x="315.917969" y="311.489258"/>
<use xlink:href="#glyph-0-18" x="319.917969" y="311.489258"/>
<use xlink:href="#glyph-0-31" x="323.917969" y="311.489258"/>
<use xlink:href="#glyph-0-26" x="327.917969" y="311.489258"/>
<use xlink:href="#glyph-0-4" x="336.917969" y="311.489258"/>
<use xlink:href="#glyph-0-7" x="345.917969" y="311.489258"/>
<use xlink:href="#glyph-0-7" x="349.917969" y="311.489258"/>
<use xlink:href="#glyph-0-7" x="353.917969" y="311.489258"/>
<use xlink:href="#glyph-0-8" x="357.917969" y="311.489258"/>
<use xlink:href="#glyph-0-32" x="365.917969" y="311.489258"/>
<use xlink:href="#glyph-0-20" x="375.917969" y="311.489258"/>
<use xlink:href="#glyph-0-20" x="383.917969" y="311.489258"/>
<use xlink:href="#glyph-0-9" x="391.917969" y="311.489258"/>
<use xlink:href="#glyph-0-13" x="400.917969" y="311.489258"/>
<use xlink:href="#glyph-0-13" x="408.917969" y="311.489258"/>
</g>
<g fill="rgb(0%, 0%, 0%)" fill-opacity="1">
<use xlink:href="#glyph-0-33" x="272.214844" y="356.196289"/>
<use xlink:href="#glyph-0-31" x="281.214844" y="356.196289"/>
<use xlink:href="#glyph-0-4" x="285.214844" y="356.196289"/>
<use xlink:href="#glyph-0-15" x="294.214844" y="356.196289"/>
<use xlink:href="#glyph-0-7" x="302.214844" y="356.196289"/>
<use xlink:href="#glyph-0-7" x="306.214844" y="356.196289"/>
<use xlink:href="#glyph-0-7" x="310.214844" y="356.196289"/>
<use xlink:href="#glyph-0-8" x="314.214844" y="356.196289"/>
<use xlink:href="#glyph-0-34" x="322.214844" y="356.196289"/>
<use xlink:href="#glyph-0-34" x="332.214844" y="356.196289"/>
<use xlink:href="#glyph-0-23" x="342.214844" y="356.196289"/>
<use xlink:href="#glyph-0-11" x="350.214844" y="356.196289"/>
<use xlink:href="#glyph-0-35" x="358.214844" y="356.196289"/>
<use xlink:href="#glyph-0-23" x="368.214844" y="356.196289"/>
</g>
<g fill="rgb(0%, 0%, 0%)" fill-opacity="1">
<use xlink:href="#glyph-0-17" x="272.417969" y="400.907227"/>
<use xlink:href="#glyph-0-18" x="282.417969" y="400.907227"/>
<use xlink:href="#glyph-0-3" x="286.417969" y="400.907227"/>
<use xlink:href="#glyph-0-36" x="294.417969" y="400.907227"/>
<use xlink:href="#glyph-0-15" x="302.417969" y="400.907227"/>
<use xlink:href="#glyph-0-7" x="310.417969" y="400.907227"/>
<use xlink:href="#glyph-0-7" x="314.417969" y="400.907227"/>
<use xlink:href="#glyph-0-7" x="318.417969" y="400.907227"/>
<use xlink:href="#glyph-0-8" x="322.417969" y="400.907227"/>
<use xlink:href="#glyph-0-13" x="330.417969" y="400.907227"/>
<use xlink:href="#glyph-0-13" x="338.417969" y="400.907227"/>
<use xlink:href="#glyph-0-13" x="346.417969" y="400.907227"/>
<use xlink:href="#glyph-0-13" x="354.417969" y="400.907227"/>
<use xlink:href="#glyph-0-13" x="362.417969" y="400.907227"/>
<use xlink:href="#glyph-0-13" x="370.417969" y="400.907227"/>
</g>
<g fill="rgb(40%, 40%, 40%)" fill-opacity="1">
<use xlink:href="#glyph-1-1" x="0" y="41.729492"/>
<use xlink:href="#glyph-1-2" x="10" y="41.729492"/>
<use xlink:href="#glyph-1-3" x="18" y="41.729492"/>
<use xlink:href="#glyph-1-4" x="25" y="41.729492"/>
<use xlink:href="#glyph-1-5" x="28" y="41.729492"/>
<use xlink:href="#glyph-1-6" x="36" y="41.729492"/>
<use xlink:href="#glyph-1-2" x="44" y="41.729492"/>
<use xlink:href="#glyph-1-7" x="52" y="41.729492"/>
<use xlink:href="#glyph-1-8" x="60" y="41.729492"/>
<use xlink:href="#glyph-1-9" x="64" y="41.729492"/>
<use xlink:href="#glyph-1-10" x="68" y="41.729492"/>
<use xlink:href="#glyph-1-11" x="76" y="41.729492"/>
<use xlink:href="#glyph-1-8" x="81" y="41.729492"/>
<use xlink:href="#glyph-1-12" x="85" y="41.729492"/>
<use xlink:href="#glyph-1-10" x="92" y="41.729492"/>
<use xlink:href="#glyph-1-13" x="100" y="41.729492"/>
<use xlink:href="#glyph-1-10" x="103" y="41.729492"/>
<use xlink:href="#glyph-1-11" x="111" y="41.729492"/>
<use xlink:href="#glyph-1-14" x="116" y="41.729492"/>
<use xlink:href="#glyph-1-13" x="124" y="41.729492"/>
<use xlink:href="#glyph-1-4" x="127" y="41.729492"/>
<use xlink:href="#glyph-1-6" x="130" y="41.729492"/>
<use xlink:href="#glyph-1-7" x="138" y="41.729492"/>
<use xlink:href="#glyph-1-8" x="146" y="41.729492"/>
<use xlink:href="#glyph-1-15" x="150" y="41.729492"/>
<use xlink:href="#glyph-1-12" x="158" y="41.729492"/>
<use xlink:href="#glyph-1-12" x="165" y="41.729492"/>
<use xlink:href="#glyph-1-2" x="172" y="41.729492"/>
<use xlink:href="#glyph-1-3" x="180" y="41.729492"/>
<use xlink:href="#glyph-1-3" x="187" y="41.729492"/>
<use xlink:href="#glyph-1-4" x="194" y="41.729492"/>
<use xlink:href="#glyph-1-14" x="197" y="41.729492"/>
<use xlink:href="#glyph-1-4" x="205" y="41.729492"/>
<use xlink:href="#glyph-1-13" x="208" y="41.729492"/>
<use xlink:href="#glyph-1-4" x="211" y="41.729492"/>
<use xlink:href="#glyph-1-16" x="214" y="41.729492"/>
<use xlink:href="#glyph-1-17" x="218" y="41.729492"/>
</g>
<g fill="rgb(0%, 0%, 0%)" fill-opacity="1">
<use xlink:href="#glyph-2-1" x="0" y="19.90918"/>
<use xlink:href="#glyph-2-2" x="13" y="19.90918"/>
<use xlink:href="#glyph-2-3" x="22" y="19.90918"/>
<use xlink:href="#glyph-2-4" x="31" y="19.90918"/>
<use xlink:href="#glyph-2-5" x="41" y="19.90918"/>
<use xlink:href="#glyph-2-6" x="50" y="19.90918"/>
<use xlink:href="#glyph-2-7" x="56" y="19.90918"/>
<use xlink:href="#glyph-2-8" x="61" y="19.90918"/>
<use xlink:href="#glyph-2-9" x="67" y="19.90918"/>
<use xlink:href="#glyph-2-10" x="77" y="19.90918"/>
<use xlink:href="#glyph-2-11" x="82" y="19.90918"/>
<use xlink:href="#glyph-2-3" x="93" y="19.90918"/>
<use xlink:href="#glyph-2-12" x="102" y="19.90918"/>
<use xlink:href="#glyph-2-5" x="107" y="19.90918"/>
<use xlink:href="#glyph-2-8" x="116" y="19.90918"/>
<use xlink:href="#glyph-2-8" x="122" y="19.90918"/>
<use xlink:href="#glyph-2-5" x="128" y="19.90918"/>
</g>
</svg>
