<?xml version="1.0" encoding="UTF-8"?>
<svg xmlns="http://www.w3.org/2000/svg" xmlns:xlink="http://www.w3.org/1999/xlink" width="864pt" height="360pt" viewBox="0 0 864 360">
<defs>
<g>
<g id="glyph-0-0">
<path d="M 0.453125 0 L 0.453125 -10.046875 L 8.421875 -10.046875 L 8.421875 0 Z M 7.171875 -1.265625 L 7.171875 -8.78125 L 1.703125 -8.78125 L 1.703125 -1.265625 Z M 7.171875 -1.265625 "/>
</g>
<g id="glyph-0-1">
<path d="M 3.484375 -7.453125 C 4.054688 -7.453125 4.554688 -7.3125 4.984375 -7.03125 C 5.222656 -6.863281 5.460938 -6.628906 5.703125 -6.328125 L 5.703125 -7.25 L 6.84375 -7.25 L 6.84375 -0.59375 C 6.84375 0.332031 6.703125 1.066406 6.421875 1.609375 C 5.910156 2.597656 4.945312 3.09375 3.53125 3.09375 C 2.75 3.09375 2.085938 2.914062 1.546875 2.5625 C 1.003906 2.207031 0.703125 1.65625 0.640625 0.90625 L 1.890625 0.90625 C 1.953125 1.238281 2.070312 1.492188 2.25 1.671875 C 2.53125 1.941406 2.96875 2.078125 3.5625 2.078125 C 4.507812 2.078125 5.128906 1.742188 5.421875 1.078125 C 5.585938 0.691406 5.664062 -0.00390625 5.65625 -1.015625 C 5.40625 -0.640625 5.109375 -0.359375 4.765625 -0.171875 C 4.421875 0.00390625 3.960938 0.09375 3.390625 0.09375 C 2.597656 0.09375 1.90625 -0.1875 1.3125 -0.75 C 0.71875 -1.3125 0.421875 -2.242188 0.421875 -3.546875 C 0.421875 -4.773438 0.71875 -5.734375 1.3125 -6.421875 C 1.914062 -7.109375 2.640625 -7.453125 3.484375 -7.453125 Z M 5.703125 -3.6875 C 5.703125 -4.59375 5.515625 -5.265625 5.140625 -5.703125 C 4.765625 -6.140625 4.289062 -6.359375 3.71875 -6.359375 C 2.84375 -6.359375 2.25 -5.953125 1.9375 -5.140625 C 1.769531 -4.710938 1.6875 -4.148438 1.6875 -3.453125 C 1.6875 -2.617188 1.851562 -1.988281 2.1875 -1.5625 C 2.519531 -1.132812 2.96875 -0.921875 3.53125 -0.921875 C 4.414062 -0.921875 5.039062 -1.316406 5.40625 -2.109375 C 5.601562 -2.566406 5.703125 -3.09375 5.703125 -3.6875 Z M 3.625 -7.5 Z M 3.625 -7.5 "/>
</g>
<g id="glyph-0-2">
<path d="M 0.9375 -7.328125 L 2.109375 -7.328125 L 2.109375 -6.0625 C 2.203125 -6.300781 2.4375 -6.597656 2.8125 -6.953125 C 3.1875 -7.304688 3.617188 -7.484375 4.109375 -7.484375 C 4.128906 -7.484375 4.164062 -7.476562 4.21875 -7.46875 C 4.269531 -7.46875 4.363281 -7.460938 4.5 -7.453125 L 4.5 -6.15625 C 4.425781 -6.164062 4.359375 -6.171875 4.296875 -6.171875 C 4.234375 -6.179688 4.164062 -6.1875 4.09375 -6.1875 C 3.476562 -6.1875 3.003906 -5.984375 2.671875 -5.578125 C 2.335938 -5.179688 2.171875 -4.726562 2.171875 -4.21875 L 2.171875 0 L 0.9375 0 Z M 0.9375 -7.328125 "/>
</g>
<g id="glyph-0-3">
<path d="M 3.8125 -0.796875 C 4.625 -0.796875 5.179688 -1.101562 5.484375 -1.71875 C 5.785156 -2.332031 5.9375 -3.019531 5.9375 -3.78125 C 5.9375 -4.46875 5.828125 -5.023438 5.609375 -5.453125 C 5.265625 -6.117188 4.671875 -6.453125 3.828125 -6.453125 C 3.066406 -6.453125 2.515625 -6.164062 2.171875 -5.59375 C 1.835938 -5.019531 1.671875 -4.328125 1.671875 -3.515625 C 1.671875 -2.742188 1.835938 -2.097656 2.171875 -1.578125 C 2.515625 -1.054688 3.0625 -0.796875 3.8125 -0.796875 Z M 3.859375 -7.53125 C 4.796875 -7.53125 5.585938 -7.210938 6.234375 -6.578125 C 6.890625 -5.953125 7.21875 -5.03125 7.21875 -3.8125 C 7.21875 -2.632812 6.929688 -1.660156 6.359375 -0.890625 C 5.785156 -0.117188 4.894531 0.265625 3.6875 0.265625 C 2.6875 0.265625 1.890625 -0.0703125 1.296875 -0.75 C 0.703125 -1.4375 0.40625 -2.351562 0.40625 -3.5 C 0.40625 -4.726562 0.71875 -5.707031 1.34375 -6.4375 C 1.96875 -7.164062 2.804688 -7.53125 3.859375 -7.53125 Z M 3.8125 -7.5 Z M 3.8125 -7.5 "/>
</g>
<g id="glyph-0-4">
<path d="M 2.140625 -7.328125 L 2.140625 -2.46875 C 2.140625 -2.09375 2.195312 -1.785156 2.3125 -1.546875 C 2.53125 -1.109375 2.9375 -0.890625 3.53125 -0.890625 C 4.382812 -0.890625 4.96875 -1.269531 5.28125 -2.03125 C 5.445312 -2.445312 5.53125 -3.007812 5.53125 -3.71875 L 5.53125 -7.328125 L 6.765625 -7.328125 L 6.765625 0 L 5.609375 0 L 5.625 -1.078125 C 5.457031 -0.796875 5.257812 -0.5625 5.03125 -0.375 C 4.5625 0.0078125 3.988281 0.203125 3.3125 0.203125 C 2.269531 0.203125 1.5625 -0.144531 1.1875 -0.84375 C 0.976562 -1.21875 0.875 -1.71875 0.875 -2.34375 L 0.875 -7.328125 Z M 3.828125 -7.5 Z M 3.828125 -7.5 "/>
</g>
<g id="glyph-0-5">
<path d="M 4 -0.828125 C 4.570312 -0.828125 5.046875 -1.066406 5.421875 -1.546875 C 5.804688 -2.023438 6 -2.742188 6 -3.703125 C 6 -4.285156 5.914062 -4.785156 5.75 -5.203125 C 5.425781 -6.015625 4.84375 -6.421875 4 -6.421875 C 3.144531 -6.421875 2.5625 -5.992188 2.25 -5.140625 C 2.070312 -4.679688 1.984375 -4.101562 1.984375 -3.40625 C 1.984375 -2.84375 2.070312 -2.363281 2.25 -1.96875 C 2.5625 -1.207031 3.144531 -0.828125 4 -0.828125 Z M 0.8125 -7.28125 L 2 -7.28125 L 2 -6.3125 C 2.25 -6.644531 2.519531 -6.90625 2.8125 -7.09375 C 3.226562 -7.363281 3.710938 -7.5 4.265625 -7.5 C 5.097656 -7.5 5.800781 -7.179688 6.375 -6.546875 C 6.957031 -5.910156 7.25 -5.003906 7.25 -3.828125 C 7.25 -2.222656 6.832031 -1.082031 6 -0.40625 C 5.46875 0.0273438 4.851562 0.25 4.15625 0.25 C 3.601562 0.25 3.140625 0.128906 2.765625 -0.109375 C 2.546875 -0.253906 2.300781 -0.492188 2.03125 -0.828125 L 2.03125 2.921875 L 0.8125 2.921875 Z M 0.8125 -7.28125 "/>
</g>
<g id="glyph-0-6">
<path d="M 1.734375 -10.046875 L 3.625 -1.875 L 5.890625 -10.046875 L 7.375 -10.046875 L 9.640625 -1.875 L 11.53125 -10.046875 L 13.015625 -10.046875 L 10.390625 0 L 8.953125 0 L 6.640625 -8.328125 L 4.3125 0 L 2.875 0 L 0.25 -10.046875 Z M 1.734375 -10.046875 "/>
</g>
<g id="glyph-0-7">
<path d="M 0.90625 -10.078125 L 2.140625 -10.078125 L 2.140625 -6.328125 C 2.429688 -6.703125 2.691406 -6.960938 2.921875 -7.109375 C 3.316406 -7.367188 3.8125 -7.5 4.40625 -7.5 C 5.46875 -7.5 6.1875 -7.128906 6.5625 -6.390625 C 6.769531 -5.984375 6.875 -5.421875 6.875 -4.703125 L 6.875 0 L 5.609375 0 L 5.609375 -4.609375 C 5.609375 -5.148438 5.539062 -5.546875 5.40625 -5.796875 C 5.175781 -6.203125 4.753906 -6.40625 4.140625 -6.40625 C 3.628906 -6.40625 3.164062 -6.226562 2.75 -5.875 C 2.34375 -5.519531 2.140625 -4.859375 2.140625 -3.890625 L 2.140625 0 L 0.90625 0 Z M 0.90625 -10.078125 "/>
</g>
<g id="glyph-0-8">
<path d="M 0.90625 -7.28125 L 2.15625 -7.28125 L 2.15625 0 L 0.90625 0 Z M 0.90625 -10.046875 L 2.15625 -10.046875 L 2.15625 -8.640625 L 0.90625 -8.640625 Z M 0.90625 -10.046875 "/>
</g>
<g id="glyph-0-9">
<path d="M 3.71875 -7.53125 C 4.550781 -7.53125 5.222656 -7.328125 5.734375 -6.921875 C 6.253906 -6.523438 6.566406 -5.835938 6.671875 -4.859375 L 5.46875 -4.859375 C 5.394531 -5.304688 5.226562 -5.679688 4.96875 -5.984375 C 4.71875 -6.285156 4.300781 -6.4375 3.71875 -6.4375 C 2.9375 -6.4375 2.378906 -6.050781 2.046875 -5.28125 C 1.828125 -4.789062 1.71875 -4.179688 1.71875 -3.453125 C 1.71875 -2.710938 1.867188 -2.09375 2.171875 -1.59375 C 2.484375 -1.09375 2.972656 -0.84375 3.640625 -0.84375 C 4.148438 -0.84375 4.554688 -1 4.859375 -1.3125 C 5.160156 -1.625 5.363281 -2.050781 5.46875 -2.59375 L 6.671875 -2.59375 C 6.535156 -1.625 6.191406 -0.910156 5.640625 -0.453125 C 5.097656 -0.00390625 4.398438 0.21875 3.546875 0.21875 C 2.585938 0.21875 1.820312 -0.128906 1.25 -0.828125 C 0.6875 -1.535156 0.40625 -2.410156 0.40625 -3.453125 C 0.40625 -4.742188 0.71875 -5.742188 1.34375 -6.453125 C 1.96875 -7.171875 2.757812 -7.53125 3.71875 -7.53125 Z M 3.53125 -7.5 Z M 3.53125 -7.5 "/>
</g>
<g id="glyph-0-10">
</g>
<g id="glyph-0-11">
<path d="M 0.90625 -7.328125 L 2.078125 -7.328125 L 2.078125 -6.28125 C 2.421875 -6.707031 2.785156 -7.015625 3.171875 -7.203125 C 3.554688 -7.390625 3.988281 -7.484375 4.46875 -7.484375 C 5.5 -7.484375 6.195312 -7.125 6.5625 -6.40625 C 6.769531 -6 6.875 -5.429688 6.875 -4.703125 L 6.875 0 L 5.625 0 L 5.625 -4.609375 C 5.625 -5.054688 5.554688 -5.414062 5.421875 -5.6875 C 5.203125 -6.144531 4.804688 -6.375 4.234375 -6.375 C 3.941406 -6.375 3.703125 -6.347656 3.515625 -6.296875 C 3.179688 -6.191406 2.882812 -5.988281 2.625 -5.6875 C 2.414062 -5.445312 2.28125 -5.195312 2.21875 -4.9375 C 2.164062 -4.675781 2.140625 -4.304688 2.140625 -3.828125 L 2.140625 0 L 0.90625 0 Z M 3.796875 -7.5 Z M 3.796875 -7.5 "/>
</g>
<g id="glyph-0-12">
<path d="M 3.953125 -7.484375 C 4.472656 -7.484375 4.972656 -7.359375 5.453125 -7.109375 C 5.941406 -6.867188 6.316406 -6.554688 6.578125 -6.171875 C 6.828125 -5.804688 6.988281 -5.375 7.0625 -4.875 C 7.132812 -4.539062 7.171875 -4.003906 7.171875 -3.265625 L 1.8125 -3.265625 C 1.832031 -2.523438 2.003906 -1.929688 2.328125 -1.484375 C 2.660156 -1.035156 3.171875 -0.8125 3.859375 -0.8125 C 4.503906 -0.8125 5.019531 -1.019531 5.40625 -1.4375 C 5.625 -1.6875 5.773438 -1.972656 5.859375 -2.296875 L 7.078125 -2.296875 C 7.046875 -2.023438 6.9375 -1.722656 6.75 -1.390625 C 6.570312 -1.066406 6.375 -0.800781 6.15625 -0.59375 C 5.78125 -0.226562 5.316406 0.0195312 4.765625 0.15625 C 4.472656 0.226562 4.140625 0.265625 3.765625 0.265625 C 2.847656 0.265625 2.070312 -0.0664062 1.4375 -0.734375 C 0.8125 -1.398438 0.5 -2.328125 0.5 -3.515625 C 0.5 -4.691406 0.816406 -5.644531 1.453125 -6.375 C 2.085938 -7.113281 2.921875 -7.484375 3.953125 -7.484375 Z M 5.90625 -4.25 C 5.863281 -4.78125 5.75 -5.207031 5.5625 -5.53125 C 5.226562 -6.113281 4.664062 -6.40625 3.875 -6.40625 C 3.3125 -6.40625 2.835938 -6.203125 2.453125 -5.796875 C 2.066406 -5.390625 1.863281 -4.875 1.84375 -4.25 Z M 3.828125 -7.5 Z M 3.828125 -7.5 "/>
</g>
<g id="glyph-0-13">
<path d="M 0.9375 -10.046875 L 2.171875 -10.046875 L 2.171875 0 L 0.9375 0 Z M 0.9375 -10.046875 "/>
</g>
<g id="glyph-0-14">
<path d="M 1.15625 -9.359375 L 2.390625 -9.359375 L 2.390625 -7.328125 L 3.5625 -7.328125 L 3.5625 -6.3125 L 2.390625 -6.3125 L 2.390625 -1.53125 C 2.390625 -1.28125 2.476562 -1.113281 2.65625 -1.03125 C 2.75 -0.976562 2.90625 -0.953125 3.125 -0.953125 C 3.1875 -0.953125 3.25 -0.953125 3.3125 -0.953125 C 3.382812 -0.953125 3.46875 -0.957031 3.5625 -0.96875 L 3.5625 0 C 3.414062 0.0390625 3.265625 0.0664062 3.109375 0.078125 C 2.960938 0.0976562 2.800781 0.109375 2.625 0.109375 C 2.050781 0.109375 1.660156 -0.0351562 1.453125 -0.328125 C 1.253906 -0.617188 1.15625 -1 1.15625 -1.46875 L 1.15625 -6.3125 L 0.15625 -6.3125 L 0.15625 -7.328125 L 1.15625 -7.328125 Z M 1.15625 -9.359375 "/>
</g>
<g id="glyph-0-15">
<path d="M 1.640625 -2.296875 C 1.671875 -1.890625 1.769531 -1.578125 1.9375 -1.359375 C 2.25 -0.960938 2.789062 -0.765625 3.5625 -0.765625 C 4.007812 -0.765625 4.40625 -0.863281 4.75 -1.0625 C 5.101562 -1.257812 5.28125 -1.5625 5.28125 -1.96875 C 5.28125 -2.289062 5.140625 -2.53125 4.859375 -2.6875 C 4.679688 -2.789062 4.332031 -2.910156 3.8125 -3.046875 L 2.828125 -3.28125 C 2.203125 -3.4375 1.742188 -3.613281 1.453125 -3.8125 C 0.921875 -4.144531 0.65625 -4.601562 0.65625 -5.1875 C 0.65625 -5.882812 0.90625 -6.445312 1.40625 -6.875 C 1.90625 -7.300781 2.578125 -7.515625 3.421875 -7.515625 C 4.523438 -7.515625 5.316406 -7.191406 5.796875 -6.546875 C 6.109375 -6.128906 6.257812 -5.6875 6.25 -5.21875 L 5.09375 -5.21875 C 5.0625 -5.5 4.960938 -5.75 4.796875 -5.96875 C 4.515625 -6.289062 4.023438 -6.453125 3.328125 -6.453125 C 2.859375 -6.453125 2.503906 -6.363281 2.265625 -6.1875 C 2.023438 -6.007812 1.90625 -5.773438 1.90625 -5.484375 C 1.90625 -5.171875 2.0625 -4.914062 2.375 -4.71875 C 2.5625 -4.601562 2.832031 -4.503906 3.1875 -4.421875 L 4 -4.21875 C 4.882812 -4.007812 5.476562 -3.804688 5.78125 -3.609375 C 6.257812 -3.285156 6.5 -2.789062 6.5 -2.125 C 6.5 -1.46875 6.25 -0.898438 5.75 -0.421875 C 5.257812 0.0429688 4.507812 0.28125 3.5 0.28125 C 2.40625 0.28125 1.628906 0.0351562 1.171875 -0.453125 C 0.722656 -0.953125 0.484375 -1.566406 0.453125 -2.296875 Z M 3.453125 -7.5 Z M 3.453125 -7.5 "/>
</g>
<g id="glyph-0-16">
<path d="M 5.46875 -7.328125 L 6.84375 -7.328125 C 6.664062 -6.859375 6.28125 -5.785156 5.6875 -4.109375 C 5.238281 -2.847656 4.863281 -1.820312 4.5625 -1.03125 C 3.851562 0.832031 3.351562 1.96875 3.0625 2.375 C 2.769531 2.789062 2.265625 3 1.546875 3 C 1.378906 3 1.25 2.988281 1.15625 2.96875 C 1.0625 2.957031 0.945312 2.9375 0.8125 2.90625 L 0.8125 1.78125 C 1.019531 1.84375 1.171875 1.878906 1.265625 1.890625 C 1.367188 1.910156 1.457031 1.921875 1.53125 1.921875 C 1.75 1.921875 1.910156 1.878906 2.015625 1.796875 C 2.128906 1.722656 2.222656 1.632812 2.296875 1.53125 C 2.316406 1.488281 2.394531 1.296875 2.53125 0.953125 C 2.675781 0.617188 2.78125 0.375 2.84375 0.21875 L 0.140625 -7.328125 L 1.53125 -7.328125 L 3.5 -1.359375 Z M 3.5 -7.5 Z M 3.5 -7.5 "/>
</g>
<g id="glyph-0-17">
<path d="M 1.84375 -1.953125 C 1.84375 -1.597656 1.972656 -1.316406 2.234375 -1.109375 C 2.492188 -0.898438 2.800781 -0.796875 3.15625 -0.796875 C 3.59375 -0.796875 4.015625 -0.894531 4.421875 -1.09375 C 5.097656 -1.425781 5.4375 -1.972656 5.4375 -2.734375 L 5.4375 -3.71875 C 5.289062 -3.625 5.097656 -3.546875 4.859375 -3.484375 C 4.617188 -3.421875 4.382812 -3.375 4.15625 -3.34375 L 3.421875 -3.25 C 2.972656 -3.195312 2.632812 -3.101562 2.40625 -2.96875 C 2.03125 -2.757812 1.84375 -2.421875 1.84375 -1.953125 Z M 4.828125 -4.4375 C 5.109375 -4.46875 5.296875 -4.585938 5.390625 -4.796875 C 5.441406 -4.898438 5.46875 -5.054688 5.46875 -5.265625 C 5.46875 -5.679688 5.316406 -5.984375 5.015625 -6.171875 C 4.722656 -6.359375 4.300781 -6.453125 3.75 -6.453125 C 3.101562 -6.453125 2.644531 -6.28125 2.375 -5.9375 C 2.226562 -5.75 2.128906 -5.46875 2.078125 -5.09375 L 0.9375 -5.09375 C 0.957031 -5.988281 1.25 -6.613281 1.8125 -6.96875 C 2.375 -7.320312 3.03125 -7.5 3.78125 -7.5 C 4.632812 -7.5 5.332031 -7.332031 5.875 -7 C 6.40625 -6.675781 6.671875 -6.164062 6.671875 -5.46875 L 6.671875 -1.265625 C 6.671875 -1.128906 6.695312 -1.019531 6.75 -0.9375 C 6.800781 -0.863281 6.910156 -0.828125 7.078125 -0.828125 C 7.140625 -0.828125 7.203125 -0.832031 7.265625 -0.84375 C 7.335938 -0.851562 7.410156 -0.863281 7.484375 -0.875 L 7.484375 0.03125 C 7.296875 0.0820312 7.148438 0.113281 7.046875 0.125 C 6.941406 0.144531 6.804688 0.15625 6.640625 0.15625 C 6.210938 0.15625 5.90625 0.00390625 5.71875 -0.296875 C 5.613281 -0.453125 5.539062 -0.675781 5.5 -0.96875 C 5.25 -0.644531 4.890625 -0.359375 4.421875 -0.109375 C 3.953125 0.128906 3.4375 0.25 2.875 0.25 C 2.195312 0.25 1.640625 0.0429688 1.203125 -0.359375 C 0.773438 -0.773438 0.5625 -1.296875 0.5625 -1.921875 C 0.5625 -2.597656 0.769531 -3.125 1.1875 -3.5 C 1.613281 -3.875 2.171875 -4.101562 2.859375 -4.1875 Z M 3.8125 -7.5 Z M 3.8125 -7.5 "/>
</g>
<g id="glyph-0-18">
<path d="M 0.875 -10.046875 L 2.0625 -10.046875 L 2.0625 -4.21875 L 5.21875 -7.328125 L 6.78125 -7.328125 L 3.984375 -4.578125 L 6.953125 0 L 5.375 0 L 3.09375 -3.6875 L 2.0625 -2.75 L 2.0625 0 L 0.875 0 Z M 0.875 -10.046875 "/>
</g>
<g id="glyph-0-19">
<path d="M 3.375 -1.421875 L 4.734375 -1.421875 L 4.734375 0 L 3.375 0 Z M 1.0625 -6.890625 C 1.0625 -7.878906 1.335938 -8.671875 1.890625 -9.265625 C 2.453125 -9.867188 3.21875 -10.171875 4.1875 -10.171875 C 5.082031 -10.171875 5.800781 -9.914062 6.34375 -9.40625 C 6.882812 -8.894531 7.15625 -8.238281 7.15625 -7.4375 C 7.15625 -6.957031 7.054688 -6.566406 6.859375 -6.265625 C 6.660156 -5.960938 6.257812 -5.519531 5.65625 -4.9375 C 5.21875 -4.507812 4.929688 -4.148438 4.796875 -3.859375 C 4.671875 -3.566406 4.609375 -3.132812 4.609375 -2.5625 L 3.390625 -2.5625 C 3.390625 -3.207031 3.46875 -3.726562 3.625 -4.125 C 3.78125 -4.53125 4.125 -4.988281 4.65625 -5.5 L 5.203125 -6.046875 C 5.359375 -6.203125 5.488281 -6.363281 5.59375 -6.53125 C 5.769531 -6.820312 5.859375 -7.128906 5.859375 -7.453125 C 5.859375 -7.898438 5.722656 -8.285156 5.453125 -8.609375 C 5.191406 -8.941406 4.753906 -9.109375 4.140625 -9.109375 C 3.378906 -9.109375 2.851562 -8.828125 2.5625 -8.265625 C 2.394531 -7.941406 2.300781 -7.484375 2.28125 -6.890625 Z M 1.0625 -6.890625 "/>
</g>
<g id="glyph-1-0">
<path d="M 0.359375 0 L 0.359375 -8.03125 L 6.734375 -8.03125 L 6.734375 0 Z M 5.734375 -1 L 5.734375 -7.03125 L 1.375 -7.03125 L 1.375 -1 Z M 5.734375 -1 "/>
</g>
<g id="glyph-1-1">
<path d="M 4.984375 -3.296875 L 3.765625 -6.84375 L 2.46875 -3.296875 Z M 3.1875 -8.03125 L 4.421875 -8.03125 L 7.328125 0 L 6.140625 0 L 5.328125 -2.40625 L 2.15625 -2.40625 L 1.28125 0 L 0.171875 0 Z M 3.1875 -8.03125 "/>
</g>
<g id="glyph-1-2">
<path d="M 3.875 -4.640625 C 4.332031 -4.640625 4.6875 -4.703125 4.9375 -4.828125 C 5.34375 -5.023438 5.546875 -5.382812 5.546875 -5.90625 C 5.546875 -6.4375 5.332031 -6.789062 4.90625 -6.96875 C 4.664062 -7.070312 4.304688 -7.125 3.828125 -7.125 L 1.890625 -7.125 L 1.890625 -4.640625 Z M 4.234375 -0.9375 C 4.898438 -0.9375 5.378906 -1.128906 5.671875 -1.515625 C 5.847656 -1.753906 5.9375 -2.046875 5.9375 -2.390625 C 5.9375 -2.972656 5.675781 -3.375 5.15625 -3.59375 C 4.875 -3.707031 4.503906 -3.765625 4.046875 -3.765625 L 1.890625 -3.765625 L 1.890625 -0.9375 Z M 0.828125 -8.03125 L 4.28125 -8.03125 C 5.21875 -8.03125 5.882812 -7.75 6.28125 -7.1875 C 6.519531 -6.863281 6.640625 -6.484375 6.640625 -6.046875 C 6.640625 -5.535156 6.492188 -5.117188 6.203125 -4.796875 C 6.054688 -4.628906 5.84375 -4.472656 5.5625 -4.328125 C 5.96875 -4.171875 6.273438 -3.992188 6.484375 -3.796875 C 6.847656 -3.441406 7.03125 -2.957031 7.03125 -2.34375 C 7.03125 -1.820312 6.863281 -1.351562 6.53125 -0.9375 C 6.050781 -0.3125 5.28125 0 4.21875 0 L 0.828125 0 Z M 0.828125 -8.03125 "/>
</g>
<g id="glyph-1-3">
<path d="M 4.234375 -8.25 C 5.253906 -8.25 6.046875 -7.976562 6.609375 -7.4375 C 7.171875 -6.90625 7.484375 -6.300781 7.546875 -5.625 L 6.484375 -5.625 C 6.359375 -6.144531 6.113281 -6.554688 5.75 -6.859375 C 5.394531 -7.160156 4.894531 -7.3125 4.25 -7.3125 C 3.457031 -7.3125 2.816406 -7.03125 2.328125 -6.46875 C 1.847656 -5.914062 1.609375 -5.066406 1.609375 -3.921875 C 1.609375 -2.972656 1.828125 -2.207031 2.265625 -1.625 C 2.703125 -1.039062 3.359375 -0.75 4.234375 -0.75 C 5.035156 -0.75 5.644531 -1.054688 6.0625 -1.671875 C 6.28125 -1.992188 6.445312 -2.421875 6.5625 -2.953125 L 7.625 -2.953125 C 7.53125 -2.109375 7.210938 -1.398438 6.671875 -0.828125 C 6.035156 -0.140625 5.175781 0.203125 4.09375 0.203125 C 3.164062 0.203125 2.382812 -0.078125 1.75 -0.640625 C 0.914062 -1.390625 0.5 -2.546875 0.5 -4.109375 C 0.5 -5.285156 0.8125 -6.253906 1.4375 -7.015625 C 2.113281 -7.835938 3.046875 -8.25 4.234375 -8.25 Z M 4.015625 -8.25 Z M 4.015625 -8.25 "/>
</g>
<g id="glyph-1-4">
<path d="M 3.9375 -0.9375 C 4.300781 -0.9375 4.601562 -0.972656 4.84375 -1.046875 C 5.269531 -1.191406 5.617188 -1.460938 5.890625 -1.859375 C 6.097656 -2.191406 6.25 -2.609375 6.34375 -3.109375 C 6.40625 -3.410156 6.4375 -3.691406 6.4375 -3.953125 C 6.4375 -4.953125 6.238281 -5.722656 5.84375 -6.265625 C 5.445312 -6.816406 4.804688 -7.09375 3.921875 -7.09375 L 2 -7.09375 L 2 -0.9375 Z M 0.90625 -8.03125 L 4.15625 -8.03125 C 5.257812 -8.03125 6.117188 -7.640625 6.734375 -6.859375 C 7.273438 -6.148438 7.546875 -5.242188 7.546875 -4.140625 C 7.546875 -3.285156 7.382812 -2.515625 7.0625 -1.828125 C 6.5 -0.609375 5.523438 0 4.140625 0 L 0.90625 0 Z M 0.90625 -8.03125 "/>
</g>
<g id="glyph-1-5">
<path d="M 0.953125 -8.03125 L 6.8125 -8.03125 L 6.8125 -7.046875 L 2.015625 -7.046875 L 2.015625 -4.609375 L 6.453125 -4.609375 L 6.453125 -3.6875 L 2.015625 -3.6875 L 2.015625 -0.953125 L 6.890625 -0.953125 L 6.890625 0 L 0.953125 0 Z M 3.921875 -8.03125 Z M 3.921875 -8.03125 "/>
</g>
<g id="glyph-1-6">
<path d="M 0.953125 -8.03125 L 6.53125 -8.03125 L 6.53125 -7.046875 L 2.046875 -7.046875 L 2.046875 -4.609375 L 5.984375 -4.609375 L 5.984375 -3.65625 L 2.046875 -3.65625 L 2.046875 0 L 0.953125 0 Z M 0.953125 -8.03125 "/>
</g>
<g id="glyph-1-7">
<path d="M 3.03125 -7.828125 C 4.039062 -7.828125 4.773438 -7.410156 5.234375 -6.578125 C 5.578125 -5.929688 5.75 -5.046875 5.75 -3.921875 C 5.75 -2.859375 5.59375 -1.976562 5.28125 -1.28125 C 4.820312 -0.28125 4.070312 0.21875 3.03125 0.21875 C 2.082031 0.21875 1.378906 -0.191406 0.921875 -1.015625 C 0.535156 -1.691406 0.34375 -2.609375 0.34375 -3.765625 C 0.34375 -4.648438 0.457031 -5.410156 0.6875 -6.046875 C 1.125 -7.234375 1.90625 -7.828125 3.03125 -7.828125 Z M 3.015625 -0.6875 C 3.523438 -0.6875 3.929688 -0.910156 4.234375 -1.359375 C 4.535156 -1.816406 4.6875 -2.660156 4.6875 -3.890625 C 4.6875 -4.773438 4.578125 -5.503906 4.359375 -6.078125 C 4.140625 -6.660156 3.71875 -6.953125 3.09375 -6.953125 C 2.507812 -6.953125 2.082031 -6.675781 1.8125 -6.125 C 1.550781 -5.582031 1.421875 -4.78125 1.421875 -3.71875 C 1.421875 -2.914062 1.503906 -2.273438 1.671875 -1.796875 C 1.929688 -1.054688 2.378906 -0.6875 3.015625 -0.6875 Z M 3.015625 -0.6875 "/>
</g>
<g id="glyph-1-8">
<path d="M 1.390625 -2 C 1.453125 -1.4375 1.710938 -1.046875 2.171875 -0.828125 C 2.398438 -0.722656 2.664062 -0.671875 2.96875 -0.671875 C 3.550781 -0.671875 3.984375 -0.851562 4.265625 -1.21875 C 4.546875 -1.59375 4.6875 -2.007812 4.6875 -2.46875 C 4.6875 -3.007812 4.519531 -3.425781 4.1875 -3.71875 C 3.851562 -4.019531 3.457031 -4.171875 3 -4.171875 C 2.65625 -4.171875 2.359375 -4.101562 2.109375 -3.96875 C 1.867188 -3.84375 1.664062 -3.664062 1.5 -3.4375 L 0.640625 -3.484375 L 1.234375 -7.703125 L 5.3125 -7.703125 L 5.3125 -6.75 L 1.984375 -6.75 L 1.640625 -4.578125 C 1.828125 -4.710938 2.003906 -4.816406 2.171875 -4.890625 C 2.460938 -5.003906 2.796875 -5.0625 3.171875 -5.0625 C 3.890625 -5.0625 4.5 -4.828125 5 -4.359375 C 5.5 -3.898438 5.75 -3.316406 5.75 -2.609375 C 5.75 -1.867188 5.519531 -1.210938 5.0625 -0.640625 C 4.601562 -0.078125 3.875 0.203125 2.875 0.203125 C 2.238281 0.203125 1.675781 0.0234375 1.1875 -0.328125 C 0.695312 -0.691406 0.421875 -1.25 0.359375 -2 Z M 1.390625 -2 "/>
</g>
<g id="glyph-1-9">
<path d="M 1.078125 -5.546875 L 1.078125 -6.296875 C 1.785156 -6.367188 2.28125 -6.484375 2.5625 -6.640625 C 2.84375 -6.804688 3.050781 -7.191406 3.1875 -7.796875 L 3.96875 -7.796875 L 3.96875 0 L 2.921875 0 L 2.921875 -5.546875 Z M 1.078125 -5.546875 "/>
</g>
<g id="glyph-1-10">
<path d="M 0.34375 0 C 0.382812 -0.675781 0.523438 -1.265625 0.765625 -1.765625 C 1.003906 -2.265625 1.476562 -2.71875 2.1875 -3.125 L 3.234375 -3.734375 C 3.703125 -4.003906 4.035156 -4.238281 4.234375 -4.4375 C 4.523438 -4.738281 4.671875 -5.082031 4.671875 -5.46875 C 4.671875 -5.925781 4.535156 -6.285156 4.265625 -6.546875 C 3.992188 -6.816406 3.628906 -6.953125 3.171875 -6.953125 C 2.492188 -6.953125 2.023438 -6.695312 1.765625 -6.1875 C 1.628906 -5.914062 1.554688 -5.535156 1.546875 -5.046875 L 0.546875 -5.046875 C 0.554688 -5.734375 0.679688 -6.289062 0.921875 -6.71875 C 1.347656 -7.476562 2.097656 -7.859375 3.171875 -7.859375 C 4.078125 -7.859375 4.734375 -7.613281 5.140625 -7.125 C 5.554688 -6.644531 5.765625 -6.109375 5.765625 -5.515625 C 5.765625 -4.890625 5.546875 -4.351562 5.109375 -3.90625 C 4.847656 -3.644531 4.390625 -3.332031 3.734375 -2.96875 L 2.984375 -2.546875 C 2.617188 -2.347656 2.335938 -2.160156 2.140625 -1.984375 C 1.773438 -1.671875 1.546875 -1.320312 1.453125 -0.9375 L 5.734375 -0.9375 L 5.734375 0 Z M 0.34375 0 "/>
</g>
<g id="glyph-2-0">
<path d="M 1.265625 -12.09375 L 11 -12.09375 L 11 0 L 1.265625 0 Z M 9.484375 -1.515625 L 9.484375 -10.578125 L 2.765625 -10.578125 L 2.765625 -1.515625 Z M 9.484375 -1.515625 "/>
</g>
<g id="glyph-2-1">
<path d="M 6.40625 -4.34375 L 3.84375 -4.34375 L 3.84375 0 L 1.34375 0 L 1.34375 -12.09375 L 6.609375 -12.09375 C 7.816406 -12.09375 8.78125 -11.78125 9.5 -11.15625 C 10.226562 -10.53125 10.59375 -9.566406 10.59375 -8.265625 C 10.59375 -6.835938 10.226562 -5.828125 9.5 -5.234375 C 8.78125 -4.640625 7.75 -4.34375 6.40625 -4.34375 Z M 7.59375 -6.859375 C 7.925781 -7.148438 8.09375 -7.613281 8.09375 -8.25 C 8.09375 -8.875 7.925781 -9.316406 7.59375 -9.578125 C 7.257812 -9.847656 6.796875 -9.984375 6.203125 -9.984375 L 3.84375 -9.984375 L 3.84375 -6.4375 L 6.203125 -6.4375 C 6.796875 -6.4375 7.257812 -6.578125 7.59375 -6.859375 Z M 7.59375 -6.859375 "/>
</g>
<g id="glyph-2-2">
<path d="M 3.5 -8.9375 L 3.5 0 L 1.125 0 L 1.125 -8.9375 Z M 3.5 -12.15625 L 3.5 -10 L 1.125 -10 L 1.125 -12.15625 Z M 3.5 -12.15625 "/>
</g>
<g id="glyph-2-3">
<path d="M 8.75 -2.625 C 8.6875 -2.09375 8.410156 -1.554688 7.921875 -1.015625 C 7.148438 -0.140625 6.078125 0.296875 4.703125 0.296875 C 3.566406 0.296875 2.5625 -0.0664062 1.6875 -0.796875 C 0.820312 -1.535156 0.390625 -2.726562 0.390625 -4.375 C 0.390625 -5.925781 0.78125 -7.113281 1.5625 -7.9375 C 2.34375 -8.757812 3.363281 -9.171875 4.625 -9.171875 C 5.363281 -9.171875 6.03125 -9.03125 6.625 -8.75 C 7.21875 -8.476562 7.710938 -8.039062 8.109375 -7.4375 C 8.453125 -6.90625 8.675781 -6.289062 8.78125 -5.59375 C 8.84375 -5.1875 8.867188 -4.597656 8.859375 -3.828125 L 2.734375 -3.828125 C 2.765625 -2.929688 3.046875 -2.300781 3.578125 -1.9375 C 3.898438 -1.707031 4.289062 -1.59375 4.75 -1.59375 C 5.226562 -1.59375 5.617188 -1.734375 5.921875 -2.015625 C 6.085938 -2.160156 6.234375 -2.363281 6.359375 -2.625 Z M 6.4375 -5.359375 C 6.394531 -5.984375 6.203125 -6.453125 5.859375 -6.765625 C 5.523438 -7.085938 5.113281 -7.25 4.625 -7.25 C 4.082031 -7.25 3.660156 -7.078125 3.359375 -6.734375 C 3.054688 -6.398438 2.867188 -5.941406 2.796875 -5.359375 Z M 6.4375 -5.359375 "/>
</g>
<g id="glyph-2-4">
</g>
<g id="glyph-2-5">
<path d="M 8.828125 -5.734375 L 6.4375 -5.734375 C 6.382812 -6.066406 6.269531 -6.367188 6.09375 -6.640625 C 5.832031 -6.992188 5.425781 -7.171875 4.875 -7.171875 C 4.082031 -7.171875 3.539062 -6.78125 3.25 -6 C 3.101562 -5.582031 3.03125 -5.03125 3.03125 -4.34375 C 3.03125 -3.6875 3.101562 -3.160156 3.25 -2.765625 C 3.53125 -2.023438 4.054688 -1.65625 4.828125 -1.65625 C 5.378906 -1.65625 5.769531 -1.800781 6 -2.09375 C 6.226562 -2.382812 6.363281 -2.765625 6.40625 -3.234375 L 8.796875 -3.234375 C 8.742188 -2.523438 8.488281 -1.851562 8.03125 -1.21875 C 7.300781 -0.195312 6.210938 0.3125 4.765625 0.3125 C 3.328125 0.3125 2.269531 -0.113281 1.59375 -0.96875 C 0.914062 -1.820312 0.578125 -2.929688 0.578125 -4.296875 C 0.578125 -5.828125 0.953125 -7.019531 1.703125 -7.875 C 2.453125 -8.726562 3.488281 -9.15625 4.8125 -9.15625 C 5.925781 -9.15625 6.835938 -8.898438 7.546875 -8.390625 C 8.265625 -7.890625 8.691406 -7.003906 8.828125 -5.734375 Z M 8.828125 -5.734375 "/>
</g>
<g id="glyph-2-6">
<path d="M 9.171875 -5.25 L 9.171875 0 L 6.78125 0 L 6.78125 -5.4375 C 6.78125 -5.914062 6.695312 -6.304688 6.53125 -6.609375 C 6.320312 -7.015625 5.921875 -7.21875 5.328125 -7.21875 C 4.703125 -7.21875 4.226562 -7.007812 3.90625 -6.59375 C 3.59375 -6.1875 3.4375 -5.601562 3.4375 -4.84375 L 3.4375 0 L 1.109375 0 L 1.109375 -12.046875 L 3.4375 -12.046875 L 3.4375 -7.78125 C 3.769531 -8.289062 4.160156 -8.648438 4.609375 -8.859375 C 5.054688 -9.066406 5.523438 -9.171875 6.015625 -9.171875 C 6.566406 -9.171875 7.066406 -9.070312 7.515625 -8.875 C 7.972656 -8.6875 8.347656 -8.394531 8.640625 -8 C 8.878906 -7.664062 9.023438 -7.320312 9.078125 -6.96875 C 9.140625 -6.625 9.171875 -6.050781 9.171875 -5.25 Z M 9.171875 -5.25 "/>
</g>
<g id="glyph-2-7">
<path d="M 1.421875 -7.96875 C 2.046875 -8.757812 3.109375 -9.15625 4.609375 -9.15625 C 5.585938 -9.15625 6.457031 -8.960938 7.21875 -8.578125 C 7.976562 -8.179688 8.359375 -7.445312 8.359375 -6.375 L 8.359375 -2.265625 C 8.359375 -1.984375 8.363281 -1.640625 8.375 -1.234375 C 8.394531 -0.929688 8.441406 -0.722656 8.515625 -0.609375 C 8.585938 -0.503906 8.703125 -0.414062 8.859375 -0.34375 L 8.859375 0 L 6.3125 0 C 6.238281 -0.175781 6.1875 -0.34375 6.15625 -0.5 C 6.132812 -0.664062 6.117188 -0.847656 6.109375 -1.046875 C 5.785156 -0.703125 5.410156 -0.40625 4.984375 -0.15625 C 4.484375 0.132812 3.914062 0.28125 3.28125 0.28125 C 2.46875 0.28125 1.796875 0.0507812 1.265625 -0.40625 C 0.742188 -0.875 0.484375 -1.53125 0.484375 -2.375 C 0.484375 -3.476562 0.90625 -4.273438 1.75 -4.765625 C 2.21875 -5.035156 2.90625 -5.226562 3.8125 -5.34375 L 4.59375 -5.4375 C 5.03125 -5.488281 5.34375 -5.554688 5.53125 -5.640625 C 5.863281 -5.785156 6.03125 -6.007812 6.03125 -6.3125 C 6.03125 -6.675781 5.898438 -6.925781 5.640625 -7.0625 C 5.390625 -7.207031 5.019531 -7.28125 4.53125 -7.28125 C 3.976562 -7.28125 3.585938 -7.140625 3.359375 -6.859375 C 3.191406 -6.660156 3.082031 -6.390625 3.03125 -6.046875 L 0.765625 -6.046875 C 0.816406 -6.828125 1.035156 -7.46875 1.421875 -7.96875 Z M 3.171875 -1.6875 C 3.390625 -1.507812 3.65625 -1.421875 3.96875 -1.421875 C 4.46875 -1.421875 4.929688 -1.566406 5.359375 -1.859375 C 5.785156 -2.148438 6.003906 -2.691406 6.015625 -3.484375 L 6.015625 -4.34375 C 5.867188 -4.25 5.71875 -4.171875 5.5625 -4.109375 C 5.414062 -4.054688 5.210938 -4.007812 4.953125 -3.96875 L 4.421875 -3.859375 C 3.929688 -3.773438 3.582031 -3.671875 3.375 -3.546875 C 3.007812 -3.328125 2.828125 -2.992188 2.828125 -2.546875 C 2.828125 -2.148438 2.941406 -1.863281 3.171875 -1.6875 Z M 3.171875 -1.6875 "/>
</g>
<g id="glyph-2-8">
<path d="M 5.578125 -6.78125 C 4.640625 -6.78125 4.007812 -6.472656 3.6875 -5.859375 C 3.507812 -5.515625 3.421875 -4.984375 3.421875 -4.265625 L 3.421875 0 L 1.0625 0 L 1.0625 -8.9375 L 3.296875 -8.9375 L 3.296875 -7.375 C 3.660156 -7.976562 3.972656 -8.390625 4.234375 -8.609375 C 4.671875 -8.972656 5.242188 -9.15625 5.953125 -9.15625 C 5.992188 -9.15625 6.03125 -9.148438 6.0625 -9.140625 C 6.09375 -9.140625 6.160156 -9.140625 6.265625 -9.140625 L 6.265625 -6.734375 C 6.109375 -6.753906 5.972656 -6.765625 5.859375 -6.765625 C 5.742188 -6.773438 5.648438 -6.78125 5.578125 -6.78125 Z M 5.578125 -6.78125 "/>
</g>
<g id="glyph-2-9">
<path d="M 5.1875 -1.671875 L 5.1875 0.078125 L 4.078125 0.125 C 2.972656 0.164062 2.21875 -0.0234375 1.8125 -0.453125 C 1.550781 -0.722656 1.421875 -1.132812 1.421875 -1.6875 L 1.421875 -7.1875 L 0.171875 -7.1875 L 0.171875 -8.859375 L 1.421875 -8.859375 L 1.421875 -11.34375 L 3.734375 -11.34375 L 3.734375 -8.859375 L 5.1875 -8.859375 L 5.1875 -7.1875 L 3.734375 -7.1875 L 3.734375 -2.46875 C 3.734375 -2.101562 3.78125 -1.875 3.875 -1.78125 C 3.96875 -1.695312 4.25 -1.65625 4.71875 -1.65625 C 4.789062 -1.65625 4.863281 -1.65625 4.9375 -1.65625 C 5.019531 -1.65625 5.101562 -1.660156 5.1875 -1.671875 Z M 5.1875 -1.671875 "/>
</g>
<g id="glyph-3-0">
<path d="M 1.046875 -10.078125 L 9.171875 -10.078125 L 9.171875 0 L 1.046875 0 Z M 7.90625 -1.265625 L 7.90625 -8.8125 L 2.3125 -8.8125 L 2.3125 -1.265625 Z M 7.90625 -1.265625 "/>
</g>
<g id="glyph-3-1">
<path d="M 4.875 -7.890625 C 4.632812 -8.171875 4.300781 -8.3125 3.875 -8.3125 C 3.28125 -8.3125 2.875 -8.09375 2.65625 -7.65625 C 2.53125 -7.394531 2.457031 -6.988281 2.4375 -6.4375 L 0.546875 -6.4375 C 0.578125 -7.28125 0.726562 -7.960938 1 -8.484375 C 1.519531 -9.460938 2.445312 -9.953125 3.78125 -9.953125 C 4.820312 -9.953125 5.648438 -9.660156 6.265625 -9.078125 C 6.890625 -8.503906 7.203125 -7.738281 7.203125 -6.78125 C 7.203125 -6.050781 6.984375 -5.398438 6.546875 -4.828125 C 6.265625 -4.453125 5.796875 -4.03125 5.140625 -3.5625 L 4.359375 -3.015625 C 3.867188 -2.660156 3.53125 -2.40625 3.34375 -2.25 C 3.164062 -2.101562 3.019531 -1.925781 2.90625 -1.71875 L 7.21875 -1.71875 L 7.21875 0 L 0.4375 0 C 0.457031 -0.707031 0.609375 -1.359375 0.890625 -1.953125 C 1.171875 -2.609375 1.828125 -3.304688 2.859375 -4.046875 C 3.765625 -4.691406 4.347656 -5.148438 4.609375 -5.421875 C 5.015625 -5.859375 5.21875 -6.332031 5.21875 -6.84375 C 5.21875 -7.269531 5.101562 -7.617188 4.875 -7.890625 Z M 4.875 -7.890625 "/>
</g>
<g id="glyph-3-2">
<path d="M 5.296875 0 L 3.296875 0 L 3.296875 -6.84375 L 0.96875 -6.84375 L 0.96875 -8.15625 C 1.582031 -8.1875 2.015625 -8.226562 2.265625 -8.28125 C 2.648438 -8.375 2.96875 -8.550781 3.21875 -8.8125 C 3.382812 -8.988281 3.515625 -9.222656 3.609375 -9.515625 C 3.648438 -9.691406 3.671875 -9.820312 3.671875 -9.90625 L 5.296875 -9.90625 Z M 5.296875 0 "/>
</g>
<g id="glyph-3-3">
<path d="M 1.21875 -0.625 C 0.65625 -1.207031 0.375 -1.914062 0.375 -2.75 C 0.375 -3.300781 0.5 -3.800781 0.75 -4.25 C 1 -4.707031 1.367188 -5.050781 1.859375 -5.28125 C 1.378906 -5.59375 1.066406 -5.9375 0.921875 -6.3125 C 0.785156 -6.6875 0.71875 -7.035156 0.71875 -7.359375 C 0.71875 -8.078125 0.988281 -8.6875 1.53125 -9.1875 C 2.070312 -9.695312 2.835938 -9.953125 3.828125 -9.953125 C 4.816406 -9.953125 5.582031 -9.695312 6.125 -9.1875 C 6.664062 -8.6875 6.9375 -8.078125 6.9375 -7.359375 C 6.9375 -7.035156 6.863281 -6.6875 6.71875 -6.3125 C 6.570312 -5.9375 6.257812 -5.613281 5.78125 -5.34375 C 6.269531 -5.070312 6.632812 -4.707031 6.875 -4.25 C 7.125 -3.800781 7.25 -3.300781 7.25 -2.75 C 7.25 -1.914062 6.941406 -1.203125 6.328125 -0.609375 C 5.710938 -0.0234375 4.847656 0.265625 3.734375 0.265625 C 2.628906 0.265625 1.789062 -0.03125 1.21875 -0.625 Z M 2.390625 -2.875 C 2.390625 -2.382812 2.515625 -2.003906 2.765625 -1.734375 C 3.023438 -1.472656 3.378906 -1.34375 3.828125 -1.34375 C 4.265625 -1.34375 4.609375 -1.472656 4.859375 -1.734375 C 5.117188 -2.003906 5.25 -2.382812 5.25 -2.875 C 5.25 -3.382812 5.117188 -3.769531 4.859375 -4.03125 C 4.609375 -4.289062 4.265625 -4.421875 3.828125 -4.421875 C 3.390625 -4.421875 3.039062 -4.289062 2.78125 -4.03125 C 2.519531 -3.769531 2.390625 -3.382812 2.390625 -2.875 Z M 2.90625 -6.25 C 3.125 -6.019531 3.429688 -5.90625 3.828125 -5.90625 C 4.222656 -5.90625 4.523438 -6.019531 4.734375 -6.25 C 4.953125 -6.476562 5.0625 -6.773438 5.0625 -7.140625 C 5.0625 -7.523438 4.953125 -7.828125 4.734375 -8.046875 C 4.523438 -8.273438 4.222656 -8.390625 3.828125 -8.390625 C 3.429688 -8.390625 3.125 -8.273438 2.90625 -8.046875 C 2.6875 -7.828125 2.578125 -7.523438 2.578125 -7.140625 C 2.578125 -6.773438 2.6875 -6.476562 2.90625 -6.25 Z M 2.90625 -6.25 "/>
</g>
<g id="glyph-3-4">
<path d="M 6.171875 -6.734375 C 5.648438 -5.992188 5.210938 -5.226562 4.859375 -4.4375 C 4.578125 -3.820312 4.328125 -3.070312 4.109375 -2.1875 C 3.890625 -1.300781 3.78125 -0.570312 3.78125 0 L 1.75 0 C 1.8125 -1.78125 2.394531 -3.628906 3.5 -5.546875 C 4.21875 -6.734375 4.816406 -7.5625 5.296875 -8.03125 L 0.359375 -8.03125 L 0.390625 -9.78125 L 7.390625 -9.78125 L 7.390625 -8.265625 C 7.097656 -7.972656 6.691406 -7.460938 6.171875 -6.734375 Z M 6.171875 -6.734375 "/>
</g>
<g id="glyph-3-5">
<path d="M 4.28125 -6.4375 C 5.15625 -6.4375 5.875 -6.132812 6.4375 -5.53125 C 7 -4.9375 7.28125 -4.175781 7.28125 -3.25 C 7.28125 -2.320312 7.003906 -1.503906 6.453125 -0.796875 C 5.910156 -0.0859375 5.054688 0.265625 3.890625 0.265625 C 2.640625 0.265625 1.71875 -0.257812 1.125 -1.3125 C 0.664062 -2.125 0.4375 -3.175781 0.4375 -4.46875 C 0.4375 -5.21875 0.46875 -5.832031 0.53125 -6.3125 C 0.644531 -7.15625 0.867188 -7.859375 1.203125 -8.421875 C 1.484375 -8.898438 1.851562 -9.285156 2.3125 -9.578125 C 2.769531 -9.867188 3.316406 -10.015625 3.953125 -10.015625 C 4.867188 -10.015625 5.597656 -9.773438 6.140625 -9.296875 C 6.691406 -8.828125 7.003906 -8.203125 7.078125 -7.421875 L 5.140625 -7.421875 C 5.140625 -7.578125 5.078125 -7.75 4.953125 -7.9375 C 4.742188 -8.25 4.425781 -8.40625 4 -8.40625 C 3.363281 -8.40625 2.910156 -8.050781 2.640625 -7.34375 C 2.492188 -6.945312 2.394531 -6.367188 2.34375 -5.609375 C 2.582031 -5.890625 2.863281 -6.097656 3.1875 -6.234375 C 3.507812 -6.367188 3.875 -6.4375 4.28125 -6.4375 Z M 2.96875 -4.578125 C 2.582031 -4.273438 2.390625 -3.796875 2.390625 -3.140625 C 2.390625 -2.609375 2.53125 -2.171875 2.8125 -1.828125 C 3.101562 -1.492188 3.472656 -1.328125 3.921875 -1.328125 C 4.347656 -1.328125 4.6875 -1.488281 4.9375 -1.8125 C 5.1875 -2.132812 5.3125 -2.554688 5.3125 -3.078125 C 5.3125 -3.660156 5.171875 -4.101562 4.890625 -4.40625 C 4.609375 -4.71875 4.257812 -4.875 3.84375 -4.875 C 3.507812 -4.875 3.21875 -4.773438 2.96875 -4.578125 Z M 2.96875 -4.578125 "/>
</g>
<g id="glyph-3-6">
<path d="M 7.328125 -3.65625 L 7.328125 -2.140625 L 6.203125 -2.140625 L 6.203125 0 L 4.296875 0 L 4.296875 -2.140625 L 0.375 -2.140625 L 0.375 -3.828125 L 4.015625 -9.84375 L 6.203125 -9.84375 L 6.203125 -3.65625 Z M 1.8125 -3.65625 L 4.296875 -3.65625 L 4.296875 -7.9375 Z M 1.8125 -3.65625 "/>
</g>
<g id="glyph-3-7">
<path d="M 2.6875 -7.9375 C 2.46875 -7.644531 2.359375 -7.253906 2.359375 -6.765625 L 0.546875 -6.765625 C 0.566406 -7.253906 0.648438 -7.722656 0.796875 -8.171875 C 0.960938 -8.554688 1.210938 -8.914062 1.546875 -9.25 C 1.804688 -9.476562 2.109375 -9.648438 2.453125 -9.765625 C 2.804688 -9.890625 3.238281 -9.953125 3.75 -9.953125 C 4.695312 -9.953125 5.460938 -9.707031 6.046875 -9.21875 C 6.628906 -8.726562 6.921875 -8.070312 6.921875 -7.25 C 6.921875 -6.664062 6.75 -6.175781 6.40625 -5.78125 C 6.1875 -5.53125 5.957031 -5.359375 5.71875 -5.265625 C 5.894531 -5.265625 6.148438 -5.113281 6.484375 -4.8125 C 6.972656 -4.34375 7.21875 -3.710938 7.21875 -2.921875 C 7.21875 -2.078125 6.925781 -1.335938 6.34375 -0.703125 C 5.769531 -0.0664062 4.914062 0.25 3.78125 0.25 C 2.375 0.25 1.394531 -0.207031 0.84375 -1.125 C 0.5625 -1.613281 0.40625 -2.253906 0.375 -3.046875 L 2.28125 -3.046875 C 2.28125 -2.648438 2.34375 -2.320312 2.46875 -2.0625 C 2.707031 -1.582031 3.140625 -1.34375 3.765625 -1.34375 C 4.148438 -1.34375 4.484375 -1.472656 4.765625 -1.734375 C 5.054688 -1.992188 5.203125 -2.367188 5.203125 -2.859375 C 5.203125 -3.515625 4.9375 -3.953125 4.40625 -4.171875 C 4.101562 -4.296875 3.628906 -4.359375 2.984375 -4.359375 L 2.984375 -5.75 C 3.617188 -5.757812 4.0625 -5.820312 4.3125 -5.9375 C 4.738281 -6.125 4.953125 -6.507812 4.953125 -7.09375 C 4.953125 -7.46875 4.84375 -7.773438 4.625 -8.015625 C 4.40625 -8.253906 4.09375 -8.375 3.6875 -8.375 C 3.226562 -8.375 2.894531 -8.226562 2.6875 -7.9375 Z M 2.6875 -7.9375 "/>
</g>
<g id="glyph-4-0">
<path d="M 1.359375 -12.953125 L 11.78125 -12.953125 L 11.78125 0 L 1.359375 0 Z M 10.171875 -1.625 L 10.171875 -11.34375 L 2.96875 -11.34375 L 2.96875 -1.625 Z M 10.171875 -1.625 "/>
</g>
<g id="glyph-4-1">
<path d="M 6.078125 -1.875 C 6.710938 -1.875 7.226562 -1.941406 7.625 -2.078125 C 8.382812 -2.347656 8.765625 -2.851562 8.765625 -3.59375 C 8.765625 -4.019531 8.578125 -4.347656 8.203125 -4.578125 C 7.828125 -4.804688 7.238281 -5.007812 6.4375 -5.1875 L 5.0625 -5.5 C 3.71875 -5.800781 2.785156 -6.128906 2.265625 -6.484375 C 1.390625 -7.085938 0.953125 -8.023438 0.953125 -9.296875 C 0.953125 -10.453125 1.375 -11.410156 2.21875 -12.171875 C 3.0625 -12.941406 4.300781 -13.328125 5.9375 -13.328125 C 7.300781 -13.328125 8.460938 -12.960938 9.421875 -12.234375 C 10.390625 -11.515625 10.898438 -10.46875 10.953125 -9.09375 L 8.34375 -9.09375 C 8.300781 -9.875 7.960938 -10.429688 7.328125 -10.765625 C 6.910156 -10.972656 6.382812 -11.078125 5.75 -11.078125 C 5.0625 -11.078125 4.507812 -10.9375 4.09375 -10.65625 C 3.675781 -10.375 3.46875 -9.984375 3.46875 -9.484375 C 3.46875 -9.023438 3.671875 -8.679688 4.078125 -8.453125 C 4.335938 -8.296875 4.898438 -8.113281 5.765625 -7.90625 L 8 -7.375 C 8.976562 -7.132812 9.71875 -6.820312 10.21875 -6.4375 C 10.988281 -5.820312 11.375 -4.9375 11.375 -3.78125 C 11.375 -2.601562 10.921875 -1.625 10.015625 -0.84375 C 9.109375 -0.0625 7.828125 0.328125 6.171875 0.328125 C 4.484375 0.328125 3.15625 -0.0546875 2.1875 -0.828125 C 1.226562 -1.597656 0.75 -2.65625 0.75 -4 L 3.328125 -4 C 3.410156 -3.40625 3.570312 -2.960938 3.8125 -2.671875 C 4.25 -2.140625 5.003906 -1.875 6.078125 -1.875 Z M 6.078125 -1.875 "/>
</g>
<g id="glyph-4-2">
<path d="M 9.15625 -8.375 C 9.96875 -7.351562 10.375 -6.148438 10.375 -4.765625 C 10.375 -3.359375 9.96875 -2.15625 9.15625 -1.15625 C 8.351562 -0.164062 7.125 0.328125 5.46875 0.328125 C 3.820312 0.328125 2.59375 -0.164062 1.78125 -1.15625 C 0.976562 -2.15625 0.578125 -3.359375 0.578125 -4.765625 C 0.578125 -6.148438 0.976562 -7.347656 1.78125 -8.359375 C 2.59375 -9.378906 3.820312 -9.890625 5.46875 -9.890625 C 7.125 -9.890625 8.351562 -9.382812 9.15625 -8.375 Z M 5.46875 -7.765625 C 4.738281 -7.765625 4.175781 -7.503906 3.78125 -6.984375 C 3.382812 -6.472656 3.1875 -5.734375 3.1875 -4.765625 C 3.1875 -3.804688 3.382812 -3.066406 3.78125 -2.546875 C 4.175781 -2.023438 4.738281 -1.765625 5.46875 -1.765625 C 6.195312 -1.765625 6.757812 -2.023438 7.15625 -2.546875 C 7.550781 -3.066406 7.75 -3.804688 7.75 -4.765625 C 7.75 -5.734375 7.550781 -6.472656 7.15625 -6.984375 C 6.757812 -7.503906 6.195312 -7.765625 5.46875 -7.765625 Z M 5.46875 -7.765625 "/>
</g>
<g id="glyph-4-3">
<path d="M 5.984375 -7.265625 C 4.972656 -7.265625 4.296875 -6.9375 3.953125 -6.28125 C 3.765625 -5.914062 3.671875 -5.347656 3.671875 -4.578125 L 3.671875 0 L 1.140625 0 L 1.140625 -9.578125 L 3.53125 -9.578125 L 3.53125 -7.90625 C 3.914062 -8.550781 4.253906 -8.988281 4.546875 -9.21875 C 5.015625 -9.613281 5.625 -9.8125 6.375 -9.8125 C 6.414062 -9.8125 6.453125 -9.804688 6.484375 -9.796875 C 6.523438 -9.796875 6.597656 -9.796875 6.703125 -9.796875 L 6.703125 -7.21875 C 6.546875 -7.238281 6.40625 -7.25 6.28125 -7.25 C 6.15625 -7.257812 6.054688 -7.265625 5.984375 -7.265625 Z M 5.984375 -7.265625 "/>
</g>
<g id="glyph-4-4">
<path d="M 5.5625 -1.78125 L 5.5625 0.09375 L 4.375 0.125 C 3.1875 0.164062 2.375 -0.0351562 1.9375 -0.484375 C 1.65625 -0.773438 1.515625 -1.21875 1.515625 -1.8125 L 1.515625 -7.703125 L 0.1875 -7.703125 L 0.1875 -9.5 L 1.515625 -9.5 L 1.515625 -12.171875 L 4 -12.171875 L 4 -9.5 L 5.5625 -9.5 L 5.5625 -7.703125 L 4 -7.703125 L 4 -2.640625 C 4 -2.253906 4.046875 -2.007812 4.140625 -1.90625 C 4.242188 -1.8125 4.550781 -1.765625 5.0625 -1.765625 C 5.132812 -1.765625 5.210938 -1.765625 5.296875 -1.765625 C 5.390625 -1.773438 5.476562 -1.78125 5.5625 -1.78125 Z M 5.5625 -1.78125 "/>
</g>
<g id="glyph-4-5">
<path d="M 9.375 -2.8125 C 9.300781 -2.238281 9.003906 -1.660156 8.484375 -1.078125 C 7.660156 -0.148438 6.507812 0.3125 5.03125 0.3125 C 3.8125 0.3125 2.734375 -0.078125 1.796875 -0.859375 C 0.867188 -1.648438 0.40625 -2.925781 0.40625 -4.6875 C 0.40625 -6.351562 0.828125 -7.625 1.671875 -8.5 C 2.515625 -9.382812 3.609375 -9.828125 4.953125 -9.828125 C 5.742188 -9.828125 6.457031 -9.675781 7.09375 -9.375 C 7.738281 -9.082031 8.269531 -8.613281 8.6875 -7.96875 C 9.0625 -7.40625 9.300781 -6.75 9.40625 -6 C 9.476562 -5.550781 9.507812 -4.914062 9.5 -4.09375 L 2.9375 -4.09375 C 2.96875 -3.132812 3.269531 -2.460938 3.84375 -2.078125 C 4.1875 -1.835938 4.601562 -1.71875 5.09375 -1.71875 C 5.601562 -1.71875 6.019531 -1.863281 6.34375 -2.15625 C 6.519531 -2.3125 6.675781 -2.53125 6.8125 -2.8125 Z M 6.890625 -5.75 C 6.847656 -6.40625 6.644531 -6.90625 6.28125 -7.25 C 5.925781 -7.59375 5.484375 -7.765625 4.953125 -7.765625 C 4.367188 -7.765625 3.914062 -7.582031 3.59375 -7.21875 C 3.28125 -6.863281 3.082031 -6.375 3 -5.75 Z M 6.890625 -5.75 "/>
</g>
<g id="glyph-4-6">
<path d="M 9.890625 -12.9375 L 9.890625 0 L 7.453125 0 L 7.453125 -1.328125 C 7.097656 -0.753906 6.691406 -0.335938 6.234375 -0.078125 C 5.773438 0.171875 5.207031 0.296875 4.53125 0.296875 C 3.40625 0.296875 2.457031 -0.15625 1.6875 -1.0625 C 0.925781 -1.96875 0.546875 -3.128906 0.546875 -4.546875 C 0.546875 -6.179688 0.921875 -7.46875 1.671875 -8.40625 C 2.429688 -9.34375 3.441406 -9.8125 4.703125 -9.8125 C 5.285156 -9.8125 5.800781 -9.679688 6.25 -9.421875 C 6.695312 -9.171875 7.0625 -8.820312 7.34375 -8.375 L 7.34375 -12.9375 Z M 3.140625 -4.734375 C 3.140625 -3.847656 3.316406 -3.140625 3.671875 -2.609375 C 4.015625 -2.078125 4.539062 -1.8125 5.25 -1.8125 C 5.957031 -1.8125 6.492188 -2.070312 6.859375 -2.59375 C 7.234375 -3.125 7.421875 -3.8125 7.421875 -4.65625 C 7.421875 -5.820312 7.125 -6.65625 6.53125 -7.15625 C 6.164062 -7.46875 5.742188 -7.625 5.265625 -7.625 C 4.535156 -7.625 4 -7.34375 3.65625 -6.78125 C 3.3125 -6.226562 3.140625 -5.546875 3.140625 -4.734375 Z M 3.140625 -4.734375 "/>
</g>
<g id="glyph-4-7">
</g>
<g id="glyph-4-8">
<path d="M 6.375 0.25 C 5.582031 0.25 4.945312 0.0898438 4.46875 -0.21875 C 4.175781 -0.40625 3.863281 -0.734375 3.53125 -1.203125 L 3.53125 0 L 1.078125 0 L 1.078125 -12.9375 L 3.578125 -12.9375 L 3.578125 -8.328125 C 3.890625 -8.773438 4.238281 -9.117188 4.625 -9.359375 C 5.070312 -9.648438 5.644531 -9.796875 6.34375 -9.796875 C 7.601562 -9.796875 8.585938 -9.335938 9.296875 -8.421875 C 10.015625 -7.515625 10.375 -6.34375 10.375 -4.90625 C 10.375 -3.425781 10.019531 -2.195312 9.3125 -1.21875 C 8.613281 -0.238281 7.632812 0.25 6.375 0.25 Z M 7.75 -4.65625 C 7.75 -5.332031 7.660156 -5.894531 7.484375 -6.34375 C 7.148438 -7.1875 6.535156 -7.609375 5.640625 -7.609375 C 4.722656 -7.609375 4.097656 -7.191406 3.765625 -6.359375 C 3.585938 -5.921875 3.5 -5.351562 3.5 -4.65625 C 3.5 -3.832031 3.679688 -3.148438 4.046875 -2.609375 C 4.410156 -2.078125 4.960938 -1.8125 5.703125 -1.8125 C 6.347656 -1.8125 6.847656 -2.070312 7.203125 -2.59375 C 7.566406 -3.113281 7.75 -3.800781 7.75 -4.65625 Z M 7.75 -4.65625 "/>
</g>
<g id="glyph-4-9">
<path d="M 1.53125 -8.546875 C 2.1875 -9.390625 3.320312 -9.8125 4.9375 -9.8125 C 5.988281 -9.8125 6.921875 -9.601562 7.734375 -9.1875 C 8.546875 -8.769531 8.953125 -7.984375 8.953125 -6.828125 L 8.953125 -2.4375 C 8.953125 -2.132812 8.957031 -1.765625 8.96875 -1.328125 C 8.988281 -0.992188 9.039062 -0.769531 9.125 -0.65625 C 9.207031 -0.539062 9.332031 -0.445312 9.5 -0.375 L 9.5 0 L 6.765625 0 C 6.691406 -0.195312 6.640625 -0.378906 6.609375 -0.546875 C 6.578125 -0.710938 6.554688 -0.90625 6.546875 -1.125 C 6.191406 -0.75 5.789062 -0.429688 5.34375 -0.171875 C 4.800781 0.136719 4.191406 0.296875 3.515625 0.296875 C 2.648438 0.296875 1.929688 0.0507812 1.359375 -0.4375 C 0.796875 -0.9375 0.515625 -1.640625 0.515625 -2.546875 C 0.515625 -3.722656 0.96875 -4.578125 1.875 -5.109375 C 2.375 -5.390625 3.109375 -5.59375 4.078125 -5.71875 L 4.9375 -5.828125 C 5.394531 -5.890625 5.722656 -5.960938 5.921875 -6.046875 C 6.273438 -6.203125 6.453125 -6.441406 6.453125 -6.765625 C 6.453125 -7.148438 6.316406 -7.414062 6.046875 -7.5625 C 5.773438 -7.71875 5.378906 -7.796875 4.859375 -7.796875 C 4.265625 -7.796875 3.84375 -7.648438 3.59375 -7.359375 C 3.414062 -7.140625 3.300781 -6.847656 3.25 -6.484375 L 0.828125 -6.484375 C 0.878906 -7.316406 1.113281 -8.003906 1.53125 -8.546875 Z M 3.390625 -1.8125 C 3.628906 -1.613281 3.914062 -1.515625 4.25 -1.515625 C 4.789062 -1.515625 5.285156 -1.671875 5.734375 -1.984375 C 6.191406 -2.304688 6.429688 -2.890625 6.453125 -3.734375 L 6.453125 -4.65625 C 6.296875 -4.5625 6.132812 -4.484375 5.96875 -4.421875 C 5.8125 -4.359375 5.59375 -4.300781 5.3125 -4.25 L 4.75 -4.140625 C 4.21875 -4.046875 3.835938 -3.929688 3.609375 -3.796875 C 3.222656 -3.566406 3.03125 -3.210938 3.03125 -2.734375 C 3.03125 -2.304688 3.148438 -2 3.390625 -1.8125 Z M 3.390625 -1.8125 "/>
</g>
<g id="glyph-4-10">
<path d="M 9.453125 -6.140625 L 6.890625 -6.140625 C 6.847656 -6.503906 6.726562 -6.828125 6.53125 -7.109375 C 6.25 -7.492188 5.8125 -7.6875 5.21875 -7.6875 C 4.375 -7.6875 3.796875 -7.269531 3.484375 -6.4375 C 3.328125 -5.988281 3.25 -5.394531 3.25 -4.65625 C 3.25 -3.957031 3.328125 -3.394531 3.484375 -2.96875 C 3.785156 -2.164062 4.347656 -1.765625 5.171875 -1.765625 C 5.765625 -1.765625 6.179688 -1.921875 6.421875 -2.234375 C 6.671875 -2.554688 6.820312 -2.96875 6.875 -3.46875 L 9.4375 -3.46875 C 9.375 -2.707031 9.097656 -1.988281 8.609375 -1.3125 C 7.816406 -0.21875 6.648438 0.328125 5.109375 0.328125 C 3.566406 0.328125 2.429688 -0.125 1.703125 -1.03125 C 0.984375 -1.945312 0.625 -3.132812 0.625 -4.59375 C 0.625 -6.238281 1.023438 -7.519531 1.828125 -8.4375 C 2.628906 -9.351562 3.738281 -9.8125 5.15625 -9.8125 C 6.351562 -9.8125 7.332031 -9.539062 8.09375 -9 C 8.863281 -8.457031 9.316406 -7.503906 9.453125 -6.140625 Z M 9.453125 -6.140625 "/>
</g>
<g id="glyph-4-11">
<path d="M 9.828125 -5.625 L 9.828125 0 L 7.265625 0 L 7.265625 -5.828125 C 7.265625 -6.335938 7.175781 -6.753906 7 -7.078125 C 6.769531 -7.523438 6.335938 -7.75 5.703125 -7.75 C 5.046875 -7.75 4.546875 -7.523438 4.203125 -7.078125 C 3.859375 -6.640625 3.6875 -6.007812 3.6875 -5.1875 L 3.6875 0 L 1.1875 0 L 1.1875 -12.90625 L 3.6875 -12.90625 L 3.6875 -8.328125 C 4.050781 -8.890625 4.46875 -9.28125 4.9375 -9.5 C 5.414062 -9.71875 5.921875 -9.828125 6.453125 -9.828125 C 7.046875 -9.828125 7.582031 -9.722656 8.0625 -9.515625 C 8.550781 -9.316406 8.945312 -9.003906 9.25 -8.578125 C 9.519531 -8.222656 9.679688 -7.851562 9.734375 -7.46875 C 9.796875 -7.09375 9.828125 -6.476562 9.828125 -5.625 Z M 9.828125 -5.625 "/>
</g>
<g id="glyph-5-0">
<path d="M 1.203125 -11.515625 L 10.484375 -11.515625 L 10.484375 0 L 1.203125 0 Z M 9.046875 -1.4375 L 9.046875 -10.078125 L 2.640625 -10.078125 L 2.640625 -1.4375 Z M 9.046875 -1.4375 "/>
</g>
<g id="glyph-5-1">
<path d="M 6.109375 -4.140625 L 3.671875 -4.140625 L 3.671875 0 L 1.28125 0 L 1.28125 -11.515625 L 6.296875 -11.515625 C 7.453125 -11.515625 8.375 -11.21875 9.0625 -10.625 C 9.75 -10.03125 10.09375 -9.113281 10.09375 -7.875 C 10.09375 -6.507812 9.75 -5.546875 9.0625 -4.984375 C 8.375 -4.421875 7.390625 -4.140625 6.109375 -4.140625 Z M 7.234375 -6.546875 C 7.546875 -6.816406 7.703125 -7.253906 7.703125 -7.859375 C 7.703125 -8.453125 7.546875 -8.875 7.234375 -9.125 C 6.921875 -9.382812 6.476562 -9.515625 5.90625 -9.515625 L 3.671875 -9.515625 L 3.671875 -6.125 L 5.90625 -6.125 C 6.476562 -6.125 6.921875 -6.265625 7.234375 -6.546875 Z M 7.234375 -6.546875 "/>
</g>
<g id="glyph-5-2">
<path d="M 3.328125 -8.515625 L 3.328125 0 L 1.078125 0 L 1.078125 -8.515625 Z M 3.328125 -11.59375 L 3.328125 -9.53125 L 1.078125 -9.53125 L 1.078125 -11.59375 Z M 3.328125 -11.59375 "/>
</g>
<g id="glyph-5-3">
<path d="M 8.328125 -2.5 C 8.273438 -2 8.015625 -1.488281 7.546875 -0.96875 C 6.816406 -0.132812 5.796875 0.28125 4.484375 0.28125 C 3.398438 0.28125 2.441406 -0.0664062 1.609375 -0.765625 C 0.785156 -1.460938 0.375 -2.597656 0.375 -4.171875 C 0.375 -5.648438 0.742188 -6.78125 1.484375 -7.5625 C 2.234375 -8.351562 3.207031 -8.75 4.40625 -8.75 C 5.113281 -8.75 5.75 -8.613281 6.3125 -8.34375 C 6.882812 -8.082031 7.351562 -7.664062 7.71875 -7.09375 C 8.050781 -6.582031 8.269531 -5.992188 8.375 -5.328125 C 8.425781 -4.941406 8.445312 -4.378906 8.4375 -3.640625 L 2.609375 -3.640625 C 2.640625 -2.785156 2.910156 -2.1875 3.421875 -1.84375 C 3.722656 -1.632812 4.09375 -1.53125 4.53125 -1.53125 C 4.988281 -1.53125 5.359375 -1.660156 5.640625 -1.921875 C 5.796875 -2.054688 5.9375 -2.25 6.0625 -2.5 Z M 6.125 -5.109375 C 6.09375 -5.703125 5.914062 -6.148438 5.59375 -6.453125 C 5.269531 -6.753906 4.875 -6.90625 4.40625 -6.90625 C 3.882812 -6.90625 3.484375 -6.742188 3.203125 -6.421875 C 2.921875 -6.097656 2.742188 -5.660156 2.671875 -5.109375 Z M 6.125 -5.109375 "/>
</g>
<g id="glyph-5-4">
</g>
<g id="glyph-5-5">
<path d="M 8.40625 -5.46875 L 6.125 -5.46875 C 6.082031 -5.78125 5.976562 -6.066406 5.8125 -6.328125 C 5.5625 -6.671875 5.171875 -6.84375 4.640625 -6.84375 C 3.890625 -6.84375 3.378906 -6.46875 3.109375 -5.71875 C 2.960938 -5.320312 2.890625 -4.796875 2.890625 -4.140625 C 2.890625 -3.515625 2.960938 -3.015625 3.109375 -2.640625 C 3.367188 -1.929688 3.867188 -1.578125 4.609375 -1.578125 C 5.128906 -1.578125 5.5 -1.71875 5.71875 -2 C 5.9375 -2.28125 6.066406 -2.644531 6.109375 -3.09375 L 8.390625 -3.09375 C 8.335938 -2.414062 8.09375 -1.773438 7.65625 -1.171875 C 6.957031 -0.191406 5.921875 0.296875 4.546875 0.296875 C 3.179688 0.296875 2.175781 -0.109375 1.53125 -0.921875 C 0.882812 -1.734375 0.5625 -2.789062 0.5625 -4.09375 C 0.5625 -5.550781 0.914062 -6.6875 1.625 -7.5 C 2.34375 -8.3125 3.328125 -8.71875 4.578125 -8.71875 C 5.648438 -8.71875 6.523438 -8.476562 7.203125 -8 C 7.878906 -7.519531 8.28125 -6.675781 8.40625 -5.46875 Z M 8.40625 -5.46875 "/>
</g>
<g id="glyph-5-6">
<path d="M 8.734375 -5 L 8.734375 0 L 6.46875 0 L 6.46875 -5.1875 C 6.46875 -5.644531 6.390625 -6.015625 6.234375 -6.296875 C 6.023438 -6.691406 5.640625 -6.890625 5.078125 -6.890625 C 4.484375 -6.890625 4.035156 -6.691406 3.734375 -6.296875 C 3.429688 -5.898438 3.28125 -5.335938 3.28125 -4.609375 L 3.28125 0 L 1.0625 0 L 1.0625 -11.484375 L 3.28125 -11.484375 L 3.28125 -7.40625 C 3.601562 -7.90625 3.972656 -8.25 4.390625 -8.4375 C 4.816406 -8.632812 5.265625 -8.734375 5.734375 -8.734375 C 6.265625 -8.734375 6.742188 -8.640625 7.171875 -8.453125 C 7.597656 -8.273438 7.953125 -8 8.234375 -7.625 C 8.460938 -7.3125 8.601562 -6.984375 8.65625 -6.640625 C 8.707031 -6.304688 8.734375 -5.757812 8.734375 -5 Z M 8.734375 -5 "/>
</g>
<g id="glyph-5-7">
<path d="M 1.359375 -7.59375 C 1.953125 -8.34375 2.960938 -8.71875 4.390625 -8.71875 C 5.328125 -8.71875 6.15625 -8.535156 6.875 -8.171875 C 7.601562 -7.796875 7.96875 -7.097656 7.96875 -6.078125 L 7.96875 -2.171875 C 7.96875 -1.898438 7.972656 -1.570312 7.984375 -1.1875 C 7.992188 -0.894531 8.035156 -0.695312 8.109375 -0.59375 C 8.179688 -0.488281 8.289062 -0.398438 8.4375 -0.328125 L 8.4375 0 L 6.015625 0 C 5.953125 -0.175781 5.90625 -0.335938 5.875 -0.484375 C 5.851562 -0.640625 5.832031 -0.8125 5.8125 -1 C 5.507812 -0.664062 5.15625 -0.382812 4.75 -0.15625 C 4.269531 0.121094 3.726562 0.265625 3.125 0.265625 C 2.351562 0.265625 1.71875 0.0429688 1.21875 -0.390625 C 0.71875 -0.835938 0.46875 -1.460938 0.46875 -2.265625 C 0.46875 -3.316406 0.867188 -4.078125 1.671875 -4.546875 C 2.117188 -4.796875 2.769531 -4.976562 3.625 -5.09375 L 4.390625 -5.1875 C 4.796875 -5.238281 5.085938 -5.300781 5.265625 -5.375 C 5.585938 -5.507812 5.75 -5.722656 5.75 -6.015625 C 5.75 -6.359375 5.625 -6.597656 5.375 -6.734375 C 5.132812 -6.867188 4.78125 -6.9375 4.3125 -6.9375 C 3.789062 -6.9375 3.421875 -6.804688 3.203125 -6.546875 C 3.046875 -6.347656 2.941406 -6.085938 2.890625 -5.765625 L 0.734375 -5.765625 C 0.785156 -6.503906 0.992188 -7.113281 1.359375 -7.59375 Z M 3.015625 -1.609375 C 3.222656 -1.441406 3.476562 -1.359375 3.78125 -1.359375 C 4.257812 -1.359375 4.703125 -1.5 5.109375 -1.78125 C 5.515625 -2.0625 5.722656 -2.570312 5.734375 -3.3125 L 5.734375 -4.140625 C 5.597656 -4.054688 5.457031 -3.984375 5.3125 -3.921875 C 5.164062 -3.867188 4.96875 -3.820312 4.71875 -3.78125 L 4.21875 -3.6875 C 3.75 -3.601562 3.414062 -3.5 3.21875 -3.375 C 2.875 -3.175781 2.703125 -2.863281 2.703125 -2.4375 C 2.703125 -2.050781 2.804688 -1.773438 3.015625 -1.609375 Z M 3.015625 -1.609375 "/>
</g>
<g id="glyph-5-8">
<path d="M 5.328125 -6.46875 C 4.429688 -6.46875 3.828125 -6.175781 3.515625 -5.59375 C 3.347656 -5.257812 3.265625 -4.753906 3.265625 -4.078125 L 3.265625 0 L 1.015625 0 L 1.015625 -8.515625 L 3.140625 -8.515625 L 3.140625 -7.03125 C 3.484375 -7.601562 3.785156 -7.992188 4.046875 -8.203125 C 4.460938 -8.546875 5.003906 -8.71875 5.671875 -8.71875 C 5.710938 -8.71875 5.742188 -8.71875 5.765625 -8.71875 C 5.796875 -8.71875 5.863281 -8.710938 5.96875 -8.703125 L 5.96875 -6.421875 C 5.820312 -6.441406 5.691406 -6.453125 5.578125 -6.453125 C 5.472656 -6.460938 5.390625 -6.46875 5.328125 -6.46875 Z M 5.328125 -6.46875 "/>
</g>
<g id="glyph-5-9">
<path d="M 4.9375 -1.59375 L 4.9375 0.078125 L 3.890625 0.125 C 2.835938 0.15625 2.117188 -0.03125 1.734375 -0.4375 C 1.484375 -0.6875 1.359375 -1.078125 1.359375 -1.609375 L 1.359375 -6.859375 L 0.171875 -6.859375 L 0.171875 -8.4375 L 1.359375 -8.4375 L 1.359375 -10.8125 L 3.5625 -10.8125 L 3.5625 -8.4375 L 4.9375 -8.4375 L 4.9375 -6.859375 L 3.5625 -6.859375 L 3.5625 -2.359375 C 3.5625 -2.003906 3.601562 -1.785156 3.6875 -1.703125 C 3.78125 -1.617188 4.050781 -1.578125 4.5 -1.578125 C 4.570312 -1.578125 4.644531 -1.578125 4.71875 -1.578125 C 4.789062 -1.578125 4.863281 -1.582031 4.9375 -1.59375 Z M 4.9375 -1.59375 "/>
</g>
<g id="glyph-5-10">
<path d="M 6.90625 -8.125 C 7.570312 -7.695312 7.957031 -6.960938 8.0625 -5.921875 L 5.828125 -5.921875 C 5.796875 -6.210938 5.71875 -6.441406 5.59375 -6.609375 C 5.34375 -6.910156 4.925781 -7.0625 4.34375 -7.0625 C 3.851562 -7.0625 3.503906 -6.984375 3.296875 -6.828125 C 3.097656 -6.679688 3 -6.503906 3 -6.296875 C 3 -6.046875 3.109375 -5.863281 3.328125 -5.75 C 3.546875 -5.625 4.316406 -5.414062 5.640625 -5.125 C 6.523438 -4.914062 7.191406 -4.601562 7.640625 -4.1875 C 8.078125 -3.757812 8.296875 -3.222656 8.296875 -2.578125 C 8.296875 -1.734375 7.976562 -1.039062 7.34375 -0.5 C 6.71875 0.0273438 5.75 0.296875 4.4375 0.296875 C 3.101562 0.296875 2.113281 0.0117188 1.46875 -0.546875 C 0.832031 -1.117188 0.515625 -1.84375 0.515625 -2.71875 L 2.78125 -2.71875 C 2.820312 -2.320312 2.921875 -2.039062 3.078125 -1.875 C 3.359375 -1.582031 3.867188 -1.4375 4.609375 -1.4375 C 5.046875 -1.4375 5.394531 -1.5 5.65625 -1.625 C 5.914062 -1.757812 6.046875 -1.957031 6.046875 -2.21875 C 6.046875 -2.46875 5.941406 -2.65625 5.734375 -2.78125 C 5.523438 -2.914062 4.75 -3.140625 3.40625 -3.453125 C 2.445312 -3.691406 1.769531 -3.992188 1.375 -4.359375 C 0.976562 -4.710938 0.78125 -5.222656 0.78125 -5.890625 C 0.78125 -6.671875 1.085938 -7.34375 1.703125 -7.90625 C 2.316406 -8.476562 3.1875 -8.765625 4.3125 -8.765625 C 5.375 -8.765625 6.238281 -8.550781 6.90625 -8.125 Z M 6.90625 -8.125 "/>
</g>
<g id="glyph-5-11">
<path d="M 5.046875 -6.875 C 4.296875 -6.875 3.78125 -6.550781 3.5 -5.90625 C 3.351562 -5.570312 3.28125 -5.140625 3.28125 -4.609375 L 3.28125 0 L 1.0625 0 L 1.0625 -8.5 L 3.203125 -8.5 L 3.203125 -7.265625 C 3.492188 -7.703125 3.765625 -8.015625 4.015625 -8.203125 C 4.472656 -8.546875 5.054688 -8.71875 5.765625 -8.71875 C 6.640625 -8.71875 7.359375 -8.488281 7.921875 -8.03125 C 8.484375 -7.570312 8.765625 -6.804688 8.765625 -5.734375 L 8.765625 0 L 6.484375 0 L 6.484375 -5.1875 C 6.484375 -5.632812 6.421875 -5.976562 6.296875 -6.21875 C 6.078125 -6.65625 5.660156 -6.875 5.046875 -6.875 Z M 5.046875 -6.875 "/>
</g>
<g id="glyph-5-12">
<path d="M 8.140625 -7.4375 C 8.859375 -6.539062 9.21875 -5.476562 9.21875 -4.25 C 9.21875 -3 8.859375 -1.925781 8.140625 -1.03125 C 7.421875 -0.144531 6.332031 0.296875 4.875 0.296875 C 3.40625 0.296875 2.3125 -0.144531 1.59375 -1.03125 C 0.875 -1.925781 0.515625 -3 0.515625 -4.25 C 0.515625 -5.476562 0.875 -6.539062 1.59375 -7.4375 C 2.3125 -8.34375 3.40625 -8.796875 4.875 -8.796875 C 6.332031 -8.796875 7.421875 -8.34375 8.140625 -7.4375 Z M 4.859375 -6.90625 C 4.210938 -6.90625 3.710938 -6.675781 3.359375 -6.21875 C 3.003906 -5.757812 2.828125 -5.101562 2.828125 -4.25 C 2.828125 -3.394531 3.003906 -2.734375 3.359375 -2.265625 C 3.710938 -1.804688 4.210938 -1.578125 4.859375 -1.578125 C 5.515625 -1.578125 6.015625 -1.804688 6.359375 -2.265625 C 6.710938 -2.734375 6.890625 -3.394531 6.890625 -4.25 C 6.890625 -5.101562 6.710938 -5.757812 6.359375 -6.21875 C 6.015625 -6.675781 5.515625 -6.90625 4.859375 -6.90625 Z M 4.859375 -6.90625 "/>
</g>
<g id="glyph-5-13">
<path d="M 8.796875 -11.5 L 8.796875 0 L 6.625 0 L 6.625 -1.1875 C 6.3125 -0.675781 5.953125 -0.304688 5.546875 -0.078125 C 5.140625 0.148438 4.632812 0.265625 4.03125 0.265625 C 3.03125 0.265625 2.191406 -0.132812 1.515625 -0.9375 C 0.835938 -1.75 0.5 -2.785156 0.5 -4.046875 C 0.5 -5.492188 0.832031 -6.632812 1.5 -7.46875 C 2.164062 -8.300781 3.0625 -8.71875 4.1875 -8.71875 C 4.695312 -8.71875 5.148438 -8.601562 5.546875 -8.375 C 5.953125 -8.15625 6.28125 -7.84375 6.53125 -7.4375 L 6.53125 -11.5 Z M 2.796875 -4.203125 C 2.796875 -3.421875 2.953125 -2.796875 3.265625 -2.328125 C 3.566406 -1.847656 4.035156 -1.609375 4.671875 -1.609375 C 5.296875 -1.609375 5.769531 -1.84375 6.09375 -2.3125 C 6.425781 -2.78125 6.59375 -3.390625 6.59375 -4.140625 C 6.59375 -5.179688 6.332031 -5.925781 5.8125 -6.375 C 5.488281 -6.644531 5.113281 -6.78125 4.6875 -6.78125 C 4.03125 -6.78125 3.550781 -6.53125 3.25 -6.03125 C 2.945312 -5.539062 2.796875 -4.929688 2.796875 -4.203125 Z M 2.796875 -4.203125 "/>
</g>
<g id="glyph-5-14">
<path d="M 3.453125 1.5 C 3.691406 1.695312 4.09375 1.796875 4.65625 1.796875 C 5.457031 1.796875 5.992188 1.53125 6.265625 1 C 6.441406 0.65625 6.53125 0.0703125 6.53125 -0.75 L 6.53125 -1.296875 C 6.320312 -0.929688 6.09375 -0.65625 5.84375 -0.46875 C 5.40625 -0.125 4.832031 0.046875 4.125 0.046875 C 3.03125 0.046875 2.15625 -0.335938 1.5 -1.109375 C 0.84375 -1.878906 0.515625 -2.921875 0.515625 -4.234375 C 0.515625 -5.503906 0.828125 -6.566406 1.453125 -7.421875 C 2.085938 -8.285156 2.984375 -8.71875 4.140625 -8.71875 C 4.566406 -8.71875 4.941406 -8.65625 5.265625 -8.53125 C 5.804688 -8.300781 6.242188 -7.890625 6.578125 -7.296875 L 6.578125 -8.515625 L 8.734375 -8.515625 L 8.734375 -0.4375 C 8.734375 0.664062 8.550781 1.492188 8.1875 2.046875 C 7.550781 3.003906 6.332031 3.484375 4.53125 3.484375 C 3.4375 3.484375 2.546875 3.269531 1.859375 2.84375 C 1.171875 2.414062 0.789062 1.78125 0.71875 0.9375 L 3.140625 0.9375 C 3.203125 1.195312 3.304688 1.382812 3.453125 1.5 Z M 3.078125 -2.90625 C 3.378906 -2.1875 3.921875 -1.828125 4.703125 -1.828125 C 5.222656 -1.828125 5.660156 -2.023438 6.015625 -2.421875 C 6.378906 -2.816406 6.5625 -3.441406 6.5625 -4.296875 C 6.5625 -5.109375 6.390625 -5.722656 6.046875 -6.140625 C 5.703125 -6.566406 5.242188 -6.78125 4.671875 -6.78125 C 3.890625 -6.78125 3.351562 -6.410156 3.0625 -5.671875 C 2.90625 -5.285156 2.828125 -4.804688 2.828125 -4.234375 C 2.828125 -3.734375 2.910156 -3.289062 3.078125 -2.90625 Z M 3.078125 -2.90625 "/>
</g>
<g id="glyph-5-15">
<path d="M 1.09375 -11.515625 L 3.3125 -11.515625 L 3.3125 0 L 1.09375 0 Z M 1.09375 -11.515625 "/>
</g>
<g id="glyph-5-16">
<path d="M 1 -2.328125 L 3.375 -2.328125 L 3.375 0 L 1 0 Z M 1 -2.328125 "/>
</g>
<g id="glyph-5-17">
<path d="M 6.484375 0 L 1.265625 0 L 1.265625 -11.515625 L 6.859375 -11.515625 C 8.265625 -11.492188 9.265625 -11.085938 9.859375 -10.296875 C 10.210938 -9.804688 10.390625 -9.21875 10.390625 -8.53125 C 10.390625 -7.832031 10.210938 -7.269531 9.859375 -6.84375 C 9.660156 -6.601562 9.367188 -6.382812 8.984375 -6.1875 C 9.566406 -5.96875 10.007812 -5.625 10.3125 -5.15625 C 10.613281 -4.695312 10.765625 -4.140625 10.765625 -3.484375 C 10.765625 -2.796875 10.59375 -2.179688 10.25 -1.640625 C 10.03125 -1.285156 9.753906 -0.984375 9.421875 -0.734375 C 9.054688 -0.453125 8.617188 -0.257812 8.109375 -0.15625 C 7.609375 -0.0507812 7.066406 0 6.484375 0 Z M 6.421875 -5.078125 L 3.5625 -5.078125 L 3.5625 -2 L 6.390625 -2 C 6.890625 -2 7.28125 -2.066406 7.5625 -2.203125 C 8.070312 -2.453125 8.328125 -2.929688 8.328125 -3.640625 C 8.328125 -4.242188 8.082031 -4.65625 7.59375 -4.875 C 7.3125 -5 6.921875 -5.066406 6.421875 -5.078125 Z M 7.625 -7.265625 C 7.9375 -7.453125 8.09375 -7.789062 8.09375 -8.28125 C 8.09375 -8.8125 7.882812 -9.164062 7.46875 -9.34375 C 7.101562 -9.457031 6.644531 -9.515625 6.09375 -9.515625 L 3.5625 -9.515625 L 3.5625 -6.984375 L 6.390625 -6.984375 C 6.890625 -6.984375 7.300781 -7.078125 7.625 -7.265625 Z M 7.625 -7.265625 "/>
</g>
<g id="glyph-5-18">
<path d="M 8.171875 -7.609375 C 8.859375 -6.867188 9.203125 -5.789062 9.203125 -4.375 C 9.203125 -2.875 8.863281 -1.726562 8.1875 -0.9375 C 7.519531 -0.144531 6.65625 0.25 5.59375 0.25 C 4.914062 0.25 4.351562 0.0742188 3.90625 -0.265625 C 3.65625 -0.453125 3.414062 -0.726562 3.1875 -1.09375 L 3.1875 3.359375 L 0.984375 3.359375 L 0.984375 -8.515625 L 3.109375 -8.515625 L 3.109375 -7.265625 C 3.347656 -7.628906 3.601562 -7.921875 3.875 -8.140625 C 4.375 -8.515625 4.960938 -8.703125 5.640625 -8.703125 C 6.640625 -8.703125 7.484375 -8.335938 8.171875 -7.609375 Z M 6.90625 -4.265625 C 6.90625 -4.921875 6.753906 -5.5 6.453125 -6 C 6.160156 -6.507812 5.675781 -6.765625 5 -6.765625 C 4.195312 -6.765625 3.644531 -6.378906 3.34375 -5.609375 C 3.1875 -5.203125 3.109375 -4.6875 3.109375 -4.0625 C 3.109375 -3.070312 3.367188 -2.378906 3.890625 -1.984375 C 4.203125 -1.742188 4.570312 -1.625 5 -1.625 C 5.625 -1.625 6.097656 -1.863281 6.421875 -2.34375 C 6.742188 -2.820312 6.90625 -3.460938 6.90625 -4.265625 Z M 6.90625 -4.265625 "/>
</g>
</g>
<clipPath id="clip-0">
<path clip-rule="nonzero" d="M 292.558594 53.914062 L 857.027344 53.914062 L 857.027344 353.027344 L 292.558594 353.027344 Z M 292.558594 53.914062 "/>
</clipPath>
<clipPath id="clip-1">
<path clip-rule="nonzero" d="M 313.808594 303 L 850.054688 303 L 850.054688 305 L 313.808594 305 Z M 313.808594 303 "/>
</clipPath>
<clipPath id="clip-2">
<path clip-rule="nonzero" d="M 313.808594 264 L 850.054688 264 L 850.054688 266 L 313.808594 266 Z M 313.808594 264 "/>
</clipPath>
<clipPath id="clip-3">
<path clip-rule="nonzero" d="M 313.808594 225 L 850.054688 225 L 850.054688 227 L 313.808594 227 Z M 313.808594 225 "/>
</clipPath>
<clipPath id="clip-4">
<path clip-rule="nonzero" d="M 313.808594 186 L 850.054688 186 L 850.054688 188 L 313.808594 188 Z M 313.808594 186 "/>
</clipPath>
<clipPath id="clip-5">
<path clip-rule="nonzero" d="M 313.808594 146 L 850.054688 146 L 850.054688 149 L 313.808594 149 Z M 313.808594 146 "/>
</clipPath>
<clipPath id="clip-6">
<path clip-rule="nonzero" d="M 313.808594 107 L 850.054688 107 L 850.054688 110 L 313.808594 110 Z M 313.808594 107 "/>
</clipPath>
<clipPath id="clip-7">
<path clip-rule="nonzero" d="M 313.808594 84.863281 L 315 84.863281 L 315 327.777344 L 313.808594 327.777344 Z M 313.808594 84.863281 "/>
</clipPath>
<clipPath id="clip-8">
<path clip-rule="nonzero" d="M 423 84.863281 L 426 84.863281 L 426 327.777344 L 423 327.777344 Z M 423 84.863281 "/>
</clipPath>
<clipPath id="clip-9">
<path clip-rule="nonzero" d="M 534 84.863281 L 537 84.863281 L 537 327.777344 L 534 327.777344 Z M 534 84.863281 "/>
</clipPath>
<clipPath id="clip-10">
<path clip-rule="nonzero" d="M 645 84.863281 L 647 84.863281 L 647 327.777344 L 645 327.777344 Z M 645 84.863281 "/>
</clipPath>
<clipPath id="clip-11">
<path clip-rule="nonzero" d="M 756 84.863281 L 758 84.863281 L 758 327.777344 L 756 327.777344 Z M 756 84.863281 "/>
</clipPath>
<clipPath id="clip-12">
<path clip-rule="nonzero" d="M 313.808594 94 L 802 94 L 802 123 L 313.808594 123 Z M 313.808594 94 "/>
</clipPath>
<clipPath id="clip-13">
<path clip-rule="nonzero" d="M 313.808594 133 L 713 133 L 713 162 L 313.808594 162 Z M 313.808594 133 "/>
</clipPath>
<clipPath id="clip-14">
<path clip-rule="nonzero" d="M 313.808594 173 L 691 173 L 691 201 L 313.808594 201 Z M 313.808594 173 "/>
</clipPath>
<clipPath id="clip-15">
<path clip-rule="nonzero" d="M 313.808594 212 L 669 212 L 669 240 L 313.808594 240 Z M 313.808594 212 "/>
</clipPath>
<clipPath id="clip-16">
<path clip-rule="nonzero" d="M 313.808594 251 L 625 251 L 625 279 L 313.808594 279 Z M 313.808594 251 "/>
</clipPath>
<clipPath id="clip-17">
<path clip-rule="nonzero" d="M 313.808594 290 L 602 290 L 602 318 L 313.808594 318 Z M 313.808594 290 "/>
</clipPath>
</defs>
<rect x="-86.4" y="-36" width="1036.8" height="432" fill="rgb(100%, 100%, 100%)" fill-opacity="1"/>
<rect x="-86.4" y="-36" width="1036.8" height="432" fill="rgb(100%, 100%, 100%)" fill-opacity="1"/>
<g clip-path="url(#clip-0)">
<path fill-rule="nonzero" fill="rgb(100%, 100%, 100%)" fill-opacity="1" d="M 292.558594 353.027344 L 857.027344 353.027344 L 857.027344 53.914062 L 292.558594 53.914062 Z M 292.558594 353.027344 "/>
</g>
<path fill-rule="nonzero" fill="rgb(40%, 76.078431%, 64.705882%)" fill-opacity="1" d="M 128.429688 206.320312 L 128.429688 109.152344 L 125.074219 109.210938 L 121.71875 109.386719 L 118.375 109.675781 L 115.042969 110.078125 L 111.726562 110.601562 L 108.429688 111.234375 L 105.15625 111.980469 L 101.910156 112.84375 L 98.695312 113.816406 L 95.515625 114.898438 L 92.378906 116.089844 L 89.28125 117.390625 L 86.234375 118.792969 L 83.234375 120.304688 L 80.289062 121.917969 L 77.402344 123.632812 L 74.574219 125.445312 L 71.8125 127.351562 L 69.117188 129.355469 L 66.496094 131.453125 L 63.945312 133.636719 L 61.472656 135.90625 L 59.078125 138.261719 L 56.769531 140.699219 L 54.546875 143.214844 L 52.410156 145.804688 L 50.363281 148.46875 L 48.410156 151.199219 L 46.554688 153.996094 L 44.796875 156.859375 L 43.136719 159.777344 L 41.582031 162.75 L 40.125 165.777344 L 38.777344 168.851562 L 37.539062 171.972656 L 36.40625 175.132812 L 35.382812 178.332031 L 34.472656 181.5625 L 33.671875 184.824219 L 32.984375 188.113281 L 36.277344 188.738281 L 39.570312 189.367188 L 42.859375 189.996094 L 46.152344 190.625 L 49.441406 191.25 L 52.734375 191.878906 L 56.023438 192.507812 L 59.316406 193.132812 L 62.605469 193.761719 L 65.898438 194.390625 L 69.1875 195.019531 L 72.480469 195.644531 L 75.773438 196.273438 L 79.0625 196.902344 L 82.355469 197.527344 L 85.644531 198.15625 L 88.9375 198.785156 L 92.226562 199.414062 L 95.519531 200.039062 L 98.808594 200.667969 L 102.101562 201.296875 L 105.390625 201.925781 L 108.683594 202.550781 L 111.976562 203.179688 L 115.265625 203.808594 L 118.558594 204.433594 L 121.847656 205.0625 L 125.140625 205.691406 Z M 128.429688 206.320312 "/>
<path fill-rule="nonzero" fill="rgb(98.823529%, 55.294118%, 38.431373%)" fill-opacity="1" d="M 128.429688 206.320312 L 125.140625 205.691406 L 121.847656 205.0625 L 118.558594 204.433594 L 115.265625 203.808594 L 111.976562 203.179688 L 108.683594 202.550781 L 105.390625 201.925781 L 102.101562 201.296875 L 98.808594 200.667969 L 95.519531 200.039062 L 92.226562 199.414062 L 88.9375 198.785156 L 85.644531 198.15625 L 82.355469 197.527344 L 79.0625 196.902344 L 75.773438 196.273438 L 72.480469 195.644531 L 69.1875 195.019531 L 65.898438 194.390625 L 62.605469 193.761719 L 59.316406 193.132812 L 56.023438 192.507812 L 52.734375 191.878906 L 49.441406 191.25 L 46.152344 190.625 L 42.859375 189.996094 L 39.570312 189.367188 L 36.277344 188.738281 L 32.984375 188.113281 L 32.417969 191.394531 L 31.964844 194.691406 L 31.621094 198.003906 L 31.394531 201.324219 L 31.28125 204.652344 L 31.28125 207.984375 L 31.394531 211.3125 L 31.621094 214.632812 L 31.964844 217.945312 L 32.417969 221.246094 L 32.984375 224.527344 L 33.667969 227.785156 L 34.457031 231.019531 L 35.359375 234.226562 L 36.371094 237.398438 L 37.488281 240.535156 L 38.714844 243.628906 L 40.046875 246.683594 L 41.480469 249.6875 L 43.019531 252.640625 L 44.65625 255.542969 L 46.390625 258.382812 L 48.222656 261.164062 L 50.148438 263.878906 L 52.167969 266.527344 L 54.277344 269.105469 L 56.472656 271.609375 L 58.75 274.039062 L 61.113281 276.386719 L 63.550781 278.652344 L 66.070312 280.832031 L 68.660156 282.925781 L 71.320312 284.925781 L 73.289062 282.21875 L 83.132812 268.664062 L 85.105469 265.953125 L 94.949219 252.398438 L 96.921875 249.6875 L 98.890625 246.976562 L 100.859375 244.269531 L 106.765625 236.136719 L 108.738281 233.425781 L 118.582031 219.871094 L 120.554688 217.160156 L 124.492188 211.738281 L 126.460938 209.03125 Z M 128.429688 206.320312 "/>
<path fill-rule="nonzero" fill="rgb(55.294118%, 62.745098%, 79.607843%)" fill-opacity="1" d="M 128.429688 206.320312 L 126.460938 209.03125 L 124.492188 211.738281 L 120.554688 217.160156 L 118.582031 219.871094 L 108.738281 233.425781 L 106.765625 236.136719 L 100.859375 244.269531 L 98.890625 246.976562 L 96.921875 249.6875 L 94.949219 252.398438 L 85.105469 265.953125 L 83.132812 268.664062 L 73.289062 282.21875 L 71.320312 284.925781 L 74.058594 286.847656 L 76.867188 288.671875 L 79.734375 290.402344 L 82.660156 292.027344 L 85.640625 293.554688 L 88.671875 294.976562 L 91.75 296.292969 L 94.871094 297.503906 L 98.03125 298.605469 L 101.226562 299.597656 L 104.457031 300.480469 L 107.714844 301.25 L 111 301.90625 L 114.300781 302.453125 L 117.621094 302.882812 L 120.953125 303.195312 L 124.296875 303.394531 L 127.644531 303.480469 L 130.992188 303.449219 L 134.335938 303.304688 L 137.671875 303.042969 L 141 302.667969 L 144.3125 302.179688 L 147.605469 301.574219 L 150.875 300.855469 L 154.117188 300.027344 L 157.332031 299.085938 L 160.507812 298.035156 L 163.648438 296.875 L 166.75 295.609375 L 169.800781 294.238281 L 168.375 291.207031 L 166.949219 288.171875 L 165.523438 285.140625 L 164.09375 282.109375 L 158.390625 269.984375 L 156.960938 266.953125 L 155.535156 263.921875 L 154.109375 260.886719 L 151.257812 254.824219 L 149.828125 251.792969 L 144.125 239.667969 L 142.695312 236.636719 L 141.269531 233.605469 L 139.84375 230.570312 L 136.992188 224.507812 L 135.5625 221.476562 L 129.859375 209.351562 Z M 128.429688 206.320312 "/>
<path fill-rule="nonzero" fill="rgb(90.588235%, 54.117647%, 76.470588%)" fill-opacity="1" d="M 128.429688 206.320312 L 129.859375 209.351562 L 135.5625 221.476562 L 136.992188 224.507812 L 139.84375 230.570312 L 141.269531 233.605469 L 142.695312 236.636719 L 144.125 239.667969 L 149.828125 251.792969 L 151.257812 254.824219 L 154.109375 260.886719 L 155.535156 263.921875 L 156.960938 266.953125 L 158.390625 269.984375 L 164.09375 282.109375 L 165.523438 285.140625 L 166.949219 288.171875 L 168.375 291.207031 L 169.800781 294.238281 L 172.824219 292.75 L 175.792969 291.160156 L 178.707031 289.46875 L 181.558594 287.675781 L 184.34375 285.785156 L 187.066406 283.800781 L 189.714844 281.71875 L 192.292969 279.550781 L 194.792969 277.292969 L 197.210938 274.949219 L 199.550781 272.527344 L 201.800781 270.019531 L 203.964844 267.441406 L 206.039062 264.785156 L 208.019531 262.058594 L 209.902344 259.269531 L 211.6875 256.414062 L 213.375 253.496094 L 214.957031 250.523438 L 216.4375 247.5 L 217.8125 244.425781 L 219.078125 241.304688 L 220.238281 238.140625 L 221.285156 234.941406 L 222.222656 231.703125 L 223.046875 228.4375 L 223.753906 225.144531 L 224.351562 221.832031 L 224.832031 218.496094 L 221.507812 218.078125 L 218.183594 217.65625 L 214.859375 217.238281 L 211.535156 216.816406 L 208.210938 216.398438 L 204.886719 215.976562 L 201.5625 215.558594 L 198.238281 215.136719 L 194.914062 214.71875 L 191.589844 214.296875 L 188.265625 213.878906 L 184.941406 213.457031 L 181.617188 213.039062 L 178.292969 212.617188 L 174.96875 212.199219 L 171.644531 211.777344 L 168.320312 211.359375 L 164.996094 210.9375 L 161.671875 210.519531 L 158.347656 210.097656 L 155.023438 209.679688 L 151.699219 209.257812 L 148.375 208.839844 L 145.050781 208.417969 L 141.726562 208 L 138.402344 207.578125 L 135.078125 207.160156 L 131.753906 206.738281 Z M 128.429688 206.320312 "/>
<path fill-rule="nonzero" fill="rgb(65.098039%, 84.705882%, 32.941176%)" fill-opacity="1" d="M 128.429688 206.320312 L 131.753906 206.738281 L 135.078125 207.160156 L 138.402344 207.578125 L 141.726562 208 L 145.050781 208.417969 L 148.375 208.839844 L 151.699219 209.257812 L 155.023438 209.679688 L 158.347656 210.097656 L 161.671875 210.519531 L 164.996094 210.9375 L 168.320312 211.359375 L 171.644531 211.777344 L 174.96875 212.199219 L 178.292969 212.617188 L 181.617188 213.039062 L 184.941406 213.457031 L 188.265625 213.878906 L 191.589844 214.296875 L 194.914062 214.71875 L 198.238281 215.136719 L 201.5625 215.558594 L 204.886719 215.976562 L 208.210938 216.398438 L 211.535156 216.816406 L 214.859375 217.238281 L 218.183594 217.65625 L 221.507812 218.078125 L 224.832031 218.496094 L 225.1875 215.230469 L 225.433594 211.949219 L 225.566406 208.667969 L 225.59375 205.378906 L 225.503906 202.09375 L 225.304688 198.8125 L 224.996094 195.539062 L 224.578125 192.28125 L 224.046875 189.035156 L 223.40625 185.8125 L 222.660156 182.609375 L 221.804688 179.4375 L 220.839844 176.292969 L 219.773438 173.183594 L 218.597656 170.113281 L 217.324219 167.085938 L 215.945312 164.101562 L 214.464844 161.164062 L 212.890625 158.277344 L 211.21875 155.449219 L 209.449219 152.679688 L 207.589844 149.96875 L 205.636719 147.324219 L 203.597656 144.746094 L 201.472656 142.238281 L 199.261719 139.804688 L 196.820312 142.097656 L 194.375 144.390625 L 191.933594 146.683594 L 189.492188 148.980469 L 187.050781 151.273438 L 184.605469 153.566406 L 177.28125 160.445312 L 174.835938 162.742188 L 167.511719 169.621094 L 165.066406 171.914062 L 162.625 174.207031 L 160.183594 176.503906 L 157.738281 178.796875 L 150.414062 185.675781 L 147.96875 187.96875 L 145.527344 190.261719 L 143.085938 192.558594 L 140.644531 194.851562 L 138.199219 197.144531 L 130.875 204.023438 Z M 128.429688 206.320312 "/>
<path fill-rule="nonzero" fill="rgb(100%, 85.098039%, 18.431373%)" fill-opacity="1" d="M 128.429688 206.320312 L 130.875 204.023438 L 138.199219 197.144531 L 140.644531 194.851562 L 143.085938 192.558594 L 145.527344 190.261719 L 147.96875 187.96875 L 150.414062 185.675781 L 157.738281 178.796875 L 160.183594 176.503906 L 162.625 174.207031 L 165.066406 171.914062 L 167.511719 169.621094 L 174.835938 162.742188 L 177.28125 160.445312 L 184.605469 153.566406 L 187.050781 151.273438 L 189.492188 148.980469 L 191.933594 146.683594 L 194.375 144.390625 L 196.820312 142.097656 L 199.261719 139.804688 L 196.957031 137.433594 L 194.574219 135.140625 L 192.113281 132.929688 L 189.578125 130.808594 L 186.972656 128.769531 L 184.300781 126.824219 L 181.5625 124.96875 L 178.765625 123.207031 L 175.90625 121.542969 L 172.996094 119.976562 L 170.03125 118.507812 L 167.019531 117.144531 L 163.964844 115.882812 L 160.867188 114.726562 L 157.730469 113.675781 L 154.5625 112.734375 L 151.359375 111.898438 L 148.136719 111.171875 L 144.886719 110.554688 L 141.617188 110.050781 L 138.335938 109.660156 L 135.039062 109.378906 L 131.738281 109.210938 L 128.429688 109.152344 Z M 128.429688 206.320312 "/>
<g fill="rgb(0%, 0%, 0%)" fill-opacity="1">
<use xlink:href="#glyph-0-1" x="255.558594" y="156.272461"/>
<use xlink:href="#glyph-0-2" x="263.558594" y="156.272461"/>
<use xlink:href="#glyph-0-3" x="268.558594" y="156.272461"/>
<use xlink:href="#glyph-0-4" x="276.558594" y="156.272461"/>
<use xlink:href="#glyph-0-5" x="284.558594" y="156.272461"/>
</g>
<path fill-rule="nonzero" fill="rgb(40%, 76.078431%, 64.705882%)" fill-opacity="1" d="M 256.460938 181.84375 L 271.9375 181.84375 L 271.9375 166.367188 L 256.460938 166.367188 Z M 256.460938 181.84375 "/>
<path fill-rule="nonzero" fill="rgb(98.823529%, 55.294118%, 38.431373%)" fill-opacity="1" d="M 256.460938 199.125 L 271.9375 199.125 L 271.9375 183.648438 L 256.460938 183.648438 Z M 256.460938 199.125 "/>
<path fill-rule="nonzero" fill="rgb(55.294118%, 62.745098%, 79.607843%)" fill-opacity="1" d="M 256.460938 216.402344 L 271.9375 216.402344 L 271.9375 200.925781 L 256.460938 200.925781 Z M 256.460938 216.402344 "/>
<path fill-rule="nonzero" fill="rgb(90.588235%, 54.117647%, 76.470588%)" fill-opacity="1" d="M 256.460938 233.683594 L 271.9375 233.683594 L 271.9375 218.207031 L 256.460938 218.207031 Z M 256.460938 233.683594 "/>
<path fill-rule="nonzero" fill="rgb(65.098039%, 84.705882%, 32.941176%)" fill-opacity="1" d="M 256.460938 250.964844 L 271.9375 250.964844 L 271.9375 235.488281 L 256.460938 235.488281 Z M 256.460938 250.964844 "/>
<path fill-rule="nonzero" fill="rgb(100%, 85.098039%, 18.431373%)" fill-opacity="1" d="M 256.460938 268.242188 L 271.9375 268.242188 L 271.9375 252.765625 L 256.460938 252.765625 Z M 256.460938 268.242188 "/>
<g fill="rgb(0%, 0%, 0%)" fill-opacity="1">
<use xlink:href="#glyph-1-1" x="279.8125" y="178.229492"/>
</g>
<g fill="rgb(0%, 0%, 0%)" fill-opacity="1">
<use xlink:href="#glyph-1-2" x="279.8125" y="195.510742"/>
</g>
<g fill="rgb(0%, 0%, 0%)" fill-opacity="1">
<use xlink:href="#glyph-1-3" x="279.8125" y="212.788086"/>
</g>
<g fill="rgb(0%, 0%, 0%)" fill-opacity="1">
<use xlink:href="#glyph-1-4" x="279.8125" y="230.069336"/>
</g>
<g fill="rgb(0%, 0%, 0%)" fill-opacity="1">
<use xlink:href="#glyph-1-5" x="279.8125" y="247.350586"/>
</g>
<g fill="rgb(0%, 0%, 0%)" fill-opacity="1">
<use xlink:href="#glyph-1-6" x="279.8125" y="264.62793"/>
</g>
<g fill="rgb(0%, 0%, 0%)" fill-opacity="1">
<use xlink:href="#glyph-2-1" x="92.929688" y="80.799805"/>
<use xlink:href="#glyph-2-2" x="103.929688" y="80.799805"/>
<use xlink:href="#glyph-2-3" x="108.929688" y="80.799805"/>
<use xlink:href="#glyph-2-4" x="117.929688" y="80.799805"/>
<use xlink:href="#glyph-2-5" x="122.929688" y="80.799805"/>
<use xlink:href="#glyph-2-6" x="131.929688" y="80.799805"/>
<use xlink:href="#glyph-2-7" x="141.929688" y="80.799805"/>
<use xlink:href="#glyph-2-8" x="150.929688" y="80.799805"/>
<use xlink:href="#glyph-2-9" x="157.929688" y="80.799805"/>
</g>
<g clip-path="url(#clip-1)">
<path fill="none" stroke-width="1.357972" stroke-linecap="butt" stroke-linejoin="round" stroke="rgb(92.156863%, 92.156863%, 92.156863%)" stroke-opacity="1" stroke-miterlimit="10" d="M 313.808594 304.269531 L 850.050781 304.269531 "/>
</g>
<g clip-path="url(#clip-2)">
<path fill="none" stroke-width="1.357972" stroke-linecap="butt" stroke-linejoin="round" stroke="rgb(92.156863%, 92.156863%, 92.156863%)" stroke-opacity="1" stroke-miterlimit="10" d="M 313.808594 265.089844 L 850.050781 265.089844 "/>
</g>
<g clip-path="url(#clip-3)">
<path fill="none" stroke-width="1.357972" stroke-linecap="butt" stroke-linejoin="round" stroke="rgb(92.156863%, 92.156863%, 92.156863%)" stroke-opacity="1" stroke-miterlimit="10" d="M 313.808594 225.910156 L 850.050781 225.910156 "/>
</g>
<g clip-path="url(#clip-4)">
<path fill="none" stroke-width="1.357972" stroke-linecap="butt" stroke-linejoin="round" stroke="rgb(92.156863%, 92.156863%, 92.156863%)" stroke-opacity="1" stroke-miterlimit="10" d="M 313.808594 186.730469 L 850.050781 186.730469 "/>
</g>
<g clip-path="url(#clip-5)">
<path fill="none" stroke-width="1.357972" stroke-linecap="butt" stroke-linejoin="round" stroke="rgb(92.156863%, 92.156863%, 92.156863%)" stroke-opacity="1" stroke-miterlimit="10" d="M 313.808594 147.550781 L 850.050781 147.550781 "/>
</g>
<g clip-path="url(#clip-6)">
<path fill="none" stroke-width="1.357972" stroke-linecap="butt" stroke-linejoin="round" stroke="rgb(92.156863%, 92.156863%, 92.156863%)" stroke-opacity="1" stroke-miterlimit="10" d="M 313.808594 108.371094 L 850.050781 108.371094 "/>
</g>
<g clip-path="url(#clip-7)">
<path fill="none" stroke-width="1.357972" stroke-linecap="butt" stroke-linejoin="round" stroke="rgb(92.156863%, 92.156863%, 92.156863%)" stroke-opacity="1" stroke-miterlimit="10" d="M 313.808594 327.777344 L 313.808594 84.863281 "/>
</g>
<g clip-path="url(#clip-8)">
<path fill="none" stroke-width="1.357972" stroke-linecap="butt" stroke-linejoin="round" stroke="rgb(92.156863%, 92.156863%, 92.156863%)" stroke-opacity="1" stroke-miterlimit="10" d="M 424.601562 327.777344 L 424.601562 84.863281 "/>
</g>
<g clip-path="url(#clip-9)">
<path fill="none" stroke-width="1.357972" stroke-linecap="butt" stroke-linejoin="round" stroke="rgb(92.156863%, 92.156863%, 92.156863%)" stroke-opacity="1" stroke-miterlimit="10" d="M 535.394531 327.777344 L 535.394531 84.863281 "/>
</g>
<g clip-path="url(#clip-10)">
<path fill="none" stroke-width="1.357972" stroke-linecap="butt" stroke-linejoin="round" stroke="rgb(92.156863%, 92.156863%, 92.156863%)" stroke-opacity="1" stroke-miterlimit="10" d="M 646.191406 327.777344 L 646.191406 84.863281 "/>
</g>
<g clip-path="url(#clip-11)">
<path fill="none" stroke-width="1.357972" stroke-linecap="butt" stroke-linejoin="round" stroke="rgb(92.156863%, 92.156863%, 92.156863%)" stroke-opacity="1" stroke-miterlimit="10" d="M 756.984375 327.777344 L 756.984375 84.863281 "/>
</g>
<g clip-path="url(#clip-12)">
<path fill-rule="nonzero" fill="rgb(27.45098%, 50.980392%, 70.588235%)" fill-opacity="1" d="M 313.808594 122.082031 L 801.304688 122.082031 L 801.304688 94.65625 L 313.808594 94.65625 Z M 313.808594 122.082031 "/>
</g>
<g clip-path="url(#clip-13)">
<path fill-rule="nonzero" fill="rgb(27.45098%, 50.980392%, 70.588235%)" fill-opacity="1" d="M 313.808594 161.261719 L 712.667969 161.261719 L 712.667969 133.835938 L 313.808594 133.835938 Z M 313.808594 161.261719 "/>
</g>
<g clip-path="url(#clip-14)">
<path fill-rule="nonzero" fill="rgb(27.45098%, 50.980392%, 70.588235%)" fill-opacity="1" d="M 313.808594 200.441406 L 690.507812 200.441406 L 690.507812 173.015625 L 313.808594 173.015625 Z M 313.808594 200.441406 "/>
</g>
<g clip-path="url(#clip-15)">
<path fill-rule="nonzero" fill="rgb(27.45098%, 50.980392%, 70.588235%)" fill-opacity="1" d="M 313.808594 239.621094 L 668.351562 239.621094 L 668.351562 212.195312 L 313.808594 212.195312 Z M 313.808594 239.621094 "/>
</g>
<g clip-path="url(#clip-16)">
<path fill-rule="nonzero" fill="rgb(27.45098%, 50.980392%, 70.588235%)" fill-opacity="1" d="M 313.808594 278.800781 L 624.03125 278.800781 L 624.03125 251.375 L 313.808594 251.375 Z M 313.808594 278.800781 "/>
</g>
<g clip-path="url(#clip-17)">
<path fill-rule="nonzero" fill="rgb(27.45098%, 50.980392%, 70.588235%)" fill-opacity="1" d="M 313.808594 317.980469 L 601.875 317.980469 L 601.875 290.554688 L 313.808594 290.554688 Z M 313.808594 317.980469 "/>
</g>
<g fill="rgb(0%, 0%, 0%)" fill-opacity="1">
<use xlink:href="#glyph-3-1" x="806.105469" y="113.651367"/>
<use xlink:href="#glyph-3-1" x="814.105469" y="113.651367"/>
</g>
<g fill="rgb(0%, 0%, 0%)" fill-opacity="1">
<use xlink:href="#glyph-3-2" x="717.46875" y="152.831055"/>
<use xlink:href="#glyph-3-3" x="725.46875" y="152.831055"/>
</g>
<g fill="rgb(0%, 0%, 0%)" fill-opacity="1">
<use xlink:href="#glyph-3-2" x="695.308594" y="192.010742"/>
<use xlink:href="#glyph-3-4" x="703.308594" y="192.010742"/>
</g>
<g fill="rgb(0%, 0%, 0%)" fill-opacity="1">
<use xlink:href="#glyph-3-2" x="673.148438" y="231.19043"/>
<use xlink:href="#glyph-3-5" x="681.148438" y="231.19043"/>
</g>
<g fill="rgb(0%, 0%, 0%)" fill-opacity="1">
<use xlink:href="#glyph-3-2" x="628.832031" y="270.370117"/>
<use xlink:href="#glyph-3-6" x="636.832031" y="270.370117"/>
</g>
<g fill="rgb(0%, 0%, 0%)" fill-opacity="1">
<use xlink:href="#glyph-3-2" x="606.671875" y="309.549805"/>
<use xlink:href="#glyph-3-7" x="614.671875" y="309.549805"/>
</g>
<g fill="rgb(30.196078%, 30.196078%, 30.196078%)" fill-opacity="1">
<use xlink:href="#glyph-1-6" x="300.53125" y="308.393555"/>
</g>
<g fill="rgb(30.196078%, 30.196078%, 30.196078%)" fill-opacity="1">
<use xlink:href="#glyph-1-5" x="300.53125" y="269.213867"/>
</g>
<g fill="rgb(30.196078%, 30.196078%, 30.196078%)" fill-opacity="1">
<use xlink:href="#glyph-1-4" x="299.53125" y="230.03418"/>
</g>
<g fill="rgb(30.196078%, 30.196078%, 30.196078%)" fill-opacity="1">
<use xlink:href="#glyph-1-3" x="299.53125" y="190.854492"/>
</g>
<g fill="rgb(30.196078%, 30.196078%, 30.196078%)" fill-opacity="1">
<use xlink:href="#glyph-1-2" x="300.53125" y="151.674805"/>
</g>
<g fill="rgb(30.196078%, 30.196078%, 30.196078%)" fill-opacity="1">
<use xlink:href="#glyph-1-1" x="300.53125" y="112.495117"/>
</g>
<g fill="rgb(30.196078%, 30.196078%, 30.196078%)" fill-opacity="1">
<use xlink:href="#glyph-1-7" x="310.808594" y="342.674805"/>
</g>
<g fill="rgb(30.196078%, 30.196078%, 30.196078%)" fill-opacity="1">
<use xlink:href="#glyph-1-8" x="421.601562" y="342.674805"/>
</g>
<g fill="rgb(30.196078%, 30.196078%, 30.196078%)" fill-opacity="1">
<use xlink:href="#glyph-1-9" x="529.394531" y="342.674805"/>
<use xlink:href="#glyph-1-7" x="535.394531" y="342.674805"/>
</g>
<g fill="rgb(30.196078%, 30.196078%, 30.196078%)" fill-opacity="1">
<use xlink:href="#glyph-1-9" x="640.191406" y="342.674805"/>
<use xlink:href="#glyph-1-8" x="646.191406" y="342.674805"/>
</g>
<g fill="rgb(30.196078%, 30.196078%, 30.196078%)" fill-opacity="1">
<use xlink:href="#glyph-1-10" x="750.984375" y="342.674805"/>
<use xlink:href="#glyph-1-7" x="756.984375" y="342.674805"/>
</g>
<g fill="rgb(10.196078%, 10.196078%, 18.039216%)" fill-opacity="1">
<use xlink:href="#glyph-4-1" x="299.53125" y="73.74707"/>
<use xlink:href="#glyph-4-2" x="311.53125" y="73.74707"/>
<use xlink:href="#glyph-4-3" x="322.53125" y="73.74707"/>
<use xlink:href="#glyph-4-4" x="329.53125" y="73.74707"/>
<use xlink:href="#glyph-4-5" x="335.53125" y="73.74707"/>
<use xlink:href="#glyph-4-6" x="345.53125" y="73.74707"/>
<use xlink:href="#glyph-4-7" x="356.53125" y="73.74707"/>
<use xlink:href="#glyph-4-8" x="361.53125" y="73.74707"/>
<use xlink:href="#glyph-4-9" x="372.53125" y="73.74707"/>
<use xlink:href="#glyph-4-3" x="382.53125" y="73.74707"/>
<use xlink:href="#glyph-4-7" x="389.53125" y="73.74707"/>
<use xlink:href="#glyph-4-10" x="394.53125" y="73.74707"/>
<use xlink:href="#glyph-4-11" x="404.53125" y="73.74707"/>
<use xlink:href="#glyph-4-9" x="415.53125" y="73.74707"/>
<use xlink:href="#glyph-4-3" x="425.53125" y="73.74707"/>
<use xlink:href="#glyph-4-4" x="432.53125" y="73.74707"/>
</g>
<g fill="rgb(40%, 40%, 40%)" fill-opacity="1">
<use xlink:href="#glyph-0-6" x="6.972656" y="37.737305"/>
<use xlink:href="#glyph-0-7" x="19.972656" y="37.737305"/>
<use xlink:href="#glyph-0-8" x="27.972656" y="37.737305"/>
<use xlink:href="#glyph-0-9" x="30.972656" y="37.737305"/>
<use xlink:href="#glyph-0-7" x="37.972656" y="37.737305"/>
<use xlink:href="#glyph-0-10" x="45.972656" y="37.737305"/>
<use xlink:href="#glyph-0-3" x="49.972656" y="37.737305"/>
<use xlink:href="#glyph-0-11" x="57.972656" y="37.737305"/>
<use xlink:href="#glyph-0-12" x="65.972656" y="37.737305"/>
<use xlink:href="#glyph-0-10" x="73.972656" y="37.737305"/>
<use xlink:href="#glyph-0-13" x="77.972656" y="37.737305"/>
<use xlink:href="#glyph-0-12" x="80.972656" y="37.737305"/>
<use xlink:href="#glyph-0-14" x="88.972656" y="37.737305"/>
<use xlink:href="#glyph-0-15" x="92.972656" y="37.737305"/>
<use xlink:href="#glyph-0-10" x="99.972656" y="37.737305"/>
<use xlink:href="#glyph-0-16" x="103.972656" y="37.737305"/>
<use xlink:href="#glyph-0-3" x="110.972656" y="37.737305"/>
<use xlink:href="#glyph-0-4" x="118.972656" y="37.737305"/>
<use xlink:href="#glyph-0-10" x="126.972656" y="37.737305"/>
<use xlink:href="#glyph-0-8" x="130.972656" y="37.737305"/>
<use xlink:href="#glyph-0-11" x="133.972656" y="37.737305"/>
<use xlink:href="#glyph-0-15" x="141.972656" y="37.737305"/>
<use xlink:href="#glyph-0-14" x="148.972656" y="37.737305"/>
<use xlink:href="#glyph-0-17" x="152.972656" y="37.737305"/>
<use xlink:href="#glyph-0-11" x="160.972656" y="37.737305"/>
<use xlink:href="#glyph-0-14" x="168.972656" y="37.737305"/>
<use xlink:href="#glyph-0-13" x="172.972656" y="37.737305"/>
<use xlink:href="#glyph-0-16" x="175.972656" y="37.737305"/>
<use xlink:href="#glyph-0-10" x="182.972656" y="37.737305"/>
<use xlink:href="#glyph-0-2" x="186.972656" y="37.737305"/>
<use xlink:href="#glyph-0-17" x="191.972656" y="37.737305"/>
<use xlink:href="#glyph-0-11" x="199.972656" y="37.737305"/>
<use xlink:href="#glyph-0-18" x="207.972656" y="37.737305"/>
<use xlink:href="#glyph-0-10" x="214.972656" y="37.737305"/>
<use xlink:href="#glyph-0-14" x="218.972656" y="37.737305"/>
<use xlink:href="#glyph-0-7" x="222.972656" y="37.737305"/>
<use xlink:href="#glyph-0-12" x="230.972656" y="37.737305"/>
<use xlink:href="#glyph-0-10" x="238.972656" y="37.737305"/>
<use xlink:href="#glyph-0-1" x="242.972656" y="37.737305"/>
<use xlink:href="#glyph-0-2" x="250.972656" y="37.737305"/>
<use xlink:href="#glyph-0-3" x="255.972656" y="37.737305"/>
<use xlink:href="#glyph-0-4" x="263.972656" y="37.737305"/>
<use xlink:href="#glyph-0-5" x="271.972656" y="37.737305"/>
<use xlink:href="#glyph-0-15" x="279.972656" y="37.737305"/>
<use xlink:href="#glyph-0-19" x="286.972656" y="37.737305"/>
</g>
<g fill="rgb(10.196078%, 10.196078%, 18.039216%)" fill-opacity="1">
<use xlink:href="#glyph-5-1" x="6.972656" y="18.292969"/>
<use xlink:href="#glyph-5-2" x="17.972656" y="18.292969"/>
<use xlink:href="#glyph-5-3" x="21.972656" y="18.292969"/>
<use xlink:href="#glyph-5-4" x="30.972656" y="18.292969"/>
<use xlink:href="#glyph-5-5" x="34.972656" y="18.292969"/>
<use xlink:href="#glyph-5-6" x="43.972656" y="18.292969"/>
<use xlink:href="#glyph-5-7" x="53.972656" y="18.292969"/>
<use xlink:href="#glyph-5-8" x="62.972656" y="18.292969"/>
<use xlink:href="#glyph-5-9" x="68.972656" y="18.292969"/>
<use xlink:href="#glyph-5-10" x="73.972656" y="18.292969"/>
<use xlink:href="#glyph-5-4" x="82.972656" y="18.292969"/>
<use xlink:href="#glyph-5-3" x="86.972656" y="18.292969"/>
<use xlink:href="#glyph-5-11" x="95.972656" y="18.292969"/>
<use xlink:href="#glyph-5-5" x="105.972656" y="18.292969"/>
<use xlink:href="#glyph-5-12" x="114.972656" y="18.292969"/>
<use xlink:href="#glyph-5-13" x="124.972656" y="18.292969"/>
<use xlink:href="#glyph-5-3" x="134.972656" y="18.292969"/>
<use xlink:href="#glyph-5-4" x="143.972656" y="18.292969"/>
<use xlink:href="#glyph-5-7" x="147.972656" y="18.292969"/>
<use xlink:href="#glyph-5-11" x="156.972656" y="18.292969"/>
<use xlink:href="#glyph-5-14" x="166.972656" y="18.292969"/>
<use xlink:href="#glyph-5-15" x="176.972656" y="18.292969"/>
<use xlink:href="#glyph-5-3" x="180.972656" y="18.292969"/>
<use xlink:href="#glyph-5-10" x="189.972656" y="18.292969"/>
<use xlink:href="#glyph-5-16" x="198.972656" y="18.292969"/>
<use xlink:href="#glyph-5-4" x="202.972656" y="18.292969"/>
<use xlink:href="#glyph-5-17" x="206.972656" y="18.292969"/>
<use xlink:href="#glyph-5-7" x="218.972656" y="18.292969"/>
<use xlink:href="#glyph-5-8" x="227.972656" y="18.292969"/>
<use xlink:href="#glyph-5-4" x="233.972656" y="18.292969"/>
<use xlink:href="#glyph-5-5" x="237.972656" y="18.292969"/>
<use xlink:href="#glyph-5-6" x="246.972656" y="18.292969"/>
<use xlink:href="#glyph-5-7" x="256.972656" y="18.292969"/>
<use xlink:href="#glyph-5-8" x="265.972656" y="18.292969"/>
<use xlink:href="#glyph-5-9" x="271.972656" y="18.292969"/>
<use xlink:href="#glyph-5-10" x="276.972656" y="18.292969"/>
<use xlink:href="#glyph-5-4" x="285.972656" y="18.292969"/>
<use xlink:href="#glyph-5-3" x="289.972656" y="18.292969"/>
<use xlink:href="#glyph-5-11" x="298.972656" y="18.292969"/>
<use xlink:href="#glyph-5-5" x="308.972656" y="18.292969"/>
<use xlink:href="#glyph-5-12" x="317.972656" y="18.292969"/>
<use xlink:href="#glyph-5-13" x="327.972656" y="18.292969"/>
<use xlink:href="#glyph-5-3" x="337.972656" y="18.292969"/>
<use xlink:href="#glyph-5-4" x="346.972656" y="18.292969"/>
<use xlink:href="#glyph-5-18" x="350.972656" y="18.292969"/>
<use xlink:href="#glyph-5-12" x="360.972656" y="18.292969"/>
<use xlink:href="#glyph-5-10" x="370.972656" y="18.292969"/>
<use xlink:href="#glyph-5-2" x="379.972656" y="18.292969"/>
<use xlink:href="#glyph-5-9" x="383.972656" y="18.292969"/>
<use xlink:href="#glyph-5-2" x="388.972656" y="18.292969"/>
<use xlink:href="#glyph-5-12" x="392.972656" y="18.292969"/>
<use xlink:href="#glyph-5-11" x="402.972656" y="18.292969"/>
<use xlink:href="#glyph-5-16" x="412.972656" y="18.292969"/>
</g>
</svg>
